<svg xmlns="http://www.w3.org/2000/svg" xmlns:xlink="http://www.w3.org/1999/xlink" width="615.143pt" height="158.728pt" version="1.2" viewBox="0 0 615.143 158.728"><defs><symbol id="a" overflow="visible"><path d="M1.59375-5.32812c0 1.85937.60938 3.40625 1.59375 4.23437 1.09375.95313 2.625 1.375 4.34375 1.375 1.375 0 2.89063-.32812 3.96875-.71875l.89063-3.78125c.15625-.64062.26562-.89062.57812-.9375l.8125-.07812.125-.53125h-4.9375l-.09375.53125 1.39063.125c.25.01562.375.14062.375.4375 0 .10937-.01563.25-.0625.45312l-.67188 2.82813C9.76563-.85937 9.53125-.375 7.57813-.375c-2.26563 0-3.92188-1.51562-3.92188-4.8125 0-2.98437 1.45313-7.39062 5.9375-7.39062 2.4375 0 3 1.26562 3 2.67187 0 .1875 0 .35938-.01562.53125h.54687l.67188-2.92187c-1.125-.60938-2.625-.9375-4.1875-.9375-2.85938 0-4.9375 1.04687-6.25 2.71875-1.23438 1.5625-1.76563 3.53125-1.76563 5.1875m0 0" style="stroke:none"/></symbol><symbol id="c" overflow="visible"><path d="M.79688-3.625C.79688-1.40625 2.5.07813 4.73438.21875L3.8125 4.51563 5.60938 4l.8125-3.78125c3.65625-.20312 6.23437-3.32812 6.23437-6.625 0-2.34375-1.45312-2.98437-3.15625-2.98437-1.57812 0-3.01562 1.875-3.5 3.9375-.39062 1.71875-.82812 3.54687-1.10937 4.9375-1.76563-.125-2.34375-1.07813-2.34375-2.45313 0-2 .57812-4.03125 2.17187-5.85937l.01563.03125c0-.15625-.07813-.4375-.17188-.4375l-.04687.04687C1.89063-7.79687.79688-5.96875.79688-3.625M6.5625-.45312l1.15625-5.3125c.25-1.20313.85938-2.96875 2-2.96875.89063 0 1.125.98437 1.125 2.04687 0 2.82813-1.125 6.15625-4.28125 6.23438m0 0" style="stroke:none"/></symbol><symbol id="d" overflow="visible"><path d="M1.96875-5.26562c0 3.46875.85938 7.51562 4.125 7.65625v-.46875C5 1.70312 3.26563.125 3.26563-5.26562c0-5.35938 1.64062-6.96875 2.82812-7.20313v-.45312c-3.26562.125-4.125 4.17187-4.125 7.65625m0 0" style="stroke:none"/></symbol><symbol id="e" overflow="visible"><path d="M.48438 1.92188v.46875c3.25-.14063 4.09375-4.1875 4.09375-7.65625 0-3.48438-.84375-7.53125-4.09375-7.65625v.45312c1.17187.23438 2.78125 1.84375 2.78125 7.20313 0 5.39062-1.6875 6.96875-2.78125 7.1875m0 0" style="stroke:none"/></symbol><symbol id="g" overflow="visible"><path d="M1.70313.28125h1.26562l3.9375-13.51562h-1.25Zm0 0" style="stroke:none"/></symbol><symbol id="k" overflow="visible"><path d="M.65625-.45312c0 .4375.57813.67187.85938.67187.98437 0 1.6875-1.23437 2.03125-2.0625.4375-1.09375 1.0625-3.45312 1.625-6.10937h2.34375L6.3125-2.3125c-.0625.40625-.10937.76563-.10937 1.0625 0 .95313.29687 1.46875.98437 1.46875 1.35938 0 2.40625-1.03125 3.0625-2.60937l-.4375-.25C9.32813-1.6875 8.57813-.73437 8.15625-.73437c-.21875 0-.28125-.21876-.28125-.5625 0-.1875.01563-.45313.0625-.6875l1.25-5.96875h1.64063l.75-1.4375c-.53125.14062-1.3125.20312-2.1875.20312h-5.3125c-.95313 0-2.26563.46875-2.98438 1.60938l.29688.34375c.75-.57813 1.73437-.71875 2.73437-.71875-.79687 3.28125-1.35937 6.25-2.42187 6.42187-.46875.07813-1.04688.35938-1.04688 1.07813m0 0" style="stroke:none"/></symbol><symbol id="b" overflow="visible"><path d="M1.42188 0H5.8125v-.40625L4.76563-.5c-.29688-.03125-.4375-.125-.4375-.60937v-7.71875L4.25-8.89062l-2.8125.46875v.34375l1.125.15625c.25.04687.32813.14062.32813.54687v6.26563c0 .46875-.09375.57812-.42188.60937l-1.04687.09375Zm0 0" style="stroke:none"/></symbol><symbol id="f" overflow="visible"><path d="M.375-.15625.53125 0H6.0625l.48438-1.85937-.39063-.07813c-.3125.70313-.54687.79688-1.07812.79688H1.73438c.21874-.625.90625-1.5 2.17187-2.35938C5.23438-4.39062 6.1875-5 6.1875-6.4375c0-1.8125-1.25-2.45312-2.6875-2.45312-1.78125 0-2.79687 1.03125-2.79687 1.8125 0 .48437.53125.70312.8125.70312.25 0 .375-.14062.4375-.39062.20312-.92188.6875-1.64063 1.45312-1.64063.92188 0 1.21875.79688 1.21875 1.73438 0 1.26562-.57812 2.10937-1.79687 3.15625C1.15625-2.07812.57813-1.125.375-.15625m0 0" style="stroke:none"/></symbol><symbol id="l" overflow="visible"><path d="M1.10938-3.73437c0 1.34375.4375 2.39062 1.125 2.98437C3-.09375 4.04688.1875 5.26563.1875c.95312 0 2.04687-.20312 2.84375-.54687l.625-2.5625c.10937-.45313.15625-.64063.40625-.67188l.57812-.04687.07813-.40625H6.1875l-.07812.40625.95312.07812c.17188.01563.26563.09375.26563.3125 0 .07813-.03125.1875-.0625.32813L6.8125-1c-.10937.42188-.26562.6875-1.5.6875-1.54687 0-2.5625-1.03125-2.5625-3.20312C2.75-5.65625 3.76563-8.75 6.73438-8.75c1.625 0 2 1 2.07812 2.26563h.42188l.45312-2.125c-.79687-.45313-1.875-.65625-2.92187-.65625-2.0625 0-3.53125.76562-4.42188 1.92187-.875 1.09375-1.23437 2.4375-1.23437 3.60938m0 0" style="stroke:none"/></symbol><symbol id="n" overflow="visible"><path d="M1.20313.1875h1l2.75-9.45312h-1Zm0 0" style="stroke:none"/></symbol><symbol id="r" overflow="visible"><path d="M1.3125-3.6875c0 2.4375.67188 5.26563 2.95313 5.35938v-.39063C3.48438 1.125 2.35938.0625 2.35938-3.6875c0-3.76562 1.09375-4.8125 1.90625-4.96875v-.39062C1.98438-8.95312 1.3125-6.125 1.3125-3.6875m0 0" style="stroke:none"/></symbol><symbol id="s" overflow="visible"><path d="M.5625-2.45312C.5625-.9375 1.65625.07813 3.34375.15625l-.625 3 1.45313-.35937.5625-2.64063C7.4375.01563 9.10938-2.125 9.10938-4.4375c0-1.64062-1.04688-2.125-2.21875-2.125-1.25 0-2.3125 1.21875-2.65625 2.75-.28125 1.1875-.57813 2.46875-.76563 3.42188-1.14062-.07813-1.57812-.76563-1.57812-1.71875 0-1.35938.48437-2.84375 1.5-4.03125l-.15625-.29688C1.34375-5.45312.5625-4.14062.5625-2.45312M4.84375-.35937l.79688-3.67188c.17187-.82812.59375-2.03125 1.34375-2.03125.57812 0 .75.625.75 1.3125 0 1.92188-.76563 4.32813-2.89063 4.39063m0 0" style="stroke:none"/></symbol><symbol id="t" overflow="visible"><path d="M.32813 1.28125v.39063C2.625 1.57812 3.26563-1.25 3.26563-3.6875S2.625-8.95312.32813-9.04687v.39062C1.15625-8.5 2.21875-7.4375 2.21875-3.6875c0 3.76563-1.125 4.8125-1.89062 4.96875m0 0" style="stroke:none"/></symbol><symbol id="h" overflow="visible"><path d="M.375 0h4.5625v-.53125C3.59375-.64062 3.54688-.67187 3.54688-1.625V-4.75h.03125c.78125 1.20313 2.09375 2.84375 3.0625 3.82813C7.34375-.21876 8.0625 0 8.65625.04688l1.40625.04687V-.4375c-.5625-.15625-1.03125-.42187-1.60937-1C7.29688-2.5625 5.84375-4.35937 5.125-5.375c-.09375-.14062-.125-.21875.04688-.40625.89062-1.04687 1.51562-1.57812 2.14062-2.0625C7.95313-8.3125 8.40625-8.51562 9.5-8.625v-.54687H7.57813c-.64063 0-.8125.10937-1.1875.5625-.54688.65625-2.375 2.95312-2.8125 3.59375h-.03125v-8.75l-.14063-.09375-2.92187.45312v.48438l.6875.04687c.48437.0625.59375.17188.59375.875v10.375c0 .95313-.03126.98438-1.39063 1.09375Zm0 0" style="stroke:none"/></symbol><symbol id="i" overflow="visible"><path d="M.92188-4.51562c0 2.96875 1.26562 4.73437 4.3125 4.73437 2.0625 0 3.14062-1.15625 3.64062-2.625l-.5625-.29687C7.79688-1.60937 7.07813-.73437 5.60938-.73437c-2.32813 0-2.78125-2.23438-2.75-4.17188H8.25c.40625 0 .73438-.10937.73438-.71875 0-1.09375-.35938-3.76562-3.76563-3.76562-2.9375 0-4.29687 2.07812-4.29687 4.875M2.89063-5.625c0-.78125.26562-3.10937 2.21875-3.10937 1.73437 0 1.9375 1.76562 1.9375 2.51562 0 .34375-.125.59375-.64063.59375Zm0 0" style="stroke:none"/></symbol><symbol id="j" overflow="visible"><path d="M.59375 0h4.9375v-.53125C3.85938-.64062 3.76563-.67187 3.76563-1.625V-6c0-1.4375.625-1.9375 1.0625-1.9375.29687 0 .625.125 1.15625.42188.14062.07812.28125.09375.375.09375.46875 0 .85937-.46875.85937-1.04688 0-.42187-.25-.92187-1-.92187-.67187 0-1.21875.40625-2.45312 1.5l-.21875-1.5-2.84375.48437v.45313l.6875.09375c.48437.07812.625.17187.625.84375V-1.625c0 .95313-.10938.98438-1.42188 1.09375Zm0 0" style="stroke:none"/></symbol><symbol id="m" overflow="visible"><path d="M1.10938 0h3.5v-.34375l-.78125-.0625C3.59375-.42187 3.48438-.5 3.48438-.875v-6.04687l-.07813-.0625-2.26562.375v.28125l.8125.125c.21874.03125.29687.125.29687.45312v4.875c0 .35938-.07812.45313-.34375.46875l-.79687.0625Zm0 0" style="stroke:none"/></symbol><symbol id="o" overflow="visible"><path d="M.26563 0h3.1875v-.375c-.9375-.07812-.96875-.09375-.96875-.76562v-2.1875H2.5c.54688.84375 1.46875 1.98437 2.15625 2.6875.48438.48437.98438.64062 1.40625.67187l.98438.03125v-.375C6.65625-.42187 6.32813-.59375 5.92188-1c-.8125-.79687-1.82813-2.04687-2.32813-2.76562-.07812-.09375-.09375-.14063.03125-.28125.625-.73438 1.04688-1.10938 1.5-1.4375.4375-.32813.76563-.46875 1.53125-.5625v-.375H5.29688c-.4375 0-.5625.07812-.82813.39062C4.09375-5.5625 2.8125-3.95312 2.5-3.51562h-.01562v-6.125l-.10938-.0625-2.04687.3125v.34375l.5.04687c.32812.03125.40625.10938.40625.60938v7.25c0 .67187-.01563.6875-.96875.76562Zm0 0" style="stroke:none"/></symbol><symbol id="p" overflow="visible"><path d="M.64063-3.15625c0 2.07813.89062 3.3125 3.01562 3.3125 1.45313 0 2.20313-.8125 2.54688-1.84375l-.39063-.20312c-.35937.76562-.85937 1.375-1.89062 1.375-1.625 0-1.9375-1.5625-1.92188-2.92188h3.78125c.28125 0 .51563-.07812.51563-.5 0-.76562-.25-2.64062-2.65625-2.64062-2.04688 0-3 1.45312-3 3.42187m1.375-.78125c0-.54687.20312-2.17187 1.5625-2.17187 1.21875 0 1.34375 1.23437 1.34375 1.75 0 .25-.07813.42187-.4375.42187Zm0 0" style="stroke:none"/></symbol><symbol id="q" overflow="visible"><path d="M.42188 0H3.875v-.375c-1.17187-.07812-1.25-.09375-1.25-.76562v-3.0625c0-1 .45313-1.35938.76563-1.35938.20312 0 .42187.09375.79687.29688.09375.0625.20313.07812.26563.07812.32812 0 .59375-.34375.59375-.75 0-.28125-.17188-.64062-.6875-.64062-.46875 0-.85938.28125-1.73438 1.04687l-.14062-1.04687-2 .34375v.3125l.48437.07812c.34375.04688.4375.10938.4375.57813v4.125c0 .67187-.0625.6875-.98437.76562Zm0 0" style="stroke:none"/></symbol></defs><use xlink:href="#a" x="84.80923" y="33.87096" style="fill:#000;fill-opacity:1"/><use xlink:href="#b" x="97.91877" y="38.24746" style="fill:#000;fill-opacity:1"/><use xlink:href="#c" x="315.38212" y="33.80108" style="fill:#000;fill-opacity:1"/><g style="fill:#000;fill-opacity:1"><use xlink:href="#d" x="329.2065" y="33.80108"/><use xlink:href="#a" x="335.7507" y="33.80108"/></g><use xlink:href="#b" x="348.85875" y="38.17758" style="fill:#000;fill-opacity:1"/><use xlink:href="#e" x="356.98682" y="33.80108" style="fill:#000;fill-opacity:1"/><use xlink:href="#a" x="586.32382" y="33.87096" style="fill:#000;fill-opacity:1"/><use xlink:href="#f" x="599.43136" y="38.24746" style="fill:#000;fill-opacity:1"/><use xlink:href="#a" x="174.62931" y="147.31156" style="fill:#000;fill-opacity:1"/><use xlink:href="#b" x="187.73685" y="151.68607" style="fill:#000;fill-opacity:1"/><use xlink:href="#g" x="195.86492" y="147.31156" style="fill:#000;fill-opacity:1"/><g style="fill:#000;fill-opacity:1"><use xlink:href="#h" x="206.68838" y="147.31156"/><use xlink:href="#i" x="216.47484" y="147.31156"/><use xlink:href="#j" x="226.08229" y="147.31156"/></g><g style="fill:#000;fill-opacity:1"><use xlink:href="#d" x="233.3427" y="147.31156"/><use xlink:href="#c" x="239.8869" y="147.31156"/></g><use xlink:href="#e" x="253.71128" y="147.31156" style="fill:#000;fill-opacity:1"/><path d="M17.67742.00023H212.8981" style="fill:none;stroke-width:.3985;stroke-linecap:butt;stroke-linejoin:miter;stroke:#000;stroke-opacity:1;stroke-miterlimit:10" transform="matrix(.99829 0 0 -.99829 95.42704 29.44554)"/><path d="M-2.0718 2.39104C-1.69223.95499-.85095.27804-.00184.00023c-.8491-.27782-1.69039-.95476-2.06994-2.3908" style="fill:none;stroke-width:.3985;stroke-linecap:round;stroke-linejoin:round;stroke:#000;stroke-opacity:1;stroke-miterlimit:10" transform="matrix(.99829 0 0 -.99829 308.1581 29.44554)"/><use xlink:href="#c" x="204.00996" y="16.01755" style="fill:#000;fill-opacity:1"/><path d="M-.00126-15.85502c0-47.45227 24.85111-97.53404 71.90035-97.53404" style="fill:none;stroke-width:.3985;stroke-linecap:butt;stroke-linejoin:miter;stroke:#000;stroke-opacity:1;stroke-miterlimit:10" transform="matrix(.99829 0 0 -.99829 95.42704 29.44554)"/><path d="M-2.07313 2.3929C-1.69358.95685-.84838.27992.00073-.00182c-.84911-.27782-1.6943-.95476-2.07386-2.3908" style="fill:none;stroke-width:.3985;stroke-linecap:round;stroke-linejoin:round;stroke:#000;stroke-opacity:1;stroke-miterlimit:10" transform="matrix(.99829 0 0 -.99829 164.93677 142.63881)"/><path d="M-2.07088 2.3929C-1.69524.95685-.85004.27992-.00093-.00182c-.84911-.27782-1.6943-.95476-2.06995-2.3908" style="fill:none;stroke-width:.3985;stroke-linecap:round;stroke-linejoin:round;stroke:#000;stroke-opacity:1;stroke-miterlimit:10" transform="matrix(.99829 0 0 -.99829 167.40328 142.63881)"/><use xlink:href="#k" x="6.72803" y="86.7733" style="fill:#000;fill-opacity:1"/><use xlink:href="#l" x="17.90688" y="91.14781" style="fill:#000;fill-opacity:1"/><use xlink:href="#m" x="27.22291" y="94.21255" style="fill:#000;fill-opacity:1"/><use xlink:href="#n" x="33.50614" y="91.14781" style="fill:#000;fill-opacity:1"/><g style="fill:#000;fill-opacity:1"><use xlink:href="#o" x="41.06719" y="91.14781"/><use xlink:href="#p" x="47.91772" y="91.14781"/><use xlink:href="#q" x="54.64293" y="91.14781"/></g><g style="fill:#000;fill-opacity:1"><use xlink:href="#r" x="59.72521" y="91.14781"/><use xlink:href="#s" x="64.30616" y="91.14781"/></g><use xlink:href="#t" x="73.98323" y="91.14781" style="fill:#000;fill-opacity:1"/><path d="M172.15262-113.38906c47.41705 0 72.29946 50.04655 72.29946 97.06449" style="fill:none;stroke-width:.3985;stroke-linecap:butt;stroke-linejoin:miter;stroke:#000;stroke-opacity:1;stroke-dasharray:2.98883,2.98883;stroke-miterlimit:10" transform="matrix(.99829 0 0 -.99829 95.42704 29.44554)"/><path d="M-2.07321 2.3929C-1.69366.95687-.84846.27993.00065-.0018c-.84911-.27782-1.6943-.95476-2.07386-2.39081" style="fill:none;stroke-width:.3985;stroke-linecap:round;stroke-linejoin:round;stroke:#000;stroke-opacity:1;stroke-miterlimit:10" transform="matrix(0 -.99829 -.99829 0 339.45913 45.54362)"/><path d="M-.00024-.0003h6.7146" style="fill:none;stroke-width:.548;stroke-linecap:butt;stroke-linejoin:miter;stroke:#000;stroke-opacity:1;stroke-miterlimit:10" transform="matrix(1.99658 0 0 -1.99658 353.2622 85.94472)"/><use xlink:href="#c" x="353.2622" y="99.16207" style="fill:#000;fill-opacity:1"/><path d="M277.59863.00023h206.70909" style="fill:none;stroke-width:.3985;stroke-linecap:butt;stroke-linejoin:miter;stroke:#000;stroke-opacity:1;stroke-miterlimit:10" transform="matrix(.99829 0 0 -.99829 95.42704 29.44554)"/><path d="M-.00047-.00023h.35999c.79433 0 1.43214-.79433 1.43214-1.43605A1.42783 1.42783 0 0 0 .35952-2.86842" style="fill:none;stroke-width:.3985;stroke-linecap:round;stroke-linejoin:miter;stroke:#000;stroke-opacity:1;stroke-miterlimit:10" transform="matrix(-.99829 0 0 .99829 372.55031 29.44554)"/><path d="M-2.0717 2.39104C-1.69213.95499-.85086.27804-.00175.00023c-.8491-.27782-1.69039-.95476-2.06995-2.3908" style="fill:none;stroke-width:.3985;stroke-linecap:round;stroke-linejoin:round;stroke:#000;stroke-opacity:1;stroke-miterlimit:10" transform="matrix(.99829 0 0 -.99829 579.1033 29.44554)"/></svg>