<svg xmlns="http://www.w3.org/2000/svg" xmlns:xlink="http://www.w3.org/1999/xlink" width="301.834pt" height="255.516pt" version="1.2" viewBox="0 0 301.834 255.516"><defs><symbol id="b" overflow="visible"><path d="M1.96875-5.26562c0 3.46875.85938 7.51562 4.125 7.65625v-.46875C5 1.70312 3.26563.125 3.26563-5.26562c0-5.35938 1.64062-6.96875 2.82812-7.20313v-.45312c-3.26562.125-4.125 4.17187-4.125 7.65625m0 0" style="stroke:none"/></symbol><symbol id="c" overflow="visible"><path d="M.78125-6.25C.78125-2.5 1.875.21875 4.95313.21875S9.15625-2.5 9.15625-6.25c0-3.73437-1.125-6.45312-4.20312-6.45312S.78125-9.98437.78125-6.25m1.89063 0c0-3.03125.51562-5.79687 2.28125-5.79687 1.76562 0 2.28125 2.76562 2.28125 5.79687 0 3.04688-.51563 5.8125-2.28125 5.8125-1.76563 0-2.28125-2.76562-2.28125-5.8125m0 0" style="stroke:none"/></symbol><symbol id="d" overflow="visible"><path d="m.95313 2.28125.35937.35938c.9375-.875 2.28125-2.125 2.28125-3.59375 0-1-.53125-1.6875-1.25-1.6875-.57812 0-.9375.45312-.9375.9375 0 .67187.625 1.03125.625 1.82812 0 .76563-.48437 1.5-1.07812 2.15625m0 0" style="stroke:none"/></symbol><symbol id="e" overflow="visible"><path d="M2.1875-1.25c0 .875.375 1.46875 1.4375 1.46875 1.78125 0 3.75-1.96875 4.875-4.14062h.03125l-.60937 2.125C7.8125-1.40625 7.75-1.09375 7.75-.8125c0 .65625.32813 1.03125 1.01563 1.03125 1.35937 0 2.46875-1.26562 3.125-2.67187l-.4375-.26563C11.07813-2.09375 10.25-.75 9.71875-.75c-.23437 0-.32812-.17187-.32812-.42187 0-.15626.03125-.35938.09375-.57813L11.5-9.39062l-1.67187.21875C9.28125-7.26562 8.96875-6.26562 8.5-5.125 7.67188-3.23437 6.04688-.75 4.5-.75c-.40625 0-.59375-.25-.59375-.73437 0-.25.03125-.54688.125-.90625l1.79688-6.89063-.09375-.10937-3.40625.51562-.125.46875L3.375-8.3125c.28125.01563.39063.14063.39063.35938 0 .14062-.04688.3125-.10938.53125l-1.29687 4.9375C2.25-2.04687 2.1875-1.625 2.1875-1.25m0 0" style="stroke:none"/></symbol><symbol id="f" overflow="visible"><path d="M.48438 1.92188v.46875c3.25-.14063 4.09375-4.1875 4.09375-7.65625 0-3.48438-.84375-7.53125-4.09375-7.65625v.45312c1.17187.23438 2.78125 1.84375 2.78125 7.20313 0 5.39062-1.6875 6.96875-2.78125 7.1875m0 0" style="stroke:none"/></symbol><symbol id="g" overflow="visible"><path d="M1.6875-5.26562c0 2.14062 1.57813 3.71875 3.75 3.71875 2.07813 0 3.65625-1.57813 3.65625-3.71875 0-2.09375-1.57812-3.67188-3.65625-3.67188-2.17187 0-3.75 1.57813-3.75 3.67188m0 0" style="stroke:none"/></symbol><symbol id="h" overflow="visible"><path d="M1.59375-4.73437H11.875v-1.09375H1.59375Zm0 0" style="stroke:none"/></symbol><symbol id="i" overflow="visible"><path d="m2.1875-8.40625 1.15625.09375c.28125.01563.35938.125.35938.34375 0 .125-.01563.3125-.07813.54688l-1.14062 5.1875c-.07813.35937-.125.65625-.125.9375 0 1.0625.5625 1.51562 1.42187 1.51562C5.39063.21875 7-1.26562 8.29688-3c1.26562-1.71875 2.17187-3.78125 2.1875-4.9375 0-.73437-.42188-1.45312-.57813-1.45312-.45312 0-.96875.15625-1.375.40625.1875.65625.23438 1.34375.23438 2.32812C8.60938-4.125 6.25-.75 4.71875-.75h-.04687c-.375 0-.65625-.26562-.65625-.79687 0-.14063.01562-.32813.0625-.5l1.625-7.23438-.09375-.10937L2.3125-8.875Zm0 0" style="stroke:none"/></symbol><symbol id="j" overflow="visible"><path d="M1.59375-4.73437H6.1875v4.59375h1.09375v-4.59375H11.875v-1.09375H7.28125v-4.59375H6.1875v4.59375H1.59375Zm0 0" style="stroke:none"/></symbol><clipPath id="a"><path d="M155 28h1v227.03125h-1Zm0 0"/></clipPath></defs><path d="M85.03932 170.08132-127.56185-42.51985m184.2546 212.60117V-45.35333" style="fill:none;stroke-width:.3985;stroke-linecap:butt;stroke-linejoin:miter;stroke:teal;stroke-opacity:1;stroke-miterlimit:10" transform="matrix(.9981 0 0 -.9981 155.4574 169.95507)"/><path d="M56.69275 56.69507-.00037.00195" style="fill:none;stroke-width:.3985;stroke-linecap:butt;stroke-linejoin:miter;stroke:#00adef;stroke-opacity:1;stroke-dasharray:2.98883,2.98883;stroke-miterlimit:10" transform="matrix(.9981 0 0 -.9981 155.4574 169.95507)"/><path d="M-141.73318.00195h283.46562" style="fill:none;stroke-width:.3985;stroke-linecap:butt;stroke-linejoin:miter;stroke:#000;stroke-opacity:1;stroke-miterlimit:10" transform="matrix(.9981 0 0 -.9981 155.4574 169.95507)"/><g clip-path="url(#a)"><path d="M-.00037-85.04165v226.7764" style="fill:none;stroke-width:.3985;stroke-linecap:butt;stroke-linejoin:miter;stroke:#000;stroke-opacity:1;stroke-miterlimit:10" transform="matrix(.9981 0 0 -.9981 155.4574 169.95507)"/></g><g style="fill:#000;fill-opacity:1"><use xlink:href="#b" x="105.15368" y="75.40617"/><use xlink:href="#c" x="111.69671" y="75.40617"/><use xlink:href="#d" x="121.60074" y="75.40617"/></g><use xlink:href="#e" x="128.76028" y="75.40617" style="fill:#000;fill-opacity:1"/><use xlink:href="#f" x="141.8861" y="75.40617" style="fill:#000;fill-opacity:1"/><use xlink:href="#g" x="150.07759" y="89.54139" style="fill:#000;fill-opacity:1"/><g style="fill:#000;fill-opacity:1"><use xlink:href="#b" x="6.83093" y="160.28439"/><use xlink:href="#h" x="13.37395" y="160.28439"/><use xlink:href="#e" x="26.81798" y="160.28439"/></g><use xlink:href="#d" x="39.9438" y="160.28439" style="fill:#000;fill-opacity:1"/><g style="fill:#000;fill-opacity:1"><use xlink:href="#c" x="47.10334" y="160.28439"/><use xlink:href="#f" x="57.00737" y="160.28439"/></g><use xlink:href="#g" x="65.19937" y="174.42061" style="fill:#000;fill-opacity:1"/><g style="fill:#000;fill-opacity:1"><use xlink:href="#b" x="219.06891" y="189.90828"/><use xlink:href="#i" x="225.61193" y="189.90828"/></g><use xlink:href="#d" x="237.32573" y="189.90828" style="fill:#000;fill-opacity:1"/><g style="fill:#000;fill-opacity:1"><use xlink:href="#c" x="244.48527" y="189.90828"/><use xlink:href="#f" x="254.3893" y="189.90828"/></g><use xlink:href="#g" x="206.66341" y="174.42061" style="fill:#000;fill-opacity:1"/><g style="fill:#000;fill-opacity:1"><use xlink:href="#b" x="219.06891" y="118.51052"/><use xlink:href="#i" x="225.61193" y="118.51052"/></g><use xlink:href="#d" x="237.32573" y="118.51052" style="fill:#000;fill-opacity:1"/><use xlink:href="#i" x="244.48527" y="118.51052" style="fill:#000;fill-opacity:1"/><use xlink:href="#f" x="256.19907" y="118.51052" style="fill:#000;fill-opacity:1"/><use xlink:href="#g" x="206.66341" y="117.8348" style="fill:#000;fill-opacity:1"/><g style="fill:teal;fill-opacity:1"><use xlink:href="#b" x="219.06891" y="33.63229"/><use xlink:href="#i" x="225.61193" y="33.63229"/></g><use xlink:href="#d" x="237.32573" y="33.63229" style="fill:teal;fill-opacity:1"/><use xlink:href="#e" x="244.48527" y="33.63229" style="fill:teal;fill-opacity:1"/><use xlink:href="#j" x="260.37547" y="33.63229" style="fill:teal;fill-opacity:1"/><use xlink:href="#i" x="276.56398" y="33.63229" style="fill:teal;fill-opacity:1"/><use xlink:href="#f" x="288.27778" y="33.63229" style="fill:teal;fill-opacity:1"/><use xlink:href="#g" x="206.66341" y="32.95558" style="fill:teal;fill-opacity:1"/></svg>