<svg xmlns="http://www.w3.org/2000/svg" xmlns:xlink="http://www.w3.org/1999/xlink" width="283.863pt" height="244.177pt" version="1.2" viewBox="0 0 283.863 244.177"><defs><symbol id="c" overflow="visible"><path d="M.39063 0h5.3125l.09375-.53125-1.28125-.125c-.32813-.01562-.46875-.15625-.46875-.45312 0-.125.03125-.26563.0625-.4375l.82812-3.67188h1.39063c1.59375 0 3.0625-.21875 4.14062-.875 1.1875-.73437 1.89063-2.01562 1.89063-3.40625 0-1.26562-.60938-2.23437-1.51563-2.75-.875-.5-2.0625-.65625-3.29687-.65625h-4.375l-.14063.53125 1.125.07813c.3125.03125.45313.1875.45313.5 0 .125-.01563.26562-.0625.4375l-2.25 9.8125c-.15625.64062-.3125.85937-.76563.89062L.5-.53125Zm4.8125-6.28125c0-.10937.01562-.23437.0625-.39062l1.125-4.95313c.125-.46875.25-.64062 1.20312-.64062 1.84375 0 2.79688.85937 2.79688 2.45312 0 2.65625-1.5 3.9375-4.01563 3.9375-.95312 0-1.17187-.10937-1.17187-.40625m0 0" style="stroke:none"/></symbol><symbol id="d" overflow="visible"><path d="M1.6875-5.26562c0 2.14062 1.5625 3.71875 3.73438 3.71875 2.07812 0 3.65625-1.57813 3.65625-3.71875 0-2.07813-1.57813-3.65625-3.65625-3.65625-2.17188 0-3.73438 1.57812-3.73438 3.65625m0 0" style="stroke:none"/></symbol><symbol id="e" overflow="visible"><path d="M1.59375-5.04687c0 2.78125 1.4375 4.875 4.42188 5.25.42187.76562 1.14062 1.6875 1.92187 2.35937.95313.79688 2.17188 1.23438 3.1875 1.23438.46875 0 1.0625-.125 1.39063-.29688l-.0625-.32812h-.0625c-1.20313 0-2.07813-.59375-2.95313-1.46875-.54687-.53125-1.01562-1.14063-1.23437-1.5 2.5625-.35938 3.90625-1.82813 4.8125-3.45313 1-1.82812 1.1875-3.73437 1.1875-4.46875 0-3.84375-2.32813-5.48437-5.40625-5.48437-2.98438 0-4.82813 1.64062-5.92188 3.4375-1.03125 1.71875-1.28125 3.48437-1.28125 4.71875m1.96875.75c0-1.5625.29688-3.3125 1.14063-5.10938.85937-1.78125 2.1875-3.14062 4.17187-3.14062 2.04688 0 3.35938 1.20312 3.35938 3.84375 0 1.07812-.09375 2.60937-.875 4.59375-.78125 2-2.04688 3.73437-4.46875 3.73437-2.03125 0-3.32813-1.3125-3.32813-3.92187m0 0" style="stroke:none"/></symbol><symbol id="f" overflow="visible"><path d="M1.96875-5.26562c0 3.48437.84375 7.51562 4.10938 7.65625v-.46875C4.98438 1.70312 3.25.125 3.25-5.26562c0-5.34375 1.65625-6.95313 2.82813-7.1875v-.45313c-3.26563.14063-4.10938 4.17188-4.10938 7.64063m0 0" style="stroke:none"/></symbol><symbol id="g" overflow="visible"><path d="M.78125-6.23437C.78125-2.5 1.85938.21875 4.9375.21875S9.14063-2.5 9.14063-6.23437s-1.125-6.45313-4.20313-6.45313S.78125-9.96875.78125-6.23437m1.875 0c0-3.04688.51563-5.79688 2.28125-5.79688 1.78125 0 2.29688 2.75 2.29688 5.79688 0 3.03125-.51563 5.79687-2.29688 5.79687-1.76562 0-2.28125-2.76562-2.28125-5.79687m0 0" style="stroke:none"/></symbol><symbol id="h" overflow="visible"><path d="m.95313 2.28125.35937.35938c.9375-.875 2.28125-2.125 2.28125-3.59375 0-1-.53125-1.6875-1.25-1.6875-.57812 0-.9375.45312-.9375.9375 0 .67187.625 1.03125.625 1.82812 0 .76563-.48437 1.5-1.07812 2.15625m0 0" style="stroke:none"/></symbol><symbol id="i" overflow="visible"><path d="M.48438 1.92188v.46875C3.73438 2.25 4.5625-1.78125 4.5625-5.26562c0-3.46875-.82812-7.5-4.07812-7.64063v.45313C1.64063-12.21875 3.25-10.60937 3.25-5.26562 3.25.125 1.5625 1.70313.48438 1.92188m0 0" style="stroke:none"/></symbol><symbol id="j" overflow="visible"><path d="M2.03125 0h6.125v-.53125l-1.5625-.14062c-.39062-.04688-.60937-.1875-.60937-.92188v-11L5.875-12.6875l-3.84375.65625v.45313l1.73438.21875c.32812.04687.4375.17187.4375.71875v9.04687c0 .35938-.03125.57813-.15625.71875-.09375.14063-.25.1875-.45313.20313l-1.5625.14062Zm0 0" style="stroke:none"/></symbol><symbol id="k" overflow="visible"><path d="M2.0625-5.26562c0 8.78125.73438 14.8125 4.51563 15.79687v-.54687c-2.54688-1.5625-3.01563-7.8125-3.01563-15.25 0-7.26563.40625-13.65625 3.01563-15.25v-.5625C2.9375-20.01562 2.0625-14.21875 2.0625-5.26562m0 0" style="stroke:none"/></symbol><symbol id="n" overflow="visible"><path d="M.67188 9.98438v.54687c3.78125-.98437 4.46875-7.01562 4.46875-15.79687 0-8.95313-.82813-14.75-4.46875-15.8125v.5625c2.60937 1.59374 3 7.98437 3 15.25 0 7.4375-.45313 13.6875-3 15.25m0 0" style="stroke:none"/></symbol><symbol id="l" overflow="visible"><path d="M.6875 3.15625 2.01563 3 2.75-.125c.28125.17188.71875.28125 1.39063.28125 3.1875 0 4.09375-3.96875 4.09375-5 0-1.10937-.5-1.71875-1.46875-1.71875-1.03125 0-2.28125.95313-3.28125 2.82813h-.03125L4.1875-6.5l-.0625-.0625-2.53125.35938-.07812.34375.8125.07812c.1875.01563.25.10938.25.26563 0 .09375-.01563.20312-.0625.34375Zm2.1875-3.875c.17188-.8125.54688-2.125 1.04688-3.01562.60937-1.07813 1.48437-2.04688 2.1875-2.04688.4375 0 .65625.34375.65625.98438 0 1.04687-.79688 4.46875-2.78125 4.46875-.48438 0-.82813-.14063-1.10938-.39063m0 0" style="stroke:none"/></symbol><symbol id="m" overflow="visible"><path d="M.96875-1.42187C.96875-.32812 1.57813.15624 2.25.15624c1.09375 0 2.35938-1.01562 3.34375-2.64062H5.625L4.34375 3.15625l1.39063-.25 2.29687-9.73437h-.54687l-.5625.5625c-.25-.125-.71875-.29688-1.35938-.29688-3.26562 0-4.59375 3.35938-4.59375 5.14063m1.48438-.1875c0-1.26563 1.09375-4.45313 3.17187-4.45313.375 0 .64063.10938.84375.25C6.14063-4.34375 5.5625-3 4.85938-2.0625c-.6875.9375-1.32813 1.45313-1.82813 1.45313-.4375 0-.57812-.46875-.57812-1m0 0" style="stroke:none"/></symbol><clipPath id="a"><path d="M.41016 158H283.3164v1H.41016Zm0 0"/></clipPath><clipPath id="b"><path d="M141 16h2v227.35547h-2Zm0 0"/></clipPath></defs><g clip-path="url(#a)"><path d="M-141.73337.00176h283.46784" style="fill:none;stroke-width:.3985;stroke-linecap:butt;stroke-linejoin:miter;stroke:#000;stroke-opacity:1;stroke-miterlimit:10" transform="matrix(.99664 0 0 -.99664 141.86273 158.4041)"/></g><g clip-path="url(#b)"><path d="M.00055-85.04173v226.77741" style="fill:none;stroke-width:.3985;stroke-linecap:butt;stroke-linejoin:miter;stroke:#000;stroke-opacity:1;stroke-miterlimit:10" transform="matrix(.99664 0 0 -.99664 141.86273 158.4041)"/></g><path d="m-34.01606 158.74203 153.0728-204.09575M85.04012-56.6926-59.52754 136.0643" style="fill:none;stroke-width:.3985;stroke-linecap:butt;stroke-linejoin:miter;stroke:teal;stroke-opacity:1;stroke-miterlimit:10" transform="matrix(.99664 0 0 -.99664 141.86273 158.4041)"/><use xlink:href="#c" x="233.63242" y="151.38874" style="fill:#000;fill-opacity:1"/><use xlink:href="#d" x="221.24517" y="162.86307" style="fill:#000;fill-opacity:1"/><use xlink:href="#e" x="148.87908" y="34.59041" style="fill:#000;fill-opacity:1"/><use xlink:href="#d" x="136.49183" y="49.85795" style="fill:#000;fill-opacity:1"/><g style="fill:#000;fill-opacity:1"><use xlink:href="#f" x="94.85019" y="178.32794"/><use xlink:href="#g" x="101.38358" y="178.32794"/><use xlink:href="#h" x="111.27304" y="178.32794"/></g><g style="fill:#000;fill-opacity:1"><use xlink:href="#g" x="118.42205" y="178.32794"/><use xlink:href="#i" x="128.3115" y="178.32794"/></g><use xlink:href="#d" x="136.49183" y="162.86307" style="fill:#000;fill-opacity:1"/><g style="fill:#000;fill-opacity:1"><use xlink:href="#f" x="94.85019" y="121.82638"/><use xlink:href="#g" x="101.38358" y="121.82638"/><use xlink:href="#h" x="111.27304" y="121.82638"/></g><g style="fill:#000;fill-opacity:1"><use xlink:href="#j" x="118.42205" y="121.82638"/><use xlink:href="#i" x="128.3115" y="121.82638"/></g><use xlink:href="#d" x="136.49183" y="106.36051" style="fill:#000;fill-opacity:1"/><use xlink:href="#k" x="161.7497" y="186.48944" style="fill:teal;fill-opacity:1"/><use xlink:href="#l" x="171.34137" y="176.42336" style="fill:teal;fill-opacity:1"/><path d="M-.00077-.00077h4.39563" style="fill:none;stroke-width:.548;stroke-linecap:butt;stroke-linejoin:miter;stroke:teal;stroke-opacity:1;stroke-miterlimit:10" transform="matrix(1.99328 0 0 -1.99328 171.34137 181.2172)"/><use xlink:href="#m" x="171.43107" y="193.46991" style="fill:teal;fill-opacity:1"/><use xlink:href="#h" x="182.48182" y="186.47947" style="fill:teal;fill-opacity:1"/><use xlink:href="#g" x="189.63083" y="186.47947" style="fill:teal;fill-opacity:1"/><use xlink:href="#n" x="199.52239" y="186.48944" style="fill:teal;fill-opacity:1"/><use xlink:href="#d" x="178.86801" y="162.86307" style="fill:teal;fill-opacity:1"/></svg>