<svg xmlns="http://www.w3.org/2000/svg" xmlns:xlink="http://www.w3.org/1999/xlink" width="207.899pt" height="285.755pt" version="1.2" viewBox="0 0 207.899 285.755"><defs><symbol id="a" overflow="visible"><path d="M1 0h3.35938v-6.54687H8.5625v-.9375H4.35938v-4.53125h5.21875v-.9375H1Zm.9375-.9375v-11.07812h1.48438V-.9375Zm0 0" style="stroke:none"/></symbol><symbol id="b" overflow="visible"><path d="M.375-.15625.53125 0h5.54688l.46875-1.875-.39063-.0625c-.29687.70313-.54687.79688-1.0625.79688H1.73438c.21874-.625.90625-1.5 2.1875-2.35938C5.23438-4.39062 6.1875-5 6.1875-6.4375c0-1.82812-1.23437-2.46875-2.6875-2.46875-1.78125 0-2.79687 1.03125-2.79687 1.82813 0 .46875.53125.6875.8125.6875.25 0 .375-.125.4375-.39063.20312-.90625.6875-1.64062 1.46875-1.64062.90625 0 1.20312.79687 1.20312 1.75 0 1.26562-.5625 2.09375-1.79687 3.15625C1.15625-2.07812.57813-1.125.375-.15625m0 0" style="stroke:none"/></symbol><symbol id="c" overflow="visible"><path d="M1.125 0h3.5v-.34375l-.79687-.0625C3.60938-.42187 3.5-.5 3.5-.875v-6.0625L3.42188-7l-2.28125.39063v.28125l.8125.125c.21874.03125.29687.10937.29687.4375V-.875c0 .35938-.07812.45313-.34375.46875l-.78125.0625Zm0 0" style="stroke:none"/></symbol><symbol id="d" overflow="visible"><path d="M.3125-.14062.4375 0h4.45313l.39062-1.5625-.32812-.04687c-.25.54687-.4375.625-.85938.625H1.48438c.15624-.46875.64062-1.125 1.6875-1.78125C4.25-3.45312 4.96875-3.9375 4.96875-5.0625c0-1.4375-.98437-1.95312-2.17187-1.95312-1.375 0-2.25.78125-2.25 1.48437 0 .39063.45312.57813.71875.57813.1875 0 .29687-.10938.35937-.32813.15625-.75.53125-1.3125 1.10938-1.3125.67187 0 .90625.59375.90625 1.32813 0 .90625-.375 1.60937-1.39063 2.46875C.90625-1.65625.4375-.89062.3125-.14062m0 0" style="stroke:none"/></symbol><symbol id="e" overflow="visible"><path d="m.21875-2.0625.14063.25h2.71875v1.03125c0 .29688-.10938.35938-.3125.39063l-.67188.04687V0H5v-.34375l-.46875-.04687C4.3125-.42187 4.25-.48437 4.25-.78125V-1.8125h1.03125v-.59375H4.25V-6.875h-.98437Zm.89063-.34375 1.92187-3.32812h.04688v3.32812Zm0 0" style="stroke:none"/></symbol><symbol id="f" overflow="visible"><path d="M.40625-3.25c0 2.15625.76563 3.375 2.48438 3.375 1.67187 0 2.4375-1.03125 2.4375-2.35937 0-1.42188-.875-2.14063-1.96875-2.14063-.76563 0-1.32813.46875-1.65625.85938 0-1.51563.40625-3.07813 1.375-3.07813.45312 0 .76562.40625.9375 1.04688.03125.14062.14062.25.34375.25.23437 0 .65625-.1875.65625-.53125 0-.45313-.5625-1.1875-1.85938-1.1875-1.54687 0-2.75 1.09375-2.75 3.76562m1.29688.82813c0-.60938.40625-1.29688 1.17187-1.29688.67188 0 1.17188.53125 1.17188 1.6875 0 1.03125-.32813 1.73438-1.125 1.73438-.82813 0-1.21875-.9375-1.21875-2.125m0 0" style="stroke:none"/></symbol><symbol id="g" overflow="visible"><path d="M.3125-1.125c0 .40625.625 1.25 2.26563 1.25 1.5625 0 2.53125-.73437 2.53125-2.04687 0-1.4375-1.25-1.78125-1.73438-1.82813v-.04687c.5625-.10938 1.4375-.5 1.4375-1.5 0-1.28125-1.0625-1.71875-2.14062-1.71875-1.29688 0-2.125.71875-2.125 1.3125 0 .375.45312.5625.64062.5625s.28125-.10938.32813-.28125C1.75-6.15625 2.09375-6.59375 2.625-6.59375c.73438 0 .89063.75.89063 1.26563 0 .5-.14063 1.35937-.96875 1.35937-.4375 0-.76563-.10937-.9375-.10937-.17188 0-.23438.125-.23438.34375 0 .20312.0625.34375.23438.34375.17187 0 .48437-.10938.9375-.10938.71875 0 1.21875.54688 1.21875 1.60938 0 1.14062-.48438 1.59375-1.17188 1.59375-.57812 0-.98437-.42188-1.21875-1.17188-.07812-.20312-.1875-.3125-.375-.3125-.28125 0-.6875.23438-.6875.65625m0 0" style="stroke:none"/></symbol></defs><use xlink:href="#a" x="88.91439" y="19.5962" style="fill:#000;fill-opacity:1"/><use xlink:href="#b" x="99.00774" y="23.97444" style="fill:#000;fill-opacity:1"/><g style="fill:#000;fill-opacity:1"><use xlink:href="#c" x="105.94779" y="19.86397"/><use xlink:href="#d" x="111.40064" y="19.86397"/></g><use xlink:href="#a" x="176.6072" y="104.56235" style="fill:#000;fill-opacity:1"/><use xlink:href="#b" x="186.70055" y="108.94259" style="fill:#000;fill-opacity:1"/><use xlink:href="#e" x="193.6406" y="104.83212" style="fill:#000;fill-opacity:1"/><use xlink:href="#a" x="6.6739" y="104.56235" style="fill:#000;fill-opacity:1"/><use xlink:href="#b" x="16.76725" y="108.94259" style="fill:#000;fill-opacity:1"/><use xlink:href="#f" x="23.7073" y="104.83212" style="fill:#000;fill-opacity:1"/><use xlink:href="#a" x="6.6739" y="189.5295" style="fill:#000;fill-opacity:1"/><use xlink:href="#b" x="16.76725" y="193.90775" style="fill:#000;fill-opacity:1"/><use xlink:href="#g" x="23.7073" y="189.79727" style="fill:#000;fill-opacity:1"/><use xlink:href="#a" x="91.64005" y="189.5295" style="fill:#000;fill-opacity:1"/><use xlink:href="#b" x="101.7334" y="193.90775" style="fill:#000;fill-opacity:1"/><use xlink:href="#d" x="108.67345" y="189.79727" style="fill:#000;fill-opacity:1"/><use xlink:href="#a" x="94.78536" y="274.49565" style="fill:#000;fill-opacity:1"/><use xlink:href="#b" x="104.8787" y="278.8739" style="fill:#000;fill-opacity:1"/><path d="M-.0001 15.71489V69.3233m-16.16229-53.60841-49.5698 53.60842m-19.30561 31.43318V154.361m65.72818-53.60451L-65.7322 154.361m85.0416-53.60451L65.73198 154.361M-65.7322 185.79418l43.69368 53.60451m87.7705-53.60451L22.0383 239.39869" style="fill:none;stroke-width:.3985;stroke-linecap:butt;stroke-linejoin:miter;stroke:#000;stroke-opacity:1;stroke-miterlimit:10" transform="matrix(.99914 0 0 -.99914 103.89854 270.20533)"/></svg>