<svg xmlns="http://www.w3.org/2000/svg" xmlns:xlink="http://www.w3.org/1999/xlink" width="365.654pt" height="368.047pt" version="1.2" viewBox="0 0 365.654 368.047"><defs><symbol id="b" overflow="visible"><path d="M.59375-.73437c0 .53125.4375.95312 1.1875.95312 1.28125 0 2-1.26562 2.76563-2.53125l.76562-1.21875h.03125L5.6875-2.0625C6.04688-.57812 6.375.21875 7.32813.21875c1.375 0 2.09375-1.40625 2.65625-2.54687l-.48438-.25C9.04688-1.75 8.53125-.75 8.01563-.75c-.35938 0-.5-.42187-.92188-2.09375L6.5-5.28125c.67188-1.20312 1.625-2.6875 2.17188-2.6875.15625 0 .32812.01563.53125.14063.17187.07812.375.15625.59375.15625.42187 0 .79687-.39063.79687-.89063 0-.57812-.4375-.8125-.95312-.8125-1 0-1.82813.89063-2.48438 1.9375l-.8125 1.28125h-.04687l-.75-3.14062-.09375-.07813-3.09375.92188.04687.46875 1.40625-.10938h.0625c.29688 0 .4375.14063.60938.9375l.65625 2.70313-.51563.89062c-.79687 1.375-1.48437 2.34375-1.9375 2.34375-.1875 0-.375-.07812-.54687-.17187-.17188-.09376-.40625-.28126-.73438-.28126-.46875 0-.8125.48438-.8125.9375m0 0" style="stroke:none"/></symbol><symbol id="d" overflow="visible"><path d="M0 3.5c0 .5.5625 1.01563 1.375 1.01563 1.59375 0 2.26563-1.17188 3.90625-4.01563.39063-.64062 1.51563-2.60937 2.67188-4.51562 1.0625-1.75 2.25-3.5625 2.25-4.3125 0-.65625-.20313-1.04688-.34375-1.04688-.35938 0-1 .15625-1.46875.46875v.3125c0 .65625-.0625 1.59375-.23438 2.25-.3125 1.0625-1.40625 3.07813-2.625 5.20313h-.0625C5.32813-4 4.96875-7.9375 4.70313-9.29687l-.125-.07813-3.14063.89063.04688.46875L2.75-8.04687h.03125c.375 0 .45313.3125.625 1.26562.1875 1.45313.60938 5.04688.60938 6.54688 0 .54687-.01563 1.3125-.4375 2.29687-.34375.78125-.8125 1.34375-1.1875 1.34375-.28125 0-.5-.20312-.78125-.57812-.21876-.29688-.375-.46875-.65625-.46875C.48438 2.39063 0 2.96875 0 3.5m0 0" style="stroke:none"/></symbol><symbol id="f" overflow="visible"><path d="M1.6875-5.26562c0 2.14062 1.57813 3.71875 3.73438 3.71875 2.09375 0 3.65625-1.57813 3.65625-3.71875 0-2.09375-1.5625-3.65625-3.65625-3.65625-2.15625 0-3.73438 1.5625-3.73438 3.65625m0 0" style="stroke:none"/></symbol><symbol id="i" overflow="visible"><path d="M1.3125-2c0 1.10938.51563 2.21875 1.78125 2.21875 2.01563 0 3.75-2.3125 4.84375-4.21875h.03125l-.64062 2.125c-.10938.42188-.1875.78125-.1875 1.07813 0 .65625.3125 1.01562 1.01562 1.01562 1.40625 0 2.45313-1.26562 3.09375-2.6875l-.4375-.25C10.46875-2.0625 9.64063-.75 9.125-.75c-.21875 0-.29687-.14062-.29687-.35937 0-.1875.0625-.40625.10937-.65625l1.96875-7.45313h-1.5625l-.07812.23438c-.32813-.21875-.875-.39063-1.375-.39063C3.4375-9.375 1.3125-4.46875 1.3125-2m1.84375-.04687c0-2.04688 1.82813-6.67188 4.78125-6.67188.45313 0 .84375.15625 1.125.40625-.34375 1.39063-1 3.25-1.98437 4.73438C6.01563-1.98437 4.875-.75 3.96875-.75c-.60937 0-.8125-.5625-.8125-1.29687m0 0" style="stroke:none"/></symbol><symbol id="j" overflow="visible"><path d="M-1.39062 3.4375C-1.375 4.04688-.5625 4.51563.3125 4.51563 2.1875 4.51563 2.98438 3 3.75-.57812l1.73438-7.875h2.35937l.1875-.70313H5.60938l.51562-2.10937c.35938-1.42188.71875-1.95313 1.23438-1.95313.48437 0 .82812.42188 1.25 1.3125.09375.1875.23437.3125.51562.3125.375 0 .90625-.32812.90625-.8125 0-.79687-1.01562-1.45312-2.125-1.45312-1.20312 0-2 .5-2.625 1.28125-.57812.73437-.95312 1.75-1.20312 2.73437l-.20313.6875H2.26563l-.21875.70313h1.67187L1.54688 2.5625c-.21876 1.15625-.40625 1.26563-.59375 1.26563-.20313 0-.5-.125-1-.90625C-.17187 2.75-.29687 2.5-.53125 2.5c-.42187 0-.85937.46875-.85937.9375m0 0" style="stroke:none"/></symbol><symbol id="k" overflow="visible"><path d="M1.96875-5.26562c0 3.48437.85938 7.51562 4.10938 7.65625v-.46875C4.98438 1.70312 3.26563.125 3.26563-5.26562c0-5.34375 1.64062-6.95313 2.8125-7.20313v-.45312c-3.25.14062-4.10938 4.17187-4.10938 7.65625m0 0" style="stroke:none"/></symbol><symbol id="l" overflow="visible"><path d="M.48438 1.92188v.46875c3.25-.14063 4.09375-4.17188 4.09375-7.65625s-.84375-7.51563-4.09375-7.65625v.45312c1.17187.25 2.78125 1.85938 2.78125 7.20313 0 5.39062-1.70313 6.96875-2.78125 7.1875m0 0" style="stroke:none"/></symbol><symbol id="g" overflow="visible"><path d="M.53125-4.35937c0 2.54687.78125 4.51562 3 4.51562s3-1.96875 3-4.51562c0-2.5625-.78125-4.53125-3-4.53125s-3 1.96875-3 4.53125m1.5 0c0-1.98438.3125-4.04688 1.5-4.04688 1.20313 0 1.5 2.0625 1.5 4.04688 0 1.96875-.29687 4.03125-1.5 4.03125-1.1875 0-1.5-2.0625-1.5-4.03125m0 0" style="stroke:none"/></symbol><symbol id="h" overflow="visible"><path d="M1.42188 0h4.375v-.40625L4.75-.5c-.28125-.03125-.42187-.125-.42187-.60937V-8.8125l-.09375-.07812-2.79688.48437v.34375l1.125.15625c.25.03125.32813.125.32813.53125v6.26563c0 .46875-.09375.57812-.42188.60937l-1.04687.09375Zm0 0" style="stroke:none"/></symbol><clipPath id="a"><path d="M.30078 310H340v1H.30078Zm0 0"/></clipPath><clipPath id="c"><path d="M57 27h1v340.09766h-1Zm0 0"/></clipPath><clipPath id="e"><path d="M.30078 12H295v355.09766H.30078Zm0 0"/></clipPath></defs><g clip-path="url(#a)"><path d="M-56.69429.00007h339.76421" style="fill:none;stroke-width:.3985;stroke-linecap:butt;stroke-linejoin:miter;stroke:#000;stroke-opacity:1;stroke-miterlimit:10" transform="matrix(.99742 0 0 -.99742 57.24318 310.2696)"/></g><path d="M-2.07094 2.39297C-1.69497.95567-.84904.27814.00082.00007c-.84985-.27806-1.69579-.95559-2.07176-2.3929" style="fill:none;stroke-width:.3985;stroke-linecap:round;stroke-linejoin:round;stroke:#000;stroke-opacity:1;stroke-miterlimit:10" transform="matrix(.99742 0 0 -.99742 339.78043 310.2696)"/><use xlink:href="#b" x="346.99691" y="314.85074" style="fill:#000;fill-opacity:1"/><g clip-path="url(#c)"><path d="M-.001-56.69322v339.76421" style="fill:none;stroke-width:.3985;stroke-linecap:butt;stroke-linejoin:miter;stroke:#000;stroke-opacity:1;stroke-miterlimit:10" transform="matrix(.99742 0 0 -.99742 57.24318 310.2696)"/></g><path d="M-2.07379 2.38998C-1.69389.95658-.85188.27906.0019.00099-.85188-.27707-1.6939-.9546-2.0738-2.3919" style="fill:none;stroke-width:.3985;stroke-linecap:round;stroke-linejoin:round;stroke:#000;stroke-opacity:1;stroke-miterlimit:10" transform="matrix(0 -.99742 -.99742 0 57.24318 27.73235)"/><use xlink:href="#d" x="51.56987" y="16.00456" style="fill:#000;fill-opacity:1"/><g clip-path="url(#e)"><path d="m-56.69429-52.44005 11.81176-2.80803 11.81175-1.32765 11.81176.1449 11.80784 1.6253 11.81175 3.10176 11.81176 4.57431 11.81176 6.0547 11.80783 7.52725 11.81176 9.00764 11.81176 10.4802L73.22719-2.0991l11.80784 13.43313 11.81176 14.9096 11.81175 16.38999 11.81176 17.86254 11.81175 19.339 11.80784 20.81548 11.81176 22.29587 11.81175 23.76842 11.81176 25.24488 11.80784 26.72136 11.81176 28.19782 11.81175 29.6743 11.81176 31.15076" style="fill:none;stroke-width:.79701;stroke-linecap:butt;stroke-linejoin:miter;stroke:teal;stroke-opacity:1;stroke-miterlimit:10" transform="matrix(.99742 0 0 -.99742 57.24318 310.2696)"/></g><path d="m73.70107-50.74035 6.37976 13.39397 6.37584 13.39005 6.37584 13.39397 6.37976 13.39005 12.75168 26.78793 6.37976 13.39005 6.37584 13.39397 6.37976 13.39397 6.37584 13.39005 6.37584 13.39397 6.37976 13.39005 6.37584 13.39396 6.37976 13.39397 6.37584 13.39005 6.37584 13.39397 6.37976 13.39005 6.37584 13.39397 6.37585 13.39005 6.37975 13.39396 6.37585 13.39397 6.37975 13.39005 12.75169 26.78794" style="fill:none;stroke-width:.3985;stroke-linecap:butt;stroke-linejoin:miter;stroke:#000;stroke-opacity:1;stroke-miterlimit:10" transform="matrix(.99742 0 0 -.99742 57.24318 310.2696)"/><use xlink:href="#f" x="221.50684" y="163.46972" style="fill:#000;fill-opacity:1"/><path d="M170.0828 5.67097v-11.3418" style="fill:none;stroke-width:.3985;stroke-linecap:butt;stroke-linejoin:miter;stroke:#000;stroke-opacity:1;stroke-miterlimit:10" transform="matrix(.99742 0 0 -.99742 57.24318 310.2696)"/><use xlink:href="#b" x="217.32767" y="332.32649" style="fill:#000;fill-opacity:1"/><use xlink:href="#g" x="228.31721" y="336.69917" style="fill:#000;fill-opacity:1"/><path d="M97.86504 5.67097v-11.3418" style="fill:none;stroke-width:.3985;stroke-linecap:butt;stroke-linejoin:miter;stroke:#000;stroke-opacity:1;stroke-miterlimit:10" transform="matrix(.99742 0 0 -.99742 57.24318 310.2696)"/><use xlink:href="#b" x="150.95353" y="332.32649" style="fill:#000;fill-opacity:1"/><use xlink:href="#h" x="161.94308" y="336.69917" style="fill:#000;fill-opacity:1"/><path d="M75.16187-5.67082V5.67097" style="fill:none;stroke-width:.3985;stroke-linecap:butt;stroke-linejoin:miter;stroke:#000;stroke-opacity:1;stroke-miterlimit:10" transform="matrix(.99742 0 0 -.99742 57.24318 310.2696)"/><use xlink:href="#i" x="126.38714" y="297.37499" style="fill:#000;fill-opacity:1"/><path d="M170.0828.00007v151.6573" style="fill:none;stroke-width:.3985;stroke-linecap:butt;stroke-linejoin:miter;stroke:#000;stroke-opacity:1;stroke-dasharray:2.98883,2.98883;stroke-miterlimit:10" transform="matrix(.99742 0 0 -.99742 57.24318 310.2696)"/><use xlink:href="#j" x="177.00208" y="147.46217" style="fill:#000;fill-opacity:1"/><g style="fill:#000;fill-opacity:1"><use xlink:href="#k" x="187.67432" y="147.46217"/><use xlink:href="#b" x="194.21281" y="147.46217"/></g><use xlink:href="#g" x="205.20306" y="151.83285" style="fill:#000;fill-opacity:1"/><use xlink:href="#l" x="213.32204" y="147.46217" style="fill:#000;fill-opacity:1"/></svg>