<svg xmlns="http://www.w3.org/2000/svg" xmlns:xlink="http://www.w3.org/1999/xlink" width="393.761pt" height="367.965pt" version="1.2" viewBox="0 0 393.761 367.965"><defs><symbol id="a" overflow="visible"><path d="M.59375-.73437c0 .53125.4375.95312 1.20313.95312 1.26562 0 1.98437-1.28125 2.76562-2.53125l.75-1.23437h.04688L5.6875-2.0625C6.04688-.57812 6.39063.21875 7.34375.21875 8.71875.21875 9.4375-1.1875 10-2.32812l-.48437-.26563C9.0625-1.75 8.54688-.75 8.01563-.75c-.35938 0-.48438-.42187-.90625-2.09375l-.59375-2.45312c.67187-1.1875 1.625-2.6875 2.15625-2.6875.17187 0 .34375.01562.54687.14062.17188.07813.375.15625.59375.15625.42188 0 .79688-.39062.79688-.89062 0-.57813-.4375-.8125-.95313-.8125-1 0-1.82812.89062-2.48437 1.95312l-.82813 1.26563H6.3125L5.54688-9.3125l-.09375-.07812-3.07813.9375L2.40625-8l1.42188-.10937H3.875c.3125 0 .4375.14062.625.9375l.65625 2.71875-.51562.89062c-.79688 1.375-1.5 2.34375-1.95313 2.34375-.17187 0-.375-.07812-.53125-.17187-.1875-.10938-.42187-.28126-.75-.28126-.46875 0-.8125.48438-.8125.9375m0 0" style="stroke:none"/></symbol><symbol id="c" overflow="visible"><path d="M0 3.5c0 .5.5625 1.01563 1.375 1.01563 1.59375 0 2.26563-1.17188 3.92188-4.01563.375-.64062 1.51562-2.60937 2.67187-4.51562 1.0625-1.75 2.25-3.5625 2.25-4.32813 0-.65625-.20312-1.04687-.34375-1.04687-.35937 0-1 .15625-1.46875.46875v.32812c0 .65625-.0625 1.59375-.25 2.25-.29687 1.04688-1.39062 3.07813-2.625 5.20313h-.0625C5.32813-4 4.98438-7.9375 4.71875-9.3125l-.14062-.07812L1.4375-8.5l.0625.48438 1.25-.04688h.03125c.39063 0 .46875.3125.625 1.28125.20313 1.45313.60938 5.04688.60938 6.54688 0 .54687-.01563 1.3125-.4375 2.29687-.32813.78125-.8125 1.34375-1.1875 1.34375-.28125 0-.5-.20312-.78125-.57812-.21876-.29688-.375-.45313-.65625-.45313C.48438 2.39063 0 2.96875 0 3.5m0 0" style="stroke:none"/></symbol><symbol id="d" overflow="visible"><path d="M1.6875-5.28125c0 2.15625 1.57813 3.73438 3.75 3.73438 2.09375 0 3.65625-1.57813 3.65625-3.73438 0-2.07812-1.5625-3.65625-3.65625-3.65625-2.17187 0-3.75 1.57813-3.75 3.65625m0 0" style="stroke:none"/></symbol><symbol id="e" overflow="visible"><path d="M2.03125 0H8.1875v-.53125L6.60938-.67187c-.40625-.04688-.625-.1875-.625-.92188V-12.625l-.09375-.09375-3.85938.65625v.45313l1.75.21875c.3125.04687.4375.1875.4375.71875v9.07812c0 .35938-.03125.57813-.15625.71875-.09375.14063-.26562.17188-.45312.20313l-1.57813.14062Zm0 0" style="stroke:none"/></symbol><symbol id="k" overflow="visible"><path d="M.59375-3.46875c0 2.14063.73438 3.70313 3.04688 3.70313 3.42187 0 4.90625-3.45313 5.70312-7.04688.21875-1.09375.39063-2.25.39063-3.29687 0-2.07813-.67188-3.76563-3.03125-3.76563-4.46875 0-6.10938 6.67188-6.10938 10.40625m1.70313.65625c0-1.28125.29687-2.82812.51562-3.89062h4.67188C7-4.5 5.96875-.3125 3.76563-.3125c-1.14063 0-1.46875-1.09375-1.46875-2.5m.67187-4.57812C3.29688-8.98437 4.3125-13.25 6.5625-13.25c1.1875 0 1.51563 1.14063 1.51563 2.5 0 1.21875-.28125 2.59375-.4375 3.35938Zm0 0" style="stroke:none"/></symbol><symbol id="m" overflow="visible"><path d="M.8125 0H12.625L7.3125-12.98437H5.90625Zm1.15625-1.01562L5.98438-11.25l4.25 10.23438Zm0 0" style="stroke:none"/></symbol><symbol id="l" overflow="visible"><path d="M.53125-4.375c0 2.5625.78125 4.53125 3.01563 4.53125 2.21875 0 3-1.96875 3-4.53125s-.78125-4.53125-3-4.53125C1.3125-8.90625.53125-6.9375.53125-4.375m1.5 0c0-1.98437.3125-4.04687 1.51563-4.04687 1.1875 0 1.5 2.0625 1.5 4.04687s-.3125 4.04688-1.5 4.04688c-1.20313 0-1.51563-2.0625-1.51563-4.04688m0 0" style="stroke:none"/></symbol><symbol id="n" overflow="visible"><path d="M.42188-2.46875c0 1.51563.53125 2.64063 2.21875 2.64063C3.6875.17188 4.5-.29687 5.10938-1c.75-.875 1.25-2.28125 1.57812-3.71875.17188-.78125.29688-1.57812.29688-2.3125 0-1.46875-.5-2.6875-2.21875-2.6875-.96875 0-1.75.42188-2.375 1.07813-1.40625 1.5-1.96875 4.3125-1.96875 6.17187m1.34375.54688c0-.90625.23437-2 .375-2.75h3.07812C4.875-3.14062 4.1875-.25 2.73438-.25 2-.25 1.76563-.98437 1.76563-1.92187m.5-3.28125C2.5-6.29687 3.1875-9.25 4.67188-9.25c.75 0 .98437.76563.98437 1.67188 0 .84375-.20312 1.82812-.3125 2.375Zm0 0" style="stroke:none"/></symbol><symbol id="o" overflow="visible"><path d="M.40625-3.4375c0 1.98438.625 3.5625 2.42188 3.5625S5.25-1.45312 5.25-3.4375c0-1.98437-.625-3.57812-2.42187-3.57812S.40625-5.42187.40625-3.4375m1.29688 0c0-1.45312.20312-3.15625 1.125-3.15625.92187 0 1.10937 1.70313 1.10937 3.15625C3.9375-2 3.75-.29687 2.82813-.29687c-.92188 0-1.125-1.70313-1.125-3.14063m0 0" style="stroke:none"/></symbol><clipPath id="b"><path d="M198 27h1v340.83594h-1Zm0 0"/></clipPath><clipPath id="f"><path d="M85 84h227v227H85Zm0 0"/></clipPath><clipPath id="g"><path d="M311.78125 197.66016c0-62.58203-50.73437-113.31641-113.3164-113.31641-62.58594 0-113.32032 50.73438-113.32032 113.3164 0 62.58594 50.73438 113.32032 113.32031 113.32032 62.58203 0 113.31641-50.73438 113.31641-113.32031m0 0"/></clipPath><clipPath id="h"><path d="M70.99219 45.75v303.82031l240.78906-151.91015Zm0 0"/></clipPath><clipPath id="i"><path d="M249 135h63v63h-63Zm0 0"/></clipPath><clipPath id="j"><path d="M70.99219 45.75.15625 197.66016h311.625Zm0 0"/></clipPath></defs><path d="M-170.08234.00104h339.7647" style="fill:none;stroke-width:.3985;stroke-linecap:butt;stroke-linejoin:miter;stroke:#000;stroke-opacity:1;stroke-miterlimit:10" transform="matrix(.9994 0 0 -.9994 198.46354 197.6612)"/><path d="M-2.07146 2.3892C-1.69232.95475-.84806.27856.0001.00105c-.84817-.28142-1.69243-.95761-2.07157-2.39207" style="fill:none;stroke-width:.3985;stroke-linecap:round;stroke-linejoin:round;stroke:#000;stroke-opacity:1;stroke-miterlimit:10" transform="matrix(.9994 0 0 -.9994 368.24208 197.6612)"/><use xlink:href="#a" x="375.4751" y="202.25141" style="fill:#000;fill-opacity:1"/><g clip-path="url(#b)"><path d="M.0013-170.0826v339.7647" style="fill:none;stroke-width:.3985;stroke-linecap:butt;stroke-linejoin:miter;stroke:#000;stroke-opacity:1;stroke-miterlimit:10" transform="matrix(.9994 0 0 -.9994 198.46354 197.6612)"/></g><path d="M-2.07172 2.39077C-1.6926.95631-.84832.28012-.00016-.0013-.84833-.2788-1.69259-.955-2.07172-2.38947" style="fill:none;stroke-width:.3985;stroke-linecap:round;stroke-linejoin:round;stroke:#000;stroke-opacity:1;stroke-miterlimit:10" transform="matrix(0 -.9994 -.9994 0 198.46354 27.88266)"/><use xlink:href="#c" x="192.77899" y="16.13038" style="fill:#000;fill-opacity:1"/><use xlink:href="#d" x="193.07781" y="88.81526" style="fill:#000;fill-opacity:1"/><use xlink:href="#e" x="205.49927" y="77.30925" style="fill:#000;fill-opacity:1"/><use xlink:href="#d" x="306.39403" y="202.13148" style="fill:#000;fill-opacity:1"/><use xlink:href="#e" x="318.81649" y="217.4212" style="fill:#000;fill-opacity:1"/><path d="M113.3865.00104c0 62.62002-50.76518 113.38519-113.3852 113.38519-62.62392 0-113.38909-50.76517-113.38909-113.38519 0-62.62392 50.76517-113.3891 113.3891-113.3891 62.62001 0 113.38518 50.76518 113.38518 113.3891Zm0 0" style="fill:none;stroke-width:.3985;stroke-linecap:butt;stroke-linejoin:miter;stroke:#000;stroke-opacity:1;stroke-miterlimit:10" transform="matrix(.9994 0 0 -.9994 198.46354 197.6612)"/><g clip-path="url(#f)"><g clip-path="url(#g)"><g clip-path="url(#h)"><path d="M821.71484 197.66016c0-281.62891-228.30078-509.9336-509.93359-509.9336s-509.9336 228.30469-509.9336 509.9336c0 281.6328 228.30079 509.93359 509.9336 509.93359s509.9336-228.30078 509.9336-509.9336m0 0" style="stroke:none;fill-rule:nonzero;fill:#b2b2ff;fill-opacity:.3"/></g></g></g><g clip-path="url(#i)"><g clip-path="url(#j)"><path d="M170.08104.00104c0 31.31196-25.38259 56.69064-56.69455 56.69064S56.69194 31.313 56.69194.00104 82.07453-56.6935 113.3865-56.6935 170.08104-31.31091 170.08104.00104Zm0 0" style="fill:none;stroke-width:.3985;stroke-linecap:butt;stroke-linejoin:miter;stroke:#000;stroke-opacity:1;stroke-miterlimit:10" transform="matrix(.9994 0 0 -.9994 198.46354 197.6612)"/></g></g><use xlink:href="#k" x="229.36678" y="182.5034" style="fill:#000;fill-opacity:1"/><use xlink:href="#l" x="238.74709" y="186.88274" style="fill:#000;fill-opacity:1"/><path d="M113.3865.00104-127.54873 152.0034M113.3865.00104l-240.93522-152.00236m-44.2964 52.78592c40.19235 47.90016 99.28288 115.08153 143.21578 71.14864" style="fill:none;stroke-width:.3985;stroke-linecap:butt;stroke-linejoin:miter;stroke:#000;stroke-opacity:1;stroke-miterlimit:10" transform="matrix(.9994 0 0 -.9994 198.46354 197.6612)"/><path d="M-2.07243 2.3917C-1.6938.95727-.85081.28013.00045-.00178-.85081-.27816-1.6938-.9553-2.07243-2.38974" style="fill:none;stroke-width:.3985;stroke-linecap:round;stroke-linejoin:round;stroke:#000;stroke-opacity:1;stroke-miterlimit:10" transform="scale(.99938 -.99938)rotate(-45 -187.7442 -318.32103)"/><use xlink:href="#m" x="6.63697" y="311.46013" style="fill:#000;fill-opacity:1"/><use xlink:href="#n" x="19.97887" y="315.84147" style="fill:#000;fill-opacity:1"/><use xlink:href="#o" x="27.24047" y="318.9076" style="fill:#000;fill-opacity:1"/></svg>