<svg xmlns="http://www.w3.org/2000/svg" xmlns:xlink="http://www.w3.org/1999/xlink" width="365.454pt" height="367.965pt" version="1.2" viewBox="0 0 365.454 367.965"><defs><symbol id="a" overflow="visible"><path d="M.59375-.73437c0 .53125.4375.95312 1.20313.95312 1.26562 0 1.98437-1.26562 2.76562-2.53125l.75-1.23437h.03125L5.6875-2.0625C6.04688-.57812 6.39063.21875 7.34375.21875c1.375 0 2.07813-1.40625 2.64063-2.54687l-.48438-.25C9.04688-1.75 8.53125-.75 8.01563-.75c-.35938 0-.5-.42187-.92188-2.09375L6.5-5.29687c.6875-1.1875 1.64063-2.67188 2.17188-2.67188.15625 0 .34375.01563.53125.125.1875.09375.39062.17188.60937.17188.40625 0 .79688-.40625.79688-.90625 0-.57813-.4375-.8125-.96875-.8125-.98438 0-1.82813.89062-2.48438 1.95312l-.8125 1.26563H6.3125L5.54688-9.3125l-.09375-.07812-3.09375.9375L2.40625-8l1.40625-.09375h.0625c.29688 0 .4375.14063.625.9375l.65625 2.70313-.51562.89062c-.79688 1.375-1.5 2.34375-1.95313 2.34375-.1875 0-.375-.07812-.54687-.17187-.17188-.09376-.40625-.28126-.73438-.28126-.46875 0-.8125.48438-.8125.9375m0 0" style="stroke:none"/></symbol><symbol id="c" overflow="visible"><path d="M0 3.5c0 .5.5625 1.01563 1.375 1.01563 1.59375 0 2.26563-1.17188 3.92188-4.01563.375-.64062 1.5-2.60937 2.65625-4.51562 1.07812-1.75 2.25-3.5625 2.25-4.3125 0-.65625-.20313-1.0625-.34375-1.0625-.35938 0-.98438.15625-1.46875.48437v.3125c0 .65625-.0625 1.59375-.23438 2.25-.29687 1.04688-1.39062 3.07813-2.625 5.20313h-.0625c-.14062-2.85938-.5-6.79688-.75-8.17188l-.14062-.07812L1.4375-8.5l.04688.48438L2.75-8.0625h.03125c.375 0 .45313.32813.625 1.28125.1875 1.45313.60938 5.04688.60938 6.54688 0 .54687-.01563 1.3125-.4375 2.29687-.34375.78125-.8125 1.34375-1.1875 1.34375-.28125 0-.5-.20312-.78125-.57812-.21876-.29688-.375-.46875-.65625-.46875C.48438 2.39063 0 2.96875 0 3.5m0 0" style="stroke:none"/></symbol><symbol id="d" overflow="visible"><path d="M1.6875-5.26562c0 2.14062 1.57813 3.71875 3.75 3.71875 2.07813 0 3.65625-1.57813 3.65625-3.71875 0-2.09375-1.57812-3.67188-3.65625-3.67188-2.17187 0-3.75 1.57813-3.75 3.67188m0 0" style="stroke:none"/></symbol><symbol id="g" overflow="visible"><path d="M1.59375-4.73437H11.875v-1.09375H1.59375Zm0 0" style="stroke:none"/></symbol><symbol id="e" overflow="visible"><path d="M.9375-1.40625c0 .78125.35938 1.5625 1.26563 1.5625 1.4375 0 2.59375-1.60937 3.34375-2.90625h.01562l-.39062 1.40625q-.14063.42188-.14063.75c0 .5.25.75.76563.75 1.04687 0 1.79687-.92187 2.28125-1.9375l-.34375-.20312c-.26563.5-.8125 1.375-1.15625 1.375-.15625 0-.20313-.09376-.20313-.25 0-.10938.03125-.28126.07813-.45313L7.8125-6.45312H6.54688l-.0625.14062c-.21875-.14062-.60938-.26562-.95313-.26562-3.125 0-4.59375 3.45312-4.59375 5.17187m1.46875-.04687c0-1.42188 1.25-4.60938 3.17188-4.60938.3125 0 .5625.09375.75.25-.23438.96875-.6875 2.26563-1.375 3.3125C4.25-1.42187 3.5-.60937 2.92188-.60937c-.40625 0-.51563-.35938-.51563-.84375m0 0" style="stroke:none"/></symbol><symbol id="f" overflow="visible"><path d="M.375-.15625.53125 0H6.0625l.48438-1.85937-.39063-.07813c-.3125.70313-.54687.79688-1.07812.79688H1.73438c.21874-.625.90625-1.5 2.17187-2.35938C5.23438-4.39062 6.1875-5 6.1875-6.4375c0-1.8125-1.25-2.45312-2.6875-2.45312-1.78125 0-2.79687 1.03125-2.79687 1.8125 0 .48437.53125.70312.8125.70312.25 0 .375-.14062.4375-.39062.20312-.92188.6875-1.64063 1.45312-1.64063.92188 0 1.21875.79688 1.21875 1.73438 0 1.26562-.57812 2.10937-1.79687 3.15625C1.15625-2.07812.57813-1.125.375-.15625m0 0" style="stroke:none"/></symbol><clipPath id="b"><path d="M169 28h2v339.67188h-2Zm0 0"/></clipPath></defs><path d="M-170.0824.00065h339.76468" style="fill:none;stroke-width:.3985;stroke-linecap:butt;stroke-linejoin:miter;stroke:#000;stroke-opacity:1;stroke-miterlimit:10" transform="matrix(.9985 0 0 -.9985 170.02398 197.64908)"/><path d="M-2.0732 2.39093C-1.69373.95519-.84872.2784.0002.00065c-.84892-.27776-1.69393-.95847-2.0734-2.39029" style="fill:none;stroke-width:.3985;stroke-linecap:round;stroke-linejoin:round;stroke:#000;stroke-opacity:1;stroke-miterlimit:10" transform="matrix(.9985 0 0 -.9985 339.65214 197.64908)"/><use xlink:href="#a" x="346.87775" y="202.23523" style="fill:#000;fill-opacity:1"/><g clip-path="url(#b)"><path d="M-.00054-170.0812v339.76467" style="fill:none;stroke-width:.3985;stroke-linecap:butt;stroke-linejoin:miter;stroke:#000;stroke-opacity:1;stroke-miterlimit:10" transform="matrix(.9985 0 0 -.9985 170.02398 197.64908)"/></g><path d="M-2.07201 2.39083C-1.69254.95509-.85144.2783.00139.00054-.85144-.27722-1.69254-.95792-2.072-2.38974" style="fill:none;stroke-width:.3985;stroke-linecap:round;stroke-linejoin:round;stroke:#000;stroke-opacity:1;stroke-miterlimit:10" transform="matrix(0 -.9985 -.9985 0 170.02398 28.02092)"/><use xlink:href="#c" x="164.34347" y="16.27905" style="fill:#000;fill-opacity:1"/><path d="M-170.0824 113.38855h340.16371M-170.0824-113.38726h340.16371" style="fill:none;stroke-width:.3985;stroke-linecap:butt;stroke-linejoin:miter;stroke:#000;stroke-opacity:1;stroke-miterlimit:10" transform="matrix(.9985 0 0 -.9985 170.02398 197.64908)"/><path d="M.19531 310.86719V84.42969h339.65625v226.4375Zm0 0" style="stroke:none;fill-rule:nonzero;fill:#b2b2ff;fill-opacity:.3"/><use xlink:href="#d" x="164.64202" y="88.89956" style="fill:#000;fill-opacity:1"/><use xlink:href="#e" x="179.44091" y="62.40314" style="fill:#000;fill-opacity:1"/><path d="M.00025.00008h4.08617" style="fill:none;stroke-width:.548;stroke-linecap:butt;stroke-linejoin:miter;stroke:#000;stroke-opacity:1;stroke-miterlimit:10" transform="matrix(1.99702 0 0 -1.99702 179.44091 65.12907)"/><use xlink:href="#f" x="180.05399" y="77.40273" style="fill:#000;fill-opacity:1"/><use xlink:href="#d" x="164.64202" y="315.33226" style="fill:#000;fill-opacity:1"/><use xlink:href="#g" x="177.05248" y="332.46566" style="fill:#000;fill-opacity:1"/><use xlink:href="#e" x="192.89082" y="324.46761" style="fill:#000;fill-opacity:1"/><path d="M-.0001-.00089h4.08618" style="fill:none;stroke-width:.548;stroke-linecap:butt;stroke-linejoin:miter;stroke:#000;stroke-opacity:1;stroke-miterlimit:10" transform="matrix(1.99702 0 0 -1.99702 192.89082 327.19354)"/><use xlink:href="#f" x="193.5039" y="339.4672" style="fill:#000;fill-opacity:1"/></svg>