<svg xmlns="http://www.w3.org/2000/svg" xmlns:xlink="http://www.w3.org/1999/xlink" width="425.339pt" height="227.17pt" version="1.2" viewBox="0 0 425.339 227.17"><defs><symbol id="a" overflow="visible"><path d="M1.6875-5.26562c0 2.14062 1.5625 3.71875 3.73438 3.71875 2.07812 0 3.65625-1.57813 3.65625-3.71875 0-2.07813-1.57813-3.65625-3.65625-3.65625-2.17188 0-3.73438 1.57812-3.73438 3.65625m0 0" style="stroke:none"/></symbol><symbol id="b" overflow="visible"><path d="M1.78125.21875 3.4375 0c.53125-1.90625.875-2.92187 1.34375-4.07812.70313-1.60938 2.48438-4.32813 4-4.32813.46875 0 .6875.32813.6875.79688 0 .15625-.01562.34375-.07812.54687L7.78125-1.60937c-.07812.28124-.10937.53125-.10937.75 0 .65625.3125 1.07812 1.0625 1.07812 1.39062 0 2.45312-1.26562 3.07812-2.6875l-.45312-.25C11.01563-2.0625 10.20313-.75 9.6875-.75c-.21875 0-.29687-.14062-.29687-.375 0-.1875.04687-.40625.10937-.64062l1.46875-4.90625c.10938-.42188.1875-.8125.1875-1.17188 0-.89062-.4375-1.53125-1.53125-1.53125-1.78125 0-3.73437 1.98438-4.84375 4.17188h-.0625L5.9375-9.28125 5.84375-9.375l-3.42187.51563-.125.45312 1.17187.10938c.28125.01562.39063.14062.39063.32812 0 .14063-.04688.32813-.10938.5625Zm0 0" style="stroke:none"/></symbol><symbol id="c" overflow="visible"><path d="M1.59375-4.71875h10.26563V-5.8125H1.59375Zm0 0" style="stroke:none"/></symbol><symbol id="d" overflow="visible"><path d="M2.03125 0h6.125v-.53125l-1.5625-.14062c-.39062-.04688-.60937-.1875-.60937-.92188v-11L5.875-12.6875l-3.84375.65625v.45313l1.73438.21875c.32812.04687.4375.17187.4375.71875v9.04687c0 .35938-.03125.57813-.15625.71875-.09375.14063-.25.1875-.45313.20313l-1.5625.14062Zm0 0" style="stroke:none"/></symbol><symbol id="e" overflow="visible"><path d="M1.59375-4.71875h4.57813v4.57813h1.09375v-4.57813h4.59375V-5.8125H7.26563v-4.59375H6.17188v4.59375H1.59375Zm0 0" style="stroke:none"/></symbol><symbol id="f" overflow="visible"><path d="M.59375-.73437c0 .53125.4375.95312 1.1875.95312 1.28125 0 1.98438-1.26562 2.76563-2.51562l.75-1.23438h.04687L5.6875-2.0625C6.03125-.57812 6.375.21875 7.32813.21875c1.375 0 2.07812-1.40625 2.64062-2.54687l-.46875-.25C9.03125-1.75 8.51563-.75 8-.75c-.35937 0-.5-.42187-.90625-2.09375L6.5-5.28125c.67188-1.1875 1.625-2.6875 2.15625-2.6875.15625 0 .34375.03125.53125.14063.1875.07812.39063.15625.60938.15625.40625 0 .78125-.39063.78125-.89063 0-.57812-.4375-.8125-.95313-.8125-.98437 0-1.8125.89063-2.46875 1.95313l-.82812 1.26562h-.03125l-.75-3.14062L5.4375-9.375l-3.07812.9375.04687.45313 1.40625-.09375h.0625c.29688 0 .4375.14062.60938.92187l.65625 2.70313-.51563.89062c-.79687 1.375-1.48437 2.34375-1.9375 2.34375-.1875 0-.39062-.07812-.54687-.17187-.17188-.09376-.40625-.28126-.73438-.28126-.46875 0-.8125.48438-.8125.9375m0 0" style="stroke:none"/></symbol><symbol id="g" overflow="visible"><path d="M-1.39062 3.4375C-1.375 4.04688-.5625 4.51563.3125 4.51563 2.1875 4.51563 2.98438 3 3.75-.57812L5.48438-8.4375h2.35937l.17188-.71875H5.59375l.51563-2.10937c.35937-1.40625.71875-1.9375 1.23437-1.9375.5 0 .84375.40625 1.25 1.3125.10938.17187.25.3125.51563.3125.39062 0 .92187-.34375.92187-.8125 0-.79688-1.01562-1.45313-2.125-1.45313-1.21875 0-2.01562.5-2.625 1.26563-.57812.73437-.95312 1.75-1.20312 2.75l-.20313.67187H2.26563l-.21875.71875h1.67187l-2.17187 11C1.32812 3.71875 1.125 3.82813.95313 3.82813c-.20313 0-.5-.14063-1-.90625-.125-.1875-.25-.42188-.48438-.42188-.42187 0-.85937.45313-.85937.9375m0 0" style="stroke:none"/></symbol><symbol id="h" overflow="visible"><path d="M1.96875-5.26562c0 3.48437.84375 7.51562 4.10938 7.65625v-.46875C4.98438 1.70312 3.25.125 3.25-5.26562c0-5.34375 1.65625-6.95313 2.82813-7.1875v-.45313c-3.26563.14063-4.10938 4.17188-4.10938 7.64063m0 0" style="stroke:none"/></symbol><symbol id="i" overflow="visible"><path d="M.48438 1.92188v.46875C3.73438 2.25 4.5625-1.78125 4.5625-5.26562c0-3.46875-.82812-7.5-4.07812-7.64063v.45313C1.64063-12.21875 3.25-10.60937 3.25-5.26562 3.25.125 1.5625 1.70313.48438 1.92188m0 0" style="stroke:none"/></symbol></defs><path d="M8.50196 226.77497C56.693 56.6949 226.7731.00022 340.16244 113.38563" style="fill:none;stroke-width:.3985;stroke-linecap:butt;stroke-linejoin:miter;stroke:#000;stroke-opacity:1;stroke-miterlimit:10" transform="matrix(.99636 0 0 -.99636 39.37665 226.14475)"/><use xlink:href="#a" x="50.56976" y="29.22124" style="fill:#000;fill-opacity:1"/><use xlink:href="#b" x="7.06172" y="44.46454" style="fill:#000;fill-opacity:1"/><use xlink:href="#c" x="22.84465" y="44.46454" style="fill:#000;fill-opacity:1"/><use xlink:href="#d" x="39.02464" y="44.46454" style="fill:#000;fill-opacity:1"/><use xlink:href="#a" x="183.34265" y="167.05464" style="fill:#000;fill-opacity:1"/><use xlink:href="#b" x="168.89344" y="178.98206" style="fill:#000;fill-opacity:1"/><use xlink:href="#a" x="280.38409" y="171.46752" style="fill:#000;fill-opacity:1"/><use xlink:href="#b" x="264.07767" y="184.42717" style="fill:#000;fill-opacity:1"/><use xlink:href="#e" x="279.86061" y="184.42717" style="fill:#000;fill-opacity:1"/><use xlink:href="#f" x="296.04059" y="184.42717" style="fill:#000;fill-opacity:1"/><use xlink:href="#a" x="318.87745" y="157.21758" style="fill:#000;fill-opacity:1"/><use xlink:href="#b" x="331.26121" y="172.45989" style="fill:#000;fill-opacity:1"/><use xlink:href="#e" x="347.04414" y="172.45989" style="fill:#000;fill-opacity:1"/><use xlink:href="#d" x="363.22413" y="172.45989" style="fill:#000;fill-opacity:1"/><use xlink:href="#g" x="382.08252" y="133.52016" style="fill:#000;fill-opacity:1"/><g style="fill:#000;fill-opacity:1"><use xlink:href="#h" x="392.74345" y="133.52016"/><use xlink:href="#f" x="399.275" y="133.52016"/></g><use xlink:href="#i" x="411.08738" y="133.52016" style="fill:#000;fill-opacity:1"/><path d="M16.62528 202.11881 149.88382 63.77927m0 0 97.39753-4.42627m-97.39753 4.42627 136.03036 9.8758" style="fill:none;stroke-width:.3985;stroke-linecap:butt;stroke-linejoin:miter;stroke:#000;stroke-opacity:1;stroke-miterlimit:10" transform="matrix(.99636 0 0 -.99636 39.37665 226.14475)"/></svg>