<svg xmlns="http://www.w3.org/2000/svg" xmlns:xlink="http://www.w3.org/1999/xlink" width="731.305pt" height="50.762pt" version="1.2" viewBox="0 0 731.305 50.762"><defs><symbol id="a" overflow="visible"><path d="M-.53125 0H3.5625v-.53125l-.96875-.10937c-.54687-.04688-.625-.25-.46875-.75.3125-1.10938.6875-2.25 1.125-3.59375h4.1875l1.25 3.57812c.17188.53125.09375.73438-.5.79688l-.84375.07812V0h4.76563v-.53125c-1.07813-.10937-1.28125-.15625-1.625-1.14062l-3.9375-11.21875H5.15625L3.21875-7.375c-.57812 1.625-1.375 3.84375-2.03125 5.54688C.79688-.8125.64063-.59375-.53125-.53125Zm4.04688-5.6875c.59375-1.85937 1.25-3.6875 1.79687-5.34375h.0625L7.21875-5.6875Zm0 0" style="stroke:none"/></symbol><symbol id="b" overflow="visible"><path d="M.375 0h4.54688v-.53125C3.59375-.64062 3.53125-.67187 3.53125-1.625v-12.09375l-.14062-.09375-2.92188.45313v.46875l.70313.0625c.46875.0625.59375.15625.59375.875V-1.625c0 .95313-.04688.98438-1.39063 1.09375Zm0 0" style="stroke:none"/></symbol><symbol id="c" overflow="visible"><path d="M1.70313-12.1875c0 .67188.48437 1.14063 1.15625 1.14063.67187 0 1.125-.46875 1.125-1.14063 0-.6875-.45313-1.14062-1.125-1.14062-.67188 0-1.15625.45312-1.15625 1.14062M.59375 0h4.54688v-.53125C3.8125-.64062 3.75-.67187 3.75-1.625v-7.60937l-.14062-.125-2.92188.46875v.46875l.70313.09375C1.85938-8.25 2-8.17187 2-7.5v5.875C2-.67187 1.9375-.64062.59375-.53125Zm0 0" style="stroke:none"/></symbol><symbol id="d" overflow="visible"><path d="M.90625-4.48437C.90625-1.375 2.4375.21875 5.23438.21875c1.3125 0 3.07812-.67187 3.59375-2.67187l-.5625-.26563C7.6875-1.40625 6.95313-.75 5.59375-.75 3.375-.75 2.85938-3.07812 2.85938-4.8125c0-2.78125 1.09375-3.89062 2.375-3.89062.85937 0 1.39062.60937 1.76562 1.625.125.29687.23438.46875.59375.46875.375 0 1.09375-.23438 1.09375-.9375 0-.85938-1.23437-1.8125-3.25-1.8125-3.39062 0-4.53125 2.40625-4.53125 4.875m0 0" style="stroke:none"/></symbol><symbol id="e" overflow="visible"><path d="M.90625-4.5c0 2.95313 1.28125 4.71875 4.3125 4.71875 2.0625 0 3.125-1.15625 3.625-2.625l-.5625-.29687C7.76563-1.60937 7.0625-.73437 5.59375-.73437c-2.32812 0-2.78125-2.21875-2.73437-4.15625h5.375c.39062 0 .73437-.10938.73437-.71875 0-1.09375-.35937-3.75-3.78125-3.75C2.28125-9.35937.90625-7.29687.90625-4.5M2.875-5.60937c0-.78125.28125-3.09375 2.21875-3.09375 1.73438 0 1.92188 1.76562 1.92188 2.5 0 .35937-.10938.59375-.625.59375Zm0 0" style="stroke:none"/></symbol><symbol id="g" overflow="visible"><path d="M.42188-9.79687h.54687c.21875-2.01563.625-2.45313 2.79688-2.45313h1.09375v10.53125c0 1.04688-.04688 1.0625-2.04688 1.1875V0h5.95313v-.53125c-2-.125-2.0625-.14062-2.0625-1.1875V-12.25H7.8125c2.1875 0 2.57813.4375 2.79688 2.45313h.54687v-3.09375H.42188Zm0 0" style="stroke:none"/></symbol><symbol id="h" overflow="visible"><path d="M.01563 0h3.57812v-.53125L2.8125-.64062c-.25-.03126-.25-.25-.14062-.45313.42187-.79687 1.01562-1.6875 1.65625-2.65625h.03125l1.67187 2.59375c.1875.32813.14063.48438-.14062.51563l-.78125.10937V0h4.375v-.53125C8.64063-.57812 8.34375-.64062 7.875-1.3125c-.85937-1.21875-1.75-2.51562-2.5625-3.82812.60938-.92188 1.32813-1.875 2.0625-2.75.48438-.59375.73438-.65625 1.625-.6875v-.5625H5.53125v.5625l.73438.04687c.29687.04688.26562.25.125.4375-.4375.71875-.9375 1.48438-1.5 2.34375H4.875L3.3125-8.0625c-.15625-.21875-.09375-.4375.17188-.48437l.5625-.03125v-.5625H.15625v.5625c.75.03125.92188.04687 1.375.67187.76563 1.07813 1.57813 2.29688 2.375 3.48438-.6875 1.01562-1.40625 2.0625-2.1875 3.07812-.46875.65625-.89062.75-1.70312.8125Zm0 0" style="stroke:none"/></symbol><symbol id="i" overflow="visible"><path d="M.57813-8.39062h1.34375v6.48437c0 1.90625 1.40625 2.125 2.0625 2.125.95312 0 1.84375-.46875 2.375-.8125l-.14063-.39062C5.76563-.8125 5.375-.75 4.89063-.75c-.625 0-1.21875-.45312-1.21875-1.875v-5.76562H6.0625v-.75H3.67188v-2.34375h-.53125L2-9.14062H.57813Zm0 0" style="stroke:none"/></symbol><symbol id="j" overflow="visible"><path d="M.59375 0h4.54688v-.53125C3.8125-.64062 3.75-.67187 3.75-1.625v-4.35937c0-.48438.01563-.71875.17188-1.01563.40625-.73437 1.23437-1.34375 2.21875-1.34375 1.28125 0 1.96875.6875 1.96875 2.3125V-1.625c0 .95313-.0625.98438-1.40625 1.09375V0h4.5625v-.53125C9.9375-.64062 9.85938-.67187 9.85938-1.625v-4.76562c0-1.875-1.03125-2.96875-2.73438-2.96875-1.39062 0-2.25.67187-3.39062 1.42187l-.26563-1.42187-2.78125.46875v.46875l.70313.09375C1.85938-8.25 2-8.17187 2-7.5v5.875C2-.67187 1.9375-.64062.59375-.53125Zm0 0" style="stroke:none"/></symbol><symbol id="k" overflow="visible"><path d="M.90625-2.42187c0 1.39062.9375 2.64062 2.6875 2.64062C4.67188.21875 5.76563-.5 6.35938-.89062 6.625-.20312 6.9375.21874 7.59375.21874c.6875 0 1.48438-.20312 2.20313-.5625l-.125-.42187c-.25.04687-.67188.07812-.95313 0-.32812-.09376-.65625-.42188-.65625-1.59375V-6.875c0-1.09375-.23437-2.48437-3.04687-2.48437-2.09375 0-3.76563 1.09375-3.76563 2.125 0 .59375.6875.875 1.04688.875.40625 0 .5-.20313.59375-.51563C3.3125-8.26562 4.0625-8.70312 4.8125-8.70312c.73438 0 1.57813.375 1.57813 1.85937v.78125c-.48438.46875-2.28125.95313-3.75 1.42188C1.28125-4.21875.90625-3.29687.90625-2.42187m1.89063-.25c0-.875.39062-1.32813 1.45312-1.73438.75-.26562 1.71875-.625 2.14063-.89062v2.64062c0 1.5-1.15625 1.89063-1.89063 1.89063-1.15625 0-1.70312-.82813-1.70312-1.90625m0 0" style="stroke:none"/></symbol><symbol id="l" overflow="visible"><path d="M.59375 0h4.92188v-.53125C3.84375-.64062 3.75-.67187 3.75-1.625v-4.35937c0-1.4375.625-1.92188 1.0625-1.92188.29688 0 .625.10938 1.15625.40625.14063.07813.28125.10938.375.10938.45313 0 .85938-.48438.85938-1.0625 0-.40625-.26563-.90625-1-.90625-.67188 0-1.21875.39062-2.45313 1.48437l-.21875-1.48437-2.84375.46875v.46875l.70313.09375C1.85938-8.25 2-8.17187 2-7.5v5.875C2-.67187 1.90625-.64062.59375-.53125Zm0 0" style="stroke:none"/></symbol><symbol id="n" overflow="visible"><path d="M.39063 0h4.53125v-.53125C3.625-.64062 3.53125-.71875 3.53125-1.625v-4.35937c0-.48438 0-.71875.15625-1 .39063-.75 1.25-1.35938 2.23438-1.35938 1.28125 0 1.96875.6875 1.96875 2.3125V-1.625c0 .90625-.09375.98438-1.40625 1.09375V0h4.54687v-.53125C9.73438-.64062 9.64063-.71875 9.64063-1.625v-4.76562c0-1.875-1.03125-2.96875-2.76563-2.96875-1.35937 0-2.20312.65625-3.35937 1.42187v-5.78125L3.375-13.8125l-2.90625.45313v.46875l.70313.07812c.46875.07813.59375.1875.59375.85938V-1.625c0 .90625-.0625.98438-1.375 1.09375Zm0 0" style="stroke:none"/></symbol><symbol id="o" overflow="visible"><path d="M.5625-8.39062H2V-1.625C2-.67187 1.9375-.64062.59375-.53125V0h4.73438v-.53125C3.82813-.60937 3.75-.65625 3.75-1.60937v-6.78125h4.1875V-1.625c0 .95313-.04687.98438-1.39062 1.09375V0h4.90625v-.53125c-1.70313-.07812-1.75-.125-1.75-1.07812v-6.78125h2.25v-.75h-2.25l-.09375-2.07813c-.04688-1.76562.60937-1.96875.90625-1.96875.39062 0 .78125.1875 1.26562 1.26563.09375.1875.21875.32812.5.32812.375 0 .92188-.32812.92188-.875 0-.625-.79688-1.34375-2.28125-1.34375-.95313 0-1.79688.39063-2.28125 1.01563-.625-.40625-1.73438-.75-2.71875-.75-1 0-2.39063.45312-2.875 1.17187C2.625-11.71875 2-10.85937 2-9.64062v.5H.5625Zm7.64063-2.96875c-.09375.45312-.14063.96875-.14063 1.5625v.65625H3.89063v-.90625c0-2.10938.95312-2.82813 1.79687-2.82813.95313 0 1.48438.34375 2.1875 1.23438.09375.125.17188.23437.32813.28125m0 0" style="stroke:none"/></symbol><symbol id="p" overflow="visible"><path d="m3.75-10.46875.28125.375 2.8125-1.5625c.54688-.29687 1.04688-.625 1.04688-1.01562 0-.375-.45313-.8125-.73438-.8125-.3125 0-.625.20312-1.1875.78125ZM.90625-4.5c0 2.95313 1.28125 4.71875 4.3125 4.71875 2.0625 0 3.125-1.15625 3.625-2.625l-.5625-.29687C7.76563-1.60937 7.0625-.73437 5.59375-.73437c-2.32812 0-2.78125-2.21875-2.73437-4.15625h5.375c.39062 0 .73437-.10938.73437-.71875 0-1.09375-.35937-3.75-3.78125-3.75C2.28125-9.35937.90625-7.29687.90625-4.5M2.875-5.60937c0-.78125.28125-3.09375 2.21875-3.09375 1.73438 0 1.92188 1.76562 1.92188 2.5 0 .35937-.10938.59375-.625.59375Zm0 0" style="stroke:none"/></symbol><symbol id="r" overflow="visible"><path d="M.65625 0h5.76563c2.84375 0 4.65625-1.01562 4.65625-3.60937 0-2.20313-1.5625-3.17188-3.35938-3.40625v-.04688c1.73438-.35937 2.76563-1.4375 2.76563-2.875 0-1.03125-.39063-1.79687-1.14063-2.29687-.73437-.46875-1.8125-.65625-3.29687-.65625H.65625v.53125c1.64063.125 1.6875.14062 1.6875 1.20312v9.4375c0 1.04688-.04687 1.0625-1.6875 1.1875ZM4.1875-2.07812V-6.625h1.32813c2.3125 0 3.57812 1.15625 3.57812 3.14063 0 2.23437-1.51562 2.82812-3.125 2.82812-1.48437 0-1.78125-.28125-1.78125-1.42187m0-5.20313v-4.04687c0-.78125.0625-.92188 1.5-.92188 1.375 0 2.85938.51563 2.85938 2.4375 0 1.82813-1.17188 2.53125-3.10938 2.53125Zm0 0" style="stroke:none"/></symbol><symbol id="s" overflow="visible"><path d="M.90625-4.5625c0 3.01563 1.5 4.78125 4.48438 4.78125 3 0 4.46875-1.76562 4.46875-4.78125S8.39063-9.35937 5.39063-9.35937c-2.98438 0-4.48438 1.78125-4.48438 4.79687m1.95313 0c0-2.57812.82812-4.14062 2.53125-4.14062 1.70312 0 2.54687 1.5625 2.54687 4.14062s-.84375 4.125-2.54687 4.125-2.53125-1.54687-2.53125-4.125m0 0" style="stroke:none"/></symbol><symbol id="t" overflow="visible"><path d="m.375-12.89062.71875.0625c.46875.0625.59375.15625.59375.875V.07813l.32813.14062L2.75-.5c.65625.375 1.45313.71875 2.84375.71875 2.46875 0 4.64063-1.1875 4.64063-5 0-1.14062-.23438-4.57812-3.59375-4.57812-1.40625 0-2.51563.90625-3.20313 1.32812v-5.6875l-.14062-.09375-2.92188.45313Zm3.0625 9.85937v-2.95312c0-.48438.01563-.75.17188-1.04688.45312-.90625 1.23437-1.3125 2.28125-1.3125.76562 0 2.39062.4375 2.39062 3.6875 0 2.73438-.82812 4.21875-2.67187 4.21875-.98438 0-1.70313-.5-2.04688-1.42187-.10937-.34375-.125-.71875-.125-1.17188m0 0" style="stroke:none"/></symbol><symbol id="u" overflow="visible"><path d="M.32813 0h2.45312v-.26562c-.375-.04688-.59375-.04688-.67187-.15625-.03125-.03125-.01563-.04688-.01563-.4375v-2.17188h.64063c.54687 0 .98437.15625 1.14062.79688.07813.26562.17188 1 .26563 1.4375C4.28125-.20312 4.65625 0 5.20313 0h.75v-.26562C5.23438-.34375 5.0625-.85937 4.98438-1.5c-.10938-.82812-.26563-1.45312-1.26563-1.6875v-.03125c.875-.17187 1.51563-.76562 1.51563-1.64062 0-.89063-.5625-1.59375-2.1875-1.59375H.32813v.26562c.82812.0625.84375.07813.84375.59375v4.73438c0 .51562-.01563.53125-.84375.59375Zm1.76562-3.35937v-2.3125c0-.375.0625-.45313.67188-.45313.70312 0 1.48437.25 1.48437 1.35938 0 .96875-.51562 1.40625-1.42187 1.40625Zm0 0" style="stroke:none"/></symbol><symbol id="v" overflow="visible"><path d="m1.875-5.23437.14063.1875 1.40625-.78125c.28125-.15625.53125-.3125.53125-.51563 0-.1875-.23438-.40625-.375-.40625-.15625 0-.3125.10938-.59375.39063ZM.45313-2.25c0 1.46875.64062 2.35938 2.15625 2.35938 1.03125 0 1.5625-.57813 1.8125-1.3125l-.28125-.14063c-.25.54688-.60938.98438-1.34375.98438-1.15625 0-1.39063-1.125-1.375-2.09375H4.125c.1875 0 .35938-.04688.35938-.35938 0-.54687-.17188-1.875-1.89063-1.875C1.14063-4.6875.45313-3.65625.45313-2.25m.98437-.5625c0-.375.14063-1.54687 1.10938-1.54687.85937 0 .96875.89062.96875 1.25 0 .1875-.0625.29687-.32813.29687Zm0 0" style="stroke:none"/></symbol><symbol id="w" overflow="visible"><path d="M.45313-2.1875c0 1.375.73437 2.29688 1.95312 2.29688.51563 0 .9375-.23438 1.4375-.64063v.46875L3.92188 0H5.4375v-.26562C4.76563-.3125 4.75-.34375 4.75-.8125v-6.04687l-.07812-.0625-1.46875.23437v.23438l.35937.03125c.23438.03125.29688.07812.29688.4375v1.53125c-.25-.14063-.60938-.23438-1.03125-.23438-.76563 0-1.34375.25-1.73438.65625C.70313-3.625.45313-3 .45313-2.1875m.96875-.10937c0-1.21875.4375-2.0625 1.39062-2.0625.4375 0 .79688.20312.96875.59375.07813.15625.07813.29687.07813.54687v1.625c0 .21875 0 .375-.0625.53125-.1875.48438-.59375.67188-1.07813.67188-.85937 0-1.29687-.84375-1.29687-1.90625m0 0" style="stroke:none"/></symbol><symbol id="x" overflow="visible"><path d="M.45313-1.20312c0 .6875.46875 1.3125 1.34375 1.3125.54687 0 1.09375-.35938 1.39062-.5625.125.35937.28125.5625.60938.5625.34375 0 .75-.09375 1.10937-.28126l-.0625-.21874c-.125.03125-.34375.04687-.48437 0-.15625-.03125-.32813-.20313-.32813-.79688v-2.25c0-.54687-.10937-1.25-1.51562-1.25C1.45313-4.6875.625-4.14062.625-3.625c0 .29688.34375.4375.53125.4375s.25-.09375.29688-.25c.20312-.70312.57812-.92187.95312-.92187s.78125.1875.78125.9375v.39062c-.23437.23438-1.14062.46875-1.875.70313-.67187.21875-.85937.6875-.85937 1.125m.95312-.14063c0-.4375.1875-.65625.71875-.85937.375-.14063.85938-.3125 1.0625-.45313v1.32813c0 .75-.5625.9375-.9375.9375-.57812 0-.84375-.40625-.84375-.95313m0 0" style="stroke:none"/></symbol><symbol id="y" overflow="visible"><path d="M.45313-2.25c0 1.5625.76562 2.35938 2.17187 2.35938.65625 0 1.53125-.34375 1.79688-1.34375l-.28125-.125c-.29688.65625-.65625.98437-1.34375.98437-1.10938 0-1.375-1.15625-1.375-2.03125 0-1.39062.54687-1.95312 1.20312-1.95312.42188 0 .6875.3125.875.8125.0625.15625.125.25.29688.25.1875 0 .54687-.125.54687-.48438 0-.42187-.60937-.90625-1.625-.90625C1.01563-4.6875.45313-3.48437.45313-2.25m0 0" style="stroke:none"/></symbol><symbol id="z" overflow="visible"><path d="M.28125-4.20312h.6875v3.25C.96875 0 1.67188.10938 2 .10938c.46875 0 .92188-.23438 1.1875-.40625L3.10938-.5c-.21875.09375-.42188.125-.65625.125-.3125 0-.625-.23437-.625-.9375v-2.89062h1.20312v-.375H1.82813V-5.75H1.5625L1-4.57812H.28125Zm0 0" style="stroke:none"/></symbol><symbol id="A" overflow="visible"><path d="M.85938-6.10937c0 .34375.23437.57812.5625.57812.34375 0 .57812-.23437.57812-.57812 0-.32813-.23437-.5625-.57812-.5625-.32813 0-.5625.23437-.5625.5625M.29688 0H2.5625v-.26562C1.90625-.3125 1.875-.34375 1.875-.8125V-4.625l-.0625-.0625-1.46875.25v.21875l.34375.04688C.9375-4.125 1-4.09375 1-3.75v2.9375c0 .46875-.03125.5-.70312.54688Zm0 0" style="stroke:none"/></symbol><symbol id="B" overflow="visible"><path d="M.45313-2.28125c0 1.5.75 2.39063 2.25 2.39063S4.9375-.78125 4.9375-2.28125c0-1.51562-.73437-2.40625-2.23437-2.40625s-2.25.89063-2.25 2.40625m.96875 0c0-1.29687.42187-2.07812 1.28125-2.07812.84375 0 1.26562.78125 1.26562 2.07812s-.42187 2.0625-1.26562 2.0625c-.85938 0-1.28125-.76562-1.28125-2.0625m0 0" style="stroke:none"/></symbol><symbol id="C" overflow="visible"><path d="M.29688 0H2.5625v-.26562C1.90625-.3125 1.875-.34375 1.875-.8125V-3c0-.23437.01563-.35937.09375-.5.1875-.375.60938-.67187 1.10938-.67187.625 0 .98437.34375.98437 1.15625V-.8125c0 .46875-.03125.5-.70312.54688V0h2.28125v-.26562C4.96875-.3125 4.9375-.34375 4.9375-.8125v-2.375c0-.95312-.51562-1.5-1.375-1.5-.6875 0-1.125.34375-1.70312.71875l-.125-.71875-1.39063.25v.21875l.34375.04688C.9375-4.125 1-4.09375 1-3.75v2.9375c0 .46875-.03125.5-.70312.54688Zm0 0" style="stroke:none"/></symbol><symbol id="D" overflow="visible"><path d="M.45313-3.1875c0 1.09375.32812 1.98438.875 2.53125.57812.57813 1.5.79688 2.54687.79688.73438 0 1.60938-.20313 2.04688-.45313l.125-1.54687h-.26563c-.26562.96875-.75 1.67187-1.96875 1.67187-1.92187 0-2.32812-1.89062-2.32812-3.01562 0-1.53125.60937-3.0625 2.34375-3.0625.95312 0 1.625.39062 1.79687 1.5h.28125v-1.46875c-.42187-.1875-1.125-.35938-1.98437-.35938-1.14063 0-2.0625.32813-2.625.95313C.76563-5.04687.45313-4.23437.45313-3.1875m0 0" style="stroke:none"/></symbol><symbol id="E" overflow="visible"><path d="M.20313 0h2.25v-.26562c-.64063-.04688-.6875-.09375-.6875-.54688V-3c0-.23437 0-.35937.07812-.5.20313-.375.625-.67187 1.125-.67187.64063 0 .98438.34375.98438 1.15625V-.8125c0 .45313-.04688.5-.70313.54688V0h2.26563v-.26562c-.64063-.04688-.6875-.09375-.6875-.54688v-2.375c0-.95312-.51563-1.5-1.39063-1.5-.67187 0-1.09375.32813-1.6875.71875v-2.89062l-.0625-.0625-1.45312.23437v.23438l.34375.04687c.25.03125.3125.09375.3125.42188V-.8125c0 .45313-.03126.5-.6875.54688Zm0 0" style="stroke:none"/></symbol><symbol id="F" overflow="visible"><path d="M.28125-4.20312H1V-.8125c0 .46875-.03125.5-.70312.54688V0h2.375v-.26562c-.75-.04688-.79688-.0625-.79688-.53125v-3.40625h2.09375V-.8125c0 .46875-.01562.5-.6875.54688V0h2.45313v-.26562c-.85938-.04688-.875-.0625-.875-.53125v-3.40625h1.125v-.375h-1.125L4.8125-5.60937c-.03125-.89063.29688-.98438.45313-.98438.1875 0 .39062.07813.625.625.04687.09375.10937.17188.25.17188.1875 0 .46875-.17188.46875-.4375 0-.3125-.39063-.6875-1.14063-.6875-.48437 0-.90625.20312-1.14062.51562-.3125-.20312-.875-.375-1.35938-.375-.51562 0-1.20312.23438-1.4375.59375C1.3125-5.85937 1-5.4375 1-4.82812v.25H.28125ZM4.10938-5.6875c-.04688.23438-.07813.48438-.07813.78125v.32813H1.9375v-.45313c0-1.04687.48438-1.40625.90625-1.40625.48438 0 .75.17188 1.09375.60938.04688.0625.09375.125.17188.14062m0 0" style="stroke:none"/></symbol><symbol id="G" overflow="visible"><path d="M.29688 0h2.46875v-.26562C1.92188-.3125 1.875-.34375 1.875-.8125V-3c0-.70312.3125-.95312.53125-.95312.15625 0 .3125.04687.57813.20312.07812.04688.14062.04688.1875.04688.23437 0 .4375-.23438.4375-.53125 0-.20313-.14063-.45313-.5-.45313-.34375 0-.625.20313-1.23438.75l-.10937-.75-1.42188.25v.21875l.34375.04688C.9375-4.125 1-4.09375 1-3.75v2.9375c0 .46875-.04687.5-.70312.54688Zm0 0" style="stroke:none"/></symbol><symbol id="H" overflow="visible"><path d="M.45313-2.25c0 1.46875.64062 2.35938 2.15625 2.35938 1.03125 0 1.5625-.57813 1.8125-1.3125l-.28125-.14063c-.25.54688-.60938.98438-1.34375.98438-1.15625 0-1.39063-1.125-1.375-2.09375H4.125c.1875 0 .35938-.04688.35938-.35938 0-.54687-.17188-1.875-1.89063-1.875C1.14063-4.6875.45313-3.65625.45313-2.25m.98437-.5625c0-.375.14063-1.54687 1.10938-1.54687.85937 0 .96875.89062.96875 1.25 0 .1875-.0625.29687-.32813.29687Zm0 0" style="stroke:none"/></symbol><symbol id="I" overflow="visible"><path d="M.29688 0H2.5625v-.26562C1.90625-.3125 1.875-.34375 1.875-.8125V-3c0-.23437 0-.35937.0625-.5.1875-.375.59375-.67187 1.10938-.67187.79687 0 .90625.57812.90625 1.15625V-.8125c0 .46875-.03125.5-.70313.54688V0h2.26563v-.26562c-.65625-.04688-.6875-.07813-.6875-.54688V-3c0-.23437 0-.35937.0625-.5.14062-.375.53125-.67187 1.0625-.67187.57812 0 .9375.32812.9375 1.15625V-.8125c0 .46875-.03125.5-.70313.54688V0h2.28125v-.26562C7.8125-.3125 7.76563-.34375 7.76563-.8125v-2.375c0-.95312-.5-1.5-1.39063-1.5-.76562 0-1.3125.51563-1.625.71875-.23437-.4375-.59375-.71875-1.25-.71875-.71875 0-1.29687.48438-1.625.71875l-.09375-.71875-1.4375.25v.21875l.34375.04688C.9375-4.125 1-4.09375 1-3.75v2.9375c0 .46875-.03125.5-.70312.54688Zm0 0" style="stroke:none"/></symbol><symbol id="J" overflow="visible"><path d="M.1875 0h2.26563v-.26562c-.65625-.04688-.6875-.07813-.6875-.54688v-6.04687l-.0625-.0625-1.46875.23437v.23438l.34375.03125c.25.03125.3125.07812.3125.4375V-.8125c0 .46875-.03126.5-.70313.54688Zm0 0" style="stroke:none"/></symbol><symbol id="K" overflow="visible"><path d="M.23438 1.875v.26563h2.42187V1.875c-.79687-.04687-.84375-.0625-.84375-.54687V-.09376C2 .01563 2.45313.10938 2.875.10938c1.26563 0 2.32813-.57813 2.32813-2.5 0-.67188-.10938-2.29688-1.8125-2.29688-.6875 0-1.21875.45313-1.57813.70313l-.125-.70313-1.40625.25v.21875l.35938.04688C.875-4.125.9375-4.09375.9375-3.75v5.07813c0 .48437-.04687.5-.70312.54687M1.8125-1.46875V-3c0-.23437.04688-.35937.125-.51562.21875-.4375.60938-.65625 1.09375-.65625.375 0 1.21875.23437 1.21875 1.84375 0 1.35937-.4375 2.10937-1.375 2.10937-.48437 0-.84375-.25-1-.67187-.0625-.17188-.0625-.35938-.0625-.57813m0 0" style="stroke:none"/></symbol><symbol id="L" overflow="visible"><path d="m.23438-4.21875.35937.04688c.23438.04687.29688.07812.29688.42187v2.45313c0 1.07812.64062 1.40625 1.32812 1.40625.79688 0 1.4375-.53125 1.70313-.67188L4.01563 0h1.5v-.26562C4.875-.3125 4.8125-.34375 4.8125-.8125V-4.625L4.75-4.6875l-1.46875.25v.21875l.35938.04688c.23437.04687.29687.07812.29687.42187v2.10938c0 .25-.03125.45312-.07812.54687-.21875.42188-.65625.70313-1.14063.70313-.54687 0-.9375-.34375-.9375-1.0625V-4.625l-.07812-.0625-1.46875.25Zm0 0" style="stroke:none"/></symbol><symbol id="M" overflow="visible"><path d="m.1875-6.45312.35938.03125c.23437.03125.29687.07812.29687.4375V.04688l.17188.0625L1.375-.25c.32813.1875.73438.35938 1.42188.35938 1.23437 0 2.32812-.59375 2.32812-2.5 0-.57813-.125-2.29688-1.79687-2.29688-.70313 0-1.26563.45313-1.60938.67188v-2.84375l-.07812-.0625L.1875-6.6875Zm1.53125 4.9375V-3c0-.23437 0-.375.09375-.51562.21875-.45313.60938-.65625 1.14063-.65625.375 0 1.1875.21875 1.1875 1.84375 0 1.35937-.40625 2.10937-1.32813 2.10937-.5 0-.85937-.25-1.03125-.71875-.0625-.15625-.0625-.35937-.0625-.57812m0 0" style="stroke:none"/></symbol><symbol id="N" overflow="visible"><path d="M.45313-2.17187c0 1.48437.8125 2.28125 1.95312 2.28125.51563 0 .96875-.25 1.45313-.60938v1.82813c0 .48437-.04688.5-.75.54687v.26563H5.4375V1.875c-.64062-.04687-.6875-.0625-.6875-.54687V-4.6875h-.26562l-.39063.29688C3.73438-4.59375 3.25-4.6875 2.85938-4.6875c-.75 0-1.34375.23438-1.75.65625C.70313-3.625.45313-3.01562.45313-2.17187m.96875-.125c0-1.14063.40625-2.0625 1.35937-2.0625.48438 0 .82813.17187 1.01563.65625.04687.14062.0625.29687.0625.53125v1.57812c0 .20313 0 .35938-.0625.51563-.17188.5-.53125.6875-1.04688.6875-.92187 0-1.32812-.84375-1.32812-1.90625m0 0" style="stroke:none"/></symbol><symbol id="O" overflow="visible"><path d="M.32813 0h2.90625c2.875 0 3.57812-1.67187 3.57812-3.34375 0-1.53125-.67187-3.10937-3.39062-3.10937H.32813v.26562c.82812.0625.84375.07813.84375.59375v4.73438c0 .51562-.01563.53125-.84375.59375Zm1.76562-1.17187v-4.42188c0-.48437.07813-.53125 1.07813-.53125 1.98437 0 2.60937 1.25 2.60937 2.82813 0 2.34375-1.15625 2.96875-2.71875 2.96875-.8125 0-.96875-.10938-.96875-.84375m0 0" style="stroke:none"/></symbol><symbol id="P" overflow="visible"><path d="M.01563-4.29687c.4375.04687.51562.0625.65625.42187.25.60938.45312 1.21875.70312 1.85938L2.09375 0h.67188l.82812-2.25c.26563-.71875.54688-1.35937.67188-1.65625.14062-.32812.23437-.375.67187-.39062v-.28125H3.17188v.28125L3.625-4.25c.14063.01563.17188.125.14063.25-.07813.29688-.25.84375-.46875 1.4375l-.625 1.71875h-.01563l-.57812-1.5625c-.1875-.54687-.375-1.0625-.54688-1.57812-.07812-.17188-.03125-.25.14063-.26563l.4375-.04687v-.28125H.01563Zm0 0" style="stroke:none"/></symbol><symbol id="Q" overflow="visible"><path d="M.32813 0h4.84375l.10937-1.67187H5C4.8125-.45312 4.3125-.32812 3.32813-.32812c-.46875 0-.8125-.01563-1-.09375C2.125-.5 2.09375-.67187 2.09375-1.125v-4.46875c0-.51562.03125-.53125.89063-.59375v-.26562H.32813v.26562c.82812.0625.84375.07813.84375.59375v4.73438c0 .51562-.01563.53125-.84375.59375Zm0 0" style="stroke:none"/></symbol><clipPath id="f"><path d="M160 0h76v50.52344h-76Zm0 0"/></clipPath><clipPath id="m"><path d="M333 0h69v50.52344h-69Zm0 0"/></clipPath><clipPath id="q"><path d="M498 0h77v50.52344h-77Zm0 0"/></clipPath></defs><g style="fill:#000;fill-opacity:1"><use xlink:href="#a" x="7.97051" y="32.06566"/><use xlink:href="#b" x="19.79056" y="32.06566"/><use xlink:href="#c" x="24.98662" y="32.06566"/><use xlink:href="#d" x="30.40084" y="32.06566"/><use xlink:href="#e" x="39.64268" y="32.06566"/></g><g clip-path="url(#f)"><path d="M207.9253 25.18085h-75.68916V-25.1831h75.68915Zm0 0" style="fill:none;stroke-width:.3985;stroke-linecap:butt;stroke-linejoin:miter;stroke:#000;stroke-opacity:1;stroke-miterlimit:10" transform="matrix(.99533 0 0 -.99533 28.5958 25.26255)"/></g><use xlink:href="#g" x="175.72797" y="19.69864" style="fill:#000;fill-opacity:1"/><g style="fill:#000;fill-opacity:1"><use xlink:href="#e" x="185.42596" y="19.69864"/><use xlink:href="#h" x="195.00496" y="19.69864"/><use xlink:href="#i" x="204.04849" y="19.69864"/><use xlink:href="#e" x="210.45432" y="19.69864"/></g><g style="fill:#000;fill-opacity:1"><use xlink:href="#e" x="166.82372" y="43.49905"/><use xlink:href="#j" x="176.40272" y="43.49905"/></g><g style="fill:#000;fill-opacity:1"><use xlink:href="#d" x="192.10989" y="43.49905"/><use xlink:href="#b" x="201.35174" y="43.49905"/><use xlink:href="#k" x="206.54781" y="43.49905"/><use xlink:href="#c" x="216.28546" y="43.49905"/><use xlink:href="#l" x="221.69968" y="43.49905"/></g><g clip-path="url(#m)"><path d="M374.24834 25.18085h-68.17361V-25.1831h68.17361Zm0 0" style="fill:none;stroke-width:.3985;stroke-linecap:butt;stroke-linejoin:miter;stroke:#000;stroke-opacity:1;stroke-miterlimit:10" transform="matrix(.99533 0 0 -.99533 28.5958 25.26255)"/></g><use xlink:href="#g" x="345.01327" y="19.69864" style="fill:#000;fill-opacity:1"/><g style="fill:#000;fill-opacity:1"><use xlink:href="#e" x="354.71126" y="19.69864"/><use xlink:href="#h" x="364.29026" y="19.69864"/><use xlink:href="#i" x="373.33379" y="19.69864"/><use xlink:href="#e" x="379.73962" y="19.69864"/></g><g style="fill:#000;fill-opacity:1"><use xlink:href="#d" x="339.84749" y="43.49905"/><use xlink:href="#n" x="349.08934" y="43.49905"/><use xlink:href="#c" x="360.39375" y="43.49905"/><use xlink:href="#o" x="365.80796" y="43.49905"/><use xlink:href="#l" x="377.66767" y="43.49905"/><use xlink:href="#p" x="384.90646" y="43.49905"/></g><g clip-path="url(#q)"><path d="M548.08693 25.18085h-75.68915V-25.1831h75.68915Zm0 0" style="fill:none;stroke-width:.3985;stroke-linecap:butt;stroke-linejoin:miter;stroke:#000;stroke-opacity:1;stroke-miterlimit:10" transform="matrix(.99533 0 0 -.99533 28.5958 25.26255)"/></g><use xlink:href="#g" x="514.29956" y="19.69864" style="fill:#000;fill-opacity:1"/><g style="fill:#000;fill-opacity:1"><use xlink:href="#e" x="523.99755" y="19.69864"/><use xlink:href="#h" x="533.57655" y="19.69864"/><use xlink:href="#i" x="542.62008" y="19.69864"/><use xlink:href="#e" x="549.02591" y="19.69864"/></g><g style="fill:#000;fill-opacity:1"><use xlink:href="#e" x="505.39332" y="43.49905"/><use xlink:href="#j" x="514.97232" y="43.49905"/></g><g style="fill:#000;fill-opacity:1"><use xlink:href="#d" x="530.67949" y="43.49905"/><use xlink:href="#b" x="539.92134" y="43.49905"/><use xlink:href="#k" x="545.11741" y="43.49905"/><use xlink:href="#c" x="554.85506" y="43.49905"/><use xlink:href="#l" x="560.26928" y="43.49905"/></g><use xlink:href="#r" x="688.82927" y="32.06566" style="fill:#000;fill-opacity:1"/><g style="fill:#000;fill-opacity:1"><use xlink:href="#s" x="700.74848" y="32.06566"/><use xlink:href="#t" x="711.49758" y="32.06566"/></g><path d="M39.68706.00084h73.30302" style="fill:none;stroke-width:.3985;stroke-linecap:butt;stroke-linejoin:miter;stroke:#000;stroke-opacity:1;stroke-miterlimit:10" transform="matrix(.99533 0 0 -.99533 28.5958 25.26255)"/><path d="M-2.07384 2.3909C-1.69315.95451-.84937.27949-.00167.00084c-.8477-.27864-1.69148-.9576-2.07217-2.39006" style="fill:none;stroke-width:.3985;stroke-linecap:round;stroke-linejoin:round;stroke:#000;stroke-opacity:1;stroke-miterlimit:10" transform="matrix(.99533 0 0 -.99533 141.25556 25.26255)"/><g style="fill:#000;fill-opacity:1"><use xlink:href="#u" x="83.3252" y="39.1813"/><use xlink:href="#v" x="89.32447" y="39.1813"/><use xlink:href="#w" x="94.11397" y="39.1813"/><use xlink:href="#x" x="99.68685" y="39.1813"/><use xlink:href="#y" x="104.55568" y="39.1813"/><use xlink:href="#z" x="109.1766" y="39.1813"/><use xlink:href="#A" x="112.37952" y="39.1813"/><use xlink:href="#B" x="115.08663" y="39.1813"/><use xlink:href="#C" x="120.46118" y="39.1813"/></g><path d="M226.77498.00084h56.29395" style="fill:none;stroke-width:.3985;stroke-linecap:butt;stroke-linejoin:miter;stroke:#000;stroke-opacity:1;stroke-miterlimit:10" transform="matrix(.99533 0 0 -.99533 28.5958 25.26255)"/><path d="M-2.07192 2.3909C-1.69517.95451-.8514.27949.00025.00084c-.85163-.27864-1.69542-.9576-2.07217-2.39006" style="fill:none;stroke-width:.3985;stroke-linecap:round;stroke-linejoin:round;stroke:#000;stroke-opacity:1;stroke-miterlimit:10" transform="matrix(.99533 0 0 -.99533 310.54273 25.26255)"/><g style="fill:#000;fill-opacity:1"><use xlink:href="#D" x="256.91034" y="39.1813"/><use xlink:href="#E" x="263.27651" y="39.1813"/><use xlink:href="#A" x="268.92871" y="39.1813"/><use xlink:href="#F" x="271.63582" y="39.1813"/><use xlink:href="#G" x="277.56568" y="39.1813"/></g><g style="fill:#000;fill-opacity:1"><use xlink:href="#H" x="280.99667" y="39.1813"/><use xlink:href="#I" x="285.78616" y="39.1813"/><use xlink:href="#H" x="294.38347" y="39.1813"/><use xlink:href="#C" x="299.17296" y="39.1813"/><use xlink:href="#z" x="304.93425" y="39.1813"/></g><g style="fill:#000;fill-opacity:1"><use xlink:href="#D" x="255.54176" y="16.11445"/><use xlink:href="#J" x="261.90793" y="16.11445"/><use xlink:href="#v" x="264.50596" y="16.11445"/></g><g style="fill:#000;fill-opacity:1"><use xlink:href="#K" x="271.38776" y="16.11445"/><use xlink:href="#L" x="277.04988" y="16.11445"/><use xlink:href="#M" x="282.69217" y="16.11445"/><use xlink:href="#J" x="288.26505" y="16.11445"/><use xlink:href="#A" x="290.86308" y="16.11445"/><use xlink:href="#N" x="293.57019" y="16.11445"/><use xlink:href="#L" x="299.07365" y="16.11445"/><use xlink:href="#H" x="304.71594" y="16.11445"/></g><path d="M396.85384.00084h56.29788" style="fill:none;stroke-width:.3985;stroke-linecap:butt;stroke-linejoin:miter;stroke:#000;stroke-opacity:1;stroke-miterlimit:10" transform="matrix(.99533 0 0 -.99533 28.5958 25.26255)"/><path d="M-2.07393 2.3909C-1.69325.95451-.84946.27949-.00176.00084c-.8477-.27864-1.69148-.9576-2.07217-2.39006" style="fill:none;stroke-width:.3985;stroke-linecap:round;stroke-linejoin:round;stroke:#000;stroke-opacity:1;stroke-miterlimit:10" transform="matrix(.99533 0 0 -.99533 479.82987 25.26255)"/><g style="fill:#000;fill-opacity:1"><use xlink:href="#O" x="421.04379" y="39.1813"/><use xlink:href="#v" x="428.30241" y="39.1813"/><use xlink:href="#y" x="433.09191" y="39.1813"/><use xlink:href="#E" x="437.71284" y="39.1813"/><use xlink:href="#A" x="443.36504" y="39.1813"/><use xlink:href="#F" x="446.07215" y="39.1813"/><use xlink:href="#G" x="452.00201" y="39.1813"/></g><g style="fill:#000;fill-opacity:1"><use xlink:href="#H" x="455.433" y="39.1813"/><use xlink:href="#I" x="460.22249" y="39.1813"/><use xlink:href="#H" x="468.81979" y="39.1813"/><use xlink:href="#C" x="473.60929" y="39.1813"/><use xlink:href="#z" x="479.37058" y="39.1813"/></g><g style="fill:#000;fill-opacity:1"><use xlink:href="#D" x="430.71645" y="16.11445"/><use xlink:href="#J" x="437.08261" y="16.11445"/><use xlink:href="#v" x="439.68064" y="16.11445"/></g><g style="fill:#000;fill-opacity:1"><use xlink:href="#K" x="446.56245" y="16.11445"/><use xlink:href="#G" x="452.22457" y="16.11445"/></g><g style="fill:#000;fill-opacity:1"><use xlink:href="#A" x="455.92329" y="16.11445"/><use xlink:href="#P" x="458.6304" y="16.11445"/><use xlink:href="#v" x="463.32074" y="16.11445"/><use xlink:href="#H" x="468.11024" y="16.11445"/></g><path d="M566.93662.00084h73.30302" style="fill:none;stroke-width:.3985;stroke-linecap:butt;stroke-linejoin:miter;stroke:#000;stroke-opacity:1;stroke-miterlimit:10" transform="matrix(.99533 0 0 -.99533 28.5958 25.26255)"/><path d="M-2.07118 2.3909C-1.69442.95451-.85064.27949.00099.00084c-.85163-.27864-1.69541-.9576-2.07217-2.39006" style="fill:none;stroke-width:.3985;stroke-linecap:round;stroke-linejoin:round;stroke:#000;stroke-opacity:1;stroke-miterlimit:10" transform="matrix(.99533 0 0 -.99533 666.0459 25.26255)"/><g style="fill:#000;fill-opacity:1"><use xlink:href="#Q" x="613.67762" y="38.71449"/><use xlink:href="#H" x="618.96293" y="38.71449"/><use xlink:href="#y" x="623.75243" y="38.71449"/><use xlink:href="#z" x="628.37335" y="38.71449"/><use xlink:href="#L" x="631.57627" y="38.71449"/><use xlink:href="#G" x="637.21856" y="38.71449"/></g><use xlink:href="#H" x="640.64954" y="38.71449" style="fill:#000;fill-opacity:1"/></svg>