<svg xmlns="http://www.w3.org/2000/svg" xmlns:xlink="http://www.w3.org/1999/xlink" width="523.139pt" height="335.768pt" version="1.2" viewBox="0 0 523.139 335.768"><defs><symbol id="a" overflow="visible"><path d="M-.53125 0h4.10938v-.53125l-.96875-.10937c-.5625-.0625-.64063-.25-.48438-.75C2.45313-2.5 2.82813-3.65625 3.26563-5h4.1875l1.26562 3.59375c.17188.53125.09375.73438-.5.79688l-.85937.07812V0h4.79687v-.53125c-1.09375-.10937-1.29687-.17187-1.64062-1.14062l-3.95313-11.25H5.17188L3.21875-7.40625c-.57812 1.64063-1.375 3.85938-2.03125 5.57813C.79688-.8125.64063-.59375-.53125-.53125Zm4.04688-5.70312c.60937-1.875 1.26562-3.70313 1.8125-5.35938h.0625l1.84375 5.35938Zm0 0" style="stroke:none"/></symbol><symbol id="b" overflow="visible"><path d="M1.70313-12.23437c0 .67187.48437 1.15625 1.15625 1.15625.6875 0 1.14062-.48438 1.14062-1.15625 0-.67188-.45312-1.125-1.14062-1.125-.67188 0-1.15625.45312-1.15625 1.125M.59375 0h4.5625v-.53125C3.8125-.64062 3.76563-.67187 3.76563-1.625v-7.64062l-.14063-.125-2.92187.48437v.45313l.6875.09375c.48437.07812.625.17187.625.84375V-1.625c0 .95313-.0625.98438-1.42188 1.09375Zm0 0" style="stroke:none"/></symbol><symbol id="c" overflow="visible"><path d="M.59375 0h4.9375v-.53125C3.85938-.64062 3.76563-.67187 3.76563-1.625V-6c0-1.4375.625-1.9375 1.0625-1.9375.29687 0 .625.125 1.15625.42188.14062.07812.28125.09375.375.09375.46875 0 .85937-.46875.85937-1.04688 0-.42187-.25-.92187-1-.92187-.67187 0-1.21875.40625-2.45312 1.5l-.21875-1.5-2.84375.48437v.45313l.6875.09375c.48437.07812.625.17187.625.84375V-1.625c0 .95313-.10938.98438-1.42188 1.09375Zm0 0" style="stroke:none"/></symbol><symbol id="d" overflow="visible"><path d="M.92188-4.51562c0 2.96875 1.26562 4.73437 4.3125 4.73437 2.0625 0 3.14062-1.15625 3.64062-2.625l-.5625-.29687C7.79688-1.60937 7.07813-.73437 5.60938-.73437c-2.32813 0-2.78125-2.23438-2.75-4.17188H8.25c.40625 0 .73438-.10937.73438-.71875 0-1.09375-.35938-3.76562-3.76563-3.76562-2.9375 0-4.29687 2.07812-4.29687 4.875M2.89063-5.625c0-.78125.26562-3.10937 2.21875-3.10937 1.73437 0 1.9375 1.76562 1.9375 2.51562 0 .34375-.125.59375-.64063.59375Zm0 0" style="stroke:none"/></symbol><symbol id="e" overflow="visible"><path d="M.92188-4.39062c0 2.76562 1.4375 4.60937 3.90625 4.60937 1.01562 0 1.875-.45312 2.89062-1.26562v.90625L7.875 0h3.03125v-.53125C9.5625-.64062 9.5-.67187 9.5-1.625v-12.14062l-.125-.09375-2.95312.45312v.48438l.71875.04687c.48437.0625.59375.17188.59375.875v3.0625c-.51563-.26562-1.20313-.45312-2.0625-.45312-1.53125 0-2.6875.5-3.46875 1.29687-.79688.82813-1.28125 2.0625-1.28125 3.70313m1.9375-.21875c0-2.4375.875-4.125 2.79687-4.125.875 0 1.57813.40625 1.92188 1.17187.15625.32813.15625.59375.15625 1.09375v3.28125c0 .42188 0 .73438-.10938 1.0625-.39062.96875-1.20312 1.34375-2.17187 1.34375-1.71875 0-2.59375-1.6875-2.59375-3.82812m0 0" style="stroke:none"/></symbol><symbol id="f" overflow="visible"><path d="m.48438-8.45312.70312.09375c.48438.07812.60938.17187.60938.84375v4.9375C1.79688-.4375 3.0625.21875 4.45313.21875c1.59375 0 2.89062-1.07812 3.42187-1.32812L8.0625 0h3v-.53125C9.76563-.64062 9.64063-.67187 9.64063-1.625v-7.64062L9.5-9.39062l-2.92187.48437v.45313l.71875.09375c.48437.07812.59375.17187.59375.84375v4.21875c0 .51562-.04688.9375-.15625 1.10937-.4375.85938-1.3125 1.40625-2.28125 1.40625-1.09375 0-1.89063-.6875-1.89063-2.14062v-6.34375l-.14062-.125-2.9375.48437Zm0 0" style="stroke:none"/></symbol><symbol id="g" overflow="visible"><path d="M.92188-4.5C.92188-1.375 2.45313.21875 5.25.21875c1.3125 0 3.07813-.67187 3.59375-2.6875l-.54687-.25C7.71875-1.40625 6.98438-.75 5.60938-.75c-2.23438 0-2.75-2.32812-2.75-4.07812 0-2.79688 1.09375-3.90625 2.39062-3.90625.85938 0 1.39063.625 1.76563 1.64062.125.29688.25.46875.60937.46875.375 0 1.09375-.23437 1.09375-.95312 0-.85938-1.23437-1.8125-3.26562-1.8125C2.04688-9.39062.92188-6.98437.92188-4.5m0 0" style="stroke:none"/></symbol><symbol id="h" overflow="visible"><path d="M.57813-8.40625h1.34375v6.5C1.92188 0 3.34375.21875 4 .21875c.95313 0 1.84375-.48437 2.39063-.8125L6.25-1c-.46875.1875-.85937.25-1.34375.25-.625 0-1.21875-.46875-1.21875-1.875v-5.78125h2.40625v-.76562H3.6875v-2.34375h-.54687l-1.125 2.34375H.57813Zm0 0" style="stroke:none"/></symbol><symbol id="i" overflow="visible"><path d="M.92188-2.42187c0 1.39062.92187 2.64062 2.67187 2.64062C4.6875.21875 5.78125-.5 6.39063-.89062c.25.6875.57812 1.10937 1.23437 1.10937.6875 0 1.48438-.20312 2.20313-.5625l-.125-.4375c-.25.0625-.67188.07813-.95313 0-.34375-.07812-.65625-.40625-.65625-1.57812v-4.54688c0-1.09375-.23437-2.48437-3.0625-2.48437-2.10937 0-3.78125 1.09375-3.78125 2.125 0 .60937.70313.875 1.0625.875.39063 0 .48438-.1875.59375-.51563.42188-1.39062 1.17188-1.82812 1.92188-1.82812.73437 0 1.57812.375 1.57812 1.875v.76562c-.48437.48438-2.28125.96875-3.76562 1.4375C1.29688-4.23437.92188-3.29687.92188-2.42187m1.875-.26563c0-.875.40625-1.32812 1.45312-1.73437.76563-.26563 1.73438-.625 2.15625-.89063v2.64063c0 1.51562-1.15625 1.89062-1.89062 1.89062-1.15625 0-1.71875-.8125-1.71875-1.90625m0 0" style="stroke:none"/></symbol><symbol id="j" overflow="visible"><path d="M.59375 0h4.5625v-.53125C3.8125-.64062 3.76563-.67187 3.76563-1.625V-6c0-.48437.01562-.71875.17187-1.01562C4.34375-7.75 5.17188-8.375 6.17188-8.375c1.26562 0 1.96875.70313 1.96875 2.32813V-1.625c0 .95313-.0625.98438-1.42188 1.09375V0h4.57813v-.53125C9.96875-.64062 9.89063-.67187 9.89063-1.625v-4.78125c0-1.89062-1.04688-2.98437-2.75-2.98437-1.39063 0-2.25.67187-3.40625 1.4375l-.25-1.4375-2.78125.48437v.45313l.6875.09375c.48437.07812.625.17187.625.84375V-1.625c0 .95313-.0625.98438-1.42188 1.09375Zm0 0" style="stroke:none"/></symbol><symbol id="k" overflow="visible"><path d="M.78125 1.79688c0 1.89062 1.89063 2.71875 4.04688 2.71875 1.125 0 2.29687-.21875 3.1875-.75C8.875 3.23438 9.5 2.34375 9.5 1.1875c0-2.01562-1.60937-2.71875-3.60937-2.71875h-1.5c-1.34375 0-1.54688-.45312-1.54688-.8125 0-.54687.71875-.84375.95313-.92187.35937.04687.76562.0625.95312.0625 1.78125 0 3.78125-.78125 3.78125-3.04688 0-.76562-.25-1.42187-.57812-1.75l1.5-.23437.375-1.17188-.15625-.15625-2.39063.75c-.51562-.35937-1.57812-.57812-2.42187-.57812C1.98438-9.39062 1-7.64062 1-6.25 1-4.5 2.14063-3.6875 3-3.46875v.04688c-1.01562.40625-1.70312.9375-1.70312 1.67187 0 .65625.75 1.35938 1.64062 1.45313v.03125C2.14063 0 .78125.4375.78125 1.79688m1.78125-.09376c0-.625.1875-1.10937.57813-1.40624.42187-.3125 1.03125-.4375 1.9375-.4375 1.64062 0 2.85937.42187 2.85937 1.8125C7.9375 3.15625 6.57813 3.875 5.25 3.875c-1.59375 0-2.6875-.8125-2.6875-2.17187M2.90625-6.25c0-1.84375.95313-2.48437 1.95313-2.48437.90625 0 1.85937.67187 1.85937 2.48437 0 1.57813-.79687 2.39063-1.89062 2.39063-1.04688 0-1.92188-.8125-1.92188-2.39063m0 0" style="stroke:none"/></symbol><symbol id="l" overflow="visible"><path d="M.375 0h4.5625v-.53125C3.59375-.64062 3.54688-.67187 3.54688-1.625v-12.14062l-.14063-.09375-2.92187.45312v.48438l.6875.04687c.48437.0625.59375.17188.59375.875v10.375c0 .95313-.03126.98438-1.39063 1.09375Zm0 0" style="stroke:none"/></symbol><symbol id="m" overflow="visible"><path d="m3.76563-10.5.26562.375 2.82813-1.57812c.5625-.29688 1.0625-.60938 1.0625-1 0-.39063-.46875-.82813-.73438-.82813-.32812 0-.64062.20313-1.20312.78125ZM.92188-4.51562c0 2.96875 1.26562 4.73437 4.3125 4.73437 2.0625 0 3.14062-1.15625 3.64062-2.625l-.5625-.29687C7.79688-1.60937 7.07813-.73437 5.60938-.73437c-2.32813 0-2.78125-2.23438-2.75-4.17188H8.25c.40625 0 .73438-.10937.73438-.71875 0-1.09375-.35938-3.76562-3.76563-3.76562-2.9375 0-4.29687 2.07812-4.29687 4.875M2.89063-5.625c0-.78125.26562-3.10937 2.21875-3.10937 1.73437 0 1.9375 1.76562 1.9375 2.51562 0 .34375-.125.59375-.64063.59375Zm0 0" style="stroke:none"/></symbol><symbol id="n" overflow="visible"><path d="M2.0625-12.70312c0 .39062.5.70312 1.0625 1L5.95313-10.125l.26562-.375L4-12.75c-.5625-.57812-.875-.78125-1.20312-.78125-.26563 0-.73438.4375-.73438.82813M.92188-2.42187c0 1.39062.92187 2.64062 2.67187 2.64062C4.6875.21875 5.78125-.5 6.39063-.89062c.25.6875.57812 1.10937 1.23437 1.10937.6875 0 1.48438-.20312 2.20313-.5625l-.125-.4375c-.25.0625-.67188.07813-.95313 0-.34375-.07812-.65625-.40625-.65625-1.57812v-4.54688c0-1.09375-.23437-2.48437-3.0625-2.48437-2.10937 0-3.78125 1.09375-3.78125 2.125 0 .60937.70313.875 1.0625.875.39063 0 .48438-.1875.59375-.51563.42188-1.39062 1.17188-1.82812 1.92188-1.82812.73437 0 1.57812.375 1.57812 1.875v.76562c-.48437.48438-2.28125.96875-3.76562 1.4375C1.29688-4.23437.92188-3.29687.92188-2.42187m1.875-.26563c0-.875.40625-1.32812 1.45312-1.73437.76563-.26563 1.73438-.625 2.15625-.89063v2.64063c0 1.51562-1.15625 1.89062-1.89062 1.89062-1.15625 0-1.71875-.8125-1.71875-1.90625m0 0" style="stroke:none"/></symbol><symbol id="o" overflow="visible"><path d="M1.42188 0H5.8125v-.40625L4.76563-.5c-.29688-.03125-.4375-.125-.4375-.60937v-7.71875L4.25-8.89062l-2.8125.46875v.34375l1.125.15625c.25.04687.32813.14062.32813.54687v6.26563c0 .46875-.09375.57812-.42188.60937l-1.04687.09375Zm0 0" style="stroke:none"/></symbol><symbol id="p" overflow="visible"><path d="M1.25.15625 2.625 0l2.29688-9.64062-.07813-.0625-2.48437.3125-.09375.34375L3-8.96875c.21875.03125.3125.07813.3125.26563 0 .07812-.01562.20312-.0625.34375Zm2.29688-3.60937c.21875.78125.53125 1.59375.85937 2.375.35938.8125.75 1.23437 1.40625 1.23437.875 0 1.48438-.73437 1.90625-1.875l-.35937-.17187c-.35938.75-.70313 1.25-1.03125 1.25-.21875 0-.39063-.25-.67188-.85938-.375-.8125-.71875-1.75-.96875-2.625C5.0625-4.5625 5.95313-5.5 6.375-5.5c.1875 0 .32813.0625.64063.25.10937.07813.25.14063.42187.14063.39063 0 .67188-.40625.67188-.79688 0-.35937-.1875-.67187-.71875-.67187-.65625 0-1.42188.65625-2.15625 1.34375-.60938.54687-1.1875 1.14062-1.6875 1.78125m0 0" style="stroke:none"/></symbol><symbol id="r" overflow="visible"><path d="M1.3125-3.6875c0 2.4375.67188 5.26563 2.95313 5.35938v-.39063C3.48438 1.125 2.35938.0625 2.35938-3.6875c0-3.76562 1.09375-4.8125 1.90625-4.96875v-.39062C1.98438-8.95312 1.3125-6.125 1.3125-3.6875m0 0" style="stroke:none"/></symbol><symbol id="s" overflow="visible"><path d="M1.10938-3.25h3.17187v3.15625h.875V-3.25H8.3125v-.89062H5.15625v-3.15625h-.875v3.15625H1.10938Zm0 0" style="stroke:none"/></symbol><symbol id="t" overflow="visible"><path d="M.32813 1.28125v.39063C2.625 1.57812 3.26563-1.25 3.26563-3.6875S2.625-8.95312.32813-9.04687v.39062C1.15625-8.5 2.21875-7.4375 2.21875-3.6875c0 3.76563-1.125 4.8125-1.89062 4.96875m0 0" style="stroke:none"/></symbol><symbol id="A" overflow="visible"><path d="M.45313-.5625c0 .39063.32812.71875.89062.71875.875 0 1.35938-.84375 1.89063-1.71875l.5-.85937h.03125l.23437 1c.23438 1 .48438 1.57812 1.17188 1.57812 1.03125 0 1.60937-1.03125 2-1.90625l-.34375-.20312C6.5-1.32812 6.125-.60937 5.76563-.60937c-.25 0-.34375-.28126-.59375-1.29688l-.46875-1.85937c.45312-.76563 1.0625-1.71875 1.42187-1.71875.10938 0 .25.01562.40625.09375.125.0625.28125.125.4375.125.3125 0 .60938-.29688.60938-.6875 0-.4375-.32813-.625-.70313-.625-.67187 0-1.23437.5625-1.70312 1.28125l-.57813.90625H4.5625l-.5-2.125L4-6.57812l-2.29687.65625.01562.35937.96875-.03125c.26563 0 .34375.04688.45313.54688L3.625-3.09375c-.01562.03125-.34375.57813-.35937.60938C2.75-1.57812 2.3125-.9375 2-.9375c-.14062 0-.28125-.04687-.39062-.14062-.14063-.07813-.3125-.20313-.53125-.20313-.35938 0-.625.35938-.625.71875m0 0" style="stroke:none"/></symbol><symbol id="q" overflow="visible"><path d="M.82813-1.59375C.82813-.67187 1.21875.125 2.42188.125 3.21875.125 3.8125-.45312 4.25-1.07812c.01563.32812.07813.71875.23438.92187C4.625.01563 4.82813.125 5.125.125c.32813 0 .67188-.14062.9375-.35937C6.375-.5 6.75-.95312 6.9375-1.4375l-.28125-.14062c-.26562.48437-.73437.98437-.96875.98437-.32812 0-.34375-.51562-.34375-.89062s.03125-.85938.09375-1.28125L7.04688-5.0625h-.9375L5.34375-3.625c-.10937-1.17187-.53125-1.54687-1.57812-1.54687-1.01563 0-1.6875.5-2.15625 1.17187-.51563.70313-.78125 1.625-.78125 2.40625m1.25.09375c0-.71875.23437-1.6875.60937-2.375.28125-.5.59375-.875 1.07813-.875.4375 0 .5625.64063.5625 1.35938 0 .4375-.03125.92187-.07813 1.32812-.4375.84375-1 1.64063-1.60937 1.64063-.46875 0-.5625-.53125-.5625-1.07813m0 0" style="stroke:none"/></symbol><symbol id="u" overflow="visible"><path d="M1.6875-5.26562c0 2.14062 1.57813 3.71875 3.75 3.71875 2.07813 0 3.65625-1.57813 3.65625-3.71875 0-2.09375-1.57812-3.67188-3.65625-3.67188-2.17187 0-3.75 1.57813-3.75 3.67188m0 0" style="stroke:none"/></symbol><symbol id="v" overflow="visible"><path d="M1.79688.21875 3.51563 0l3.28125-13.78125-.07813-.07812-3.35937.4375-.09375.4375 1.04687.10937c.32813.04688.46875.10938.46875.39063 0 .125-.03125.29687-.09375.53125ZM4.85938-5c.35937 1.20313.79687 2.3125 1.3125 3.45313C6.70313-.35937 7.26563.21874 8.15625.21874c1.1875 0 2.03125-1.04687 2.57813-2.625l-.46875-.23437c-.51563 1.10937-1 1.84375-1.5 1.84375-.3125 0-.57813-.35938-1.04688-1.32813-.57812-1.17187-1.03125-2.39062-1.39062-3.64062.51562-.59375 1.96875-2.1875 2.64062-2.1875.28125 0 .5.07812.9375.32812.14063.09375.3125.17188.51563.17188.51562 0 .92187-.54688.92187-1.01563 0-.5-.25-.92187-.98437-.92187-.75 0-1.67188.59375-2.625 1.39062-1.04688.92188-2 1.9375-2.875 3m0 0" style="stroke:none"/></symbol><symbol id="w" overflow="visible"><path d="M1.59375-4.73437H6.1875v4.59375h1.09375v-4.59375H11.875v-1.09375H7.28125v-4.59375H6.1875v4.59375H1.59375Zm0 0" style="stroke:none"/></symbol><symbol id="x" overflow="visible"><path d="M2.03125 0h6.14063v-.53125l-1.5625-.14062c-.40625-.04688-.625-.1875-.625-.92188v-11.01562l-.09375-.09375-3.85938.65625v.45312l1.75.21875c.3125.03125.4375.17188.4375.71875v9.0625c0 .35938-.04687.57813-.15625.71875-.10937.14063-.26562.17188-.46875.20313l-1.5625.14062Zm0 0" style="stroke:none"/></symbol><symbol id="y" overflow="visible"><path d="M0 3.5c0 .5.5625 1.01563 1.375 1.01563 1.59375 0 2.26563-1.17188 3.92188-4.01563.375-.64062 1.5-2.60937 2.65625-4.51562 1.07812-1.75 2.25-3.5625 2.25-4.3125 0-.65625-.20313-1.0625-.34375-1.0625-.35938 0-.98438.15625-1.46875.48437v.3125c0 .65625-.0625 1.59375-.23438 2.25-.29687 1.04688-1.39062 3.07813-2.625 5.20313h-.0625c-.14062-2.85938-.5-6.79688-.75-8.17188l-.14062-.07812L1.4375-8.5l.04688.48438L2.75-8.0625h.03125c.375 0 .45313.32813.625 1.28125.1875 1.45313.60938 5.04688.60938 6.54688 0 .54687-.01563 1.3125-.4375 2.29687-.34375.78125-.8125 1.34375-1.1875 1.34375-.28125 0-.5-.20312-.78125-.57812-.21876-.29688-.375-.46875-.65625-.46875C.48438 2.39063 0 2.96875 0 3.5m0 0" style="stroke:none"/></symbol><symbol id="z" overflow="visible"><path d="M1.59375-2.67187H11.875v-1.09375H1.59375Zm0-4.10938H11.875V-7.875H1.59375Zm0 0" style="stroke:none"/></symbol></defs><path d="M170.07988.00052H85.0378v85.03817h85.04208Zm0 0" style="fill-rule:nonzero;fill:#80d6f7;fill-opacity:1;stroke-width:.3985;stroke-linecap:butt;stroke-linejoin:miter;stroke:#80d6f7;stroke-opacity:1;stroke-miterlimit:10" transform="matrix(.99836 0 0 -.99836 60.76599 231.06302)"/><path d="M170.07988.00052H85.0378l.00391 21.2615 85.03817-.00392Zm0 0" style="fill-rule:nonzero;fill:#33bdf2;fill-opacity:1;stroke-width:.3985;stroke-linecap:butt;stroke-linejoin:miter;stroke:#33bdf2;stroke-opacity:1;stroke-miterlimit:10" transform="matrix(.99836 0 0 -.99836 60.76599 231.06302)"/><path d="M53.14947 217.69416s4.80085-34.81111 6.64373-45.68445c1.84287-10.86942 4.80085-24.79073 6.64373-32.6787 1.84287-7.89186 4.80085-18.28003 6.64372-24.18426 1.84288-5.90814 4.80086-13.8587 6.64373-18.39742 1.84288-4.5387 4.80086-10.74813 6.64373-14.31258 1.84287-3.56054 4.80086-8.50225 6.64373-11.35068s4.80086-6.85501 6.64373-9.1674 4.80086-5.59122 6.64373-7.49279c1.84287-1.90156 4.80086-4.64043 6.64373-6.22507 1.84678-1.58463 4.80086-3.86964 6.64373-5.20386 1.84678-1.33422 4.80085-3.27491 6.64373-4.40568 1.84678-1.13468 4.80085-2.78583 6.64372-3.76008 1.84679-.97035 4.80086-2.39847 6.64373-3.2397 1.84679-.83731 4.80086-2.07763 6.64373-2.8054 1.84679-.72775 4.80086-1.81156 6.64373-2.44933 1.84679-.63777 4.80086-1.58463 6.64373-2.14806 1.84679-.55951 4.80086-1.40074 6.64373-1.89765 1.84679-.493 4.80086-1.24032 6.64373-1.68245 1.84678-.43822 4.80086-1.10338 6.64373-1.49464 1.84678-.39518 4.80086-.98991 6.64373-1.34205 1.84678-.35214 4.80086-.88818 6.64373-1.2051 1.84678-.31694 4.80085-.7982 6.64764-1.08773 1.84287-.28563 4.79694-.71994 6.64373-.98208 1.84287-.25824 6.64373-.8921 6.64373-.8921" style="fill:none;stroke-width:.3985;stroke-linecap:butt;stroke-linejoin:miter;stroke:#00adef;stroke-opacity:1;stroke-miterlimit:10" transform="matrix(.99836 0 0 -.99836 60.76599 231.06302)"/><g style="fill:#80d6f7;fill-opacity:1"><use xlink:href="#a" x="285.07981" y="66.13346"/><use xlink:href="#b" x="296.93576" y="66.13346"/><use xlink:href="#c" x="302.36642" y="66.13346"/></g><use xlink:href="#d" x="309.24924" y="66.13346" style="fill:#80d6f7;fill-opacity:1"/><g style="fill:#80d6f7;fill-opacity:1"><use xlink:href="#e" x="323.05466" y="66.13346"/><use xlink:href="#f" x="334.23427" y="66.13346"/></g><use xlink:href="#c" x="349.75045" y="66.13346" style="fill:#80d6f7;fill-opacity:1"/><g style="fill:#80d6f7;fill-opacity:1"><use xlink:href="#d" x="356.63327" y="66.13346"/><use xlink:href="#g" x="366.24137" y="66.13346"/><use xlink:href="#h" x="375.51129" y="66.13346"/><use xlink:href="#i" x="381.93658" y="66.13346"/><use xlink:href="#j" x="391.70382" y="66.13346"/><use xlink:href="#k" x="403.26139" y="66.13346"/><use xlink:href="#l" x="412.96895" y="66.13346"/><use xlink:href="#d" x="418.18079" y="66.13346"/></g><g style="fill:#80d6f7;fill-opacity:1"><use xlink:href="#m" x="431.98622" y="66.13346"/><use xlink:href="#k" x="441.59431" y="66.13346"/><use xlink:href="#i" x="451.30187" y="66.13346"/><use xlink:href="#l" x="461.06911" y="66.13346"/><use xlink:href="#d" x="466.28095" y="66.13346"/></g><use xlink:href="#n" x="480.08638" y="66.13346" style="fill:#80d6f7;fill-opacity:1"/><use xlink:href="#o" x="501.3838" y="58.13862" style="fill:#80d6f7;fill-opacity:1"/><path d="M-.00022.00043h8.42595" style="fill:none;stroke-width:.548;stroke-linecap:butt;stroke-linejoin:miter;stroke:#80d6f7;stroke-opacity:1;stroke-miterlimit:10" transform="matrix(1.99671 0 0 -1.99671 496.43795 60.86414)"/><use xlink:href="#p" x="496.43795" y="73.13594" style="fill:#80d6f7;fill-opacity:1"/><use xlink:href="#q" x="505.23946" y="69.0287" style="fill:#80d6f7;fill-opacity:1"/><g style="fill:#33bdf2;fill-opacity:1"><use xlink:href="#a" x="60.07612" y="320.07352"/><use xlink:href="#b" x="71.93208" y="320.07352"/><use xlink:href="#c" x="77.36274" y="320.07352"/></g><use xlink:href="#d" x="84.24556" y="320.07352" style="fill:#33bdf2;fill-opacity:1"/><g style="fill:#33bdf2;fill-opacity:1"><use xlink:href="#e" x="98.05098" y="320.07352"/><use xlink:href="#f" x="109.23059" y="320.07352"/></g><use xlink:href="#c" x="124.74677" y="320.07352" style="fill:#33bdf2;fill-opacity:1"/><g style="fill:#33bdf2;fill-opacity:1"><use xlink:href="#d" x="131.62959" y="320.07352"/><use xlink:href="#g" x="141.23769" y="320.07352"/><use xlink:href="#h" x="150.50761" y="320.07352"/><use xlink:href="#i" x="156.9329" y="320.07352"/><use xlink:href="#j" x="166.70014" y="320.07352"/><use xlink:href="#k" x="178.25771" y="320.07352"/><use xlink:href="#l" x="187.96526" y="320.07352"/><use xlink:href="#d" x="193.17711" y="320.07352"/></g><g style="fill:#33bdf2;fill-opacity:1"><use xlink:href="#m" x="206.98253" y="320.07352"/><use xlink:href="#k" x="216.59063" y="320.07352"/><use xlink:href="#i" x="226.29819" y="320.07352"/><use xlink:href="#l" x="236.06543" y="320.07352"/><use xlink:href="#d" x="241.27727" y="320.07352"/></g><use xlink:href="#n" x="255.0827" y="320.07352" style="fill:#33bdf2;fill-opacity:1"/><use xlink:href="#o" x="289.13313" y="312.07868" style="fill:#33bdf2;fill-opacity:1"/><path d="M-.00034.0007h21.20281" style="fill:none;stroke-width:.548;stroke-linecap:butt;stroke-linejoin:miter;stroke:#33bdf2;stroke-opacity:1;stroke-miterlimit:10" transform="matrix(1.99671 0 0 -1.99671 271.43426 314.8022)"/><g style="fill:#33bdf2;fill-opacity:1"><use xlink:href="#r" x="271.43426" y="327.076"/><use xlink:href="#p" x="276.01552" y="327.076"/></g><g style="fill:#33bdf2;fill-opacity:1"><use xlink:href="#s" x="284.81598" y="327.076"/><use xlink:href="#o" x="294.22913" y="327.076"/><use xlink:href="#t" x="301.16367" y="327.076"/></g><use xlink:href="#q" x="305.74579" y="322.96876" style="fill:#33bdf2;fill-opacity:1"/><path d="M340.15621 153.07235c-41.32571-71.58246-176.9822-7.89188-191.2674-88.89998" style="fill:none;stroke-width:.3985;stroke-linecap:butt;stroke-linejoin:miter;stroke:#00adef;stroke-opacity:1;stroke-miterlimit:10" transform="matrix(.99836 0 0 -.99836 60.76599 231.06302)"/><path d="M-2.0705 2.3905C-1.69426.95502-.85166.27718.0001-.00174-.84902-.2786-1.695-.95616-2.07398-2.38971" style="fill:none;stroke-width:.3985;stroke-linecap:round;stroke-linejoin:round;stroke:#00adef;stroke-opacity:1;stroke-miterlimit:10" transform="matrix(-.17334 .98318 .98318 .17334 209.37673 167.19162)"/><path d="M127.55689-68.03314c-15.3377 26.56709.0039 47.989.0039 78.26531" style="fill:none;stroke-width:.3985;stroke-linecap:butt;stroke-linejoin:miter;stroke:#00adef;stroke-opacity:1;stroke-miterlimit:10" transform="matrix(.99836 0 0 -.99836 60.76599 231.06302)"/><path d="M-2.07276 2.39046C-1.69323.95451-.84809.27761.00096-.00019c-.84905-.2778-1.69419-.9547-2.07372-2.39064" style="fill:none;stroke-width:.3985;stroke-linecap:round;stroke-linejoin:round;stroke:#00adef;stroke-opacity:1;stroke-miterlimit:10" transform="matrix(0 -.99836 -.99836 0 188.117 220.6494)"/><use xlink:href="#u" x="140.28412" y="235.52967" style="fill:#000;fill-opacity:1"/><use xlink:href="#v" x="139.49841" y="251.95663" style="fill:#000;fill-opacity:1"/><use xlink:href="#u" x="225.18239" y="235.52967" style="fill:#000;fill-opacity:1"/><use xlink:href="#v" x="209.83764" y="251.95663" style="fill:#000;fill-opacity:1"/><use xlink:href="#w" x="225.1549" y="251.95663" style="fill:#000;fill-opacity:1"/><use xlink:href="#x" x="241.36732" y="251.95663" style="fill:#000;fill-opacity:1"/><use xlink:href="#u" x="140.28412" y="150.63139" style="fill:#000;fill-opacity:1"/><use xlink:href="#u" x="225.18239" y="214.3046" style="fill:#000;fill-opacity:1"/><use xlink:href="#u" x="55.38584" y="150.63139" style="fill:#000;fill-opacity:1"/><use xlink:href="#o" x="39.47204" y="143.03989" style="fill:#000;fill-opacity:1"/><path d="M-.00041.00085h8.42595" style="fill:none;stroke-width:.548;stroke-linecap:butt;stroke-linejoin:miter;stroke:#000;stroke-opacity:1;stroke-miterlimit:10" transform="matrix(1.99671 0 0 -1.99671 34.52817 145.7634)"/><use xlink:href="#p" x="34.52817" y="158.03721" style="fill:#000;fill-opacity:1"/><use xlink:href="#q" x="43.32769" y="153.92797" style="fill:#000;fill-opacity:1"/><use xlink:href="#u" x="55.38584" y="214.3046" style="fill:#000;fill-opacity:1"/><use xlink:href="#o" x="26.71703" y="205.95334" style="fill:#000;fill-opacity:1"/><path d="M.00069-.00042h21.20085" style="fill:none;stroke-width:.548;stroke-linecap:butt;stroke-linejoin:miter;stroke:#000;stroke-opacity:1;stroke-miterlimit:10" transform="matrix(1.99671 0 0 -1.99671 9.01816 208.67886)"/><g style="fill:#000;fill-opacity:1"><use xlink:href="#r" x="9.01816" y="220.95066"/><use xlink:href="#p" x="13.59941" y="220.95066"/></g><g style="fill:#000;fill-opacity:1"><use xlink:href="#s" x="22.38595" y="220.95066"/><use xlink:href="#o" x="31.7991" y="220.95066"/><use xlink:href="#t" x="38.73364" y="220.95066"/></g><use xlink:href="#q" x="43.32769" y="216.84342" style="fill:#000;fill-opacity:1"/><use xlink:href="#y" x="127.22361" y="23.68433" style="fill:#00adef;fill-opacity:1"/><use xlink:href="#z" x="142.4414" y="23.68433" style="fill:#00adef;fill-opacity:1"/><use xlink:href="#o" x="166.85838" y="15.68749" style="fill:#00adef;fill-opacity:1"/><path d="M-.0001-.00053h8.1677" style="fill:none;stroke-width:.548;stroke-linecap:butt;stroke-linejoin:miter;stroke:#00adef;stroke-opacity:1;stroke-miterlimit:10" transform="matrix(1.99671 0 0 -1.99671 162.1721 18.413)"/><use xlink:href="#A" x="162.17209" y="30.68481" style="fill:#00adef;fill-opacity:1"/><use xlink:href="#q" x="170.45845" y="26.57757" style="fill:#00adef;fill-opacity:1"/><path d="M170.07988.00052V21.2581H-.00036" style="fill:none;stroke-width:.3985;stroke-linecap:butt;stroke-linejoin:miter;stroke:#000;stroke-opacity:1;stroke-dasharray:2.98883,2.98883;stroke-miterlimit:10" transform="matrix(.99836 0 0 -.99836 60.76599 231.06302)"/><path d="M85.0378.00052v85.03817H-.00036" style="fill:none;stroke-width:.3985;stroke-linecap:butt;stroke-linejoin:miter;stroke:#000;stroke-opacity:1;stroke-dasharray:2.98883,2.98883;stroke-miterlimit:10" transform="matrix(.99836 0 0 -.99836 60.76599 231.06302)"/><path d="M-42.51945.00052h254.72323" style="fill:none;stroke-width:.3985;stroke-linecap:butt;stroke-linejoin:miter;stroke:#000;stroke-opacity:1;stroke-miterlimit:10" transform="matrix(.99836 0 0 -.99836 60.76599 231.06302)"/><path d="M-2.07219 2.39117C-1.69266.9552-.85143.27832.00153.00052c-.85297-.2778-1.6942-.9586-2.07372-2.39065" style="fill:none;stroke-width:.3985;stroke-linecap:round;stroke-linejoin:round;stroke:#000;stroke-opacity:1;stroke-miterlimit:10" transform="matrix(.99836 0 0 -.99836 272.81879 231.06302)"/><path d="M-.00036-42.51856v254.71931" style="fill:none;stroke-width:.3985;stroke-linecap:butt;stroke-linejoin:miter;stroke:#000;stroke-opacity:1;stroke-miterlimit:10" transform="matrix(.99836 0 0 -.99836 60.76599 231.06302)"/><path d="M-2.0713 2.39101C-1.69179.95506-.85056.27817-.0015.00036c-.84905-.2778-1.69028-.9586-2.0698-2.39064" style="fill:none;stroke-width:.3985;stroke-linecap:round;stroke-linejoin:round;stroke:#000;stroke-opacity:1;stroke-miterlimit:10" transform="matrix(0 -.99836 -.99836 0 60.76599 19.01022)"/></svg>