<svg xmlns="http://www.w3.org/2000/svg" xmlns:xlink="http://www.w3.org/1999/xlink" width="309.11pt" height="311.272pt" version="1.2" viewBox="0 0 309.11 311.272"><defs><symbol id="a" overflow="visible"><path d="M.59375-.73437c0 .53125.4375.95312 1.1875.95312 1.28125 0 2-1.26562 2.76563-2.53125l.76562-1.21875h.03125L5.6875-2.0625C6.04688-.57812 6.375.21875 7.32813.21875c1.375 0 2.09375-1.40625 2.65625-2.54687l-.48438-.25C9.04688-1.75 8.53125-.75 8.01563-.75c-.35938 0-.5-.42187-.92188-2.09375L6.5-5.28125c.67188-1.20312 1.625-2.6875 2.17188-2.6875.15625 0 .32812.01563.53125.14063.17187.07812.375.15625.59375.15625.42187 0 .79687-.39063.79687-.89063 0-.57812-.4375-.8125-.95312-.8125-1 0-1.82813.89063-2.48438 1.9375l-.8125 1.28125h-.04687l-.75-3.14062-.09375-.07813-3.09375.92188.04687.46875 1.40625-.10938h.0625c.29688 0 .4375.14063.60938.9375l.65625 2.70313-.51563.89062c-.79687 1.375-1.48437 2.34375-1.9375 2.34375-.1875 0-.375-.07812-.54687-.17187-.17188-.09376-.40625-.28126-.73438-.28126-.46875 0-.8125.48438-.8125.9375m0 0" style="stroke:none"/></symbol><symbol id="c" overflow="visible"><path d="M0 3.5c0 .5.5625 1.01563 1.375 1.01563 1.59375 0 2.26563-1.17188 3.90625-4.01563.39063-.64062 1.51563-2.60937 2.67188-4.51562 1.0625-1.75 2.25-3.5625 2.25-4.3125 0-.65625-.20313-1.04688-.34375-1.04688-.35938 0-1 .15625-1.46875.46875v.3125c0 .65625-.0625 1.59375-.23438 2.25-.3125 1.0625-1.40625 3.07813-2.625 5.20313h-.0625C5.32813-4 4.96875-7.9375 4.70313-9.29687l-.125-.07813-3.14063.89063.04688.46875L2.75-8.04687h.03125c.375 0 .45313.3125.625 1.26562.1875 1.45313.60938 5.04688.60938 6.54688 0 .54687-.01563 1.3125-.4375 2.29687-.34375.78125-.8125 1.34375-1.1875 1.34375-.28125 0-.5-.20312-.78125-.57812-.21876-.29688-.375-.46875-.65625-.46875C.48438 2.39063 0 2.96875 0 3.5m0 0" style="stroke:none"/></symbol><clipPath id="b"><path d="M141 27h2v283.46094h-2Zm0 0"/></clipPath></defs><path d="M-141.73547.0012h283.0705" style="fill:none;stroke-width:.3985;stroke-linecap:butt;stroke-linejoin:miter;stroke:#000;stroke-opacity:1;stroke-miterlimit:10" transform="matrix(.99713 0 0 -.99713 141.87152 168.9387)"/><path d="M-2.0723 2.39088C-1.6923.95707-.85004.27933.00005.0012-.85005-.28086-1.6923-.95467-2.0723-2.39239" style="fill:none;stroke-width:.3985;stroke-linecap:round;stroke-linejoin:round;stroke:#000;stroke-opacity:1;stroke-miterlimit:10" transform="matrix(.99713 0 0 -.99713 282.99995 168.9387)"/><use xlink:href="#a" x="290.2164" y="173.51752" style="fill:#000;fill-opacity:1"/><g clip-path="url(#b)"><path d="M-.00043-141.73384v283.0705" style="fill:none;stroke-width:.3985;stroke-linecap:butt;stroke-linejoin:miter;stroke:#000;stroke-opacity:1;stroke-miterlimit:10" transform="matrix(.99713 0 0 -.99713 141.87152 168.9387)"/></g><path d="M-2.07067 2.3901C-1.6946.9563-.84842.27857.00168.00043c-.8501-.27815-1.69627-.95587-2.07235-2.38968" style="fill:none;stroke-width:.3985;stroke-linecap:round;stroke-linejoin:round;stroke:#000;stroke-opacity:1;stroke-miterlimit:10" transform="matrix(0 -.99713 -.99713 0 141.87152 27.81027)"/><use xlink:href="#c" x="136.19985" y="16.0838" style="fill:#000;fill-opacity:1"/><path d="m-141.89217-113.5827 283.78349 227.1678m-283.78349.00001 283.78349-227.16782" style="fill:none;stroke-width:.3985;stroke-linecap:butt;stroke-linejoin:miter;stroke:#000;stroke-opacity:1;stroke-dasharray:2.98883,2.98883;stroke-miterlimit:10" transform="matrix(.99713 0 0 -.99713 141.87152 168.9387)"/><path d="M-141.88433-113.5827s7.2552 9.18652 9.829 12.54774c2.5738 3.36513 6.44428 8.55581 8.72035 11.69764 2.27214 3.14184 5.68428 7.99953 7.67829 10.94549 1.99792 2.94596 4.97522 7.51376 6.70676 10.28735 1.73545 2.7775 4.30924 7.08675 5.79397 9.71539 1.48865 2.62472 3.67461 6.7185 4.92821 9.22179 1.24968 2.49936 3.07132 6.40902 4.0977 8.80653 1.02639 2.3975 2.49545 6.1583 3.3103 8.47355.81091 2.31132 1.94307 5.95067 2.54636 8.19932.6033 2.24864 1.40247 5.80181 1.80205 8.00344.39959 2.20164.87752 5.69605 1.07731 7.87025.19588 2.17422.3565 5.6412.3565 7.80758s-.16062 5.62552-.3565 7.80365c-.19979 2.17421-.6738 5.67254-1.07339 7.87417s-1.19875 5.75089-1.80205 7.99953-1.73153 5.888-2.54637 8.20324c-.81092 2.31132-2.27607 6.0682-3.30637 8.4657-1.02638 2.39752-2.8441 6.3111-4.0977 8.81046-1.24968 2.50328-3.43956 6.59315-4.9243 9.22179-1.48864 2.62472-4.0546 6.93788-5.78614 9.71539-1.73545 2.77359-4.71666 7.33747-6.71459 10.28343-1.994 2.94596-5.40223 7.80365-7.6783 10.94549-2.27606 3.13791-6.14263 8.3286-8.71642 11.6898-2.56988 3.36514-9.82509 12.54775-9.82509 12.54775M141.88348-113.5827s-7.2552 9.18652-9.829 12.54774c-2.56988 3.36513-6.44428 8.55581-8.71643 11.69764-2.27607 3.14184-5.68429 7.99953-7.68221 10.94549-1.994 2.94596-4.9713 7.51376-6.70676 10.28735-1.73545 2.7775-4.30533 7.08675-5.79397 9.71539-1.48865 2.62472-3.67462 6.7185-4.9243 9.22179-1.2536 2.49936-3.07132 6.40902-4.10162 8.80653-1.02638 2.3975-2.49544 6.1583-3.31028 8.47355-.81092 2.31132-1.93916 5.95067-2.54246 8.19932-.6033 2.24864-1.40638 5.80181-1.80597 8.00344-.39958 2.20164-.87751 5.69605-1.07339 7.87025-.1998 2.17422-.3565 5.6412-.3565 7.80758s.1567 5.62552.3565 7.80365c.19588 2.17421.67381 5.67254 1.06948 7.87417.39958 2.20163 1.19875 5.75089 1.80205 7.99953s1.73545 5.888 2.54637 8.20324c.81092 2.31132 2.27998 6.0682 3.30637 8.4657 1.02638 2.39752 2.8441 6.3111 4.0977 8.81046 1.2536 2.50328 3.43956 6.59315 4.9243 9.22179 1.48864 2.62472 4.0546 6.93788 5.79005 9.71539 1.73154 2.77359 4.71275 7.33747 6.71068 10.28343 1.994 2.94596 5.40222 7.80365 7.67829 10.94549 2.27607 3.13791 6.14263 8.3286 8.71643 11.6898 2.5738 3.36514 9.82508 12.54775 9.82508 12.54775" style="fill:none;stroke-width:.79701;stroke-linecap:butt;stroke-linejoin:miter;stroke:teal;stroke-opacity:1;stroke-miterlimit:10" transform="matrix(.99713 0 0 -.99713 141.87152 168.9387)"/></svg>