<svg xmlns="http://www.w3.org/2000/svg" xmlns:xlink="http://www.w3.org/1999/xlink" width="340.556pt" height="371.671pt" version="1.2" viewBox="0 0 340.556 371.671"><defs><symbol id="c" overflow="visible"><path d="M.59375-3.46875c0 2.14063.73438 3.70313 3.04688 3.70313 3.42187 0 4.90625-3.45313 5.70312-7.04688.21875-1.09375.39063-2.25.39063-3.29687 0-2.07813-.67188-3.76563-3.03125-3.76563-4.46875 0-6.10938 6.67188-6.10938 10.40625m1.70313.65625c0-1.28125.29687-2.82812.51562-3.89062h4.67188C7-4.5 5.96875-.3125 3.76563-.3125c-1.14063 0-1.46875-1.09375-1.46875-2.5m.67187-4.57812C3.29688-8.98437 4.3125-13.25 6.5625-13.25c1.1875 0 1.51563 1.14063 1.51563 2.5 0 1.21875-.28125 2.59375-.4375 3.35938Zm0 0" style="stroke:none"/></symbol><symbol id="d" overflow="visible"><path d="M1.6875-5.28125c0 2.15625 1.57813 3.73438 3.75 3.73438 2.09375 0 3.65625-1.57813 3.65625-3.73438 0-2.07812-1.5625-3.65625-3.65625-3.65625-2.17187 0-3.75 1.57813-3.75 3.65625m0 0" style="stroke:none"/></symbol><symbol id="e" overflow="visible"><path d="M.59375-.73437c0 .53125.4375.95312 1.20313.95312 1.26562 0 1.98437-1.28125 2.76562-2.53125l.75-1.23437h.04688L5.6875-2.0625C6.04688-.57812 6.39063.21875 7.34375.21875 8.71875.21875 9.4375-1.1875 10-2.32812l-.48437-.26563C9.0625-1.75 8.54688-.75 8.01563-.75c-.35938 0-.48438-.42187-.90625-2.09375l-.59375-2.45312c.67187-1.1875 1.625-2.6875 2.15625-2.6875.17187 0 .34375.01562.54687.14062.17188.07813.375.15625.59375.15625.42188 0 .79688-.39062.79688-.89062 0-.57813-.4375-.8125-.95313-.8125-1 0-1.82812.89062-2.48437 1.95312l-.82813 1.26563H6.3125L5.54688-9.3125l-.09375-.07812-3.07813.9375L2.40625-8l1.42188-.10937H3.875c.3125 0 .4375.14062.625.9375l.65625 2.71875-.51562.89062c-.79688 1.375-1.5 2.34375-1.95313 2.34375-.17187 0-.375-.07812-.53125-.17187-.1875-.10938-.42187-.28126-.75-.28126-.46875 0-.8125.48438-.8125.9375m0 0" style="stroke:none"/></symbol><symbol id="f" overflow="visible"><path d="M-.35937 0h4.21875l.125-.53125-1.03125-.10937c-.25-.01563-.34375-.14063-.34375-.3125q0-.16407.09375-.375C3.32813-2.53125 3.92188-3.75 4.625-5h4.1875L9.25-1.375c0 .07813.03125.14063.03125.20313 0 .375-.1875.5-.5.53125l-1 .10937L7.6875 0h4.59375l.125-.53125-.71875-.0625c-.57812-.0625-.65625-.32812-.76562-1.09375l-1.35938-11.25H8.21875L5.07813-7.42187C4.125-5.75 2.5625-2.96875 1.875-1.84375 1.28125-.875.95313-.67187.375-.60937l-.60937.07812ZM5-5.71875c.98438-1.84375 2.03125-3.67187 3.04688-5.48437l.67187 5.48437Zm0 0" style="stroke:none"/></symbol><symbol id="g" overflow="visible"><path d="M1.3125-5.25c0 2.6875 1.3125 4.85938 4.40625 4.85938h3.92188v-1.07813H5.71875c-2.32812 0-3.04687-1.60937-3.23437-3.26562h5.40625v-1.09375H2.48438c.20312-1.67188.875-3.20313 3.23437-3.20313h3.92188V-10.125H5.71875c-3.10937 0-4.40625 2.1875-4.40625 4.875m0 0" style="stroke:none"/></symbol><symbol id="k" overflow="visible"><path d="M1.96875-5.28125c0 3.48438.85938 7.53125 4.125 7.67188V1.9375C5 1.71875 3.26563.125 3.26563-5.28125c0-5.34375 1.65625-6.96875 2.82812-7.20312v-.45313c-3.26562.14063-4.125 4.17188-4.125 7.65625m0 0" style="stroke:none"/></symbol><symbol id="l" overflow="visible"><path d="M1 0h3.35938v-5.25h1.17187L8.5625 0h3.40625L8.875-5.42187c1.67188-.51563 2.6875-2.15625 2.6875-3.6875 0-2.17188-1.65625-3.84375-3.92187-3.84375H1Zm.9375-.9375v-11.07812h1.48438V-.9375Zm2.42188-5.25v-5.82812H7.6875v5.82812Zm2.29687.9375h1.48438l2.39062 4.3125h-1.5ZM8.625-6.3125v-5.625c1.25.32813 2.04688 1.67188 2.04688 2.82813 0 1.1875-.89063 2.59375-2.04688 2.79687m0 0" style="stroke:none"/></symbol><symbol id="m" overflow="visible"><path d="M.48438 1.9375v.45313C3.75 2.25 4.57813-1.79687 4.57813-5.28125S3.75-12.79687.48438-12.9375v.45313C1.65625-12.25 3.26563-10.625 3.26563-5.28125c0 5.40625-1.6875 7-2.78125 7.21875m0 0" style="stroke:none"/></symbol><symbol id="h" overflow="visible"><path d="m.9375-3.84375.17188 3C1.9375-.0625 3.5.28125 4.8125.28125c3.3125 0 4.625-1.89062 4.625-3.79687 0-2.21875-1.5-3.26563-3.6875-4.0625l-.60937-.21875C3.875-8.28125 2.84375-9.07812 2.84375-10.1875c0-1.375.8125-2.39062 2.39063-2.39062 1.60937 0 2.51562.90625 2.8125 2.79687H8.625v-2.625c-.64062-.5-1.89062-.82812-3.17187-.82812-2.28125 0-4.3125 1.15625-4.3125 3.625 0 1.96875 1.5625 2.98437 3.53125 3.67187l.34375.14063c.8125.32812 2.60937 1.15625 2.60937 2.82812C7.625-1.35937 6.59375-.375 4.92188-.375c-1.75 0-2.90625-1.375-3.39063-3.46875Zm0 0" style="stroke:none"/></symbol><symbol id="i" overflow="visible"><path d="M.89063-6.46875c0 2.09375.57812 3.82813 1.59375 4.9375C3.54688-.35937 5.07813.28125 7.125.28125s3.57813-.64062 4.64063-1.8125c1.01562-1.10937 1.59375-2.84375 1.59375-4.9375s-.57813-3.82812-1.59375-4.9375c-1.0625-1.17187-2.59375-1.82812-4.64063-1.82812s-3.57812.65625-4.64062 1.82812C1.46875-10.29687.89063-8.5625.89063-6.46875m2.09375 0c0-2.75.8125-6.10937 4.14062-6.10937s4.14063 3.35937 4.14063 6.10937S10.45313-.375 7.125-.375 2.98438-3.71875 2.98438-6.46875m0 0" style="stroke:none"/></symbol><symbol id="j" overflow="visible"><path d="M.375-.15625.53125 0H6.0625l.48438-1.85937-.39063-.07813c-.3125.70313-.54687.79688-1.07812.79688H1.73438c.21874-.625.90625-1.5 2.17187-2.35938C5.23438-4.39062 6.1875-5 6.1875-6.4375c0-1.8125-1.25-2.45312-2.6875-2.45312-1.78125 0-2.79687 1.03125-2.79687 1.8125 0 .48437.53125.70312.8125.70312.25 0 .375-.14062.4375-.39062.20312-.92188.6875-1.64063 1.45312-1.64063.92188 0 1.21875.79688 1.21875 1.73438 0 1.26562-.57812 2.10937-1.79687 3.15625C1.15625-2.07812.57813-1.125.375-.15625m0 0" style="stroke:none"/></symbol><clipPath id="a"><path d="M56 .07813h2V341h-2Zm0 0"/></clipPath><clipPath id="b"><path d="M54 .07813h6V3h-6Zm0 0"/></clipPath></defs><path d="M-56.69252.00124h339.7627" style="fill:none;stroke-width:.3985;stroke-linecap:butt;stroke-linejoin:miter;stroke:#000;stroke-opacity:1;stroke-miterlimit:10" transform="matrix(.9987 0 0 -.9987 56.81792 283.37234)"/><path d="M-2.0722 2.39107C-1.6928.95561-.85184.27895.00083.00124-.85185-.28037-1.6928-.95703-2.0722-2.3925" style="fill:none;stroke-width:.3985;stroke-linecap:round;stroke-linejoin:round;stroke:#000;stroke-opacity:1;stroke-miterlimit:10" transform="matrix(.9987 0 0 -.9987 339.71793 283.37234)"/><g clip-path="url(#a)"><path d="M-.00152-56.69367v339.7627" style="fill:none;stroke-width:.3985;stroke-linecap:butt;stroke-linejoin:miter;stroke:#000;stroke-opacity:1;stroke-miterlimit:10" transform="matrix(.9987 0 0 -.9987 56.81792 283.37234)"/></g><g clip-path="url(#b)"><path d="M-2.07334 2.39135C-1.69394.95589-.8491.27922-.00033.00152-.84909-.2801-1.69394-.95676-2.07334-2.39222" style="fill:none;stroke-width:.3985;stroke-linecap:round;stroke-linejoin:round;stroke:#000;stroke-opacity:1;stroke-miterlimit:10" transform="matrix(0 -.9987 -.9987 0 56.81792 .47233)"/></g><path d="m223.33224-39.37815 2.41721 17.97653.99348 18.1056-.46154 18.12517-1.91264 18.0352-3.34029 17.82399-4.76402 17.49934-6.12907 17.0691-7.49413 16.5137-8.78097 15.8683-10.01303 15.11344-11.206 14.26467-12.28944 13.33376-13.33377 12.29335-14.26466 11.20209-15.11734 10.01304-15.86832 8.78487-16.5137 7.49022-17.0691 6.13299-17.49934 4.7601-17.82399 3.34029-18.03129 1.90873-18.12907.46545-18.1017-.99348-17.97262-2.42112" style="fill:none;stroke-width:.3985;stroke-linecap:butt;stroke-linejoin:miter;stroke:teal;stroke-opacity:1;stroke-dasharray:2.98883,2.98883;stroke-miterlimit:10" transform="matrix(.9987 0 0 -.9987 56.81792 283.37234)"/><path d="m55.8329 9.8461-.39505 2.02216-.46936 2.00652-.54368 1.98696-.61016 1.9674-.68449 1.94785-.75489 1.91656-.8253 1.88918-.88787 1.8618-.95828 1.82269-1.02477 1.79139-1.08735 1.74837-1.14994 1.70926-1.21642 1.66623-1.27119 1.6232-1.33377 1.57237-1.38461 1.52542-1.44329 1.47458-1.49413 1.41981-1.54107 1.36506-1.59583 1.30639-1.63885 1.24772-1.68579 1.18905-1.7249 1.12646-1.42373.8605" style="fill:none;stroke-width:.3985;stroke-linecap:butt;stroke-linejoin:miter;stroke:teal;stroke-opacity:1;stroke-miterlimit:10" transform="matrix(.9987 0 0 -.9987 56.81792 283.37234)"/><path d="M-2.0706 2.39152C-1.6939.95612-.85058.27705.00126.00048c-.84999-.27953-1.69309-.95683-2.0744-2.39251" style="fill:none;stroke-width:.3985;stroke-linecap:round;stroke-linejoin:round;stroke:teal;stroke-opacity:1;stroke-miterlimit:10" transform="matrix(-.85525 -.51564 -.51564 .85525 85.2982 234.44165)"/><use xlink:href="#c" x="111.92807" y="247.96949" style="fill:teal;fill-opacity:1"/><path d="m-.00152.00124 223.33376 39.3755" style="fill:none;stroke-width:.3985;stroke-linecap:butt;stroke-linejoin:miter;stroke:#000;stroke-opacity:1;stroke-miterlimit:10" transform="matrix(.9987 0 0 -.9987 56.81792 283.37234)"/><use xlink:href="#d" x="274.47316" y="248.51378" style="fill:#ff8000;fill-opacity:1"/><use xlink:href="#e" x="286.88597" y="248.63263" style="fill:#ff8000;fill-opacity:1"/><path d="m-.00152.00124 113.38983 196.39244" style="fill:none;stroke-width:.3985;stroke-linecap:butt;stroke-linejoin:miter;stroke:#000;stroke-opacity:1;stroke-miterlimit:10" transform="matrix(.9987 0 0 -.9987 56.81792 283.37234)"/><use xlink:href="#d" x="164.67331" y="91.70522" style="fill:#ff8000;fill-opacity:1"/><use xlink:href="#f" x="177.08612" y="79.9885" style="fill:#ff8000;fill-opacity:1"/><use xlink:href="#e" x="189.9212" y="79.9885" style="fill:#ff8000;fill-opacity:1"/><use xlink:href="#f" x="125.23872" y="360.2551" style="fill:#000;fill-opacity:1"/><use xlink:href="#g" x="141.93426" y="360.2551" style="fill:#000;fill-opacity:1"/><g style="fill:#000;fill-opacity:1"><use xlink:href="#h" x="156.91542" y="360.2551"/><use xlink:href="#i" x="167.02428" y="360.2551"/></g><use xlink:href="#j" x="181.27167" y="364.63139" style="fill:#000;fill-opacity:1"/><g style="fill:#000;fill-opacity:1"><use xlink:href="#k" x="189.40307" y="360.2551"/><use xlink:href="#l" x="195.94995" y="360.2551"/><use xlink:href="#m" x="208.32733" y="360.2551"/></g></svg>