<svg xmlns="http://www.w3.org/2000/svg" xmlns:xlink="http://www.w3.org/1999/xlink" width="421.338pt" height="423.978pt" version="1.2" viewBox="0 0 421.338 423.978"><defs><symbol id="c" overflow="visible"><path d="M.39063 0h9.75l.95312-3.28125h-.54687C9.59375-.96875 8.75-.65625 6.4375-.65625c-.90625 0-1.84375-.0625-2.07812-.23437-.15625-.125-.23438-.28126-.23438-.54688 0-.1875.04688-.46875.125-.84375l.96875-4.10937h2.4375c1.39063 0 1.65625.28125 1.65625 1.09375 0 .17187 0 .32812-.03125.51562h.5625l.875-3.89062h-.57812C9.67188-7.375 9.46875-7.07812 7.8125-7.07812H5.375l1.04688-4.65625c.10937-.45313.21875-.5625.54687-.5625h2.23438c1.84375 0 2.21875.48437 2.21875 1.5 0 .28125-.03125.60937-.0625.96875h.5625l.6875-3.09375H3.15625l-.14062.53125 1.14062.07812c.3125.01563.45313.15625.45313.45313 0 .125-.01563.26562-.04688.4375l-2.23437 9.875c-.15625.625-.3125.84375-.78125.89062L.5-.53125Zm0 0" style="stroke:none"/></symbol><symbol id="g" overflow="visible"><path d="M.59375-3.46875c0 2.14063.73438 3.70313 3.04688 3.70313 3.42187 0 4.89062-3.45313 5.6875-7.03125.21875-1.09375.39062-2.25.39062-3.3125 0-2.0625-.67187-3.75-3.01562-3.75-4.46875 0-6.10938 6.65625-6.10938 10.39062m1.6875.67188c0-1.29688.29688-2.82813.51563-3.90625h4.6875C7-4.5 5.96875-.3125 3.76563-.3125c-1.14063 0-1.48438-1.09375-1.48438-2.48437m.6875-4.57813C3.29688-8.96875 4.3125-13.25 6.5625-13.25c1.17188 0 1.51563 1.15625 1.51563 2.51563 0 1.20312-.28125 2.57812-.4375 3.35937Zm0 0" style="stroke:none"/></symbol><symbol id="h" overflow="visible"><path d="M1.6875-5.26562c0 2.14062 1.57813 3.71875 3.75 3.71875 2.07813 0 3.65625-1.57813 3.65625-3.71875 0-2.09375-1.57812-3.67188-3.65625-3.67188-2.17187 0-3.75 1.57813-3.75 3.67188m0 0" style="stroke:none"/></symbol><symbol id="i" overflow="visible"><path d="M.59375-.73437c0 .53125.4375.95312 1.20313.95312 1.26562 0 1.98437-1.26562 2.76562-2.53125l.75-1.23437h.03125L5.6875-2.0625C6.04688-.57812 6.39063.21875 7.34375.21875c1.375 0 2.07813-1.40625 2.64063-2.54687l-.48438-.25C9.04688-1.75 8.53125-.75 8.01563-.75c-.35938 0-.5-.42187-.92188-2.09375L6.5-5.29687c.6875-1.1875 1.64063-2.67188 2.17188-2.67188.15625 0 .34375.01563.53125.125.1875.09375.39062.17188.60937.17188.40625 0 .79688-.40625.79688-.90625 0-.57813-.4375-.8125-.96875-.8125-.98438 0-1.82813.89062-2.48438 1.95312l-.8125 1.26563H6.3125L5.54688-9.3125l-.09375-.07812-3.09375.9375L2.40625-8l1.40625-.09375h.0625c.29688 0 .4375.14063.625.9375l.65625 2.70313-.51562.89062c-.79688 1.375-1.5 2.34375-1.95313 2.34375-.1875 0-.375-.07812-.54687-.17187-.17188-.09376-.40625-.28126-.73438-.28126-.46875 0-.8125.48438-.8125.9375m0 0" style="stroke:none"/></symbol><symbol id="j" overflow="visible"><path d="M-.35937 0h4.21875l.125-.53125L2.9375-.64062c-.23437-.01563-.32812-.14063-.32812-.3125 0-.09376.03125-.23438.09375-.375C3.32813-2.53125 3.92188-3.73437 4.60938-5H8.8125L9.25-1.375c0 .07813.01563.14063.01563.20313 0 .375-.17188.5-.5.53125l-.98438.10937L7.67188 0h4.59375l.125-.53125-.71875-.0625c-.57813-.0625-.65625-.32812-.75-1.09375l-1.375-11.23437H8.21875l-3.14062 5.5C4.125-5.75 2.5625-2.96875 1.875-1.84375 1.26563-.875.95313-.67187.375-.60937l-.60937.07812ZM5-5.70312c.98438-1.85938 2.01563-3.6875 3.03125-5.5l.6875 5.5Zm0 0" style="stroke:none"/></symbol><symbol id="k" overflow="visible"><path d="M1.3125-5.25c0 2.6875 1.3125 4.85938 4.39063 4.85938H9.625v-1.07813H5.70313c-2.32813 0-3.03125-1.60937-3.21875-3.26562H7.875v-1.09375H2.48438c.20312-1.67188.875-3.20313 3.21875-3.20313H9.625V-10.125H5.70313c-3.09375 0-4.39063 2.1875-4.39063 4.875m0 0" style="stroke:none"/></symbol><symbol id="o" overflow="visible"><path d="M1.96875-5.26562c0 3.46875.85938 7.51562 4.125 7.65625v-.46875C5 1.70312 3.26563.125 3.26563-5.26562c0-5.35938 1.64062-6.96875 2.82812-7.20313v-.45312c-3.26562.125-4.125 4.17187-4.125 7.65625m0 0" style="stroke:none"/></symbol><symbol id="p" overflow="visible"><path d="M1 0h3.35938v-5.25h1.17187L8.54688 0h3.40625L8.875-5.40625c1.67188-.51562 2.6875-2.17187 2.6875-3.70312 0-2.17188-1.65625-3.84375-3.92187-3.84375H1Zm.92188-.9375v-11.07812h1.5V-.9375Zm2.4375-5.25v-5.82812h3.3125v5.82812Zm2.28125.9375h1.5l2.375 4.3125H9.03125Zm1.96875-1.0625v-5.625c1.25.34375 2.04687 1.67188 2.04687 2.82813 0 1.1875-.89062 2.60937-2.04687 2.79687m0 0" style="stroke:none"/></symbol><symbol id="q" overflow="visible"><path d="M.48438 1.92188v.46875c3.25-.14063 4.09375-4.1875 4.09375-7.65625 0-3.48438-.84375-7.53125-4.09375-7.65625v.45312c1.17187.23438 2.78125 1.84375 2.78125 7.20313 0 5.39062-1.6875 6.96875-2.78125 7.1875m0 0" style="stroke:none"/></symbol><symbol id="d" overflow="visible"><path d="M1.42188 0H5.8125v-.40625L4.76563-.5c-.29688-.03125-.4375-.125-.4375-.60937v-7.71875L4.25-8.89062l-2.8125.46875v.34375l1.125.15625c.25.04687.32813.14062.32813.54687v6.26563c0 .46875-.09375.57812-.42188.60937l-1.04687.09375Zm0 0" style="stroke:none"/></symbol><symbol id="n" overflow="visible"><path d="M.35938-1.39062c0 .54687.85937 1.54687 2.84375 1.54687 1.95312 0 3.15625-.95312 3.15625-2.625 0-1.78125-1.54688-2.25-2.20313-2.32812v-.04688c.70313-.125 1.82813-.64062 1.82813-1.92187 0-1.53125-1.25-2.125-2.64063-2.125-1.67187 0-2.64062.92187-2.64062 1.59375 0 .45312.51562.6875.73437.6875.1875 0 .29688-.125.375-.32813.29688-.92187.73438-1.46875 1.4375-1.46875.98438 0 1.21875.92188 1.21875 1.60938 0 .70312-.21875 1.76562-1.29687 1.76562-.59375 0-.98438-.14062-1.1875-.14062-.1875 0-.26563.15625-.26563.40625s.07813.40625.26563.40625c.20312 0 .59375-.14063 1.1875-.14063 1 0 1.625.84375 1.625 2.09375 0 1.5-.6875 2.07813-1.57813 2.07813-.79687 0-1.34375-.60938-1.625-1.45313-.07812-.25-.21875-.39062-.42187-.39062-.29688 0-.8125.28125-.8125.78125m0 0" style="stroke:none"/></symbol><symbol id="l" overflow="visible"><path d="m.9375-3.84375.17188 3.01563C1.92188-.0625 3.5.28124 4.8125.28124c3.29688 0 4.60938-1.89062 4.60938-3.79687 0-2.21875-1.48438-3.26563-3.67188-4.0625l-.625-.21875c-1.25-.48438-2.28125-1.26563-2.28125-2.39063 0-1.375.8125-2.39062 2.39063-2.39062 1.60937 0 2.5.92187 2.79687 2.8125h.57813v-2.625c-.64063-.5-1.89063-.84375-3.15625-.84375-2.29688 0-4.3125 1.15625-4.3125 3.625 0 1.96875 1.5625 2.98437 3.53125 3.6875l.34375.14062c.8125.3125 2.60937 1.14063 2.60937 2.8125C7.625-1.35937 6.57813-.375 4.90625-.375c-1.75 0-2.89062-1.375-3.375-3.46875Zm0 0" style="stroke:none"/></symbol><symbol id="m" overflow="visible"><path d="M.89063-6.46875c0 2.09375.57812 3.82813 1.59375 4.9375C3.54688-.35937 5.07813.28125 7.125.28125s3.57813-.64062 4.625-1.8125c1.01563-1.10937 1.59375-2.84375 1.59375-4.9375 0-2.07812-.57812-3.8125-1.59375-4.92187-1.04687-1.1875-2.57812-1.84375-4.625-1.84375s-3.57812.65625-4.64062 1.84375C1.46875-10.28125.89063-8.54687.89063-6.46875m2.09375 0c0-2.73437.8125-6.10937 4.14062-6.10937 3.3125 0 4.14063 3.375 4.14063 6.10937 0 2.75-.82813 6.09375-4.14063 6.09375-3.32812 0-4.14062-3.34375-4.14062-6.09375m0 0" style="stroke:none"/></symbol><clipPath id="a"><path d="M80 314h340.67578v1H80Zm0 0"/></clipPath><clipPath id="b"><path d="M418 311h2.67578v6H418Zm0 0"/></clipPath><clipPath id="e"><path d="M23 286h142v137.63281H23Zm0 0"/></clipPath><clipPath id="f"><path d="M28 419h4v4.63281h-4Zm0 0"/></clipPath></defs><g clip-path="url(#a)"><path d="M-56.6954-.00136h339.76346" style="fill:none;stroke-width:.3985;stroke-linecap:butt;stroke-linejoin:miter;stroke:#000;stroke-opacity:1;stroke-miterlimit:10" transform="matrix(.99843 0 0 -.99843 137.45803 314.30724)"/></g><g clip-path="url(#b)"><path d="M-2.0709 2.38911C-1.69531.95718-.85024.28034-.00125-.00136-.85024-.27914-1.69531-.95598-2.0709-2.39183" style="fill:none;stroke-width:.3985;stroke-linecap:round;stroke-linejoin:round;stroke:#000;stroke-opacity:1;stroke-miterlimit:10" transform="matrix(.99843 0 0 -.99843 420.2825 314.30724)"/></g><path d="M-.001-56.69185V283.0677" style="fill:none;stroke-width:.3985;stroke-linecap:butt;stroke-linejoin:miter;stroke:#000;stroke-opacity:1;stroke-miterlimit:10" transform="matrix(.99843 0 0 -.99843 137.45803 314.30724)"/><path d="M-2.07126 2.39147C-1.69176.95562-.8506.27877-.00161.001-.8506-.2807-1.69176-.95754-2.07126-2.38947" style="fill:none;stroke-width:.3985;stroke-linecap:round;stroke-linejoin:round;stroke:#000;stroke-opacity:1;stroke-miterlimit:10" transform="matrix(0 -.99843 -.99843 0 137.45803 31.48277)"/><use xlink:href="#c" x="127.20614" y="19.88283" style="fill:#000;fill-opacity:1"/><use xlink:href="#d" x="139.58069" y="24.25996" style="fill:#000;fill-opacity:1"/><g clip-path="url(#e)"><path d="M21.82621 21.82585-108.85144-108.8518" style="fill:none;stroke-width:.3985;stroke-linecap:butt;stroke-linejoin:miter;stroke:#000;stroke-opacity:1;stroke-miterlimit:10" transform="matrix(.99843 0 0 -.99843 137.45803 314.30724)"/></g><g clip-path="url(#f)"><path d="M-2.0725 2.39328C-1.69349.95746-.8497.27967-.00039.00025c-.84931-.27941-1.6931-.9572-2.0721-2.39302" style="fill:none;stroke-width:.3985;stroke-linecap:round;stroke-linejoin:round;stroke:#000;stroke-opacity:1;stroke-miterlimit:10" transform="matrix(-.706 .706 .706 .706 28.63627 423.129)"/></g><path d="M-43.6476 183.12968c62.61386 0 132.91163 19.53846 157.01977 43.64659 24.10421 24.10422-7.11272 43.6466-69.72657 43.6466s-132.91163-19.54238-157.01585-43.6466c-24.10422-24.10813 7.1088-43.6466 69.72266-43.6466Zm0 0" style="fill:none;stroke-width:.3985;stroke-linecap:butt;stroke-linejoin:miter;stroke:teal;stroke-opacity:1;stroke-dasharray:2.98883,2.98883;stroke-miterlimit:10" transform="matrix(.99843 0 0 -.99843 137.45803 314.30724)"/><path d="m-11.64818 205.28161 2.1753.15258 2.18702.17998 2.19485.21126 2.20658.23475 2.20659.26213 2.20658.28951 2.2066.3169 2.20267.3443 2.19484.36776 2.18312.39515 2.16746.41863 2.15181.4421 2.13225.46948 2.1127.48905 2.0853.51253 2.05791.53208 2.03053.55556 1.99532.57512 1.9562.59468 1.92097.61425 1.88186.6299 1.83491.64945 1.79188.6651 1.37324.536" style="fill:none;stroke-width:.3985;stroke-linecap:butt;stroke-linejoin:miter;stroke:teal;stroke-opacity:1;stroke-miterlimit:10" transform="matrix(.99843 0 0 -.99843 137.45803 314.30724)"/><path d="M-2.07204 2.39002C-1.69368.9577-.8491.28014-.00083.00006-.84842-.2786-1.6924-.95756-2.0711-2.39307" style="fill:none;stroke-width:.3985;stroke-linecap:round;stroke-linejoin:round;stroke:teal;stroke-opacity:1;stroke-miterlimit:10" transform="scale(.99837 -.99837)rotate(21.285 351.2995 417.9309)"/><use xlink:href="#g" x="154.19573" y="121.47821" style="fill:teal;fill-opacity:1"/><path d="m-.001 226.77627-23.29435-42.98149M-.001 226.77627l76.35416-21.8233M-.001-.00136l-23.29827 183.79223" style="fill:none;stroke-width:.3985;stroke-linecap:butt;stroke-linejoin:miter;stroke:#000;stroke-opacity:1;stroke-miterlimit:10" transform="matrix(.99843 0 0 -.99843 137.45803 314.30724)"/><use xlink:href="#h" x="108.81603" y="135.27353" style="fill:#ff8000;fill-opacity:1"/><use xlink:href="#i" x="95.76953" y="123.55994" style="fill:#ff8000;fill-opacity:1"/><path d="m-.001-.00136 76.35807 204.95433" style="fill:none;stroke-width:.3985;stroke-linecap:butt;stroke-linejoin:miter;stroke:#000;stroke-opacity:1;stroke-miterlimit:10" transform="matrix(.99843 0 0 -.99843 137.45803 314.30724)"/><use xlink:href="#h" x="208.3147" y="114.14673" style="fill:#ff8000;fill-opacity:1"/><use xlink:href="#j" x="201.58028" y="102.43313" style="fill:#ff8000;fill-opacity:1"/><use xlink:href="#i" x="214.41192" y="102.43313" style="fill:#ff8000;fill-opacity:1"/><use xlink:href="#j" x="205.86056" y="391.16947" style="fill:#000;fill-opacity:1"/><use xlink:href="#k" x="222.55164" y="391.16947" style="fill:#000;fill-opacity:1"/><g style="fill:#000;fill-opacity:1"><use xlink:href="#l" x="237.5288" y="391.16947"/><use xlink:href="#m" x="247.63496" y="391.16947"/></g><use xlink:href="#n" x="261.87854" y="395.5466" style="fill:#000;fill-opacity:1"/><g style="fill:#000;fill-opacity:1"><use xlink:href="#o" x="270.00577" y="391.16947"/><use xlink:href="#p" x="276.5509" y="391.16947"/><use xlink:href="#q" x="288.92499" y="391.16947"/></g></svg>