<svg xmlns="http://www.w3.org/2000/svg" xmlns:xlink="http://www.w3.org/1999/xlink" width="734.629pt" height="403.211pt" version="1.2" viewBox="0 0 734.629 403.211"><defs><symbol id="c" overflow="visible"><path d="M1.6875-5.26562c0 2.14062 1.57813 3.71875 3.75 3.71875 2.07813 0 3.65625-1.57813 3.65625-3.71875 0-2.09375-1.57812-3.67188-3.65625-3.67188-2.17187 0-3.75 1.57813-3.75 3.67188m0 0" style="stroke:none"/></symbol><symbol id="d" overflow="visible"><path d="M1.3125-2.01562c0 1.125.51563 2.23437 1.79688 2.23437 2 0 3.73437-2.3125 4.82812-4.21875h.03125l-.625 2.125c-.125.42188-.20312.78125-.20312 1.07813 0 .65625.3125 1.01562 1.01562 1.01562 1.40625 0 2.46875-1.26562 3.10938-2.6875l-.4375-.25C10.48438-2.0625 9.64063-.75 9.125-.75c-.21875 0-.29687-.14062-.29687-.35937 0-.1875.0625-.40625.125-.65625l1.96875-7.46875H9.34375l-.07812.25c-.3125-.21875-.875-.40625-1.375-.40625-4.45313 0-6.57813 4.92187-6.57813 7.375m1.84375-.03125c0-2.04688 1.84375-6.6875 4.78125-6.6875.45313 0 .85938.15625 1.125.42187-.32812 1.39063-.98437 3.23438-1.98437 4.73438C6.03125-1.98437 4.875-.75 3.98438-.75c-.625 0-.82813-.5625-.82813-1.29687m0 0" style="stroke:none"/></symbol><symbol id="e" overflow="visible"><path d="m1.98438-12.39062.76562.07812c.4375.0625.59375.21875.6875.89063.21875 1.71875.4375 3.5625.6875 5.4375L4.90625 0h1.29688l3.78125-6.4375c1.21875-2.07812 2.375-3.98437 3.125-5.14062.42187-.64063.6875-.73438 1.6875-.8125l.09375-.53125h-4.10938l-.09375.53125 1.03125.07812c.21875.01563.3125.07813.3125.23438 0 .07812-.01562.20312-.09375.35937-.40625.84375-1.29687 2.46875-2.875 5.1875L6.40625-1.875h-.04687l-.65625-4.96875C5.48438-8.5 5.3125-10.125 5.15625-11.67187c0-.07813-.03125-.15625-.03125-.21875 0-.21875.09375-.35938.34375-.40625l1.1875-.09375.10938-.53125H2.09375Zm0 0" style="stroke:none"/></symbol><symbol id="f" overflow="visible"><path d="M-1.39062 3.4375c.01562.625.82812 1.07813 1.70312 1.07813 1.875 0 2.67188-1.51563 3.45313-5.09375l1.71875-7.875h2.375l.17187-.71875H5.60938l.51562-2.10938c.35938-1.40625.71875-1.95312 1.23438-1.95312.5 0 .82812.42187 1.25 1.3125.10937.1875.23437.32812.51562.32812.375 0 .92188-.34375.92188-.8125 0-.79687-1.01563-1.45312-2.125-1.45312-1.21875 0-2.01563.5-2.625 1.26562-.57813.73438-.95313 1.75-1.21875 2.75l-.20313.67188H2.26563l-.21875.71875h1.67187L1.54688 2.5625c-.21876 1.15625-.40625 1.28125-.59375 1.28125-.20313 0-.5-.14062-1-.92187C-.17187 2.75-.29687 2.5-.53125 2.5c-.42187 0-.85937.46875-.85937.9375m0 0" style="stroke:none"/></symbol><symbol id="g" overflow="visible"><path d="M1.96875-5.26562c0 3.46875.85938 7.51562 4.125 7.65625v-.46875C5 1.70312 3.26563.125 3.26563-5.26562c0-5.35938 1.64062-6.96875 2.82812-7.20313v-.45312c-3.26562.125-4.125 4.17187-4.125 7.65625m0 0" style="stroke:none"/></symbol><symbol id="h" overflow="visible"><path d="M.48438 1.92188v.46875c3.25-.14063 4.09375-4.1875 4.09375-7.65625 0-3.48438-.84375-7.53125-4.09375-7.65625v.45312c1.17187.23438 2.78125 1.84375 2.78125 7.20313 0 5.39062-1.6875 6.96875-2.78125 7.1875m0 0" style="stroke:none"/></symbol><symbol id="i" overflow="visible"><path d="m1.79688-12.39062.8125.07812c.40625.04688.5.23438.53125.79688L3.98438 0h1.3125l5.10937-10.29687H10.5L11.48438 0h1.28125l3.26562-6.6875c1.0625-2.125 2.01563-4.01562 2.34375-4.59375.51563-.89062.65625-.98437 1.8125-1.10937l.07813-.53125h-4.17188l-.10937.53125 1.21875.125c.1875.01562.28124.10937.28124.25 0 .09375-.04687.21875-.09374.375-.29688.76562-1 2.29687-2.14063 4.65625l-2.23437 4.70312h-.09375l-.95313-10.32812h-1.3125L5.60938-2.28125h-.09375l-.625-9.42187v-.125c0-.32813.14062-.4375.40625-.46875L6.5-12.39062l.125-.53125H1.89063Zm0 0" style="stroke:none"/></symbol><symbol id="n" overflow="visible"><path d="M2.57813-3.20312c0 2.53125 1.85937 3.48437 4.5625 3.48437 2.54687 0 4.875-.54687 5.90625-4.89062l1.59375-6.76563c.15625-.64062.3125-.89062.79687-.9375l1.03125-.07812.125-.53125h-5.10937l-.14063.53125 1.09375.07812c.3125.01563.46875.17188.46875.51563 0 .125-.01562.26562-.0625.42187l-1.5 6.51563c-.57812 2.5-1.5 4.48437-4.10937 4.48437-1.64063 0-2.79688-.71875-2.79688-2.78125q0-.79687.23438-1.875l1.5-6.34375c.15625-.64062.29687-.89062.76562-.9375l1.03125-.07812.125-.53125H2.98438l-.14063.53125 1.10938.07812c.32812.01563.46875.17188.46875.5 0 .10938-.03125.25-.0625.4375L2.78125-4.79687c-.14062.59375-.20312 1.10937-.20312 1.59375m0 0" style="stroke:none"/></symbol><symbol id="j" overflow="visible"><path d="M1.10938-3.25H8.3125v-.89062H1.10938Zm0 0" style="stroke:none"/></symbol><symbol id="k" overflow="visible"><path d="M1.42188 0H5.8125v-.40625L4.76563-.5c-.29688-.03125-.4375-.125-.4375-.60937v-7.71875L4.25-8.89062l-2.8125.46875v.34375l1.125.15625c.25.04687.32813.14062.32813.54687v6.26563c0 .46875-.09375.57812-.42188.60937l-1.04687.09375Zm0 0" style="stroke:none"/></symbol><symbol id="l" overflow="visible"><path d="M1.67188 1.85938h.875v-11.125h-.875Zm0 0" style="stroke:none"/></symbol><symbol id="m" overflow="visible"><path d="m1.39063-8.64062.5.04687c.29687.04688.40625.1875.46875.625.14062 1.125.3125 2.42188.48437 3.8125L3.35938 0h1.0625l2.59375-4.46875c.84375-1.4375 1.625-2.76562 2.14062-3.5625.26563-.42187.45313-.5625 1.20313-.60937l.0625-.40625H7.5l-.07812.40625.73437.04687c.15625.01563.21875.07813.21875.1875 0 .04688-.01562.14063-.0625.25-.29687.625-.92187 1.78125-1.9375 3.54688l-1.82812 3.1875L4.125-4.8125C4-5.76562 3.84375-7.26562 3.76563-8.14062c0-.0625-.03125-.10938-.03125-.15625 0-.15625.0625-.25.25-.28125l.8125-.0625.07812-.40625H1.46875Zm0 0" style="stroke:none"/></symbol><clipPath id="a"><path d="M.53125 60H315v335H.53125Zm0 0"/></clipPath><clipPath id="b"><path d="M453 68h280.72656v329H453Zm0 0"/></clipPath></defs><path d="M68.5 100.6875s34.60156-24.9961 56.58203-28.29297 32.40234 5.82031 56.58203 11.3164c24.17969 5.4961 51.41406 2.6875 67.90235 16.97657 16.48437 14.28906 8.17968 29.10547 16.97265 56.58203s22.79688 46.40625 28.29297 84.875c5.4961 38.46875 16.48438 85.6875 0 113.16406-16.48828 27.48047-40.91015 28.29297-84.875 28.29297S106.96875 377.29296 68.5 355.3086c-38.46875-21.98046-45.59375-51.89843-56.58203-84.87109-10.99219-32.97266-10.99219-51.90234 0-84.875C22.90625 152.58984 68.5 100.6875 68.5 100.6875" style="stroke:none;fill-rule:nonzero;fill:teal;fill-opacity:.05"/><g clip-path="url(#a)"><path d="M-226.77422 141.73348s34.66927 25.045 56.69275 28.34833 32.46575-5.8317 56.69275-11.33855 51.51467-2.69276 68.03522-17.00978c16.51663-14.31703 8.1957-29.16243 17.00587-56.69275C-19.53746 57.5104-5.50615 38.54366.0007-.00037s16.51663-85.85517 0-113.3855c-16.52055-27.53424-40.99021-28.34833-85.04109-28.34833s-103.1898 6.32094-141.73383 28.34833c-38.54402 22.02348-45.68296 52-56.69275 85.03717-11.0137 33.03718-11.0137 52.0039 0 85.04108 11.00979 33.03718 56.69275 85.04109 56.69275 85.04109" style="fill:none;stroke-width:.79701;stroke-linecap:butt;stroke-linejoin:miter;stroke:#000;stroke-opacity:1;stroke-miterlimit:10" transform="matrix(.99805 0 0 -.99805 294.83133 242.14417)"/></g><path d="M464.57813 185.5625s28.32421-59.4414 56.58593-84.875c28.26172-25.4375 28.32032-24.04297 56.58203-16.97656 28.26172 7.0664 35.38672 12.76562 56.58204 45.26562 21.1953 32.5039 14.16015 56.61328 28.29296 84.875 14.12891 28.26172 14.16016 7.09766 28.28907 28.29297 14.1328 21.19531 42.42578 28.32031 28.29296 56.58203-14.1328 28.26172-35.41406 35.38672-84.875 56.58203-49.45703 21.19922-77.83593 35.35938-113.16406 28.29297-35.32812-7.0664-14.16015-7.125-28.29297-56.58203-14.1289-49.46094-28.29296-141.45703-28.29296-141.45703" style="stroke:none;fill-rule:nonzero;fill:teal;fill-opacity:.05"/><g clip-path="url(#b)"><path d="M170.07895 56.6924s28.37964 59.55771 56.69666 85.04108c28.31703 25.48727 28.37573 24.09001 56.69276 17.00978s35.45596-12.7906 56.69275-45.3542c21.23678-32.56751 14.18786-56.72406 28.34833-85.04108C382.666.03095 382.6973 21.23643 396.85387-.00036c14.16046-21.23678 42.5088-28.37573 28.34833-56.69275s-35.48336-35.45596-85.04109-56.69275c-49.5538-21.2407-77.98824-35.42857-113.3855-28.34833s-14.18786 7.13894-28.34833 56.69275c-14.15655 49.55772-28.34833 141.73383-28.34833 141.73383" style="fill:none;stroke-width:.79701;stroke-linecap:butt;stroke-linejoin:miter;stroke:#000;stroke-opacity:1;stroke-miterlimit:10" transform="matrix(.99805 0 0 -.99805 294.83133 242.14417)"/></g><path d="M-182.26542-54.21561s-26.86105 19.14285-36.95107 35.2994c-10.09393 16.15656-9.39726 16.06262-3.45597 29.39335 5.9452 13.33072 9.3777 16.34833 27.25636 23.98042 17.87867 7.62818 29.16242 2.05871 44.33659 6.57143 15.17416 4.51663 4.7319 6.37182 16.41878 11.49902s17.6634 18.46575 30.37964 9.03718c12.71233-9.43248 14.37574-20.55186 20.53229-46.79843s10.67319-41.47944 4.1135-58.29353-4.74755-6.3679-30.37964-9.03718c-25.62818-2.66928-72.25048-1.65166-72.25048-1.65166" style="fill-rule:nonzero;fill:teal;fill-opacity:.2;stroke-width:.79701;stroke-linecap:butt;stroke-linejoin:miter;stroke:#000;stroke-opacity:1;stroke-miterlimit:10" transform="matrix(.99805 0 0 -.99805 294.83133 242.14417)"/><use xlink:href="#c" x="123.10736" y="253.18757" style="fill:#000;fill-opacity:1"/><use xlink:href="#d" x="122.66024" y="241.47848" style="fill:#000;fill-opacity:1"/><use xlink:href="#e" x="170.83098" y="263.78383" style="fill:#000;fill-opacity:1"/><path d="M255.12003 14.17185s14.18787 17.72994 28.34833 28.34833c14.15656 10.6184 14.18787 14.17221 28.34834 14.17221 14.15655 0 17.72602-3.55381 28.34441-14.1722s7.0959-14.18787 14.17221-28.34834C361.41356.0153 368.50945 3.52606 368.50945-14.17257c0-17.69862-.01566-28.36398-14.17613-42.52054-14.15655-14.16047-21.27984-14.1722-42.51662-14.1722-21.2407 0-21.28376 7.09197-42.52055 14.1722-21.2407 7.08024-31.90214-3.52642-42.52054 14.17221s-7.08023 42.5362 0 56.69275c7.07632 14.16047 28.34442 0 28.34442 0" style="fill-rule:nonzero;fill:teal;fill-opacity:.2;stroke-width:.79701;stroke-linecap:butt;stroke-linejoin:miter;stroke:#000;stroke-opacity:1;stroke-miterlimit:10" transform="matrix(.99805 0 0 -.99805 294.83133 242.14417)"/><use xlink:href="#c" x="593.58174" y="260.75376" style="fill:#000;fill-opacity:1"/><use xlink:href="#f" x="580.83469" y="244.74908" style="fill:#000;fill-opacity:1"/><g style="fill:#000;fill-opacity:1"><use xlink:href="#g" x="591.51366" y="244.74908"/><use xlink:href="#d" x="598.05628" y="244.74908"/></g><use xlink:href="#h" x="610.54492" y="244.74908" style="fill:#000;fill-opacity:1"/><use xlink:href="#i" x="540.21417" y="269.82501" style="fill:#000;fill-opacity:1"/><path d="M-170.08147 113.38906c125.06848 125.06456 328.48136 125.06456 453.26803.2818" style="fill:none;stroke-width:.3985;stroke-linecap:butt;stroke-linejoin:miter;stroke:#000;stroke-opacity:1;stroke-miterlimit:10" transform="matrix(.99805 0 0 -.99805 294.83133 242.14417)"/><path d="M-2.07125 2.39266C-1.6921.9563-.848.27824-.00111.0015c-.84964-.27954-1.69375-.9576-2.07014-2.3912" style="fill:none;stroke-width:.3985;stroke-linecap:round;stroke-linejoin:round;stroke:#000;stroke-opacity:1;stroke-miterlimit:10" transform="scale(.99804 -.99804)rotate(-45 133.54375 -763.14781)"/><path d="M-169.79967-28.63049c124.78668-124.78276 328.19956-124.78276 453.26804.2818" style="fill:none;stroke-width:.3985;stroke-linecap:butt;stroke-linejoin:miter;stroke:#000;stroke-opacity:1;stroke-miterlimit:10" transform="matrix(.99805 0 0 -.99805 294.83133 242.14417)"/><path d="M-2.07382 2.39018C-1.6919.95658-.8478.27853-.00092.00178c-.84964-.27953-1.69374-.95758-2.0729-2.39395" style="fill:none;stroke-width:.3985;stroke-linecap:round;stroke-linejoin:round;stroke:#000;stroke-opacity:1;stroke-miterlimit:10" transform="scale(-.99804 .99804)rotate(-45 264.52193 287.00925)"/><use xlink:href="#f" x="346.39244" y="20.48891" style="fill:#000;fill-opacity:1"/><use xlink:href="#f" x="337.30622" y="388.25227" style="fill:#000;fill-opacity:1"/><g style="fill:#000;fill-opacity:1"><use xlink:href="#j" x="347.98532" y="380.29784"/><use xlink:href="#k" x="357.39556" y="380.29784"/></g><g style="fill:#000;fill-opacity:1"><use xlink:href="#l" x="343.37235" y="393.92916"/><use xlink:href="#m" x="347.59025" y="393.92916"/></g><use xlink:href="#n" x="145.38178" y="361.63236" style="fill:#000;fill-opacity:1"/></svg>