<svg xmlns="http://www.w3.org/2000/svg" xmlns:xlink="http://www.w3.org/1999/xlink" width="694.732pt" height="481.55pt" version="1.2" viewBox="0 0 694.732 481.55"><defs><symbol id="a" overflow="visible"><path d="M.59375-.73437c0 .53125.4375.95312 1.20313.95312 1.26562 0 1.98437-1.28125 2.76562-2.53125l.75-1.23437h.04688L5.6875-2.0625C6.04688-.57812 6.39063.21875 7.34375.21875 8.71875.21875 9.4375-1.1875 10-2.32812l-.48437-.26563C9.0625-1.75 8.54688-.75 8.01563-.75c-.35938 0-.48438-.42187-.90625-2.09375l-.59375-2.45312c.67187-1.1875 1.625-2.6875 2.15625-2.6875.17187 0 .34375.01562.54687.14062.17188.07813.375.15625.59375.15625.42188 0 .79688-.39062.79688-.89062 0-.57813-.4375-.8125-.95313-.8125-1 0-1.82812.89062-2.48437 1.95312l-.82813 1.26563H6.3125L5.54688-9.3125l-.09375-.07812-3.07813.9375L2.40625-8l1.42188-.10937H3.875c.3125 0 .4375.14062.625.9375l.65625 2.71875-.51562.89062c-.79688 1.375-1.5 2.34375-1.95313 2.34375-.17187 0-.375-.07812-.53125-.17187-.1875-.10938-.42187-.28126-.75-.28126-.46875 0-.8125.48438-.8125.9375m0 0" style="stroke:none"/></symbol><symbol id="b" overflow="visible"><path d="M0 3.5c0 .5.5625 1.01563 1.375 1.01563 1.59375 0 2.26563-1.17188 3.92188-4.01563.375-.64062 1.51562-2.60937 2.67187-4.51562 1.0625-1.75 2.25-3.5625 2.25-4.32813 0-.65625-.20312-1.04687-.34375-1.04687-.35937 0-1 .15625-1.46875.46875v.32812c0 .65625-.0625 1.59375-.25 2.25-.29687 1.04688-1.39062 3.07813-2.625 5.20313h-.0625C5.32813-4 4.98438-7.9375 4.71875-9.3125l-.14062-.07812L1.4375-8.5l.0625.48438 1.25-.04688h.03125c.39063 0 .46875.3125.625 1.28125.20313 1.45313.60938 5.04688.60938 6.54688 0 .54687-.01563 1.3125-.4375 2.29687-.32813.78125-.8125 1.34375-1.1875 1.34375-.28125 0-.5-.20312-.78125-.57812-.21876-.29688-.375-.45313-.65625-.45313C.48438 2.39063 0 2.96875 0 3.5m0 0" style="stroke:none"/></symbol><symbol id="d" overflow="visible"><path d="M1.59375-2.67187h10.29688v-1.09375H1.59375Zm0-4.10938h10.29688v-1.10937H1.59375Zm0 0" style="stroke:none"/></symbol><symbol id="e" overflow="visible"><path d="m.48438-6.6875.4375.28125c.46875-.95312 1.32812-1.95312 1.75-1.95312.1875 0 .29687.17187.29687.53125 0 .875-.73437 3.45312-.73437 4.5625 0 2.48437.96875 3.48437 3.40625 3.48437 0 .17188-.6875 3.875-.6875 4.14063.0625.15625.10937.15625.32812.15625.23438 0 .26563 0 .39063-.10938.07812-.10937.73437-2.79687 1.09375-4.1875.89062 0 1.20312-.07812 2.73437-1.17187.25-.15626 1.15625-1.09375 1.59375-1.90625 1.125-2.21875 1.15625-5.25 3.17188-6.125 0-.09375-.07813-.40625-.07813-.40625-.75 0-1.75.07812-2.51562.8125-.96875.89062-.70313 5.29687-2.59375 6.96875C7.85938-.5625 7.5625-.51562 6.96875-.51562c0 0 2.10938-8.6875 2.53125-10.04688h-.0625c-.1875 0-1.85937.46875-1.85937.53125-.375 2.14063-1.8125 9.51563-1.8125 9.51563-1.5 0-1.78125-.59375-1.78125-2.59375 0-1.39063.71875-3.29688.71875-4.95313 0-.73437-.21875-1.32812-.98438-1.32812-1.375 0-2.6875 1.03125-3.23437 2.70312m0 0" style="stroke:none"/></symbol><symbol id="g" overflow="visible"><path d="M1.96875-5.28125c0 3.48438.85938 7.53125 4.125 7.67188V1.9375C5 1.71875 3.26563.125 3.26563-5.28125c0-5.34375 1.65625-6.96875 2.82812-7.20312v-.45313c-3.26562.14063-4.125 4.17188-4.125 7.65625m0 0" style="stroke:none"/></symbol><symbol id="h" overflow="visible"><path d="M.48438 1.9375v.45313C3.75 2.25 4.57813-1.79687 4.57813-5.28125S3.75-12.79687.48438-12.9375v.45313C1.65625-12.25 3.26563-10.625 3.26563-5.28125c0 5.40625-1.6875 7-2.78125 7.21875m0 0" style="stroke:none"/></symbol><symbol id="i" overflow="visible"><path d="M.79688-3.625c0 2.21875 1.71875 3.70313 3.9375 3.84375l-.90625 4.29688L5.60938 4 6.4375.21875c3.65625-.20312 6.21875-3.32812 6.21875-6.625 0-2.35937-1.45312-2.98437-3.14062-2.98437-1.59375 0-3.03125 1.85937-3.5 3.9375-.40625 1.70312-.84375 3.54687-1.125 4.9375-1.76563-.125-2.34375-1.07813-2.34375-2.45313 0-2.01562.57812-4.03125 2.17187-5.875l.01563.04688c0-.15625-.07813-.4375-.17188-.4375l-.04687.03125C1.89063-7.79687.79688-5.96875.79688-3.625M6.5625-.45312l1.15625-5.3125c.26563-1.20313.85938-2.96875 2.01563-2.96875.875 0 1.10937.96875 1.10937 2.04687 0 2.82813-1.10937 6.15625-4.28125 6.23438m0 0" style="stroke:none"/></symbol><symbol id="f" overflow="visible"><path d="M1.42188 0H5.8125v-.40625L4.76563-.5c-.29688-.03125-.4375-.125-.4375-.60937v-7.73438L4.25-8.90625l-2.8125.46875v.35938l1.125.14062c.25.04688.34375.14063.34375.54688v6.28125c0 .46875-.10937.57812-.4375.60937l-1.04687.09375Zm0 0" style="stroke:none"/></symbol><symbol id="j" overflow="visible"><path d="M1.10938-3.26562h7.21875v-.875H1.10938Zm0 0" style="stroke:none"/></symbol><symbol id="k" overflow="visible"><path d="M.375-.15625.53125 0h5.54688l.46875-1.875-.39063-.0625c-.29687.70313-.54687.79688-1.0625.79688H1.73438c.21874-.625.90625-1.5 2.1875-2.35938C5.23438-4.39062 6.1875-5 6.1875-6.4375c0-1.82812-1.23437-2.46875-2.6875-2.46875-1.78125 0-2.79687 1.03125-2.79687 1.82813 0 .46875.53125.6875.8125.6875.25 0 .375-.125.4375-.39063.20312-.90625.6875-1.64062 1.46875-1.64062.90625 0 1.20312.79687 1.20312 1.75 0 1.26562-.5625 2.09375-1.79687 3.15625C1.15625-2.07812.57813-1.125.375-.15625m0 0" style="stroke:none"/></symbol><clipPath id="c"><path d="M119 105h485v376.10156H119Zm0 0"/></clipPath></defs><path d="M-340.16305.00022h623.2342" style="fill:none;stroke-width:.3985;stroke-linecap:butt;stroke-linejoin:miter;stroke:#000;stroke-opacity:1;stroke-miterlimit:10" transform="matrix(.99907 0 0 -.99907 356.99 424.06272)"/><path d="M-2.0705 2.38917C-1.69516.95815-.85063.27782.00173.00022c-.85236-.2776-1.6969-.95792-2.07225-2.39286" style="fill:none;stroke-width:.3985;stroke-linecap:round;stroke-linejoin:round;stroke:#000;stroke-opacity:1;stroke-miterlimit:10" transform="matrix(.99907 0 0 -.99907 639.99435 424.06272)"/><use xlink:href="#a" x="647.22279" y="428.65043" style="fill:#000;fill-opacity:1"/><path d="M-.00173-56.69333v453.14962" style="fill:none;stroke-width:.3985;stroke-linecap:butt;stroke-linejoin:miter;stroke:#000;stroke-opacity:1;stroke-miterlimit:10" transform="matrix(.99907 0 0 -.99907 356.99 424.06272)"/><path d="M-2.0726 2.39068C-1.69334.95574-.8488.27933-.00035.00173-.8488-.2798-1.69334-.9562-2.0726-2.39113" style="fill:none;stroke-width:.3985;stroke-linecap:round;stroke-linejoin:round;stroke:#000;stroke-opacity:1;stroke-miterlimit:10" transform="matrix(0 -.99907 -.99907 0 356.99 27.777)"/><use xlink:href="#b" x="351.30632" y="16.03102" style="fill:#000;fill-opacity:1"/><g clip-path="url(#c)"><path d="M-141.73561 229.04218c9.09052-6.36532 19.84665-9.3994 28.34677-2.26774 93.80242 93.7985 284.10118 120.22552 340.16524 0 33.82064-72.52865-34.57525-156.18488-113.39102-170.08066-89.8886-15.85074-136.8817 72.54429-226.77422 56.69355-78.81186-13.89579-113.3871-90.05282-113.3871-170.08066" style="fill:none;stroke-width:.79701;stroke-linecap:butt;stroke-linejoin:miter;stroke:teal;stroke-opacity:1;stroke-miterlimit:10" transform="matrix(.99907 0 0 -.99907 356.99 424.06272)"/></g><path d="m-142.02886 113.11755-61.77251-56.154" style="fill:none;stroke-width:.3985;stroke-linecap:butt;stroke-linejoin:miter;stroke:#000;stroke-opacity:1;stroke-miterlimit:10" transform="matrix(.99907 0 0 -.99907 356.99 424.06272)"/><path d="M-2.07201 2.39257C-1.69353.95463-.85028.27787.00165.00012-.8487-.27842-1.6938-.95807-2.07124-2.39048" style="fill:none;stroke-width:.3985;stroke-linecap:round;stroke-linejoin:round;stroke:#000;stroke-opacity:1;stroke-miterlimit:10" transform="scale(.999 -.999)rotate(42.274 510.23628 123.03685)"/><path d="M-2.07302 2.39307C-1.69453.95513-.85129.27837.00064.00062c-.85035-.27854-1.69544-.95819-2.07288-2.3906" style="fill:none;stroke-width:.3985;stroke-linecap:round;stroke-linejoin:round;stroke:#000;stroke-opacity:1;stroke-miterlimit:10" transform="matrix(-.7392 .672 .672 .7392 153.22944 367.28568)"/><use xlink:href="#a" x="6.82523" y="327.6678" style="fill:#000;fill-opacity:1"/><use xlink:href="#d" x="22.5316" y="327.6678" style="fill:#000;fill-opacity:1"/><use xlink:href="#e" x="39.87031" y="327.6678" style="fill:#000;fill-opacity:1"/><use xlink:href="#f" x="53.26383" y="332.04771" style="fill:#000;fill-opacity:1"/><g style="fill:#000;fill-opacity:1"><use xlink:href="#g" x="61.39823" y="327.6678"/><use xlink:href="#a" x="67.94753" y="327.6678"/></g><use xlink:href="#h" x="79.792" y="327.6678" style="fill:#000;fill-opacity:1"/><use xlink:href="#d" x="90.20319" y="327.6678" style="fill:#000;fill-opacity:1"/><use xlink:href="#i" x="107.54191" y="327.6678" style="fill:#000;fill-opacity:1"/><g style="fill:#000;fill-opacity:1"><use xlink:href="#j" x="121.39417" y="319.70524"/><use xlink:href="#f" x="130.81401" y="319.70524"/></g><use xlink:href="#f" x="119.98149" y="332.98883" style="fill:#000;fill-opacity:1"/><g style="fill:#000;fill-opacity:1"><use xlink:href="#g" x="138.94776" y="327.6678"/><use xlink:href="#b" x="145.49706" y="327.6678"/><use xlink:href="#h" x="156.86377" y="327.6678"/></g><use xlink:href="#b" x="6.82523" y="351.55548" style="fill:#000;fill-opacity:1"/><use xlink:href="#d" x="22.05384" y="351.55548" style="fill:#000;fill-opacity:1"/><use xlink:href="#i" x="39.39255" y="351.55548" style="fill:#000;fill-opacity:1"/><use xlink:href="#f" x="51.83117" y="355.93538" style="fill:#000;fill-opacity:1"/><g style="fill:#000;fill-opacity:1"><use xlink:href="#g" x="59.96557" y="351.55548"/><use xlink:href="#a" x="66.51487" y="351.55548"/></g><use xlink:href="#h" x="78.35934" y="351.55548" style="fill:#000;fill-opacity:1"/><path d="M51.42128 54.42603h78.57336" style="fill:none;stroke-width:.3985;stroke-linecap:butt;stroke-linejoin:miter;stroke:#000;stroke-opacity:1;stroke-miterlimit:10" transform="matrix(.99907 0 0 -.99907 356.99 424.06272)"/><path d="M-2.07102 2.39215C-1.69176.9572-.85114.2808.00122-.00072c-.85235-.2776-1.69298-.95402-2.07224-2.38895" style="fill:none;stroke-width:.3985;stroke-linecap:round;stroke-linejoin:round;stroke:#000;stroke-opacity:1;stroke-miterlimit:10" transform="matrix(-.99907 0 0 .99907 408.16528 369.68821)"/><path d="M-2.07354 2.38966C-1.69428.95473-.84974.27832-.0013.00071c-.84844-.2815-1.69298-.95792-2.07224-2.39286" style="fill:none;stroke-width:.3985;stroke-linecap:round;stroke-linejoin:round;stroke:#000;stroke-opacity:1;stroke-miterlimit:10" transform="matrix(.99907 0 0 -.99907 487.0638 369.68821)"/><use xlink:href="#b" x="408.5728" y="394.28854" style="fill:#000;fill-opacity:1"/><use xlink:href="#d" x="423.80141" y="394.28854" style="fill:#000;fill-opacity:1"/><use xlink:href="#i" x="441.14013" y="394.28854" style="fill:#000;fill-opacity:1"/><use xlink:href="#k" x="453.57875" y="398.66645" style="fill:#000;fill-opacity:1"/><g style="fill:#000;fill-opacity:1"><use xlink:href="#g" x="461.71314" y="394.28854"/><use xlink:href="#a" x="468.26244" y="394.28854"/></g><use xlink:href="#h" x="480.10692" y="394.28854" style="fill:#000;fill-opacity:1"/><path d="M235.84737 147.80227v78.57336" style="fill:none;stroke-width:.3985;stroke-linecap:butt;stroke-linejoin:miter;stroke:#000;stroke-opacity:1;stroke-miterlimit:10" transform="matrix(.99907 0 0 -.99907 356.99 424.06272)"/><path d="M-2.07213 2.39071C-1.69287.95578-.84833.27936.0001.00176-.84834-.27975-1.69287-.95616-2.07213-2.3911" style="fill:none;stroke-width:.3985;stroke-linecap:round;stroke-linejoin:round;stroke:#000;stroke-opacity:1;stroke-miterlimit:10" transform="matrix(0 .99907 .99907 0 592.61543 276.59754)"/><path d="M-2.07244 2.3911C-1.69318.95617-.84864.27975-.0002-.00176c-.84844-.2776-1.69298-.95402-2.07224-2.38895" style="fill:none;stroke-width:.3985;stroke-linecap:round;stroke-linejoin:round;stroke:#000;stroke-opacity:1;stroke-miterlimit:10" transform="matrix(0 -.99907 -.99907 0 592.61543 197.69902)"/><use xlink:href="#a" x="608.60088" y="241.36145" style="fill:#000;fill-opacity:1"/><use xlink:href="#d" x="624.30725" y="241.36145" style="fill:#000;fill-opacity:1"/><use xlink:href="#e" x="641.64597" y="241.36145" style="fill:#000;fill-opacity:1"/><use xlink:href="#k" x="655.04148" y="245.74136" style="fill:#000;fill-opacity:1"/><g style="fill:#000;fill-opacity:1"><use xlink:href="#g" x="663.17388" y="241.36145"/><use xlink:href="#b" x="669.72318" y="241.36145"/><use xlink:href="#h" x="681.08989" y="241.36145"/></g></svg>