<svg xmlns="http://www.w3.org/2000/svg" xmlns:xlink="http://www.w3.org/1999/xlink" width="323.62pt" height="342.334pt" version="1.2" viewBox="0 0 323.62 342.334"><defs><symbol id="c" overflow="visible"><path d="M1.6875-5.26562c0 2.14062 1.57813 3.71875 3.75 3.71875 2.07813 0 3.65625-1.57813 3.65625-3.71875 0-2.09375-1.57812-3.67188-3.65625-3.67188-2.17187 0-3.75 1.57813-3.75 3.67188m0 0" style="stroke:none"/></symbol><symbol id="o" overflow="visible"><path d="M.39063 0h5.125L5.625-.53125 4.51563-.60937c-.3125-.03126-.45313-.20313-.45313-.5 0-.125.01563-.28126.0625-.4375L5.29688-6.75h.03125C6.1875-5 7.09375-3.125 8.23438-1.57812 9.125-.35937 9.9375.04688 11.375.07813l.92188.01562.14062-.54687c-1.07812-.10938-1.51562-.59375-2.1875-1.4375C8.98438-3.46875 7.71875-5.73437 6.9375-7.375c1.6875-1.42187 3.25-2.70312 4.95313-3.90625 1.07812-.75 1.51562-1.01562 3.03125-1.10937L15-12.92187h-4.65625l-.07812.53125.71875.0625c.35937.03125.35937.25-.03125.60937-1.78125 1.65625-3.60938 3.14063-5.5625 4.79688l-.04688-.04688 1-4.40625c.14063-.57812.3125-.89062.79688-.9375l1.03125-.07812.125-.53125H3.1875l-.14062.53125 1.10937.07812c.3125.01563.45313.21875.45313.51563q0 .1875-.04688.42187l-2.25 9.82813c-.14062.59375-.32812.84375-.78125.89062L.5-.53125Zm0 0" style="stroke:none"/></symbol><symbol id="p" overflow="visible"><path d="M.39063 0h9.75l.95312-3.28125h-.54687C9.59375-.96875 8.75-.65625 6.4375-.65625c-.90625 0-1.84375-.0625-2.07812-.23437-.15625-.125-.23438-.28126-.23438-.54688 0-.1875.04688-.46875.125-.84375l.96875-4.10937h2.4375c1.39063 0 1.65625.28125 1.65625 1.09375 0 .17187 0 .32812-.03125.51562h.5625l.875-3.89062h-.57812C9.67188-7.375 9.46875-7.07812 7.8125-7.07812H5.375l1.04688-4.65625c.10937-.45313.21875-.5625.54687-.5625h2.23438c1.84375 0 2.21875.48437 2.21875 1.5 0 .28125-.03125.60937-.0625.96875h.5625l.6875-3.09375H3.15625l-.14062.53125 1.14062.07812c.3125.01563.45313.15625.45313.45313 0 .125-.01563.26562-.04688.4375l-2.23437 9.875c-.15625.625-.3125.84375-.78125.89062L.5-.53125Zm0 0" style="stroke:none"/></symbol><symbol id="d" overflow="visible"><path d="M.34375-.42187c0 .29687.25.53125.65625.53125.625 0 .96875-.5625 1.32813-1.1875l.35937-.60938h.01563L2.85938-1c.15625.6875.34375 1.10938.875 1.10938.76562 0 1.20312-.76563 1.48437-1.4375l-.26562-.125C4.73438-1 4.45313-.5 4.20313-.5c-.17188 0-.23438-.17187-.39063-.82812l-.35937-1.39063c.29687-.54687.6875-1.14062.95312-1.14062.07813 0 .1875.01562.29688.07812.09375.03125.21875.09375.34375.09375.23437 0 .45312-.23437.45312-.53125 0-.32812-.25-.46875-.51562-.46875-.46875 0-.875.34375-1.20313.85938l-.40625.65625h-.03125l-.32812-1.48438-.0625-.03125-1.71875.46875.01562.25.65625-.01562c.20313 0 .26563.04687.34375.35937l.32813 1.42188c-.01563.04687-.20313.39062-.21875.42187C2-1.14062 1.70313-.71875 1.5-.71875c-.09375 0-.20312-.03125-.28125-.09375C1.10938-.875.98438-.98437.8125-.98437c-.25 0-.46875.28124-.46875.5625m0 0" style="stroke:none"/></symbol><symbol id="e" overflow="visible"><path d="M.375-3.125C.375-1.32812.9375.10938 2.5625.10938S4.76563-1.32812 4.76563-3.125 4.1875-6.35937 2.5625-6.35937.375-4.92187.375-3.125m1.17188 0c0-1.3125.1875-2.85937 1.01562-2.85937.84375 0 1.01563 1.54687 1.01563 2.85937S3.40625-.26562 2.5625-.26562c-.82812 0-1.01562-1.54688-1.01562-2.85938m0 0" style="stroke:none"/></symbol><symbol id="f" overflow="visible"><path d="M1.09375-.625c0 .4375.1875.73438.71875.73438.95313 0 1.85938-.98438 2.42188-2.0625h.03125l-.29688 1.0625c-.04687.15624-.07812.29687-.07812.42187 0 .375.21875.57813.57812.57813.78125 0 1.32813-.67188 1.6875-1.40625l-.23437-.15626c-.20313.375-.59375.95313-.82813.95313-.125 0-.17187-.07812-.17187-.20312 0-.07813.01562-.15626.04687-.26563L5.9375-4.6875l-1.04687.10938C4.625-3.625 4.46875-3.125 4.25-2.60937 3.85938-1.71875 3.07813-.5 2.4375-.5c-.1875 0-.26562-.10937-.26562-.3125 0-.10937.03125-.23437.07812-.375l.875-3.45312-.04687-.04688-1.90625.25-.0625.26563.5625.04687c.14062.01563.20312.07813.20312.1875 0 .07813-.03125.15625-.0625.25L1.1875-1.25c-.0625.21875-.09375.4375-.09375.625m0 0" style="stroke:none"/></symbol><symbol id="g" overflow="visible"><path d="M.89063.10938 1.95313 0c.26562-.95312.4375-1.45312.65625-2.01562.32812-.75 1.20312-2.0625 1.8125-2.0625.20312 0 .29687.125.29687.32812 0 .07813-.01562.1875-.04687.28125l-.75 2.57813c-.04688.14062-.07813.28124-.07813.40625 0 .375.20313.59375.625.59375.79688 0 1.32813-.67188 1.6875-1.40625l-.25-.15626c-.20312.375-.57812.95313-.82812.95313-.10938 0-.15625-.0625-.15625-.1875 0-.07812.03125-.17187.0625-.28125l.71875-2.375c.0625-.20312.09375-.39062.09375-.57812 0-.4375-.21875-.76563-.78125-.76563-.92188 0-1.82813.98438-2.40625 2.07813h-.03125l.60937-2.03125-.04687-.04688-1.92188.25-.0625.28125.57813.04688c.125 0 .1875.07812.1875.17187 0 .07813-.03126.15625-.04688.25Zm0 0" style="stroke:none"/></symbol><symbol id="h" overflow="visible"><path d="M1.01563 0H4.1875v-.3125L3.48438-.375c-.21875-.01562-.3125-.07812-.3125-.42187v-5.5l-.07813-.04688L1.03125-6v.25l.75.10938c.20313.03125.26563.10937.26563.40625v4.4375c0 .32812-.07813.40625-.3125.42187l-.71875.0625Zm0 0" style="stroke:none"/></symbol><symbol id="i" overflow="visible"><path d="M0 1.70313C0 2.03125.17188 2.25.75 2.25c.875 0 1.28125-.65625 2.07813-1.98437C3.01563-.0625 3.5625-1.04687 4.14063-2 4.67188-2.875 5.25-3.79687 5.25-4.17187c0-.28125-.10937-.51563-.1875-.51563-.1875 0-.54687.07813-.84375.23438v.1875c0 .32812-.03125.78125-.10937 1.09375C3.96875-2.59375 3.5-1.625 2.92188-.60937h-.01563c-.04687-1.42188-.25-3.4375-.375-4.04688l-.0625-.03125L.70313-4.25v.26563L1.3125-4h.01563c.1875 0 .23437.17188.32812.60938C1.76563-2.65625 2-.84375 2-.03125c0 .3125-.01562.67188-.15625 1.0625-.14062.39063-.34375.625-.51562.625-.14063 0-.26563-.125-.40625-.32812-.125-.17188-.20313-.26563-.375-.26563C.26562 1.07813 0 1.39063 0 1.70313m0 0" style="stroke:none"/></symbol><symbol id="j" overflow="visible"><path d="M.28125-.125.39063 0H4.4375l.35938-1.40625-.3125-.04687c-.21875.48437-.39063.5625-.76563.5625h-2.375C1.48438-1.3125 1.92188-1.92187 2.875-2.5c.98438-.625 1.64063-1.07812 1.64063-2.09375 0-1.29687-.89063-1.76562-1.96875-1.76562C1.29688-6.35937.5-5.65625.5-5.01562c0 .35937.42188.53125.64063.53125.1875 0 .28124-.10938.32812-.3125.15625-.67188.48438-1.1875 1.01563-1.1875.60937 0 .8125.53125.8125 1.20312 0 .82813-.32813 1.46875-1.25 2.23438C.82813-1.5.39063-.8125.28124-.125m0 0" style="stroke:none"/></symbol><symbol id="k" overflow="visible"><path d="M.79688-2.29687H5.9375v-.6875H.79688Zm0 0" style="stroke:none"/></symbol><symbol id="l" overflow="visible"><path d="M-.32812 0h3.79687l.10938-.48437-.9375-.09375c-.20313-.01563-.29688-.125-.29688-.28126 0-.09374.03125-.21874.09375-.34374.54688-1.0625 1.09375-2.15625 1.71875-3.28125h3.76563l.39062 3.25c0 .07812.03125.125.03125.17187 0 .34375-.17187.45313-.45312.48438L7-.48438 6.90625 0h4.125l.10938-.48437L10.5-.53125c-.51562-.0625-.59375-.29687-.67187-.98437L8.59375-11.625H7.39063L4.5625-6.67187c-.85937 1.5-2.25 4-2.875 5.01562C1.14063-.78125.85938-.60937.34375-.54687l-.5625.0625Zm4.8125-5.14062c.90625-1.65625 1.82812-3.29688 2.75-4.9375l.60937 4.9375Zm0 0" style="stroke:none"/></symbol><symbol id="n" overflow="visible"><path d="M.35938 0h5.09375c4.0625 0 4.89062-2.09375 4.89062-3.48437 0-1.78125-1.3125-2.54688-2.54687-2.78125l.01562-.03125C10.04688-6.5625 11-7.84375 11-9.10937c0-.875-.35937-1.53125-1.04687-1.96875-.70313-.40625-1.71875-.54688-2.84375-.54688H2.84375l-.10937.48438 1 .07812c.29687.03125.42187.15625.42187.42188 0 .10937-.04687.25-.07812.40625L2.09375-1.39062c-.125.54687-.28125.75-.70312.79687l-.9375.10938Zm3.35937-1.28125c0-.125.01563-.25.0625-.375l.95313-4.3125h.67187c1.65625 0 3.125.46875 3.125 2.39063 0 1.5-.90625 2.98437-3.15625 2.98437-1.32812 0-1.65625-.26562-1.65625-.6875M4.85938-6.5625 5.75-10.46875c.125-.5.20313-.59375 1.32813-.59375 1.42187 0 2.20312.71875 2.20312 1.90625 0 .85938-.40625 1.51563-1 1.98438-.54687.42187-1.40625.60937-2.32812.60937Zm0 0" style="stroke:none"/></symbol><symbol id="m" overflow="visible"><path d="M.42188-.625c0 .04688.10937.1875.28125.1875.09374 0 .32812-.01562.375-.09375l2-5.14062c.07812-.17188.07812-.26563.07812-.3125 0-.23438-.39062-.32813-.73437-.32813-.32813 0-1.01563.15625-1.04688.40625Zm0 0" style="stroke:none"/></symbol><clipPath id="a"><path d="M5 29h314v312.66797H5Zm0 0"/></clipPath><clipPath id="b"><path d="M.125 18h322.99219v323.66797H.125Zm0 0"/></clipPath></defs><g clip-path="url(#a)"><path d="M62.59766 58.35547s34.60156-24.9961 56.58203-28.29297c21.98437-3.29687 32.40625 5.82031 56.58594 11.3164 24.17968 5.4961 51.41406 2.6875 67.89843 16.97657 16.48828 14.28906 2.6875 29.10547 16.97656 56.58203 14.28907 27.48047 51.08594 46.40625 56.58204 84.875s-6.3086 85.6914-28.28907 113.16797c-21.98437 27.47656-40.91406 28.29297-84.8789 28.29297-43.96094 0-119.47656-6.3086-141.45703-28.29297C40.61719 291 101.8789 261.07812 90.89063 228.10547c-10.9922-32.97266-79.38282-51.90234-84.875-84.875-5.4961-32.97266 56.58203-84.875 56.58203-84.875" style="stroke:none;fill-rule:nonzero;fill:#000;fill-opacity:.05"/></g><g clip-path="url(#b)"><path d="M-226.77436 141.734s34.66888 25.04473 56.69211 28.34801c22.02715 3.3033 32.4693-5.83163 56.69602-11.33842s51.5141-2.69273 68.03054-17.00959c16.52036-14.31686 2.69273-29.16209 17.00959-56.6921C-14.02924 57.50795 22.83922 38.54535 28.346.00176c5.5068-38.54358-6.32085-85.8581-28.3441-113.38812-22.02714-27.53002-40.99365-28.34801-85.04403-28.34801-44.04646 0-119.709 6.32086-141.73223 28.348-22.02323 22.02324 39.35767 52.00333 28.34801 85.04013-11.01357 33.0368-79.53725 52.00332-85.04012 85.04012-5.50678 33.0368 56.69211 85.04012 56.69211 85.04012" style="fill:none;stroke-width:.79701;stroke-linecap:butt;stroke-linejoin:miter;stroke:#000;stroke-opacity:1;stroke-miterlimit:10" transform="matrix(.99806 0 0 -.99806 288.93169 199.81427)"/></g><path d="M-170.08225 141.734s-15.13094-.48923-28.3441-17.00959c-13.21707-16.51644-56.20679-52.61388-39.68643-68.03053 16.51644-15.41665 91.68975-22.352 124.72655-11.33842 33.0368 11.01357 56.36727 49.31059 45.3537 68.03053-11.01358 18.72386-102.04972 28.34801-102.04972 28.34801" style="fill-rule:nonzero;fill:#66e066;fill-opacity:.3;stroke-width:.79701;stroke-linecap:butt;stroke-linejoin:miter;stroke:#000;stroke-opacity:1;stroke-miterlimit:10" transform="matrix(.99806 0 0 -.99806 288.93169 199.81427)"/><path d="M-165.8279 127.56195s-11.35016-.3679-21.26002-12.75915c-9.91378-12.38733-42.15216-39.45943-29.76483-51.02094 12.38733-11.56542 68.76634-16.76302 93.54492-8.5048s42.27348 36.98197 34.01526 51.02486c-8.25822 14.03898-76.53532 21.26003-76.53532 21.26003" style="fill-rule:nonzero;fill:#0c0;fill-opacity:.3;stroke-width:.79701;stroke-linecap:butt;stroke-linejoin:miter;stroke:#000;stroke-opacity:1;stroke-miterlimit:10" transform="matrix(.99806 0 0 -.99806 288.93169 199.81427)"/><path d="M-110.5526-19.84145s-15.21313-2.77491-31.18164-19.84321c-15.9685-17.0683-67.5413-53.71759-51.02485-68.03445 16.52036-14.31295 99.72488-26.04275 136.06497-5.66725C-20.35402-93.01478 4.79246-21.00386-5.66926-2.83577c-10.46172 18.172-104.88334-17.00568-104.88334-17.00568" style="fill-rule:nonzero;fill:#66e066;fill-opacity:.3;stroke-width:.79701;stroke-linecap:butt;stroke-linejoin:miter;stroke:#000;stroke-opacity:1;stroke-miterlimit:10" transform="matrix(.99806 0 0 -.99806 288.93169 199.81427)"/><path d="M-108.42738-34.0174s-11.40887-2.07826-23.38525-14.88046-50.65695-40.28526-38.26962-51.02486c12.39125-10.73569 74.79366-19.5301 102.04971-4.25044s46.11298 69.28688 38.26962 82.9149c-7.84726 13.62411-78.66446-12.75915-78.66446-12.75915" style="fill-rule:nonzero;fill:#0c0;fill-opacity:.3;stroke-width:.79701;stroke-linecap:butt;stroke-linejoin:miter;stroke:#000;stroke-opacity:1;stroke-miterlimit:10" transform="matrix(.99806 0 0 -.99806 288.93169 199.81427)"/><use xlink:href="#c" x="113.80439" y="130.72169" style="fill:#000;fill-opacity:1"/><use xlink:href="#d" x="100.91148" y="127.19654" style="fill:#000;fill-opacity:1"/><use xlink:href="#e" x="106.60839" y="129.90128" style="fill:#000;fill-opacity:1"/><use xlink:href="#c" x="108.1454" y="157.88085" style="fill:#000;fill-opacity:1"/><use xlink:href="#f" x="87.59638" y="153.32172" style="fill:#000;fill-opacity:1"/><use xlink:href="#g" x="93.94004" y="155.50946" style="fill:#000;fill-opacity:1"/><use xlink:href="#h" x="100.35356" y="158.20422" style="fill:#000;fill-opacity:1"/><use xlink:href="#c" x="215.65325" y="243.88653" style="fill:#000;fill-opacity:1"/><use xlink:href="#i" x="228.05812" y="240.36139" style="fill:#000;fill-opacity:1"/><use xlink:href="#e" x="233.73707" y="243.06612" style="fill:#000;fill-opacity:1"/><use xlink:href="#c" x="209.99426" y="221.25456" style="fill:#000;fill-opacity:1"/><use xlink:href="#f" x="189.44624" y="216.69044" style="fill:#000;fill-opacity:1"/><use xlink:href="#g" x="195.78989" y="218.87618" style="fill:#000;fill-opacity:1"/><use xlink:href="#j" x="202.20342" y="221.58092" style="fill:#000;fill-opacity:1"/><use xlink:href="#c" x="142.09535" y="161.84214" style="fill:#000;fill-opacity:1"/><use xlink:href="#f" x="154.50022" y="156.96962" style="fill:#000;fill-opacity:1"/><use xlink:href="#g" x="160.84388" y="159.66438" style="fill:#000;fill-opacity:1"/><use xlink:href="#e" x="167.2574" y="162.36912" style="fill:#000;fill-opacity:1"/><g style="fill:#000;fill-opacity:1"><use xlink:href="#k" x="172.80661" y="159.66438"/><use xlink:href="#h" x="179.52827" y="159.66438"/></g><use xlink:href="#c" x="153.41134" y="181.64661" style="fill:#000;fill-opacity:1"/><use xlink:href="#f" x="165.8172" y="177.0276" style="fill:#000;fill-opacity:1"/><use xlink:href="#g" x="172.16086" y="179.21534" style="fill:#000;fill-opacity:1"/><use xlink:href="#e" x="178.57439" y="181.92008" style="fill:#000;fill-opacity:1"/><use xlink:href="#l" x="141.89973" y="120.75707" style="fill:#000;fill-opacity:1"/><use xlink:href="#l" x="204.58279" y="101.87081" style="fill:#000;fill-opacity:1"/><use xlink:href="#m" x="216.12832" y="94.71274" style="fill:#000;fill-opacity:1"/><use xlink:href="#n" x="192.89552" y="273.53085" style="fill:#000;fill-opacity:1"/><use xlink:href="#n" x="190.15086" y="323.6763" style="fill:#000;fill-opacity:1"/><use xlink:href="#m" x="202.26729" y="316.51822" style="fill:#000;fill-opacity:1"/><use xlink:href="#o" x="242.52298" y="166.61985" style="fill:#000;fill-opacity:1"/><use xlink:href="#p" x="141.19011" y="19.55396" style="fill:#000;fill-opacity:1"/></svg>