<svg xmlns="http://www.w3.org/2000/svg" xmlns:xlink="http://www.w3.org/1999/xlink" width="902.324pt" height="216.336pt" version="1.2" viewBox="0 0 902.324 216.336"><defs><symbol id="a" overflow="visible"><path d="M.89063-6.375c0 2.1875.65625 3.95313 1.76562 5.0625C3.8125-.15625 5.65625.28125 7.75.28125c1.48438 0 3.21875-.42187 4.10938-.89062l.25-3.125h-.54688C11.04688-1.78125 10.0625-.375 7.625-.375c-3.85937 0-4.64062-3.78125-4.64062-6.04687 0-3.04688 1.20312-6.125 4.6875-6.125 1.90625 0 3.23437.79687 3.59375 3h.54687v-2.92188c-.82812-.40625-2.23437-.73437-3.95312-.73437-2.29688 0-4.14063.67187-5.25 1.92187C1.53125-10.09375.89063-8.48437.89063-6.375m0 0" style="stroke:none"/></symbol><symbol id="b" overflow="visible"><path d="M.90625-4.5625c0 3.01563 1.5 4.78125 4.5 4.78125S9.875-1.54687 9.875-4.5625c0-3.03125-1.46875-4.8125-4.46875-4.8125s-4.5 1.78125-4.5 4.8125m1.95313 0c0-2.59375.82812-4.15625 2.54687-4.15625 1.70313 0 2.53125 1.5625 2.53125 4.15625 0 2.57813-.82812 4.125-2.53125 4.125-1.71875 0-2.54687-1.54687-2.54687-4.125m0 0" style="stroke:none"/></symbol><symbol id="c" overflow="visible"><path d="M.59375 0h4.54688v-.53125C3.8125-.64062 3.75-.67187 3.75-1.625V-6c0-.46875.01563-.71875.1875-1.01562.39063-.73438 1.21875-1.34375 2.21875-1.34375 1.26563 0 1.96875.6875 1.96875 2.32812V-1.625c0 .95313-.0625.98438-1.40625 1.09375V0h4.5625v-.53125C9.95313-.64062 9.875-.67187 9.875-1.625v-4.76562c0-1.89063-1.03125-2.98438-2.75-2.98438-1.39062 0-2.23437.67188-3.39062 1.4375L3.46875-9.375.6875-8.89062v.45312l.70313.09375C1.85938-8.26562 2-8.1875 2-7.5v5.875C2-.67187 1.95313-.64062.59375-.53125Zm0 0" style="stroke:none"/></symbol><symbol id="d" overflow="visible"><path d="M.01563-8.59375c.875.07813 1.0625.14063 1.32812.82813.5 1.23437.92188 2.4375 1.39063 3.73437L4.1875 0h1.32813L7.1875-4.51562c.53125-1.4375 1.09375-2.6875 1.35938-3.29688.26562-.64062.46875-.75 1.32812-.78125v-.5625H6.32813v.5625l.92187.07813c.29688.03125.35938.25.28125.51562-.15625.59375-.5 1.6875-.9375 2.875l-1.25 3.4375h-.04687l-1.125-3.14062c-.375-1.0625-.75-2.125-1.10938-3.14063-.14062-.35937-.0625-.51562.29688-.54687l.84375-.07813v-.5625H.01563Zm0 0" style="stroke:none"/></symbol><symbol id="e" overflow="visible"><path d="M.90625-4.51562c0 2.96875 1.28125 4.73437 4.3125 4.73437 2.0625 0 3.14063-1.15625 3.64063-2.625l-.5625-.29687C7.78125-1.60937 7.0625-.73437 5.59375-.73437c-2.3125 0-2.78125-2.21875-2.73437-4.17188h5.375c.40625 0 .73437-.09375.73437-.71875 0-1.09375-.34375-3.75-3.76562-3.75-2.92188 0-4.29688 2.0625-4.29688 4.85938M2.875-5.625c0-.76562.28125-3.09375 2.23438-3.09375 1.71875 0 1.92187 1.76563 1.92187 2.5 0 .35938-.125.59375-.64062.59375Zm0 0" style="stroke:none"/></symbol><symbol id="f" overflow="visible"><path d="M.59375 0h4.92188v-.53125C3.85938-.64062 3.75-.67187 3.75-1.625V-6c0-1.42187.64063-1.92187 1.07813-1.92187.29687 0 .60937.10937 1.15625.42187.125.07813.26562.09375.375.09375.45312 0 .84375-.48437.84375-1.04687 0-.42188-.25-.92188-.98438-.92188-.67187 0-1.23437.40625-2.46875 1.48438L3.53125-9.375.6875-8.89062v.45312l.70313.09375C1.85938-8.26562 2-8.1875 2-7.5v5.875C2-.67187 1.90625-.64062.59375-.53125Zm0 0" style="stroke:none"/></symbol><symbol id="g" overflow="visible"><path d="M.78125 1.78125c0 1.89063 1.875 2.73438 4.04688 2.73438C5.9375 4.51563 7.10938 4.29688 8 3.75c.85938-.51562 1.5-1.40625 1.5-2.5625 0-2.01562-1.60937-2.71875-3.625-2.71875H4.39063c-1.35938 0-1.54688-.45312-1.54688-.8125 0-.53125.71875-.82812.95313-.90625.35937.03125.75.04688.95312.04688 1.76563 0 3.76563-.76563 3.76563-3.03125 0-.78125-.25-1.4375-.57813-1.75l1.5-.23438.375-1.17187-.15625-.15625-2.39062.75C6.75-9.15625 5.70313-9.375 4.84375-9.375 1.98438-9.375 1-7.625 1-6.23437c0 1.75 1.14063 2.5625 2 2.78125v.03125c-1.01562.40625-1.70312.9375-1.70312 1.67187 0 .65625.75 1.35938 1.64062 1.45313v.03125C2.14063 0 .78125.4375.78125 1.78125m1.78125-.07812c0-.625.17188-1.10938.57813-1.40625.42187-.3125 1.03125-.4375 1.92187-.4375 1.65625 0 2.85938.42187 2.85938 1.8125C7.92188 3.15625 6.57813 3.875 5.25 3.875c-1.59375 0-2.6875-.8125-2.6875-2.17187m.34375-7.9375c0-1.84375.95313-2.48438 1.9375-2.48438.92188 0 1.875.67188 1.875 2.48438 0 1.5625-.79687 2.375-1.89062 2.375-1.0625 0-1.92188-.8125-1.92188-2.375m0 0" style="stroke:none"/></symbol><symbol id="h" overflow="visible"><path d="M.90625-4.48437C.90625-1.375 2.4375.21875 5.25.21875c1.29688 0 3.07813-.67187 3.59375-2.6875l-.5625-.25C7.70313-1.40625 6.96875-.75 5.59375-.75 3.375-.75 2.85938-3.07812 2.85938-4.82812c0-2.78125 1.09375-3.89063 2.39062-3.89063.84375 0 1.39063.60938 1.76563 1.625.10937.29688.23437.48438.59375.48438.375 0 1.09375-.23438 1.09375-.95313 0-.85937-1.23438-1.8125-3.26563-1.8125-3.39062 0-4.53125 2.40625-4.53125 4.89063m0 0" style="stroke:none"/></symbol><symbol id="i" overflow="visible"><path d="M.48438 3.75v.54688h4.8125V3.75c-1.5625-.09375-1.6875-.14062-1.6875-1.09375V-.20312c.40625.21875 1.29687.42187 2.15625.42187 2.51562 0 4.65625-1.15625 4.65625-5 0-1.32812-.23438-4.59375-3.625-4.59375-1.375 0-2.45313.92188-3.1875 1.39063L3.375-9.375l-2.8125.48438v.45312l.70313.09375c.48437.07813.59375.15625.59375.84375V2.65625c0 .95313-.07813 1-1.375 1.09375m3.125-6.6875V-6c0-.46875.10937-.71875.26562-1.04687.4375-.85938 1.20313-1.3125 2.20313-1.3125.75 0 2.42187.46875 2.42187 3.6875 0 2.75-.875 4.23437-2.73437 4.23437-.98438 0-1.71875-.5-2.01563-1.34375C3.64063-2.125 3.60938-2.5 3.60938-2.9375m0 0" style="stroke:none"/></symbol><symbol id="j" overflow="visible"><path d="m.875-3.125.20313 2.45313C1.75-.07812 2.875.21874 3.96875.21874c2.23438 0 3.5-1.17187 3.5-2.76562 0-1.64063-1.01562-2.375-2.9375-2.96875-.78125-.25-1.98437-.64063-1.98437-1.6875 0-.98438.73437-1.51563 1.65625-1.51563 1.34375 0 1.96875 1.03125 2.10937 2.17188h.53125v-2.1875C6.23438-9.1875 5.28125-9.375 4.45313-9.375c-2.03125 0-3.40625.95313-3.40625 2.71875 0 1.54688 1.28125 2.25 2.82812 2.71875.82813.26563 2 .6875 2 1.95313 0 .95312-.73437 1.54687-1.71875 1.54687-1.51562 0-2.375-1.09375-2.75-2.6875Zm0 0" style="stroke:none"/></symbol><symbol id="k" overflow="visible"><path d="M.90625-4.34375c0 2.96875 1.64063 4.5625 3.90625 4.5625 1.04688 0 1.9375-.5 2.90625-1.21875v3.65625c0 .95313-.09375 1-1.48437 1.09375v.54688h4.65625V3.75C9.59375 3.65625 9.5 3.60938 9.5 2.65625V-9.375h-.53125l-.78125.57813C7.46875-9.1875 6.51563-9.375 5.71875-9.375c-1.48437 0-2.6875.45313-3.5 1.29688C1.40625-7.25.90625-6.03125.90625-4.34375m1.95313-.25c0-2.29687.79687-4.125 2.70312-4.125.96875 0 1.67188.34375 2.03125 1.29688.10938.29687.125.60937.125 1.0625v3.15625c0 .42187 0 .73437-.10937 1.03125C7.25-1.17187 6.53125-.78125 5.5-.78125c-1.84375 0-2.64062-1.70312-2.64062-3.8125m0 0" style="stroke:none"/></symbol><symbol id="l" overflow="visible"><path d="m.48438-8.4375.70312.09375c.48438.07813.59375.15625.59375.84375v4.92188C1.78125-.4375 3.0625.21875 4.45313.21875c1.57812 0 2.875-1.07812 3.40625-1.32812L8.04688 0h3v-.53125C9.75-.64062 9.625-.67187 9.625-1.625V-9.25L9.5-9.375l-2.92187.48438v.45312l.70312.09375c.48438.07813.60938.15625.60938.84375v4.20313c0 .51562-.0625.9375-.17188 1.10937-.4375.85938-1.29687 1.40625-2.28125 1.40625-1.09375 0-1.875-.6875-1.875-2.14062V-9.25l-.14062-.125-2.9375.48438Zm0 0" style="stroke:none"/></symbol><symbol id="m" overflow="visible"><path d="m2.71875-10.48437.35938.375L5-11.53125c.20313-.17187.42188-.28125.57813-.28125s.375.10938.57812.28125l1.92188 1.42188.35937-.375L6.25-12.96875c-.21875-.23437-.45312-.46875-.67187-.46875s-.4375.21875-.67188.46875ZM.48438-8.4375l.70312.09375c.48438.07813.59375.15625.59375.84375v4.92188C1.78125-.4375 3.0625.21875 4.45313.21875c1.57812 0 2.875-1.07812 3.40625-1.32812L8.04688 0h3v-.53125C9.75-.64062 9.625-.67187 9.625-1.625V-9.25L9.5-9.375l-2.92187.48438v.45312l.70312.09375c.48438.07813.60938.15625.60938.84375v4.20313c0 .51562-.0625.9375-.17188 1.10937-.4375.85938-1.29687 1.40625-2.28125 1.40625-1.09375 0-1.875-.6875-1.875-2.14062V-9.25l-.14062-.125-2.9375.48438Zm0 0" style="stroke:none"/></symbol><symbol id="n" overflow="visible"><path d="m.375-12.90625.71875.0625c.46875.04688.59375.15625.59375.875V.07813l.34375.14062L2.76563-.5c.65625.375 1.4375.71875 2.82812.71875 2.48438 0 4.65625-1.1875 4.65625-5 0-1.15625-.23437-4.59375-3.59375-4.59375-1.40625 0-2.53125.92188-3.21875 1.32813V-13.75l-.14062-.09375-2.92188.45313Zm3.0625 9.875V-6c0-.46875.01563-.75.17188-1.04687.46875-.89063 1.23437-1.3125 2.28125-1.3125.78125 0 2.40625.4375 2.40625 3.6875 0 2.75-.82813 4.23437-2.67188 4.23437-1 0-1.71875-.5-2.04687-1.42187-.125-.34375-.14063-.71875-.14063-1.17188m0 0" style="stroke:none"/></symbol><symbol id="o" overflow="visible"><path d="M.90625-2.42187c0 1.39062.9375 2.64062 2.6875 2.64062C4.6875.21875 5.78125-.5 6.375-.89062c.26563.6875.57813 1.10937 1.23438 1.10937.6875 0 1.48437-.20312 2.20312-.5625l-.125-.4375c-.25.0625-.67187.09375-.95312 0-.32813-.07812-.65625-.40625-.65625-1.57812v-4.53125c0-1.09375-.23438-2.48438-3.04688-2.48438C2.92188-9.375 1.25-8.28125 1.25-7.25c0 .59375.70313.875 1.04688.875.40625 0 .5-.20312.60937-.51562.40625-1.39063 1.17188-1.82813 1.92188-1.82813.73437 0 1.5625.375 1.5625 1.875v.76563c-.46875.48437-2.28125.95312-3.75 1.4375C1.29688-4.23437.90625-3.29687.90625-2.42187m1.89063-.26563c0-.875.40625-1.32812 1.45312-1.71875.75-.28125 1.73438-.64062 2.14063-.89062v2.64062c0 1.5-1.14063 1.875-1.875 1.875-1.15625 0-1.71875-.8125-1.71875-1.90625m0 0" style="stroke:none"/></symbol><symbol id="p" overflow="visible"><path d="M1.70313-12.21875c0 .6875.48437 1.15625 1.15625 1.15625.67187 0 1.125-.46875 1.125-1.15625 0-.67187-.45313-1.125-1.125-1.125-.67188 0-1.15625.45313-1.15625 1.125M.59375 0h4.54688v-.53125C3.8125-.64062 3.75-.67187 3.75-1.625V-9.25l-.14062-.125-2.92188.48438v.45312l.70313.09375C1.85938-8.26562 2-8.1875 2-7.5v5.875C2-.67187 1.95313-.64062.59375-.53125Zm0 0" style="stroke:none"/></symbol><symbol id="q" overflow="visible"><path d="M.375 0h4.54688v-.53125C3.59375-.64062 3.53125-.67187 3.53125-1.625V-13.75l-.14062-.09375-2.90625.45313v.48437l.6875.0625c.46875.04688.59375.15625.59375.875V-1.625c0 .95313-.03126.98438-1.39063 1.09375Zm0 0" style="stroke:none"/></symbol><symbol id="r" overflow="visible"><path d="M.57813-8.40625h1.34375v6.5c0 1.90625 1.42187 2.125 2.0625 2.125.95312 0 1.85937-.48437 2.39062-.8125L6.23438-1c-.45313.1875-.85938.25-1.32813.25-.64062 0-1.23437-.46875-1.23437-1.875v-5.78125h2.40625v-.75H3.67188V-11.5h-.53125L2-9.15625H.57813Zm0 0" style="stroke:none"/></symbol><symbol id="s" overflow="visible"><path d="m3.75-10.48437.28125.375 2.8125-1.5625c.5625-.29688 1.0625-.625 1.0625-1.01563 0-.375-.45312-.8125-.73437-.8125-.32813 0-.64063.1875-1.1875.76563ZM.90625-4.51562c0 2.96875 1.28125 4.73437 4.3125 4.73437 2.0625 0 3.14063-1.15625 3.64063-2.625l-.5625-.29687C7.78125-1.60937 7.0625-.73437 5.59375-.73437c-2.3125 0-2.78125-2.21875-2.73437-4.17188h5.375c.40625 0 .73437-.09375.73437-.71875 0-1.09375-.34375-3.75-3.76562-3.75-2.92188 0-4.29688 2.0625-4.29688 4.85938M2.875-5.625c0-.76562.28125-3.09375 2.23438-3.09375 1.71875 0 1.92187 1.76563 1.92187 2.5 0 .35938-.125.59375-.64062.59375Zm0 0" style="stroke:none"/></symbol><symbol id="t" overflow="visible"><path d="M.39063 0h9.5625l.95312-3.28125h-.5625c-.95312 2.3125-1.79687 2.625-3.90625 2.625-.92187 0-1.84375-.0625-2.09375-.23437-.15625-.125-.23437-.28126-.23437-.54688 0-.1875.0625-.46875.14062-.84375l2.07813-9.07812c.17187-.60938.32812-.89063.79687-.9375l1.10938-.07813.14062-.53125H3.17188l-.14063.53125 1.125.07813c.3125.03125.45313.1875.45313.5 0 .125-.01563.26562-.0625.4375l-2.25 9.8125c-.15625.65625-.3125.85937-.76563.89062L.5-.53125Zm0 0" style="stroke:none"/></symbol><symbol id="u" overflow="visible"><path d="M1.42188 0h4.375v-.40625L4.75-.5c-.28125-.03125-.42187-.125-.42187-.60937V-8.8125l-.09375-.07812-2.79688.48437v.34375l1.125.15625c.25.03125.32813.125.32813.53125v6.26563c0 .46875-.09375.57812-.42188.60937l-1.04687.09375Zm0 0" style="stroke:none"/></symbol><symbol id="v" overflow="visible"><path d="M.6875 3.15625 2.01563 3 2.75-.125c.28125.17188.71875.28125 1.39063.28125 3.1875 0 4.09375-3.96875 4.09375-5 0-1.10937-.5-1.71875-1.46875-1.71875-1.03125 0-2.28125.95313-3.28125 2.82813h-.03125L4.1875-6.5l-.0625-.0625-2.53125.35938-.07812.34375.8125.07812c.1875.01563.25.10938.25.26563 0 .09375-.01563.20312-.0625.34375Zm2.1875-3.875c.17188-.8125.54688-2.125 1.04688-3.01562.60937-1.07813 1.48437-2.04688 2.1875-2.04688.4375 0 .65625.34375.65625.98438 0 1.04687-.79688 4.46875-2.78125 4.46875-.48438 0-.82813-.14063-1.10938-.39063m0 0" style="stroke:none"/></symbol><symbol id="w" overflow="visible"><path d="m.46875-1.92187.09375 1.5c.40625.39062 1.1875.5625 1.84375.5625 1.64063 0 2.29688-.95313 2.29688-1.90625 0-1.09375-.73438-1.625-1.82813-2.01563l-.3125-.10937c-.625-.25-1.14062-.64063-1.14062-1.20313 0-.6875.40625-1.1875 1.1875-1.1875.8125 0 1.25.45313 1.40625 1.40625h.28125v-1.3125c-.3125-.25-.9375-.42187-1.57813-.42187-1.14062 0-2.15625.57812-2.15625 1.8125 0 .98437.78125 1.48437 1.76563 1.82812L2.5-2.89062c.40625.15625 1.3125.57812 1.3125 1.40625 0 .8125-.51562 1.29687-1.35937 1.29687C1.57813-.1875 1-.875.76563-1.92187Zm0 0" style="stroke:none"/></symbol><symbol id="x" overflow="visible"><path d="M.45313-2.28125c0 1.5.75 2.39063 2.25 2.39063S4.9375-.78125 4.9375-2.28125c0-1.51562-.73437-2.40625-2.23437-2.40625s-2.25.89063-2.25 2.40625m.98437 0c0-1.29687.40625-2.07812 1.26563-2.07812.85937 0 1.26562.78125 1.26562 2.07812 0 1.28125-.40625 2.0625-1.26562 2.0625-.85938 0-1.26563-.78125-1.26563-2.0625m0 0" style="stroke:none"/></symbol><symbol id="y" overflow="visible"><path d="m.23438-4.21875.35937.04688c.23438.03125.29688.07812.29688.42187v2.45313c0 1.07812.64062 1.40625 1.32812 1.40625.79688 0 1.45313-.53125 1.71875-.67188L4.03125 0h1.5v-.26562C4.875-.3125 4.8125-.34375 4.8125-.8125V-4.625L4.75-4.6875l-1.45312.23438v.23437l.34375.04688c.25.03125.29687.07812.29687.42187v2.09375c0 .26563-.01562.46875-.07812.5625-.21875.42188-.65625.70313-1.14063.70313-.54687 0-.9375-.34375-.9375-1.0625V-4.625l-.07812-.0625-1.46875.23438Zm0 0" style="stroke:none"/></symbol><symbol id="z" overflow="visible"><path d="M.4375-1.5625.53125-.34375c.34375.29688.90625.45313 1.45313.45313 1.10937 0 1.75-.59375 1.75-1.375 0-.82813-.5-1.20313-1.46875-1.5-.39063-.10938-1-.3125-1-.84375 0-.48438.375-.75.84375-.75.65625 0 .98437.51562 1.04687 1.07812h.26563V-4.375c-.29688-.21875-.78125-.3125-1.20313-.3125-1 0-1.6875.46875-1.6875 1.35938 0 .78125.625 1.125 1.40625 1.35937.42188.125 1 .34375 1 .96875 0 .48438-.35937.78125-.85937.78125-.75 0-1.1875-.54687-1.375-1.34375Zm0 0" style="stroke:none"/></symbol><symbol id="A" overflow="visible"><path d="M.70313-2.01562h2.28125v-.65625H.70313Zm0 0" style="stroke:none"/></symbol><symbol id="B" overflow="visible"><path d="M.85938-6.10937c0 .32812.23437.57812.57812.57812.32813 0 .5625-.25.5625-.57812 0-.34375-.23437-.5625-.5625-.5625-.34375 0-.57812.21875-.57812.5625M.29688 0h2.28125v-.26562C1.90625-.3125 1.875-.34375 1.875-.8125V-4.625l-.0625-.0625-1.46875.23438v.23437l.35938.04688C.9375-4.14062 1-4.09375 1-3.75v2.9375c0 .46875-.03125.5-.70312.54688Zm0 0" style="stroke:none"/></symbol><symbol id="C" overflow="visible"><path d="M.28125-4.20312h.6875v3.25C.96875 0 1.67188.10938 2 .10938c.46875 0 .92188-.23438 1.1875-.40625L3.125-.5c-.23437.09375-.4375.125-.67187.125-.3125 0-.60938-.23437-.60938-.9375v-2.89062h1.20313v-.375H1.84375V-5.75H1.5625L1-4.57812H.28125Zm0 0" style="stroke:none"/></symbol><symbol id="D" overflow="visible"><path d="M.45313-2.25c0 1.46875.64062 2.35938 2.15625 2.35938 1.03125 0 1.57812-.57813 1.82812-1.3125l-.28125-.14063c-.26562.53125-.625.96875-1.35937.96875-1.15625 0-1.39063-1.10937-1.35938-2.07812H4.125c.20313 0 .35938-.04688.35938-.35938 0-.54687-.17188-1.875-1.875-1.875C1.14063-4.6875.45313-3.65625.45313-2.25m.98437-.5625c0-.39062.14063-1.54687 1.10938-1.54687.875 0 .96875.875.96875 1.25 0 .17187-.0625.29687-.3125.29687Zm0 0" style="stroke:none"/></symbol><symbol id="E" overflow="visible"><path d="M.32813 0h4.84375l.10937-1.67187h-.26562C4.8125-.45312 4.3125-.32812 3.32813-.32812c-.46875 0-.79688-.01563-1-.09375C2.125-.5 2.09375-.67187 2.09375-1.125v-4.46875c0-.53125.03125-.53125.89063-.59375v-.26562H.32813v.26562c.82812.0625.84375.0625.84375.59375v4.73438c0 .51562-.01563.53125-.84375.59375Zm0 0" style="stroke:none"/></symbol><symbol id="F" overflow="visible"><path d="M.29688 0h2.28125v-.26562C1.90625-.3125 1.875-.34375 1.875-.8125V-3c0-.23437 0-.375.07813-.5.17187-.375.57812-.6875 1.09375-.6875.8125 0 .90625.59375.90625 1.17188V-.8125c0 .46875-.03125.5-.70313.54688V0h2.28125v-.26562c-.67187-.04688-.70312-.07813-.70312-.54688V-3c0-.23437.01562-.35937.07812-.51562.125-.375.53125-.67188 1.0625-.67188.57813 0 .9375.32813.9375 1.17188V-.8125c0 .46875-.03125.5-.70312.54688V0h2.28125v-.26562c-.65625-.04688-.70313-.07813-.70313-.54688v-2.39062c0-.9375-.5-1.48438-1.39062-1.48438-.76563 0-1.3125.5-1.64063.71875-.23437-.4375-.59375-.71875-1.23437-.71875-.71875 0-1.3125.46875-1.64063.71875l-.09375-.71875-1.4375.23438v.23437l.35938.04688C.9375-4.14062 1-4.09375 1-3.75v2.9375c0 .46875-.03125.5-.70312.54688Zm0 0" style="stroke:none"/></symbol><symbol id="G" overflow="visible"><path d="M.45313-2.25c0 1.5625.76562 2.35938 2.17187 2.35938.65625 0 1.53125-.34375 1.79688-1.34375l-.28125-.125c-.28125.65625-.65625.98437-1.34375.98437-1.10938 0-1.35938-1.17187-1.35938-2.04687 0-1.39063.54688-1.9375 1.1875-1.9375.42188 0 .6875.3125.89063.8125.04687.14062.10937.23437.29687.23437s.54688-.10937.54688-.46875c0-.4375-.625-.90625-1.64063-.90625-1.6875 0-2.26562 1.20313-2.26562 2.4375m0 0" style="stroke:none"/></symbol><symbol id="H" overflow="visible"><path d="M.29688 0h2.28125v-.26562C1.90625-.3125 1.875-.34375 1.875-.8125V-3c0-.23437.01563-.35937.09375-.51562.20313-.35938.60938-.67188 1.10938-.67188.64062 0 .98437.35938.98437 1.17188V-.8125c0 .46875-.03125.5-.70312.54688V0h2.28125v-.26562C4.98438-.3125 4.9375-.34375 4.9375-.8125v-2.39062c0-.9375-.51562-1.48438-1.375-1.48438-.6875 0-1.125.32813-1.6875.71875l-.14062-.71875-1.39063.23438v.23437l.35938.04688C.9375-4.14062 1-4.09375 1-3.75v2.9375c0 .46875-.03125.5-.70312.54688Zm0 0" style="stroke:none"/></symbol><symbol id="I" overflow="visible"><path d="M.45313-1.21875c0 .70313.46875 1.32813 1.34375 1.32813.54687 0 1.09375-.35938 1.39062-.5625.125.35937.29688.5625.625.5625.34375 0 .73438-.09375 1.09375-.28126l-.0625-.21874c-.125.03125-.32812.04687-.46875 0-.17187-.03125-.32812-.20313-.32812-.79688v-2.26562c0-.54688-.125-1.23438-1.53125-1.23438C1.45313-4.6875.625-4.14062.625-3.625c0 .29688.34375.4375.53125.4375s.25-.10937.29688-.26562c.20312-.6875.57812-.90625.96875-.90625.35937 0 .78125.1875.78125.9375v.375c-.23438.25-1.14063.48437-1.875.71875-.6875.21875-.875.67187-.875 1.10937m.95312-.125c0-.4375.1875-.65625.71875-.85937.375-.14063.85938-.32813 1.07813-.45313v1.32813c0 .75-.57813.9375-.95313.9375-.57812 0-.84375-.40625-.84375-.95313m0 0" style="stroke:none"/></symbol><symbol id="J" overflow="visible"><path d="M.32813 0h2.90625c2.875 0 3.59375-1.67187 3.59375-3.34375 0-1.53125-.67188-3.10937-3.40625-3.10937H.32813v.26562c.82812.0625.84375.0625.84375.59375v4.73438c0 .51562-.01563.53125-.84375.59375Zm1.76562-1.17187v-4.4375c0-.48438.07813-.53125 1.09375-.53125 1.96875 0 2.59375 1.25 2.59375 2.82812 0 2.35938-1.15625 2.98438-2.71875 2.98438-.8125 0-.96875-.10938-.96875-.84375m0 0" style="stroke:none"/></symbol></defs><use xlink:href="#a" x="7.66423" y="58.04285" style="fill:#000;fill-opacity:1"/><g style="fill:#000;fill-opacity:1"><use xlink:href="#b" x="20.19861" y="58.04285"/><use xlink:href="#c" x="30.96506" y="58.04285"/><use xlink:href="#d" x="42.50623" y="58.04285"/></g><g style="fill:#000;fill-opacity:1"><use xlink:href="#e" x="51.80273" y="58.04285"/><use xlink:href="#f" x="61.39719" y="58.04285"/></g><g style="fill:#000;fill-opacity:1"><use xlink:href="#g" x="68.52848" y="58.04285"/><use xlink:href="#e" x="78.22226" y="58.04285"/><use xlink:href="#c" x="87.81672" y="58.04285"/><use xlink:href="#h" x="99.35788" y="58.04285"/><use xlink:href="#e" x="108.61465" y="58.04285"/></g><g style="fill:#000;fill-opacity:1"><use xlink:href="#i" x="122.40049" y="58.04285"/><use xlink:href="#f" x="133.74301" y="58.04285"/></g><g style="fill:#000;fill-opacity:1"><use xlink:href="#e" x="140.61606" y="58.04285"/><use xlink:href="#j" x="150.21052" y="58.04285"/><use xlink:href="#k" x="158.33502" y="58.04285"/><use xlink:href="#l" x="169.35971" y="58.04285"/><use xlink:href="#e" x="180.66251" y="58.04285"/></g><g style="fill:#000;fill-opacity:1"><use xlink:href="#j" x="194.44834" y="58.04285"/><use xlink:href="#m" x="202.57284" y="58.04285"/><use xlink:href="#f" x="213.87563" y="58.04285"/></g><use xlink:href="#e" x="220.74869" y="58.04285" style="fill:#000;fill-opacity:1"/><use xlink:href="#a" x="346.71657" y="58.24224" style="fill:#000;fill-opacity:1"/><g style="fill:#000;fill-opacity:1"><use xlink:href="#b" x="359.25095" y="58.24224"/><use xlink:href="#c" x="370.01741" y="58.24224"/><use xlink:href="#d" x="381.55858" y="58.24224"/></g><g style="fill:#000;fill-opacity:1"><use xlink:href="#e" x="390.85507" y="58.24224"/><use xlink:href="#f" x="400.44953" y="58.24224"/></g><g style="fill:#000;fill-opacity:1"><use xlink:href="#g" x="407.58082" y="58.24224"/><use xlink:href="#e" x="417.27461" y="58.24224"/><use xlink:href="#c" x="426.86907" y="58.24224"/><use xlink:href="#h" x="438.41023" y="58.24224"/><use xlink:href="#e" x="447.667" y="58.24224"/></g><g style="fill:#000;fill-opacity:1"><use xlink:href="#e" x="461.45283" y="58.24224"/><use xlink:href="#c" x="471.04729" y="58.24224"/></g><g style="fill:#000;fill-opacity:1"><use xlink:href="#i" x="486.77983" y="58.24224"/><use xlink:href="#f" x="498.12235" y="58.24224"/></g><g style="fill:#000;fill-opacity:1"><use xlink:href="#b" x="505.25364" y="58.24224"/><use xlink:href="#n" x="516.02009" y="58.24224"/><use xlink:href="#o" x="527.18384" y="58.24224"/><use xlink:href="#n" x="536.93721" y="58.24224"/><use xlink:href="#p" x="548.10095" y="58.24224"/><use xlink:href="#q" x="553.52391" y="58.24224"/><use xlink:href="#p" x="558.72836" y="58.24224"/><use xlink:href="#r" x="564.15132" y="58.24224"/><use xlink:href="#s" x="570.56749" y="58.24224"/></g><use xlink:href="#a" x="396.50974" y="130.63903" style="fill:#000;fill-opacity:1"/><g style="fill:#000;fill-opacity:1"><use xlink:href="#b" x="409.04412" y="130.63903"/><use xlink:href="#c" x="419.81058" y="130.63903"/><use xlink:href="#d" x="431.35174" y="130.63903"/></g><g style="fill:#000;fill-opacity:1"><use xlink:href="#e" x="440.64824" y="130.63903"/><use xlink:href="#f" x="450.2427" y="130.63903"/></g><g style="fill:#000;fill-opacity:1"><use xlink:href="#g" x="457.37399" y="130.63903"/><use xlink:href="#e" x="467.06777" y="130.63903"/><use xlink:href="#c" x="476.66224" y="130.63903"/><use xlink:href="#h" x="488.2034" y="130.63903"/><use xlink:href="#e" x="497.46017" y="130.63903"/></g><use xlink:href="#t" x="511.24758" y="130.63903" style="fill:#000;fill-opacity:1"/><use xlink:href="#u" x="522.2518" y="135.00762" style="fill:#000;fill-opacity:1"/><use xlink:href="#a" x="732.5284" y="58.24224" style="fill:#000;fill-opacity:1"/><g style="fill:#000;fill-opacity:1"><use xlink:href="#b" x="745.06278" y="58.24224"/><use xlink:href="#c" x="755.82924" y="58.24224"/><use xlink:href="#d" x="767.3704" y="58.24224"/></g><g style="fill:#000;fill-opacity:1"><use xlink:href="#e" x="776.6669" y="58.24224"/><use xlink:href="#f" x="786.26136" y="58.24224"/></g><g style="fill:#000;fill-opacity:1"><use xlink:href="#g" x="793.39265" y="58.24224"/><use xlink:href="#e" x="803.08643" y="58.24224"/><use xlink:href="#c" x="812.68089" y="58.24224"/><use xlink:href="#h" x="824.22206" y="58.24224"/><use xlink:href="#e" x="833.47883" y="58.24224"/></g><g style="fill:#000;fill-opacity:1"><use xlink:href="#e" x="847.26466" y="58.24224"/><use xlink:href="#c" x="856.85912" y="58.24224"/></g><g style="fill:#000;fill-opacity:1"><use xlink:href="#q" x="872.59165" y="58.24224"/><use xlink:href="#b" x="877.79611" y="58.24224"/><use xlink:href="#p" x="888.56256" y="58.24224"/></g><use xlink:href="#a" x="395.59256" y="201.52745" style="fill:#000;fill-opacity:1"/><g style="fill:#000;fill-opacity:1"><use xlink:href="#b" x="408.12694" y="201.52745"/><use xlink:href="#c" x="418.89339" y="201.52745"/><use xlink:href="#d" x="430.43456" y="201.52745"/></g><g style="fill:#000;fill-opacity:1"><use xlink:href="#e" x="439.73106" y="201.52745"/><use xlink:href="#f" x="449.32552" y="201.52745"/></g><g style="fill:#000;fill-opacity:1"><use xlink:href="#g" x="456.45681" y="201.52745"/><use xlink:href="#e" x="466.15059" y="201.52745"/><use xlink:href="#c" x="475.74505" y="201.52745"/><use xlink:href="#h" x="487.28622" y="201.52745"/><use xlink:href="#e" x="496.54298" y="201.52745"/></g><use xlink:href="#t" x="510.3284" y="201.52745" style="fill:#000;fill-opacity:1"/><use xlink:href="#v" x="521.33263" y="205.89604" style="fill:#000;fill-opacity:1"/><path d="M118.72307-.00065h100.3226" style="fill:none;stroke-width:2.46526;stroke-linecap:butt;stroke-linejoin:miter;stroke:#000;stroke-opacity:1;stroke-miterlimit:10" transform="matrix(.99694 0 0 -.99694 119.0035 53.57357)"/><path d="M118.72307-.00065h100.3226" style="fill:none;stroke-width:1.66824;stroke-linecap:butt;stroke-linejoin:miter;stroke:#fff;stroke-opacity:1;stroke-miterlimit:10" transform="matrix(.99694 0 0 -.99694 119.0035 53.57357)"/><path d="M-1.38417 2.7382C-.71415 1.29237 1.09608.05028 2.1305-.00065 1.09608-.0516-.71415-1.28975-1.38417-2.7395" style="fill:none;stroke-width:.3985;stroke-linecap:round;stroke-linejoin:round;stroke:#000;stroke-opacity:1;stroke-miterlimit:10" transform="matrix(.99694 0 0 -.99694 337.37993 53.57357)"/><path d="M345.4951-57.01104v38.43793" style="fill:none;stroke-width:2.46526;stroke-linecap:butt;stroke-linejoin:miter;stroke:#000;stroke-opacity:1;stroke-miterlimit:10" transform="matrix(.99694 0 0 -.99694 119.0035 53.57357)"/><path d="M345.4951-57.01104v38.43793" style="fill:none;stroke-width:1.66824;stroke-linecap:butt;stroke-linejoin:miter;stroke:#fff;stroke-opacity:1;stroke-miterlimit:10" transform="matrix(.99694 0 0 -.99694 119.0035 53.57357)"/><path d="M-1.38307 2.73656C-.71305 1.29073 1.09718.05256 2.12768.00162 1.09718-.05323-.71306-1.29139-1.38307-2.73722" style="fill:none;stroke-width:.3985;stroke-linecap:round;stroke-linejoin:round;stroke:#000;stroke-opacity:1;stroke-miterlimit:10" transform="matrix(0 -.99694 -.99694 0 463.44303 72.08991)"/><path d="M469.61709-.00065h136.4331" style="fill:none;stroke-width:2.46526;stroke-linecap:butt;stroke-linejoin:miter;stroke:#000;stroke-opacity:1;stroke-miterlimit:10" transform="matrix(.99694 0 0 -.99694 119.0035 53.57357)"/><path d="M469.61709-.00065h136.4331" style="fill:none;stroke-width:1.66824;stroke-linecap:butt;stroke-linejoin:miter;stroke:#fff;stroke-opacity:1;stroke-miterlimit:10" transform="matrix(.99694 0 0 -.99694 119.0035 53.57357)"/><path d="M-1.38518 2.7382C-.71125 1.29237 1.09506.05028 2.12948-.00065 1.09506-.0516-.71125-1.28975-1.38518-2.7395" style="fill:none;stroke-width:.3985;stroke-linecap:round;stroke-linejoin:round;stroke:#000;stroke-opacity:1;stroke-miterlimit:10" transform="matrix(.99694 0 0 -.99694 723.19735 53.57357)"/><path d="M345.4951-128.11925v36.9255" style="fill:none;stroke-width:2.46526;stroke-linecap:butt;stroke-linejoin:miter;stroke:#000;stroke-opacity:1;stroke-miterlimit:10" transform="matrix(.99694 0 0 -.99694 119.0035 53.57357)"/><path d="M345.4951-128.11925v36.9255" style="fill:none;stroke-width:1.66824;stroke-linecap:butt;stroke-linejoin:miter;stroke:#fff;stroke-opacity:1;stroke-miterlimit:10" transform="matrix(.99694 0 0 -.99694 119.0035 53.57357)"/><path d="M-1.3837 2.73656C-.71368 1.29073 1.09655.05256 2.12704.00162 1.09654-.05323-.71368-1.29139-1.3837-2.73722" style="fill:none;stroke-width:.3985;stroke-linecap:round;stroke-linejoin:round;stroke:#000;stroke-opacity:1;stroke-miterlimit:10" transform="matrix(0 -.99694 -.99694 0 463.44303 144.48772)"/><path d="M221.3731 16.24437c-34.8018 20.09665-67.84823 19.89682-100.63606.96388" style="fill:none;stroke-width:2.46526;stroke-linecap:butt;stroke-linejoin:miter;stroke:#000;stroke-opacity:1;stroke-miterlimit:10" transform="matrix(.99694 0 0 -.99694 119.0035 53.57357)"/><path d="M221.3731 16.24437c-34.8018 20.09665-67.84823 19.89682-100.63606.96388" style="fill:none;stroke-width:1.66824;stroke-linecap:butt;stroke-linejoin:miter;stroke:#fff;stroke-opacity:1;stroke-miterlimit:10" transform="matrix(.99694 0 0 -.99694 119.0035 53.57357)"/><path d="M-1.38556 2.73844C-.71403 1.29199 1.0952.05286 2.12774-.00034c-1.0335-.05031-2.84067-1.29178-3.51198-2.7366" style="fill:none;stroke-width:.3985;stroke-linecap:round;stroke-linejoin:round;stroke:#000;stroke-opacity:1;stroke-miterlimit:10" transform="matrix(-.86336 .49847 .49847 .86336 239.37233 36.41625)"/><use xlink:href="#w" x="266.46988" y="13.36498" style="fill:#000;fill-opacity:1"/><g style="fill:#000;fill-opacity:1"><use xlink:href="#x" x="271.41609" y="13.36498"/><use xlink:href="#y" x="276.79932" y="13.36498"/><use xlink:href="#z" x="282.45071" y="13.36498"/><use xlink:href="#A" x="286.51297" y="13.36498"/><use xlink:href="#z" x="290.168" y="13.36498"/><use xlink:href="#y" x="294.23025" y="13.36498"/><use xlink:href="#B" x="299.88165" y="13.36498"/><use xlink:href="#C" x="302.59312" y="13.36498"/><use xlink:href="#D" x="305.80121" y="13.36498"/></g><path d="M608.37762 16.24437c-46.86215 27.05544-91.8984 27.05544-136.74264 1.16371" style="fill:none;stroke-width:2.46526;stroke-linecap:butt;stroke-linejoin:miter;stroke:#000;stroke-opacity:1;stroke-miterlimit:10" transform="matrix(.99694 0 0 -.99694 119.0035 53.57357)"/><path d="M608.37762 16.24437c-46.86215 27.05544-91.8984 27.05544-136.74264 1.16371" style="fill:none;stroke-width:1.66824;stroke-linecap:butt;stroke-linejoin:miter;stroke:#fff;stroke-opacity:1;stroke-miterlimit:10" transform="matrix(.99694 0 0 -.99694 119.0035 53.57357)"/><path d="M-1.38374 2.73663C-.71218 1.29018 1.09709.05107 2.12963-.00212 1.09614-.05245-.71442-1.292-1.3857-2.73685" style="fill:none;stroke-width:.3985;stroke-linecap:round;stroke-linejoin:round;stroke:#000;stroke-opacity:1;stroke-miterlimit:10" transform="matrix(-.86336 .49845 .49845 .86336 589.19516 36.21766)"/><g style="fill:#000;fill-opacity:1"><use xlink:href="#E" x="620.7784" y="13.29519"/><use xlink:href="#B" x="626.07223" y="13.29519"/><use xlink:href="#F" x="628.78371" y="13.29519"/><use xlink:href="#B" x="637.39489" y="13.29519"/><use xlink:href="#C" x="640.10637" y="13.29519"/><use xlink:href="#D" x="643.31446" y="13.29519"/></g><g style="fill:#000;fill-opacity:1"><use xlink:href="#G" x="650.19744" y="13.29519"/><use xlink:href="#x" x="654.82583" y="13.29519"/><use xlink:href="#H" x="660.20905" y="13.29519"/><use xlink:href="#z" x="665.97964" y="13.29519"/><use xlink:href="#C" x="670.04189" y="13.29519"/><use xlink:href="#I" x="673.24997" y="13.29519"/><use xlink:href="#H" x="678.12666" y="13.29519"/><use xlink:href="#C" x="683.89724" y="13.29519"/><use xlink:href="#D" x="687.10533" y="13.29519"/></g><path d="M118.72307-16.04584c55.1884-31.86313 88.8735-56.89284 150.27232-56.89284" style="fill:none;stroke-width:2.46526;stroke-linecap:butt;stroke-linejoin:miter;stroke:#000;stroke-opacity:1;stroke-miterlimit:10" transform="matrix(.99694 0 0 -.99694 119.0035 53.57357)"/><path d="M118.72307-16.04584c55.1884-31.86313 88.8735-56.89284 150.27232-56.89284" style="fill:none;stroke-width:1.66824;stroke-linecap:butt;stroke-linejoin:miter;stroke:#fff;stroke-opacity:1;stroke-miterlimit:10" transform="matrix(.99694 0 0 -.99694 119.0035 53.57357)"/><path d="M-1.3858 2.739C-.71186 1.29319 1.09445.0511 2.12886.00017 1.09445-.05078-.71186-1.29286-1.3858-2.7387" style="fill:none;stroke-width:.3985;stroke-linecap:round;stroke-linejoin:round;stroke:#000;stroke-opacity:1;stroke-miterlimit:10" transform="matrix(.99694 0 0 -.99694 387.17453 126.28922)"/><g style="fill:#000;fill-opacity:1"><use xlink:href="#J" x="254.71196" y="125.75203"/><use xlink:href="#x" x="261.9823" y="125.75203"/><use xlink:href="#F" x="267.36553" y="125.75203"/><use xlink:href="#B" x="275.97671" y="125.75203"/><use xlink:href="#H" x="278.68819" y="125.75203"/><use xlink:href="#I" x="284.45877" y="125.75203"/><use xlink:href="#C" x="289.33546" y="125.75203"/><use xlink:href="#B" x="292.54354" y="125.75203"/><use xlink:href="#x" x="295.25502" y="125.75203"/><use xlink:href="#H" x="300.63825" y="125.75203"/></g></svg>