<svg xmlns="http://www.w3.org/2000/svg" xmlns:xlink="http://www.w3.org/1999/xlink" width="617.561pt" height="463.768pt" version="1.2" viewBox="0 0 617.561 463.768"><defs><symbol id="b" overflow="visible"><path d="M.29688.9375c.01562.79688.89062 1.32813 2.14062 1.32813 1.375 0 2.375-.53125 2.375-1.59375 0-.76563-.625-1.23438-1.67187-1.48438-.82813-.20312-1.125-.29687-1.125-.54687 0-.15626.15625-.26563.35937-.32813.20313.03125.375.03125.53125.03125 1.3125 0 2.125-.6875 2.125-1.67187 0-.25-.07812-.46875-.1875-.625l.75-.125.29688-.625-.04688-.07813-1.35937.35938c-.26563-.15625-.75-.28125-1.21875-.28125-1.65625 0-2.14063.96875-2.14063 1.73437 0 .625.5 1.04688.82813 1.15625v.01563c-.07813.03124-.21876.09374-.3125.14062C1.29688-1.51562 1-1.32812 1-1.03125c0 .3125.29688.54688.75.71875v.03125C1.10938-.1875.29688.17188.29688.9375m1.0625-.09375c0-.64062.54687-.92187.84375-.96875.57812.07813 1.625.29688 1.625 1.0625 0 .67188-.5625.95313-1.17188.95313-.71875 0-1.29687-.39063-1.29687-1.04688m.89062-3.625c0-.60937.3125-1.53125 1.0625-1.53125.26563 0 .65625.125.67188.67188 0 .4375-.10938.84375-.29688 1.125-.1875.3125-.45312.46875-.76562.46875-.45313 0-.67188-.3125-.67188-.73438m0 0" style="stroke:none"/></symbol><symbol id="c" overflow="visible"><path d="M1.01563 0h3.1875v-.3125L3.48438-.375c-.20313-.01562-.3125-.07812-.3125-.42187v-5.5l-.0625-.0625-2.07813.34375V-5.75l.75.10938c.20313.03125.26563.10937.26563.40625v4.4375c0 .32812-.07813.40625-.3125.42187l-.71875.0625Zm0 0" style="stroke:none"/></symbol><symbol id="d" overflow="visible"><path d="M.20313 0h2.71875l.0625-.3125-.51563-.03125c-.15625-.01562-.23437-.07812-.23437-.23437 0-.0625.03125-.15626.04687-.26563L2.8125-3.1875H5.625L5.09375-.84375C5-.5 4.9375-.375 4.6875-.35937l-.48437.04687L4.15625 0H6.875l.0625-.3125-.51562-.03125c-.15625-.01562-.23438-.09375-.23438-.25 0-.0625.01563-.14062.04688-.25L7.3125-5.64062c.07813-.3125.15625-.45313.40625-.48438l.46875-.03125.07813-.3125H5.54688l-.09375.3125.53125.03125c.15625.01563.21875.09375.21875.25 0 .0625-.01563.14063-.03125.23438l-.45313 2.0625h-2.8125l.45313-2.0625c.07812-.3125.15625-.45313.40625-.48438l.46875-.03125.07812-.3125H1.59375l-.07812.3125.51562.03125c.15625.01563.23438.09375.23438.25 0 .0625-.03125.14063-.04688.23438L1.14063-.84375C1.0625-.5.98437-.375.73438-.35937L.26563-.3125Zm0 0" style="stroke:none"/></symbol><symbol id="e" overflow="visible"><path d="M.28125-.125.39063 0H4.4375l.35938-1.40625L4.5-1.46875c-.23437.5-.40625.57813-.78125.57813h-2.375C1.5-1.3125 1.9375-1.92187 2.875-2.51562c.98438-.625 1.64063-1.0625 1.64063-2.07813 0-1.3125-.89063-1.78125-1.96875-1.78125C1.29688-6.375.5-5.65625.5-5.03125c0 .35938.42188.53125.64063.53125.1875 0 .28124-.09375.32812-.29687.15625-.6875.48438-1.1875 1.01563-1.1875.60937 0 .8125.53125.8125 1.20312 0 .8125-.32813 1.45313-1.25 2.23438C.82813-1.5.39063-.8125.28124-.125m0 0" style="stroke:none"/></symbol><symbol id="f" overflow="visible"><path d="M.28125-1.03125c0 .39063.5625 1.14063 2.0625 1.14063 1.42188 0 2.29688-.67188 2.29688-1.85938 0-1.29687-1.125-1.60937-1.57813-1.65625v-.04687c.51563-.09375 1.3125-.45313 1.3125-1.35938 0-1.15625-.96875-1.5625-1.95312-1.5625C1.25-6.375.5-5.71875.5-5.1875c0 .34375.40625.51563.57813.51563.17187 0 .25-.09375.3125-.25.20312-.67188.51562-1.0625 1-1.0625.65625 0 .79687.67187.79687 1.14062 0 .45313-.125 1.23438-.875 1.23438-.40625 0-.6875-.09375-.84375-.09375-.17187 0-.21875.10937-.21875.3125 0 .1875.04688.3125.21875.3125.15625 0 .4375-.10938.84375-.10938.65625 0 1.10938.5 1.10938 1.46875 0 1.03125-.45313 1.45313-1.0625 1.45313-.53125 0-.89063-.39063-1.10938-1.0625-.0625-.1875-.17187-.28126-.34375-.28126-.25 0-.625.20313-.625.57813m0 0" style="stroke:none"/></symbol><symbol id="g" overflow="visible"><path d="m.20313-1.875.125.21875h2.46875v.95313c0 .26562-.09375.32812-.28125.34375l-.60938.04687V0h2.64063v-.3125l-.4375-.03125c-.1875-.03125-.25-.09375-.25-.35937v-.95313h.9375v-.53125h-.9375V-6.25h-.89063ZM1-2.1875l1.75-3.03125h.04688v3.03125Zm0 0" style="stroke:none"/></symbol><symbol id="h" overflow="visible"><path d="M.42188-1.03125c0 .39063.54687 1.14063 1.96875 1.14063.875 0 1.46875-.26563 1.82812-.70313.3125-.375.45313-.875.45313-1.42187 0-.46875-.10938-.92188-.35938-1.26563-.32812-.45312-.875-.73437-1.64062-.73437-.5625 0-1.09375.25-1.42188.51562l.1875-1.53125c.03125-.28125.07813-.3125.29688-.3125H4.125l.29688-.8125-.0625-.09375H1.03125l-.07812.09375L.75-3.0625l.3125.20313c.375-.4375.73438-.65625 1.21875-.65625.60938 0 1.1875.45312 1.1875 1.625 0 .95312-.3125 1.625-1.03125 1.625-.54687 0-.84375-.39063-1.07812-1.0625C1.29688-1.5 1.1875-1.60938 1-1.60938c-.25 0-.57812.23438-.57812.57813m0 0" style="stroke:none"/></symbol><symbol id="j" overflow="visible"><path d="M.89063.10938 1.9375 0c.25-.95312.375-1.46875.60938-2.03125.3125-.82812 1.17187-2.0625 1.82812-2.0625.1875 0 .29688.125.29688.34375 0 .07813-.01563.17188-.04688.26563L3.89063-.96875C3.84375-.79687 3.8125-.64062 3.8125-.5c0 .39063.23438.60938.64063.60938.76562 0 1.29687-.67188 1.64062-1.4375l-.23437-.125c-.20313.375-.59375.95312-.82813.95312-.10937 0-.15625-.0625-.15625-.17187 0-.07813.01563-.1875.0625-.29688l.70313-2.32812c.07812-.21875.10937-.42188.10937-.60938 0-.48437-.25-.79687-.78125-.79687-.9375 0-1.85937.98437-2.40625 2.03125h-.04687l1.03125-4.21875L3.5-6.9375l-1.89062.23438-.0625.25.53125.0625c.15625.01562.21875.0625.21875.20312 0 .0625 0 .14063-.03125.23438Zm0 0" style="stroke:none"/></symbol><symbol id="i" overflow="visible"><path d="M.39063 0h5.125l.125-.53125-1.125-.07812c-.3125-.03126-.45313-.20313-.45313-.5 0-.125.01563-.28126.0625-.4375L5.29688-6.75h.03125C6.1875-5 7.10938-3.125 8.23438-1.57812 9.14063-.35937 9.95313.04688 11.39063.07813l.90625.01562.14062-.54687c-1.07812-.10938-1.51562-.60938-2.1875-1.4375-1.25-1.57813-2.53125-3.84375-3.29687-5.5 1.6875-1.40625 3.23437-2.70313 4.95312-3.89063 1.07813-.76562 1.51563-1.01562 3.03125-1.125l.07813-.53125h-4.67188l-.07812.53125.71875.0625c.35937.04688.35937.26563-.01563.625-1.79687 1.64063-3.625 3.14063-5.57812 4.79688l-.03125-.04688.98437-4.42187c.14063-.57813.32813-.89063.79688-.9375l1.04687-.07813.10938-.53125H3.1875l-.14062.53125 1.10937.07813c.32813.03125.46875.21875.46875.53125 0 .10937-.03125.25-.0625.40625l-2.25 9.84375c-.14062.59375-.32812.84375-.78125.89062L.5-.53125Zm0 0" style="stroke:none"/></symbol><symbol id="k" overflow="visible"><path d="M.65625-.45312c0 .4375.57813.67187.85938.67187 1 0 1.6875-1.23437 2.03125-2.0625.4375-1.10937 1.07812-3.45312 1.625-6.125h2.35937L6.3125-2.3125c-.0625.40625-.10937.76563-.10937 1.0625 0 .95313.3125 1.46875.98437 1.46875 1.375 0 2.40625-1.03125 3.0625-2.60937l-.4375-.25C9.34375-1.6875 8.57813-.73437 8.15625-.73437c-.21875 0-.26562-.21876-.26562-.5625 0-.20313.01562-.45313.04687-.6875l1.26563-5.98438h1.625l.75-1.42187c-.53125.14062-1.3125.1875-2.1875.1875h-5.3125c-.95313 0-2.26563.48437-2.98438 1.625l.29688.32812c.76562-.57812 1.73437-.71875 2.73437-.71875-.79687 3.29688-1.35937 6.25-2.40625 6.4375-.48437.07813-1.0625.35938-1.0625 1.07813m0 0" style="stroke:none"/></symbol><symbol id="o" overflow="visible"><path d="M1.96875-5.28125c0 3.48438.85938 7.53125 4.125 7.67188V1.9375C5 1.71875 3.26563.125 3.26563-5.28125c0-5.34375 1.65625-6.96875 2.82812-7.20312v-.45313c-3.26562.14063-4.125 4.17188-4.125 7.65625m0 0" style="stroke:none"/></symbol><symbol id="p" overflow="visible"><path d="M.48438 1.9375v.45313C3.75 2.25 4.57813-1.79687 4.57813-5.28125S3.75-12.79687.48438-12.9375v.45313C1.65625-12.25 3.26563-10.625 3.26563-5.28125c0 5.40625-1.6875 7-2.78125 7.21875m0 0" style="stroke:none"/></symbol><symbol id="z" overflow="visible"><path d="M1.59375-5.32812c0 1.85937.60938 3.39062 1.59375 4.23437 1.09375.95313 2.625 1.375 4.35938 1.375 1.375 0 2.89062-.32812 3.95312-.71875l.90625-3.78125c.15625-.64062.25-.89062.57813-.9375l.8125-.07812.125-.53125h-4.9375l-.10938.53125 1.39063.125c.26562.01562.39062.125.39062.4375 0 .10937-.03125.25-.0625.45312l-.6875 2.82813c-.125.53125-.375 1.01562-2.32812 1.01562-2.26563 0-3.92188-1.51562-3.92188-4.82812 0-2.98438 1.45313-7.375 5.9375-7.375 2.45313 0 3 1.25 3 2.67187 0 .17188 0 .34375-.01562.53125h.5625l.67187-2.92187c-1.125-.625-2.625-.9375-4.20312-.9375-2.85938 0-4.9375 1.03125-6.25 2.70312C2.125-8.95312 1.59375-6.98437 1.59375-5.32812m0 0" style="stroke:none"/></symbol><symbol id="C" overflow="visible"><path d="m1.59375-4.0625.45313.21875c.40625-.89062.9375-1.70312 1.59375-1.70312 1.25 0 4.35937 1.82812 6.1875 1.82812 1.5 0 1.8125-1.39062 2-2.375l.09375-.42187-.46875-.23438c-.34375.89063-.89063 1.76563-1.5625 1.76563-1.34375 0-4.5625-1.89063-6.375-1.89063-.95313 0-1.79688 1.85938-1.92188 2.8125m0 0" style="stroke:none"/></symbol><symbol id="E" overflow="visible"><path d="M.59375 1.79688c0 1.67187 1.75 2.71875 4.125 2.71875 2.53125 0 4.5625-1.07813 4.5625-3.125 0-1.39063-1.0625-2.40625-3.26562-2.92188C4.4375-1.90625 3.75-2.17187 3.75-2.6875c0-.35937.34375-.60937.8125-.73437.375.0625.73438.0625 1.01563.0625 2.60937 0 4.03125-1.42188 4.03125-3.34375 0-.5-.14063-.98438-.375-1.29688l1.5625-.23437.625-1.1875-.10938-.15625-2.71875.73437c-.46875-.3125-1.40625-.54687-2.32812-.54687-3.0625 0-3.96875 2.10937-3.96875 3.4375 0 1.39062 1 2.10937 1.5625 2.3125v.03125c-.57813.25-1.70313.64062-1.70313 1.40625 0 .67187.8125 1.20312 1.32813 1.40625C2.20313-.57814.59375.23438.59375 1.79688M2.32813 1.625c0-1.34375 1.1875-1.98437 1.96875-2.10937C5.46875-.3125 7.6875.17188 7.6875 1.75c0 1.42188-1.15625 2.125-2.54687 2.125-1.64063 0-2.8125-.89062-2.8125-2.25m1.71875-7.26562c0-1.17188.59375-3.09375 2.35937-3.09375.5625 0 1.5.28125 1.5 1.5625 0 1.73437-.92187 3.15625-2.3125 3.15625-1 0-1.54687-.6875-1.54687-1.625m0 0" style="stroke:none"/></symbol><symbol id="F" overflow="visible"><path d="M1.79688.21875 3.42188 0c.5-1.90625.78125-2.95312 1.25-4.125.5625-1.45312 2.42187-4.29687 4.04687-4.29687.4375 0 .67188.29687.67188.78125 0 .15625-.01563.32812-.07813.53125l-1.53125 5.3125c-.09375.34375-.15625.65625-.15625.92187 0 .70313.35938 1.09375 1.14063 1.09375 1.28125 0 2.34375-1.28125 2.98437-2.6875l-.46875-.26562C10.95313-2.0625 10.10938-.75 9.59375-.75c-.21875 0-.29687-.14062-.29687-.35937 0-.1875.04687-.40625.125-.65625l1.46875-4.92188c.14062-.4375.20312-.84375.20312-1.21875 0-.875-.42187-1.48437-1.5-1.48437-1.76562 0-3.78125 1.92187-4.96875 4.17187h-.04687l2.09375-8.57812-.10938-.07813-3.35937.4375-.125.4375 1.07812.125c.32813.03125.46875.09375.46875.375 0 .14063-.03125.29688-.09375.53125Zm0 0" style="stroke:none"/></symbol><symbol id="G" overflow="visible"><path d="M1.6875-5c1.29688.48438 3.75 2.32813 6.03125 4.35938l.35938-.45313-1.46875-1.57812H28.3125l-1.51562 1.57812.42187.42188C29.34375-2.59375 31.76563-4.4375 33.15625-5v-.54687c-1.28125-.48438-3.71875-2.34375-6-4.35938l-.35937.4375 1.46874 1.57813H6.5625l1.51563-1.57813-.4375-.40625c-2.125 1.90625-4.5625 3.76563-5.95313 4.32813Zm2.54688-.29687 1.42187-1.48438H29.1875L30.64063-5.25l-1.42188 1.48438H5.6875Zm0 0" style="stroke:none"/></symbol><symbol id="H" overflow="visible"><path d="M1.3125-5.25c0 2.6875 1.3125 4.85938 4.40625 4.85938h3.92188v-1.07813H5.71875c-2.32812 0-3.04687-1.60937-3.23437-3.26562h5.40625v-1.09375H2.48438c.20312-1.67188.875-3.20313 3.23437-3.20313h3.92188V-10.125H5.71875c-3.10937 0-4.40625 2.1875-4.40625 4.875m0 0" style="stroke:none"/></symbol><symbol id="I" overflow="visible"><path d="M.39063 0h5.125l.125-.53125-1.125-.07812c-.3125-.03126-.45313-.1875-.45313-.48438 0-.14062.01563-.28125.0625-.45312l1.07813-4.84375h6.25l-1.10938 4.84375c-.15625.625-.32812.84375-.78125.89062l-1.04687.125L8.42188 0h5.10937l.125-.53125-1.09375-.07812c-.34375-.03126-.48437-.1875-.48437-.5 0-.125.03125-.26563.0625-.4375l2.25-9.84375c.15625-.60938.29687-.89063.78125-.9375l1.03125-.07813.125-.53125h-5.125l-.14063.53125 1.125.07813c.3125.03125.45313.20312.45313.53125 0 .10937-.01563.25-.0625.40625L11.625-7.09375h-6.25l.96875-4.29687c.17188-.60938.32813-.89063.79688-.9375l1.04687-.07813.10938-.53125H3.1875l-.14062.53125 1.10937.07813c.32813.03125.46875.20312.46875.53125 0 .10937-.03125.25-.0625.40625l-2.25 9.84375c-.15625.625-.32812.84375-.78125.89062L.5-.53125Zm0 0" style="stroke:none"/></symbol><symbol id="J" overflow="visible"><path d="M1.71875.28125h1.25l3.9375-13.51562h-1.25Zm0 0" style="stroke:none"/></symbol><symbol id="l" overflow="visible"><path d="M.28125 0h3.70313l.07812-.40625-.73437-.04687c-.21875-.01563-.3125-.125-.3125-.34375 0-.09376.01562-.20313.03125-.34375l.75-3.3125H7.9375l-.76562 3.3125C7.0625-.70312 6.95313-.5 6.625-.46875l-.70312.0625L5.85938 0H9.5625l.07813-.40625-.73438-.04687c-.23437-.01563-.32812-.125-.32812-.35938q0-.11718.04687-.32812l1.54688-6.78125c.10937-.4375.20312-.65625.54687-.67188l.70313-.0625.09375-.40625H7.8125l-.125.40625.76563.0625c.21875.01563.3125.125.3125.34375 0 .07813-.03125.20313-.0625.32813l-.64063 2.9375h-4.125l.65625-2.9375c.10938-.4375.21875-.65625.5625-.67188l.6875-.0625.09375-.40625H2.23438l-.10938.40625.75.0625c.21875.01563.3125.125.3125.34375 0 .07813-.01562.20313-.03125.32813L1.60938-1.14062c-.125.4375-.23438.64062-.5625.67187l-.6875.0625Zm0 0" style="stroke:none"/></symbol><symbol id="m" overflow="visible"><path d="M1.10938-3.26562h7.21875v-.875H1.10938Zm0 0" style="stroke:none"/></symbol><symbol id="n" overflow="visible"><path d="M1.42188 0H5.8125v-.40625L4.76563-.5c-.29688-.03125-.4375-.125-.4375-.60937v-7.73438L4.25-8.90625l-2.8125.46875v.35938l1.125.14062c.25.04688.34375.14063.34375.54688v6.28125c0 .46875-.10937.57812-.4375.60937l-1.04687.09375Zm0 0" style="stroke:none"/></symbol><symbol id="q" overflow="visible"><path d="M.65625 0h5.51563v-.53125c-1.9375-.125-1.96875-.14062-1.96875-1.20312V-5.3125H5.25c.85938 0 1.70313-.07812 2.39063-.23437C9.07813-5.9375 10.75-6.92187 10.75-9.28125c0-1.40625-.64062-2.40625-1.46875-2.92187-.90625-.5625-2.09375-.73438-3.40625-.73438H.65625v.53125c1.65625.125 1.6875.14063 1.6875 1.20313v9.46875c0 1.0625-.03125 1.07812-1.6875 1.20312Zm3.54688-6.70312v-4.90625c0-.51563.20312-.6875 1.40625-.6875 1.9375 0 3.10937 1.10937 3.10937 3.14062 0 2.34375-1.53125 3.1875-3.14062 3.1875-1.09375 0-1.375-.04687-1.375-.73437m0 0" style="stroke:none"/></symbol><symbol id="r" overflow="visible"><path d="M.92188-2.42187c0 1.39062.92187 2.64062 2.6875 2.64062 1.09375 0 2.1875-.71875 2.78125-1.10937.26562.6875.57812 1.10937 1.23437 1.10937.70313 0 1.48438-.20312 2.20313-.5625l-.10938-.4375c-.26562.0625-.6875.07813-.95312 0-.34375-.07812-.65625-.40625-.65625-1.59375v-4.53125c0-1.09375-.25-2.48437-3.07813-2.48437-2.10937 0-3.78125 1.09375-3.78125 2.125 0 .59375.70313.875 1.0625.875.39063 0 .5-.20313.59375-.51563.42188-1.39062 1.17188-1.82812 1.9375-1.82812.73438 0 1.5625.375 1.5625 1.85937v.78125c-.46875.48438-2.28125.95313-3.76562 1.4375C1.29688-4.23437.92188-3.29687.92188-2.42187M2.8125-2.6875c0-.875.39063-1.32812 1.45313-1.73437.75-.28125 1.71875-.64063 2.14062-.89063v2.64063c0 1.51562-1.15625 1.89062-1.89062 1.89062-1.15625 0-1.70313-.8125-1.70313-1.90625m0 0" style="stroke:none"/></symbol><symbol id="s" overflow="visible"><path d="M.59375 0h4.9375v-.53125C3.85938-.64062 3.76563-.67187 3.76563-1.625v-4.39062c0-1.42188.64062-1.92188 1.07812-1.92188.29688 0 .60938.10938 1.14063.40625.14062.09375.28125.10938.39062.10938.45313 0 .84375-.48438.84375-1.0625 0-.40625-.25-.90625-.98437-.90625C5.54688-9.39062 5-9 3.76563-7.90625l-.21875-1.48437-2.84375.46875v.46875l.6875.09375c.48437.07812.625.15625.625.82812V-1.625c0 .95313-.10938.98438-1.42188 1.09375Zm0 0" style="stroke:none"/></symbol><symbol id="t" overflow="visible"><path d="M.57813-8.42187H1.9375v6.51562C1.9375 0 3.34375.21875 4 .21875c.95313 0 1.85938-.48437 2.39063-.8125L6.25-1c-.45312.1875-.85937.25-1.32812.25-.64063 0-1.23438-.46875-1.23438-1.875v-5.79687h2.40625v-.75H3.6875v-2.35938h-.54687l-1.125 2.35938H.57813Zm0 0" style="stroke:none"/></symbol><symbol id="u" overflow="visible"><path d="M1.71875-12.25c0 .6875.46875 1.15625 1.14063 1.15625C3.54688-11.09375 4-11.5625 4-12.25c0-.67187-.45312-1.125-1.14062-1.125-.67188 0-1.14063.45313-1.14063 1.125M.59375 0h4.5625v-.53125C3.82813-.64062 3.76563-.67187 3.76563-1.625v-7.65625L3.625-9.39062l-2.92187.46875v.46875l.6875.09375c.48437.07812.625.15625.625.82812V-1.625c0 .95313-.0625.98438-1.42188 1.09375Zm0 0" style="stroke:none"/></symbol><symbol id="v" overflow="visible"><path d="M.92188-4.57812c0 3.03125 1.48437 4.79687 4.5 4.79687 3 0 4.46875-1.76562 4.46875-4.79687s-1.46875-4.8125-4.46875-4.8125c-3.01563 0-4.5 1.78125-4.5 4.8125m1.9375 0c0-2.59375.84375-4.15625 2.5625-4.15625 1.70312 0 2.54687 1.5625 2.54687 4.15625S7.125-.4375 5.42188-.4375c-1.71875 0-2.5625-1.54687-2.5625-4.14062m0 0" style="stroke:none"/></symbol><symbol id="w" overflow="visible"><path d="M.59375 0h4.5625v-.53125C3.82813-.64062 3.76563-.67187 3.76563-1.625v-4.39062c0-.46875.01562-.71875.17187-1.01563C4.34375-7.76562 5.17188-8.375 6.17188-8.375c1.26562 0 1.96875.6875 1.96875 2.32813V-1.625c0 .95313-.0625.98438-1.40625 1.09375V0h4.57812v-.53125C9.96875-.64062 9.89063-.67187 9.89063-1.625v-4.78125c0-1.89062-1.03125-2.98437-2.75-2.98437-1.39063 0-2.25.67187-3.39063 1.42187l-.26562-1.42187-2.78125.46875v.46875l.6875.09375c.48437.07812.625.15625.625.82812V-1.625c0 .95313-.0625.98438-1.42188 1.09375Zm0 0" style="stroke:none"/></symbol><symbol id="x" overflow="visible"><path d="M.92188-4.40625c0 2.78125 1.45312 4.625 3.92187 4.625 1.01563 0 1.85938-.45312 2.875-1.28125v.92188L7.89063 0h3.01562v-.53125C9.57813-.64062 9.51563-.67187 9.51563-1.625v-12.15625L9.375-13.875l-2.9375.45313v.48437l.70313.0625c.48437.0625.60937.15625.60937.875v3.0625c-.53125-.28125-1.21875-.45312-2.07812-.45312-1.53125 0-2.6875.5-3.46875 1.28125C1.40625-7.26562.92188-6.03125.92188-4.40625m1.9375-.21875c0-2.42187.89062-4.10937 2.79687-4.10937.875 0 1.59375.39062 1.92188 1.17187C7.75-7.25 7.75-6.96875 7.75-6.46875v3.28125c0 .42188 0 .73438-.125 1.0625-.375.96875-1.1875 1.34375-2.17187 1.34375-1.70313 0-2.59375-1.6875-2.59375-3.84375m0 0" style="stroke:none"/></symbol><symbol id="y" overflow="visible"><path d="M.92188-4.51562c0 2.96875 1.26562 4.73437 4.3125 4.73437C7.3125.21875 8.375-.9375 8.875-2.40625l-.54687-.29687C7.79688-1.60937 7.09375-.73437 5.60938-.73437c-2.32813 0-2.78125-2.23438-2.75-4.1875h5.40625c.39062 0 .73437-.09375.73437-.71875 0-1.09375-.35937-3.75-3.78125-3.75-2.92187 0-4.29687 2.0625-4.29687 4.875m1.96875-1.125c0-.76563.28125-3.09375 2.21875-3.09375 1.73437 0 1.9375 1.76562 1.9375 2.5 0 .35937-.125.59375-.64063.59375Zm0 0" style="stroke:none"/></symbol><symbol id="A" overflow="visible"><path d="m.875-3.125.20313 2.45313c.67187.59375 1.8125.89062 2.90625.89062 2.21875 0 3.5-1.17187 3.5-2.76562 0-1.65625-1.01563-2.39063-2.95313-2.98438-.76562-.23437-1.98437-.64062-1.98437-1.6875 0-.98437.73437-1.51562 1.67187-1.51562 1.32813 0 1.96875 1.03125 2.10938 2.17187H6.875v-2.20312c-.625-.45313-1.57812-.625-2.42187-.625-2.03125 0-3.39063.95312-3.39063 2.71875 0 1.5625 1.26563 2.25 2.8125 2.73437.84375.25 2.01563.67188 2.01563 1.95313 0 .95312-.73438 1.54687-1.73438 1.54687-1.51562 0-2.35937-1.09375-2.75-2.6875Zm0 0" style="stroke:none"/></symbol><symbol id="B" overflow="visible"><path d="M.375 0h4.5625v-.53125C3.60938-.64062 3.54688-.67187 3.54688-1.625v-12.15625l-.14063-.09375-2.92187.45313v.48437l.6875.0625c.48437.0625.59375.15625.59375.875v10.375c0 .95313-.03126.98438-1.39063 1.09375Zm0 0" style="stroke:none"/></symbol><symbol id="D" overflow="visible"><path d="M2.29688-12.71875c0 .39063.46875.71875 1.03125 1.01563L6.15625-10.125l.28125-.39062-2.21875-2.25c-.5625-.57813-.89062-.76563-1.21875-.76563-.26562 0-.70312.4375-.70312.8125M.48438-8.45312l.70312.09375c.48438.07812.60938.15625.60938.82812v4.9375c0 2.15625 1.26562 2.8125 2.65625 2.8125 1.59375 0 2.89062-1.07812 3.4375-1.32812L8.0625 0h3v-.53125C9.78125-.64062 9.65625-.67187 9.65625-1.625v-7.65625l-.14062-.10937-2.92188.46875v.46875l.71875.09375c.46875.07812.59375.15625.59375.82812v4.23438c0 .51562-.0625.92187-.15625 1.10937-.4375.85938-1.3125 1.40625-2.29687 1.40625-1.09375 0-1.89063-.6875-1.89063-2.14062v-6.35938l-.14062-.10937-2.9375.46875Zm0 0" style="stroke:none"/></symbol><clipPath id="a"><path d="M0 75h389v388.48828H0Zm0 0"/></clipPath></defs><path d="M153.94314-16.03227c-9.17448 52.03697-86.9133 81.81984-173.64287 66.52773-86.72567-15.2882-149.59064-69.86995-140.41616-121.903 9.1784-52.03697 86.91721-81.82375 173.64288-66.53164S163.11763-68.06923 153.94314-16.03227Zm0 0" style="fill-rule:nonzero;fill:#e5f2f2;fill-opacity:1;stroke-width:.19925;stroke-linecap:butt;stroke-linejoin:miter;stroke:#000;stroke-opacity:1;stroke-miterlimit:10" transform="matrix(.99929 0 0 -.99929 180.7795 165.86193)"/><g clip-path="url(#a)"><path d="M201.96945-106.29951c0 105.67663-85.66241 191.33904-191.33905 191.33904S-180.71255-.62288-180.71255-106.29951-95.04623-297.64247 10.6304-297.64247c105.67664 0 191.33905 85.66632 191.33905 191.34296Zm0 0" style="fill:none;stroke-width:.3985;stroke-linecap:butt;stroke-linejoin:miter;stroke:#000;stroke-opacity:1;stroke-miterlimit:10" transform="matrix(.99929 0 0 -.99929 180.7795 165.86193)"/></g><path d="M320.14324 53.27478c-15.2882 12.83333-43.59347 4.27647-63.21678-19.11123-19.62332-23.3838-23.13753-52.7445-7.84542-65.57393 15.29211-12.83334 43.59347-4.27648 63.21678 19.11123 19.62331 23.3838 23.13753 52.7445 7.84542 65.57393Zm0 0" style="fill-rule:nonzero;fill:#e5f2f2;fill-opacity:1;stroke-width:.19925;stroke-linecap:butt;stroke-linejoin:miter;stroke:#000;stroke-opacity:1;stroke-miterlimit:10" transform="matrix(.99929 0 0 -.99929 180.7795 165.86193)"/><use xlink:href="#b" x="481.07202" y="129.35888" style="fill:#000;fill-opacity:1"/><use xlink:href="#c" x="486.98582" y="132.05696" style="fill:#000;fill-opacity:1"/><use xlink:href="#d" x="492.53987" y="129.35888" style="fill:#000;fill-opacity:1"/><use xlink:href="#b" x="435.94311" y="144.01846" style="fill:#000;fill-opacity:1"/><use xlink:href="#e" x="441.8569" y="146.72654" style="fill:#000;fill-opacity:1"/><use xlink:href="#d" x="447.41095" y="144.01846" style="fill:#000;fill-opacity:1"/><use xlink:href="#b" x="435.94311" y="191.41377" style="fill:#000;fill-opacity:1"/><use xlink:href="#f" x="441.8569" y="194.12184" style="fill:#000;fill-opacity:1"/><use xlink:href="#d" x="447.41095" y="191.41377" style="fill:#000;fill-opacity:1"/><use xlink:href="#b" x="481.07202" y="206.19226" style="fill:#000;fill-opacity:1"/><use xlink:href="#g" x="486.98582" y="208.78242" style="fill:#000;fill-opacity:1"/><use xlink:href="#d" x="492.53987" y="206.19226" style="fill:#000;fill-opacity:1"/><use xlink:href="#b" x="508.9632" y="167.74859" style="fill:#000;fill-opacity:1"/><use xlink:href="#h" x="514.87699" y="170.33675" style="fill:#000;fill-opacity:1"/><use xlink:href="#d" x="520.43304" y="167.74859" style="fill:#000;fill-opacity:1"/><path d="M361.42256-.00135c0 35.22815-28.55544 63.7836-63.77968 63.7836-35.22815 0-63.7836-28.55545-63.7836-63.7836 0-35.22424 28.55545-63.77968 63.7836-63.77968 35.22424 0 63.77968 28.55544 63.77968 63.77968Zm0 0" style="fill:none;stroke-width:.3985;stroke-linecap:butt;stroke-linejoin:miter;stroke:#000;stroke-opacity:1;stroke-miterlimit:10" transform="matrix(.99929 0 0 -.99929 180.7795 165.86193)"/><use xlink:href="#i" x="471.3959" y="172.28337" style="fill:#000;fill-opacity:1"/><path d="M36.14071-.00135c0 25.83476-20.94065 46.77542-46.7715 46.77542S-57.4023 25.8334-57.4023-.00135c0-25.83085 20.94065-46.7715 46.7715-46.7715S36.1407-25.8322 36.1407-.00135Zm0 0" style="fill-rule:nonzero;fill:#cce5e5;fill-opacity:1;stroke-width:.3985;stroke-linecap:butt;stroke-linejoin:miter;stroke:#cce5e5;stroke-opacity:1;stroke-miterlimit:10" transform="matrix(.99929 0 0 -.99929 180.7795 165.86193)"/><path d="M-10.6308-.00135C32.65387 118.91906 266.80849 165.8352 310.02278 47.10242" style="fill:none;stroke-width:.19925;stroke-linecap:butt;stroke-linejoin:miter;stroke:#000;stroke-opacity:1;stroke-miterlimit:10" transform="matrix(.99929 0 0 -.99929 180.7795 165.86193)"/><path d="M-1.8339 2.0333C-1.49629.8122-.75269.23787.00136.00086-.7508-.23704-1.4974-.81394-1.8324-2.03152" style="fill:none;stroke-width:.19925;stroke-linecap:round;stroke-linejoin:round;stroke:#000;stroke-opacity:1;stroke-miterlimit:10" transform="scale(.99927 -.99927)rotate(-70 160.5316 -410.07647)"/><path d="M142.44279-42.51983c0 25.83085-20.94066 46.7715-46.7715 46.7715-25.83477 0-46.77151-20.94065-46.77151-46.7715s20.93674-46.77151 46.7715-46.77151c25.83085 0 46.7715 20.94066 46.7715 46.7715Zm0 0" style="fill-rule:nonzero;fill:#cce5e5;fill-opacity:1;stroke-width:.3985;stroke-linecap:butt;stroke-linejoin:miter;stroke:#cce5e5;stroke-opacity:1;stroke-miterlimit:10" transform="matrix(.99929 0 0 -.99929 180.7795 165.86193)"/><path d="M95.67128-42.51983c24.68942 67.83334 144.57145 142.59738 169.1944 74.95168" style="fill:none;stroke-width:.19925;stroke-linecap:butt;stroke-linejoin:miter;stroke:#000;stroke-opacity:1;stroke-miterlimit:10" transform="matrix(.99929 0 0 -.99929 180.7795 165.86193)"/><path d="M-1.83278 2.03246C-1.49882.81268-.75155.23703-.00118.00136c-.75218-.23791-1.49878-.8148-1.83378-2.03238" style="fill:none;stroke-width:.19925;stroke-linecap:round;stroke-linejoin:round;stroke:#000;stroke-opacity:1;stroke-miterlimit:10" transform="matrix(.34177 .939 .939 -.34177 445.48959 133.54753)"/><path d="M-38.26761-74.40967c0 25.83084-20.94066 46.7715-46.7715 46.7715-25.83477 0-46.77542-20.94066-46.77542-46.7715s20.94065-46.77151 46.77541-46.77151c25.83085 0 46.7715 20.94066 46.7715 46.7715Zm0 0" style="fill-rule:nonzero;fill:#cce5e5;fill-opacity:1;stroke-width:.3985;stroke-linecap:butt;stroke-linejoin:miter;stroke:#cce5e5;stroke-opacity:1;stroke-miterlimit:10" transform="matrix(.99929 0 0 -.99929 180.7795 165.86193)"/><path d="M-85.03912-74.40967c47.4165 130.27613 302.55477 189.45098 349.9048 59.35857" style="fill:none;stroke-width:.19925;stroke-linecap:butt;stroke-linejoin:miter;stroke:#000;stroke-opacity:1;stroke-miterlimit:10" transform="matrix(.99929 0 0 -.99929 180.7795 165.86193)"/><path d="M-1.83342 2.0327C-1.49946.8129-.75219.23725.00186.00024c-.75218-.2379-1.49879-.8148-1.83378-2.03238" style="fill:none;stroke-width:.19925;stroke-linecap:round;stroke-linejoin:round;stroke:#000;stroke-opacity:1;stroke-miterlimit:10" transform="scale(.99927 -.99927)rotate(-70 93.57048 -408.90773)"/><path d="M36.14071-.00135c0 25.83476-20.94065 46.77542-46.7715 46.77542S-57.4023 25.8334-57.4023-.00135c0-25.83085 20.94065-46.7715 46.7715-46.7715S36.1407-25.8322 36.1407-.00135Zm0 0" style="fill:none;stroke-width:.3985;stroke-linecap:butt;stroke-linejoin:miter;stroke:#000;stroke-opacity:1;stroke-dasharray:2.98883,2.98883;stroke-miterlimit:10" transform="matrix(.99929 0 0 -.99929 180.7795 165.86193)"/><use xlink:href="#b" x="168.30636" y="137.67497" style="fill:#000;fill-opacity:1"/><use xlink:href="#c" x="174.22015" y="140.37305" style="fill:#000;fill-opacity:1"/><use xlink:href="#j" x="179.7762" y="137.67497" style="fill:#000;fill-opacity:1"/><use xlink:href="#c" x="186.14767" y="140.37305" style="fill:#000;fill-opacity:1"/><use xlink:href="#b" x="132.67768" y="149.24674" style="fill:#000;fill-opacity:1"/><use xlink:href="#c" x="138.59148" y="151.94483" style="fill:#000;fill-opacity:1"/><use xlink:href="#j" x="144.14753" y="149.24674" style="fill:#000;fill-opacity:1"/><use xlink:href="#e" x="150.519" y="151.95482" style="fill:#000;fill-opacity:1"/><use xlink:href="#b" x="132.67768" y="186.65315" style="fill:#000;fill-opacity:1"/><use xlink:href="#c" x="138.59148" y="189.35124" style="fill:#000;fill-opacity:1"/><use xlink:href="#j" x="144.14753" y="186.65315" style="fill:#000;fill-opacity:1"/><use xlink:href="#f" x="150.519" y="189.36123" style="fill:#000;fill-opacity:1"/><use xlink:href="#b" x="168.30636" y="198.28988" style="fill:#000;fill-opacity:1"/><use xlink:href="#c" x="174.22015" y="200.98796" style="fill:#000;fill-opacity:1"/><use xlink:href="#j" x="179.7762" y="198.28988" style="fill:#000;fill-opacity:1"/><use xlink:href="#g" x="186.14767" y="200.87804" style="fill:#000;fill-opacity:1"/><use xlink:href="#b" x="190.3267" y="167.98243" style="fill:#000;fill-opacity:1"/><use xlink:href="#c" x="196.2405" y="170.68051" style="fill:#000;fill-opacity:1"/><use xlink:href="#j" x="201.79455" y="167.98243" style="fill:#000;fill-opacity:1"/><use xlink:href="#h" x="208.16602" y="170.57058" style="fill:#000;fill-opacity:1"/><path d="M142.44279-42.51983c0 25.83085-20.94066 46.7715-46.7715 46.7715-25.83477 0-46.77151-20.94065-46.77151-46.7715s20.93674-46.77151 46.7715-46.77151c25.83085 0 46.7715 20.94066 46.7715 46.7715Zm0 0" style="fill:none;stroke-width:.3985;stroke-linecap:butt;stroke-linejoin:miter;stroke:#000;stroke-opacity:1;stroke-dasharray:2.98883,2.98883;stroke-miterlimit:10" transform="matrix(.99929 0 0 -.99929 180.7795 165.86193)"/><use xlink:href="#b" x="274.53085" y="180.15977" style="fill:#000;fill-opacity:1"/><use xlink:href="#e" x="280.44264" y="182.86784" style="fill:#000;fill-opacity:1"/><use xlink:href="#j" x="285.99869" y="180.15977" style="fill:#000;fill-opacity:1"/><use xlink:href="#c" x="292.37016" y="182.85785" style="fill:#000;fill-opacity:1"/><use xlink:href="#b" x="238.90217" y="191.73654" style="fill:#000;fill-opacity:1"/><use xlink:href="#e" x="244.81397" y="194.44461" style="fill:#000;fill-opacity:1"/><use xlink:href="#j" x="250.37002" y="191.73654" style="fill:#000;fill-opacity:1"/><use xlink:href="#e" x="256.74149" y="194.44461" style="fill:#000;fill-opacity:1"/><use xlink:href="#b" x="238.90217" y="229.14295" style="fill:#000;fill-opacity:1"/><use xlink:href="#e" x="244.81397" y="231.85102" style="fill:#000;fill-opacity:1"/><use xlink:href="#j" x="250.37002" y="229.14295" style="fill:#000;fill-opacity:1"/><use xlink:href="#f" x="256.74149" y="231.85102" style="fill:#000;fill-opacity:1"/><use xlink:href="#b" x="274.53085" y="240.77368" style="fill:#000;fill-opacity:1"/><use xlink:href="#e" x="280.44264" y="243.48176" style="fill:#000;fill-opacity:1"/><use xlink:href="#j" x="285.99869" y="240.77368" style="fill:#000;fill-opacity:1"/><use xlink:href="#g" x="292.37016" y="243.36384" style="fill:#000;fill-opacity:1"/><use xlink:href="#b" x="296.55019" y="210.46722" style="fill:#000;fill-opacity:1"/><use xlink:href="#e" x="302.46399" y="213.1753" style="fill:#000;fill-opacity:1"/><use xlink:href="#j" x="308.01804" y="210.46722" style="fill:#000;fill-opacity:1"/><use xlink:href="#h" x="314.38951" y="213.05539" style="fill:#000;fill-opacity:1"/><path d="M-38.26761-74.40967c0 25.83084-20.94066 46.7715-46.7715 46.7715-25.83477 0-46.77542-20.94066-46.77542-46.7715s20.94065-46.77151 46.77541-46.77151c25.83085 0 46.7715 20.94066 46.7715 46.7715Zm0 0" style="fill:none;stroke-width:.3985;stroke-linecap:butt;stroke-linejoin:miter;stroke:#000;stroke-opacity:1;stroke-dasharray:2.98883,2.98883;stroke-miterlimit:10" transform="matrix(.99929 0 0 -.99929 180.7795 165.86193)"/><use xlink:href="#b" x="93.95021" y="211.97215" style="fill:#000;fill-opacity:1"/><use xlink:href="#f" x="99.86401" y="214.68023" style="fill:#000;fill-opacity:1"/><use xlink:href="#j" x="105.41806" y="211.97215" style="fill:#000;fill-opacity:1"/><use xlink:href="#c" x="111.79153" y="214.67024" style="fill:#000;fill-opacity:1"/><use xlink:href="#b" x="58.32154" y="223.54892" style="fill:#000;fill-opacity:1"/><use xlink:href="#f" x="64.23534" y="226.257" style="fill:#000;fill-opacity:1"/><use xlink:href="#j" x="69.78939" y="223.54892" style="fill:#000;fill-opacity:1"/><use xlink:href="#e" x="76.16086" y="226.257" style="fill:#000;fill-opacity:1"/><use xlink:href="#b" x="58.32154" y="261.0093" style="fill:#000;fill-opacity:1"/><use xlink:href="#f" x="64.23534" y="263.71737" style="fill:#000;fill-opacity:1"/><use xlink:href="#j" x="69.78939" y="261.0093" style="fill:#000;fill-opacity:1"/><use xlink:href="#f" x="76.16086" y="263.71737" style="fill:#000;fill-opacity:1"/><use xlink:href="#b" x="93.95021" y="272.58607" style="fill:#000;fill-opacity:1"/><use xlink:href="#f" x="99.86401" y="275.29414" style="fill:#000;fill-opacity:1"/><use xlink:href="#j" x="105.41806" y="272.58607" style="fill:#000;fill-opacity:1"/><use xlink:href="#g" x="111.79153" y="275.17622" style="fill:#000;fill-opacity:1"/><use xlink:href="#b" x="115.96956" y="242.27961" style="fill:#000;fill-opacity:1"/><use xlink:href="#f" x="121.88336" y="244.98768" style="fill:#000;fill-opacity:1"/><use xlink:href="#j" x="127.43941" y="242.27961" style="fill:#000;fill-opacity:1"/><use xlink:href="#h" x="133.81088" y="244.86777" style="fill:#000;fill-opacity:1"/><path d="M131.81414-180.71175c0 25.83476-20.94065 46.7715-46.77541 46.7715-25.83085 0-46.7715-20.93674-46.7715-46.7715 0-25.83085 20.94065-46.7715 46.7715-46.7715 25.83476 0 46.77541 20.94065 46.77541 46.7715Zm0 0" style="fill:none;stroke-width:.3985;stroke-linecap:butt;stroke-linejoin:miter;stroke:#000;stroke-opacity:1;stroke-dasharray:2.98883,2.98883;stroke-miterlimit:10" transform="matrix(.99929 0 0 -.99929 180.7795 165.86193)"/><use xlink:href="#b" x="263.9084" y="318.2556" style="fill:#000;fill-opacity:1"/><use xlink:href="#g" x="269.82219" y="320.84376" style="fill:#000;fill-opacity:1"/><use xlink:href="#j" x="275.37625" y="318.2556" style="fill:#000;fill-opacity:1"/><use xlink:href="#c" x="281.74772" y="320.95368" style="fill:#000;fill-opacity:1"/><use xlink:href="#b" x="228.27973" y="329.82738" style="fill:#000;fill-opacity:1"/><use xlink:href="#g" x="234.19352" y="332.41554" style="fill:#000;fill-opacity:1"/><use xlink:href="#j" x="239.74757" y="329.82738" style="fill:#000;fill-opacity:1"/><use xlink:href="#e" x="246.11904" y="332.53545" style="fill:#000;fill-opacity:1"/><use xlink:href="#b" x="228.27973" y="367.23279" style="fill:#000;fill-opacity:1"/><use xlink:href="#g" x="234.19352" y="369.82295" style="fill:#000;fill-opacity:1"/><use xlink:href="#j" x="239.74757" y="367.23279" style="fill:#000;fill-opacity:1"/><use xlink:href="#f" x="246.11904" y="369.94286" style="fill:#000;fill-opacity:1"/><use xlink:href="#b" x="263.9084" y="378.92447" style="fill:#000;fill-opacity:1"/><use xlink:href="#g" x="269.82219" y="381.51263" style="fill:#000;fill-opacity:1"/><use xlink:href="#j" x="275.37625" y="378.92447" style="fill:#000;fill-opacity:1"/><use xlink:href="#g" x="281.74772" y="381.51263" style="fill:#000;fill-opacity:1"/><use xlink:href="#b" x="285.92775" y="348.56206" style="fill:#000;fill-opacity:1"/><use xlink:href="#g" x="291.84154" y="351.15222" style="fill:#000;fill-opacity:1"/><use xlink:href="#j" x="297.39559" y="348.56206" style="fill:#000;fill-opacity:1"/><use xlink:href="#h" x="303.76706" y="351.15222" style="fill:#000;fill-opacity:1"/><path d="M4.25087-212.60159c0 25.83085-20.94065 46.7715-46.7715 46.7715s-46.7715-20.94065-46.7715-46.7715 20.94065-46.7715 46.7715-46.7715 46.7715 20.94065 46.7715 46.7715Zm0 0" style="fill:none;stroke-width:.3985;stroke-linecap:butt;stroke-linejoin:miter;stroke:#000;stroke-opacity:1;stroke-dasharray:2.98883,2.98883;stroke-miterlimit:10" transform="matrix(.99929 0 0 -.99929 180.7795 165.86193)"/><use xlink:href="#b" x="136.44001" y="350.12295" style="fill:#000;fill-opacity:1"/><use xlink:href="#h" x="142.35381" y="352.71111" style="fill:#000;fill-opacity:1"/><use xlink:href="#j" x="147.90786" y="350.12295" style="fill:#000;fill-opacity:1"/><use xlink:href="#c" x="154.27933" y="352.82103" style="fill:#000;fill-opacity:1"/><use xlink:href="#b" x="100.81134" y="361.69472" style="fill:#000;fill-opacity:1"/><use xlink:href="#h" x="106.72513" y="364.28288" style="fill:#000;fill-opacity:1"/><use xlink:href="#j" x="112.27918" y="361.69472" style="fill:#000;fill-opacity:1"/><use xlink:href="#e" x="118.65066" y="364.4028" style="fill:#000;fill-opacity:1"/><use xlink:href="#b" x="100.81134" y="399.10013" style="fill:#000;fill-opacity:1"/><use xlink:href="#h" x="106.72513" y="401.69029" style="fill:#000;fill-opacity:1"/><use xlink:href="#j" x="112.27918" y="399.10013" style="fill:#000;fill-opacity:1"/><use xlink:href="#f" x="118.65066" y="401.80821" style="fill:#000;fill-opacity:1"/><use xlink:href="#b" x="136.44001" y="410.73686" style="fill:#000;fill-opacity:1"/><use xlink:href="#h" x="142.35381" y="413.32502" style="fill:#000;fill-opacity:1"/><use xlink:href="#j" x="147.90786" y="410.73686" style="fill:#000;fill-opacity:1"/><use xlink:href="#g" x="154.27933" y="413.32502" style="fill:#000;fill-opacity:1"/><use xlink:href="#b" x="158.45936" y="380.4294" style="fill:#000;fill-opacity:1"/><use xlink:href="#h" x="164.37315" y="383.01956" style="fill:#000;fill-opacity:1"/><use xlink:href="#j" x="169.9272" y="380.4294" style="fill:#000;fill-opacity:1"/><use xlink:href="#h" x="176.29868" y="383.01956" style="fill:#000;fill-opacity:1"/><use xlink:href="#k" x="360.36783" y="83.39256" style="fill:#000;fill-opacity:1"/><use xlink:href="#l" x="371.55787" y="87.77144" style="fill:#000;fill-opacity:1"/><use xlink:href="#k" x="172.19959" y="277.78237" style="fill:#000;fill-opacity:1"/><g style="fill:#000;fill-opacity:1"><use xlink:href="#m" x="184.94253" y="269.82003"/><use xlink:href="#n" x="194.36448" y="269.82003"/></g><use xlink:href="#l" x="183.38963" y="283.25848" style="fill:#000;fill-opacity:1"/><g style="fill:#000;fill-opacity:1"><use xlink:href="#o" x="202.50005" y="277.78237"/><use xlink:href="#i" x="209.05081" y="277.78237"/></g><use xlink:href="#p" x="225.29829" y="277.78237" style="fill:#000;fill-opacity:1"/><use xlink:href="#q" x="409.65879" y="413.53187" style="fill:#000;fill-opacity:1"/><g style="fill:#000;fill-opacity:1"><use xlink:href="#r" x="420.21169" y="413.53187"/><use xlink:href="#s" x="429.98805" y="413.53187"/></g><g style="fill:#000;fill-opacity:1"><use xlink:href="#t" x="437.4149" y="413.53187"/><use xlink:href="#u" x="443.84619" y="413.53187"/><use xlink:href="#t" x="449.28193" y="413.53187"/><use xlink:href="#u" x="455.71322" y="413.53187"/><use xlink:href="#v" x="461.14896" y="413.53187"/><use xlink:href="#w" x="471.94079" y="413.53187"/></g><g style="fill:#000;fill-opacity:1"><use xlink:href="#x" x="487.7104" y="413.53187"/><use xlink:href="#y" x="498.90046" y="413.53187"/></g><use xlink:href="#z" x="512.71953" y="413.53187" style="fill:#000;fill-opacity:1"/><g style="fill:#000;fill-opacity:1"><use xlink:href="#A" x="530.24107" y="413.53187"/><use xlink:href="#y" x="538.38472" y="413.53187"/><use xlink:href="#B" x="548.0018" y="413.53187"/><use xlink:href="#v" x="553.21851" y="413.53187"/><use xlink:href="#w" x="564.01034" y="413.53187"/></g><use xlink:href="#C" x="579.77986" y="413.53187" style="fill:#000;fill-opacity:1"/><g style="fill:#000;fill-opacity:1"><use xlink:href="#v" x="409.65879" y="437.42489"/><use xlink:href="#D" x="420.45062" y="437.42489"/></g><use xlink:href="#E" x="435.98208" y="437.42489" style="fill:#000;fill-opacity:1"/><use xlink:href="#C" x="452.50831" y="437.42489" style="fill:#000;fill-opacity:1"/><use xlink:href="#F" x="469.83099" y="437.42489" style="fill:#000;fill-opacity:1"/><use xlink:href="#G" x="490.31954" y="437.42489" style="fill:#000;fill-opacity:1"/><use xlink:href="#E" x="532.92935" y="437.42489" style="fill:#000;fill-opacity:1"/><g style="fill:#000;fill-opacity:1"><use xlink:href="#m" x="545.60415" y="429.46055"/><use xlink:href="#n" x="555.0261" y="429.46055"/></g><use xlink:href="#F" x="563.16167" y="437.42489" style="fill:#000;fill-opacity:1"/><use xlink:href="#H" x="580.00648" y="437.42489" style="fill:#000;fill-opacity:1"/><use xlink:href="#I" x="594.97965" y="437.42489" style="fill:#000;fill-opacity:1"/><use xlink:href="#z" x="564.27888" y="214.83212" style="fill:#000;fill-opacity:1"/><g style="fill:#000;fill-opacity:1"><use xlink:href="#J" x="580.46662" y="214.83212"/><use xlink:href="#I" x="589.08814" y="214.83212"/></g></svg>