<svg xmlns="http://www.w3.org/2000/svg" xmlns:xlink="http://www.w3.org/1999/xlink" width="369.301pt" height="14737.896pt" viewBox="0 0 369.301 14737.896"><defs><path id="c" d="M.59375-5.04687c0 3.07812 1.76563 5.32812 5.5 5.32812 3.29688 0 4.90625-1.6875 5.9375-3.54687C13.04688-5.09375 13.23438-7 13.23438-7.73437c0-3.84375-2.32813-5.5-5.42188-5.5-2.98437 0-4.82812 1.65625-5.92187 3.45312C.85938-8.0625.59375-6.28125.59375-5.04687m1.96875.75c0-1.57813.29688-3.32813 1.15625-5.125.85938-1.78125 2.1875-3.15625 4.17188-3.15625 2.04687 0 3.375 1.21875 3.375 3.85937 0 1.07813-.10938 2.60938-.875 4.59375-.78125 2.01563-2.0625 3.75-4.48438 3.75C3.875-.375 2.5625-1.6875 2.5625-4.29687m0 0"/><path id="d" d="M-7.15625-12.4375h3.79688l-.76563 1.20313.54688.46875c.75-.82813 1.625-1.42188 2.78125-1.92188v-.51562c-1.17188-.5-2.03125-1.09375-2.78125-1.9375l-.54688.51562.76563 1.20313h-3.79688Zm0 0"/><path id="e" d="M2.14063-.85937c0 .65625.32812 1.07812 1.07812 1.07812 1.35938 0 2.39063-1.26562 3.03125-2.6875l-.46875-.25C5.45313-2.0625 4.64063-.75 4.125-.75c-.21875 0-.3125-.14062-.3125-.39062 0-.17188.04688-.39063.10938-.625l2.04687-7.51563-.09375-.10937-3.40625.51562-.125.46875 1.07813.09375c.34375.01563.48437.125.48437.375 0 .125-.03125.28125-.09375.48438L2.25-1.60937c-.07812.28124-.10937.51562-.10937.75m0 0"/><path id="f" d="M-1.39062 3.32813c0 .98437 1.3125 1.1875 1.98437 1.1875.625 0 1.21875-.20313 1.67188-.60938.85937-.78125 1.375-1.98437 1.875-4.21875l1.95312-8.96875-.10937-.10937-3.5625.5625-.10938.46875c1.23438.0625 1.64063.10937 1.64063.40625 0 .14062-.01563.25-.04688.42187l-2.20312 10.5c-.10938.57813-.26563.84375-.51563.84375-.75 0-1.125-1.45312-1.6875-1.45312-.46875 0-.89062.60937-.89062.96875m0 0"/><clipPath id="a"><path d="M364 9061h4.60156v8H364Zm0 0"/></clipPath><clipPath id="b"><path d="M368 9061h.60156v7H368Zm0 0"/></clipPath><clipPath id="g"><path d="M0 13.8711h368.60156v14710.05078H0Zm0 0"/></clipPath></defs><path fill="none" stroke="#000" stroke-miterlimit="10" stroke-width=".7955" d="M.3945 9064.94531h367.0196"/><g clip-path="url(#a)"><path fill="none" stroke="#000" stroke-linecap="round" stroke-linejoin="round" stroke-miterlimit="10" stroke-width=".7955" d="M365.26562 9061.84375c.46485 1.85937 1.5 2.74219 2.54688 3.10156-1.04687.36328-2.08203 1.24219-2.54688 3.10547"/></g><path fill="none" stroke="#000" stroke-miterlimit="10" stroke-width=".7955" d="M141.86328 9206.41409v-282.13677"/><path fill="none" stroke="#000" stroke-linecap="round" stroke-linejoin="round" stroke-miterlimit="10" stroke-width=".7955" d="M138.75781 8926.42578c1.86328-.46875 2.74219-1.5039 3.10547-2.54687.36328 1.04297 1.24219 2.07812 3.10547 2.54687"/><path fill="none" stroke="#000" stroke-miterlimit="10" stroke-width=".39775" d="M.3945 9062.11719v5.66015m28.29688-5.66015v5.66015m28.29298-5.66015v5.66015m28.29297-5.66015v5.66015m28.29297-5.66015v5.66015m56.58596-5.66015v5.66015m28.29297-5.66015v5.66015m28.29297-5.66015v5.66015m28.29298-5.66015v5.66015m28.29297-5.66015v5.66015m28.29298-5.66015v5.66015m28.29297-5.66015v5.66015"/><g clip-path="url(#b)"><path fill="none" stroke="#000" stroke-miterlimit="10" stroke-width=".39775" d="M368.20707 9062.11719v5.66015"/></g><path fill="none" stroke="#000" stroke-miterlimit="10" stroke-width=".39775" d="M144.6914 9206.41409h-5.66015m5.66015-28.29297h-5.66015m5.66015-28.29298h-5.66015m5.66015-28.29297h-5.66015m5.66015-28.29688h-5.66015m5.66015-56.58595h-5.66015m5.66015-28.29298h-5.66015m5.66015-28.29296h-5.66015m5.66015-28.29298h-5.66015m5.66015-28.29298h-5.66015"/><use xlink:href="#c" x="121.01395" y="9085.19754"/><path fill="none" stroke="#000" stroke-miterlimit="10" stroke-width=".7955" d="M141.86328 9064.94531h27.4961"/><path fill="none" stroke="#000" stroke-linecap="round" stroke-linejoin="round" stroke-miterlimit="10" stroke-width=".7955" d="M167.21094 9061.84375c.46484 1.85937 1.5039 2.74219 2.54687 3.10156-1.04297.36328-2.08203 1.24219-2.54687 3.10547"/><use xlink:href="#d" x="161.60712" y="9087.10793"/><use xlink:href="#e" x="153.0553" y="9087.32552"/><path fill="none" stroke="#000" stroke-miterlimit="10" stroke-width=".7955" d="M141.86328 9064.94531v-27.4961"/><path fill="none" stroke="#000" stroke-linecap="round" stroke-linejoin="round" stroke-miterlimit="10" stroke-width=".7955" d="M138.75781 9039.59766c1.86328-.46485 2.74219-1.50391 3.10547-2.54688.36328 1.04297 1.24219 2.08203 3.10547 2.54688"/><use xlink:href="#d" x="136.44674" y="9055.99981"/><use xlink:href="#f" x="127.89493" y="9056.21939"/><g clip-path="url(#g)"><path fill="none" stroke="red" stroke-miterlimit="10" stroke-width=".7955" d="M.3945 14723.59873s1.33594-139.24222 1.85157-191.89848c.51172-52.65235 1.33203-136.12893 1.84765-187.59378.51172-51.46876 1.33594-133.0508 1.84766-183.3477.51172-50.29297 1.33594-130.00392 1.84766-179.13674.51172-49.13673 1.33593-126.99612 1.84765-174.98441.51172-47.9883 1.33594-124.01956 1.84766-170.87503.51563-46.85158 1.33594-121.07815 1.84766-166.81254.51562-45.73438 1.33594-118.1719 1.85156-162.7969.51172-44.62501 1.33203-115.2969 1.84766-158.82816.51172-43.53126 1.33593-112.46096 1.84765-154.91018.51172-42.44532 1.33594-109.65237 1.84766-151.03128.51172-41.38282 1.33594-106.88283 1.84766-147.21097.51172-40.32422 1.33593-104.14845 1.84765-143.42971.51563-39.28517 1.33594-101.44924 1.84766-139.70315.51562-38.25392 1.33594-98.77737 1.85156-136.01565.51172-37.2383 1.33203-96.14455 1.84766-132.37893.51172-36.2383 1.33203-93.543 1.84766-128.7891.51172-35.2461 1.33593-90.98048 1.84765-125.25002.51172-34.27344 1.33594-88.44533 1.84766-121.75393s1.33594-85.94923 1.84766-118.30861c.51171-32.35548 1.33593-83.4844 1.84765-114.90627.51563-31.42188 1.33594-81.0547 1.84766-111.55471.51562-30.4961 1.33594-78.66017 1.85156-108.24612.51172-29.58985 1.33203-76.3047 1.84766-104.9922.51172-28.69141 1.33594-73.97658 1.84765-101.78127s1.33594-71.68361 1.84766-98.6172c.51172-26.9336 1.33594-69.4258 1.84766-95.50393.51172-26.07423 1.33594-67.19923 1.84765-92.4297.51563-25.23048 1.33594-65.01174 1.84766-89.41018.51563-24.39844 1.33594-62.85939 1.85156-86.43752.51172-23.58203 1.33204-60.73829 1.84766-83.51564.51172-22.77344 1.33594-58.64845 1.84766-80.62892s1.33593-56.59767 1.84765-77.8008c.51172-21.19922 1.33594-54.57423 1.84766-75.01173.51172-20.4336 1.33594-52.59376 1.84766-72.27736.51562-19.6836 1.33593-50.64454 1.84765-69.58595.51563-18.94531 1.33594-48.72657 1.85157-66.94142.51172-18.21875 1.33203-46.84766 1.84765-64.35157.51172-17.50391 1.33594-45 1.84766-61.8008.51172-16.80078 1.33594-43.1836 1.84766-59.30079.51171-16.11328 1.33593-41.40625 1.84765-56.84376.51172-15.4414 1.33594-39.66016 1.84766-54.44141.51562-14.77735 1.33594-37.94923 1.84766-52.08204.51562-14.12891 1.33593-36.26954 1.85156-49.76564.51172-13.4961 1.33203-34.63282 1.84766-47.50782.51171-12.875 1.33593-33.01954 1.84765-45.28517.51172-12.26953 1.33594-31.44922 1.84766-43.1211s1.33594-29.90625 1.84766-40.9961c.51171-11.08594 1.33593-28.39844 1.84765-38.91798.51563-10.51953 1.33594-26.9336 1.84766-36.89453.51562-9.96485 1.33594-25.4961 1.84765-34.91407.51563-9.42188 1.33594-24.08985 1.85157-32.98048.51172-8.89062 1.33203-22.71875 1.84765-31.09375.51172-8.375 1.33594-21.38673 1.84766-29.25782.51172-7.8711 1.33594-20.08594 1.84766-27.46485s1.33594-18.82032 1.84765-25.72266 1.33594-17.58594 1.84766-24.02344c.51563-6.4375 1.33594-16.38673 1.84766-22.375.51562-5.98829 1.33594-15.22267 1.85156-20.77345.51172-5.55078 1.33203-14.09375 1.84766-19.21875.51172-5.125 1.33594-13 1.84765-17.71485.51172-4.71094 1.33594-11.9375 1.84766-16.25391.51172-4.3125 1.33594-10.91016 1.84766-14.83594.51172-3.92969 1.33593-9.91797 1.84765-13.47657.51563-3.55468 1.33594-8.96093 1.84766-12.15625.51563-3.19922 1.33594-8.03515 1.85156-10.88672.51172-2.85156 1.33203-7.14453 1.84766-9.66406.51172-2.51563 1.33594-6.28907 1.84766-8.48438.51172-2.19922 1.33593-5.46875 1.84765-7.35938s1.33594-4.67968 1.84766-6.27734 1.33594-3.92578 1.84766-5.24219c.51562-1.32031 1.33593-3.20703 1.84765-4.25781.51563-1.05078 1.33594-2.51953 1.85156-3.3164.51172-.79688 1.33204-1.8711 1.84766-2.4258.51172-.55468 1.33594-1.2539 1.84766-1.58202.51172-.32813 1.33594-.66797 1.84766-.78125.51171-.11328 1.33593-.1211 1.84765-.03125.51172.08594 1.33594.39062 1.84766.66797.51562.27734 1.33594.875 1.84765 1.32422.51563.45312 1.33594 1.3203 1.84766 1.93359.51563.61328 1.33594 1.73047 1.85156 2.4961.51172.76171 1.33204 2.10546 1.84766 3.0078.51172.89844 1.33594 2.44923 1.84766 3.47266.51172 1.02344 1.33593 2.76172 1.84765 3.89063.51172 1.13281 1.33594 3.03516 1.84766 4.26563.51172 1.22656 1.33594 3.27734 1.84766 4.58593.51562 1.3125 1.33594 3.48438 1.84765 4.8672.51563 1.3828 1.33594 3.65624 1.85157 5.09374.51172 1.44141 1.33203 3.79297 1.84765 5.27735.51172 1.48437 1.33594 3.89844 1.84766 5.41016.51172 1.51562 1.33594 3.96875 1.84766 5.5s1.33593 4.0039 1.84765 5.53906c.51172 1.53906 1.33594 4.00781 1.84766 5.53516.51562 1.52734 1.33594 3.97265 1.84766 5.47656.51562 1.50781 1.33593 3.90625 1.85156 5.3789.51172 1.46876 1.33203 3.8047 1.84766 5.22657.51172 1.42188 1.33593 3.66797 1.84765 5.03125s1.33594 3.5 1.84766 4.78907c.51172 1.28515 1.33594 3.29687 1.84766 4.4961.51171 1.1992 1.33593 3.05859 1.84765 4.15624.51563 1.10156 1.33594 2.78906 1.84766 3.77344.51562.98828 1.33594 2.48047 1.85156 3.34375.51172.85938 1.33203 2.13672 1.84766 2.85938.51172.71875 1.33594 1.76171 1.84765 2.33203.51172.5664 1.33594 1.35547 1.84766 1.75781.51172.39844 1.33594.91016 1.84766 1.13281s1.33594.4375 1.84766.46485c.51562.03125 1.33593-.07422 1.84765-.25.51563-.17578 1.33594-.6211 1.85156-1.01563.51172-.39062 1.33204-1.19922 1.84766-1.82422.51172-.6289 1.33203-1.8164 1.84766-2.6875.51172-.8711 1.33594-2.46094 1.84765-3.58984s1.33594-3.14453 1.84766-4.54688c.51172-1.39844 1.33594-3.85937 1.84766-5.54297s1.33593-4.61328 1.84765-6.59375c.51563-1.98437 1.33594-5.39844 1.84766-7.6914.51563-2.28907 1.33594-6.21485 1.85156-8.82813.51172-2.6172 1.33204-7.07032 1.84766-10.02344.51172-2.95313 1.33594-7.95704 1.84766-11.25782.51172-3.30469 1.33593-8.8789 1.84765-12.54297.51172-3.66797 1.33594-9.83594 1.84766-13.875.51172-4.04297 1.33594-10.82422 1.84766-15.25782.51562-4.42969 1.33593-11.84766 1.84765-16.67969.51563-4.83203 1.33594-12.90625 1.85157-18.15625.51171-5.2461 1.33203-14 1.84765-19.67579.51172-5.67968 1.33594-15.125 1.84766-21.2461.51172-6.11718 1.33594-16.28515 1.84766-22.85937.51171-6.57422 1.33593-17.48048 1.84765-24.52345s1.33594-18.71094 1.84766-26.23438c.51562-7.52343 1.33594-19.97656 1.84765-27.99219.51563-8.01953 1.33594-21.27344 1.85157-29.79688.51172-8.52734 1.33203-22.60547 1.84765-31.65235.51172-9.04297 1.33594-23.96875 1.84766-33.54688.51172-9.58203 1.33594-25.3711 1.84766-35.4961.51172-10.1289 1.33594-26.8047 1.84765-37.4922s1.33594-28.27344 1.84766-39.53516c.51563-11.25781 1.33594-29.77344 1.84766-41.6211.51562-11.84375 1.33594-31.3125 1.85156-43.75782.51172-12.44532 1.33203-32.88282 1.84766-45.94142.51172-13.0586 1.33594-34.48828 1.84765-48.17188s1.33594-36.12891 1.84766-50.45314c.51172-14.32031 1.33594-37.80078 1.84766-52.77344.51172-14.97657 1.33593-39.51173 1.84765-55.15236.51563-15.64062 1.33594-41.25391 1.84766-57.57032.51563-16.3164 1.33594-43.02735 1.84766-60.03907.51562-17.00782 1.33593-44.83595 1.85156-62.5508.51172-17.71484 1.33203-46.6836 1.84766-65.1172.51172-18.42969 1.33593-48.5586 1.84765-67.72267.51172-19.16016 1.33594-50.47657 1.84766-70.38282.51172-19.90235 1.33594-52.41798 1.84766-73.08205.51171-20.66406 1.33593-54.40626 1.84765-75.83595.51563-21.4336 1.33594-56.42188 1.84766-78.63673.51562-22.21485 1.33594-58.47267 1.85156-81.4844.51172-23.01172 1.33203-60.55079 1.84766-84.3711.51172-23.82423 1.33594-62.67189 1.84766-87.31643.51171-24.64453 1.33593-64.82813 1.84765-90.3086.51172-25.47657 1.33594-67.00783 1.84766-93.33596s1.33594-69.23048 1.84766-96.4219c.51562-27.1914 1.33593-71.48829 1.84765-99.5547.51563-28.06641 1.33594-73.77345 1.85156-102.73049.51172-28.95313 1.33204-76.09376 1.84766-105.95314.51172-29.85548 1.33594-78.45314 1.84766-109.22659.51172-30.76954 1.33594-80.84767 1.84765-112.5469.51172-31.69531 1.33594-83.26954 1.84766-115.91017.51172-32.63673 1.33594-85.73049 1.84766-119.32424.51562-33.59376 1.33594-88.23049 1.84765-122.78909.51563-34.5625 1.33594-90.75783 1.85157-126.2969.51172-35.53907 1.33203-93.31642 1.84765-129.85159.51172-36.53516 1.33594-95.91408 1.84766-133.45705.51172-37.53907 1.33594-98.5469 1.84766-137.1055s1.33594-101.21095 1.84765-140.8008c.51172-39.59376 1.33594-103.91018 1.84766-144.55081.51562-40.63673 1.33594-106.64455 1.84766-148.33988.51562-41.69922 1.33593-109.41408 1.85156-152.18362.51172-42.76563 1.33203-112.21096 1.84766-156.06643.51171-43.85548 1.33203-115.0508 1.84765-160.00394.51172-44.95313 1.33594-117.9219 1.84766-163.9844.51172-46.06251 1.33594-120.82425 1.84766-168.01176.51171-47.1875 1.33593-123.76174 1.84765-172.08987.51172-48.32814 1.33594-126.7383 1.84766-176.21488.51562-49.48048 1.33594-129.74221 1.84766-180.38285.51562-50.64063 1.33593-132.78518 1.85156-184.6055.51172-51.81642 1.33203-135.8594 1.84765-188.87113.51172-53.00782 1.33594-138.96878 1.84766-193.17972.51172-54.21095 1.33594-142.11331 1.84766-197.54301s1.33594-145.28909 1.84766-201.94926c.51171-56.66016 1.33593-148.50393 1.84765-206.40629.51563-57.90235 1.33594-151.74612 1.84766-210.90629.51562-59.15626 1.33594-155.02737 1.85156-215.45316.51172-60.4297 1.33203-158.34769 1.84766-220.05864.51172-61.70704 1.33594-161.69143 1.84765-224.69535s1.33594-165.07816 1.84766-229.39067 1.33594-168.49222 1.84766-234.12505c.51172-65.63673 1.33593-171.94925 1.84765-238.91801.51563-66.96876 1.33594-175.42972 1.84766-243.74614.51563-68.31642 1.33594-178.95316 1.85156-248.62895.51172-69.6797 1.33204-182.50785 1.84766-253.55864.51172-71.0508 1.33594-186.09379 1.84766-258.5313.51172-72.44142 1.84765-263.55474 1.84765-263.55474"/></g><path fill="none" stroke="#00F" stroke-miterlimit="10" stroke-width=".7955" d="m71.1289 8824.45308 23.57812 70.73439 5.89454 17.67969 23.57812 70.73439 5.89063 17.67969 23.57813 70.73439 5.89453 17.67969 23.57813 70.73439 5.89453 17.67969 23.57813 70.73439"/></svg>