<svg xmlns="http://www.w3.org/2000/svg" xmlns:xlink="http://www.w3.org/1999/xlink" width="519.067pt" height="253.603pt" version="1.2" viewBox="0 0 519.067 253.603"><defs><symbol id="a" overflow="visible"><path d="M.65625 0h4.9375v-.53125C4.8125-.60937 4.375-.60937 4.23438-.82812c-.0625-.09376-.03125-.10938-.03125-.90625v-4.35938h1.26562c1.10938 0 1.98438.34375 2.3125 1.625.14063.51563.32813 2 .53125 2.85938C8.59375-.42187 9.32813 0 10.42188 0h1.51562v-.53125C10.48438-.70312 10.17188-1.73437 10-3c-.21875-1.67187-.54687-2.92187-2.54687-3.40625v-.03125C9.20313-6.78125 10.5-7.96875 10.5-9.75s-1.125-3.17187-4.39062-3.17187H.65625v.53125c1.65625.125 1.6875.14062 1.6875 1.1875v9.46875c0 1.0625-.03125 1.07812-1.6875 1.20312Zm3.54688-6.75v-4.60937c0-.78125.10937-.9375 1.34375-.9375 1.39062 0 2.96875.51562 2.96875 2.73437 0 1.96875-1.03125 2.8125-2.84375 2.8125Zm0 0" style="stroke:none"/></symbol><symbol id="b" overflow="visible"><path d="M.92188-4.51562c0 2.96875 1.26562 4.73437 4.3125 4.73437 2.0625 0 3.14062-1.15625 3.64062-2.625l-.5625-.29687C7.79688-1.60937 7.07813-.73437 5.60938-.73437c-2.32813 0-2.78125-2.23438-2.75-4.17188H8.25c.40625 0 .73438-.10937.73438-.71875 0-1.09375-.35938-3.76562-3.76563-3.76562-2.9375 0-4.29687 2.07812-4.29687 4.875M2.89063-5.625c0-.78125.26562-3.10937 2.21875-3.10937 1.73437 0 1.9375 1.76562 1.9375 2.51562 0 .34375-.125.59375-.64063.59375Zm0 0" style="stroke:none"/></symbol><symbol id="d" overflow="visible"><path d="M.65625 0H5.875v-.53125c-1.64062-.125-1.67187-.14062-1.67187-1.20312v-9.46875c0-1.04688.03125-1.0625 1.67187-1.1875v-.53125H.65625v.53125c1.65625.125 1.6875.14062 1.6875 1.1875v9.46875c0 1.0625-.03125 1.07812-1.6875 1.20312Zm0 0" style="stroke:none"/></symbol><symbol id="e" overflow="visible"><path d="M.59375 0h4.5625v-.53125C3.8125-.64062 3.76563-.67187 3.76563-1.625V-6c0-.48437 0-.75.14062-1C4.25-7.75 5.07813-8.375 6.10938-8.375c1.60937 0 1.8125 1.17188 1.8125 2.32813V-1.625c0 .95313-.0625.98438-1.42188 1.09375V0h4.5625v-.53125C9.71875-.64062 9.67188-.67187 9.67188-1.625V-6c0-.48437.01562-.71875.14062-1.01562.26563-.76563 1.0625-1.35938 2.125-1.35938 1.17188 0 1.89063.65625 1.89063 2.32813V-1.625c0 .95313-.0625.98438-1.42188 1.09375V0h4.57813v-.53125c-1.32813-.10937-1.40626-.14062-1.40626-1.09375v-4.78125c0-1.89062-1.01562-2.98437-2.78124-2.98437-1.53125 0-2.625 1.01562-3.29688 1.4375-.45312-.875-1.17187-1.4375-2.48437-1.4375-1.42188 0-2.59375.95312-3.25 1.4375l-.1875-1.4375-2.875.48437v.45313l.6875.09375c.48437.07812.625.17187.625.84375V-1.625c0 .95313-.0625.98438-1.42188 1.09375Zm0 0" style="stroke:none"/></symbol><symbol id="f" overflow="visible"><path d="M.79688 0h5.48437v-.5625C4.9375-.65625 4.45313-.79687 4.45313-1.95312v-9.78125c0-.42188.10937-.53125.57812-.53125h2.54688c1.70312 0 2.10937.4375 2.42187 2.32812h.54688v-3.03125H.8125v.5625c1.71875.14063 1.76563.26563 1.76563 1.39063V-1.875c0 1.20313-.3125 1.23438-1.78125 1.3125Zm0 0" style="stroke:none"/></symbol><symbol id="g" overflow="visible"><path d="M1.96875-5.26562c0 3.46875.85938 7.51562 4.125 7.65625v-.46875C5 1.70312 3.26563.125 3.26563-5.26562c0-5.35938 1.64062-6.96875 2.82812-7.20313v-.45312c-3.26562.125-4.125 4.17187-4.125 7.65625m0 0" style="stroke:none"/></symbol><symbol id="h" overflow="visible"><path d="M.39063 0h5.125L5.625-.53125 4.51563-.64062c-.3125-.01563-.48438-.15626-.48438-.45313 0-.125.04688-.28125.09375-.45312l1-4.54688h1.14063c.60937 0 1.14062.0625 1.40625.25.32812.17188.51562.5.60937.90625.04688.29688.04688.71875.04688 1.23438v.26562c0 .60938 0 1.3125.07812 2C8.54688-.5 9.10938 0 10.29688 0H11.75l.1875-.53125c-.8125-.07812-1.29687-.28125-1.51562-.65625-.15625-.29687-.25-.90625-.25-1.75v-.64062c0-1.3125-.17188-2.39063-1.71875-2.82813v-.03125c2.28125-.32812 3.84375-1.64062 3.84375-3.48437 0-1.34375-.57813-3-4.07813-3H3.1875l-.14062.53125 1.10937.07812c.3125.01563.45313.17188.45313.5 0 .10938-.01563.25-.04688.4375l-2.25 9.82813c-.17187.65625-.32812.84375-.78125.89062L.5-.53125Zm4.90625-6.75 1.09375-4.82812c.14062-.53125.1875-.71875 1.60937-.71875 1.20313 0 2.34375.54687 2.34375 2.17187 0 2.23438-1.45312 3.375-3.85937 3.375Zm0 0" style="stroke:none"/></symbol><symbol id="i" overflow="visible"><path d="M.48438 1.92188v.46875c3.25-.14063 4.09375-4.1875 4.09375-7.65625 0-3.48438-.84375-7.53125-4.09375-7.65625v.45312c1.17187.23438 2.78125 1.84375 2.78125 7.20313 0 5.39062-1.6875 6.96875-2.78125 7.1875m0 0" style="stroke:none"/></symbol><symbol id="j" overflow="visible"><path d="M1.6875-5.26562c0 2.14062 1.57813 3.71875 3.75 3.71875 2.07813 0 3.65625-1.57813 3.65625-3.71875 0-2.09375-1.57812-3.67188-3.65625-3.67188-2.17187 0-3.75 1.57813-3.75 3.67188m0 0" style="stroke:none"/></symbol><symbol id="k" overflow="visible"><path d="M1.59375-4.73437H6.1875v4.59375h1.09375v-4.59375H11.875v-1.09375H7.28125v-4.59375H6.1875v4.59375H1.59375Zm0 0" style="stroke:none"/></symbol><symbol id="l" overflow="visible"><path d="M2.1875-.85937c0 .65625.3125 1.07812 1.07813 1.07812 1.34375 0 2.39062-1.26562 3.01562-2.6875l-.45312-.25C5.48438-2.0625 4.67188-.75 4.15625-.75c-.21875 0-.29687-.14062-.29687-.39062 0-.17188.04687-.39063.09375-.625L6-9.28125l-.09375-.10937L2.5-8.875l-.10937.46875 1.07812.09375c.32813.01563.46875.125.46875.375 0 .125-.01562.28125-.07812.48438L2.28125-1.60937c-.07812.28124-.09375.51562-.09375.75m2.40625-11.28125c0 .70312.48438 1.0625 1.03125 1.0625.73438 0 1.20313-.5 1.20313-1.25 0-.73438-.5-1.03125-1.01563-1.03125-.79687 0-1.21875.625-1.21875 1.21875m0 0" style="stroke:none"/></symbol><symbol id="p" overflow="visible"><path d="M1.59375-4.73437H11.875v-1.09375H1.59375Zm0 0" style="stroke:none"/></symbol><symbol id="m" overflow="visible"><path d="M.5-1.96875C.5-.90625 1.125-.0625 2.73438.10938c.5625.07812 1.1875.125 1.1875.46875 0 .67187-.73438 1.28125-1.04688 1.5625l.1875.26562C3.70313 2.03125 5.17188 1 5.17188-.14062c0-.64063-.625-.78125-1.34375-.95313-.89063-.23437-1.92188-.57812-1.92188-1.625C1.92188-4.03125 3-5 4.20313-5.15625c.28125.01563.48437.10938.70312.10938.26563 0 .40625-.20313.40625-.53125 0-.17188-.07812-.23438-.23437-.23438-.28125 0-.34375.07813-.71875.07813-.65625 0-.84375-.46875-.84375-.89063 0-.67187.25-1.20312.90625-1.60937.20312.01562.51562.04687.73437.04687.54688 0 1.21875-.15625 1.21875-.82812 0-.14063-.125-.28125-.42187-.28125-.53125 0-.98438.09375-1.79688.60937-.45312-.26562-.625-.32812-.625-.5625 0-.14062.0625-.21875.17188-.39062L3.42188-9.75c-.46875.14063-.89063.3125-.89063.64063 0 .375.5.51562 1.20313.71875C2.875-7.79687 2.3125-7.35937 2.3125-6.65625c0 .48438.32813 1 1.40625 1.23438C.95313-4.65625.5-3.51562.5-1.96875m0 0" style="stroke:none"/></symbol><symbol id="n" overflow="visible"><path d="M.375-.15625.53125 0H6.0625l.48438-1.85937-.39063-.07813c-.3125.70313-.54687.79688-1.07812.79688H1.73438c.21874-.625.90625-1.5 2.17187-2.35938C5.23438-4.39062 6.1875-5 6.1875-6.4375c0-1.8125-1.25-2.45312-2.6875-2.45312-1.78125 0-2.79687 1.03125-2.79687 1.8125 0 .48437.53125.70312.8125.70312.25 0 .375-.14062.4375-.39062.20312-.92188.6875-1.64063 1.45312-1.64063.92188 0 1.21875.79688 1.21875 1.73438 0 1.26562-.57812 2.10937-1.79687 3.15625C1.15625-2.07812.57813-1.125.375-.15625m0 0" style="stroke:none"/></symbol><symbol id="o" overflow="visible"><path d="M.9375-1.40625c0 .78125.35938 1.5625 1.26563 1.5625 1.4375 0 2.59375-1.60937 3.34375-2.90625h.01562l-.39062 1.40625q-.14063.42188-.14063.75c0 .5.25.75.76563.75 1.04687 0 1.79687-.92187 2.28125-1.9375l-.34375-.20312c-.26563.5-.8125 1.375-1.15625 1.375-.15625 0-.20313-.09376-.20313-.25 0-.10938.03125-.28126.07813-.45313L7.8125-6.45312H6.54688l-.0625.14062c-.21875-.14062-.60938-.26562-.95313-.26562-3.125 0-4.59375 3.45312-4.59375 5.17187m1.46875-.04687c0-1.42188 1.25-4.60938 3.17188-4.60938.3125 0 .5625.09375.75.25-.23438.96875-.6875 2.26563-1.375 3.3125C4.25-1.42187 3.5-.60937 2.92188-.60937c-.40625 0-.51563-.35938-.51563-.84375m0 0" style="stroke:none"/></symbol><clipPath id="c"><path d="M256 26h2v227.17578h-2Zm0 0"/></clipPath></defs><path d="M-226.77483.0007h453.149" style="fill:none;stroke-width:.3985;stroke-linecap:butt;stroke-linejoin:miter;stroke:#000;stroke-opacity:1;stroke-miterlimit:10" transform="matrix(.9982 0 0 -.9982 256.85232 196.38742)"/><path d="M-2.07161 2.39171C-1.69203.95554-.85067.27855-.0015.00071-.85067-.27715-1.69203-.95806-2.07161-2.3903" style="fill:none;stroke-width:.3985;stroke-linecap:round;stroke-linejoin:round;stroke:#000;stroke-opacity:1;stroke-miterlimit:10" transform="matrix(.9982 0 0 -.9982 483.02102 196.38742)"/><use xlink:href="#a" x="490.24381" y="202.742" style="fill:#000;fill-opacity:1"/><use xlink:href="#b" x="501.89907" y="202.742" style="fill:#000;fill-opacity:1"/><g clip-path="url(#c)"><path d="M-.00076-56.69477v226.37883" style="fill:none;stroke-width:.3985;stroke-linecap:butt;stroke-linejoin:miter;stroke:#000;stroke-opacity:1;stroke-miterlimit:10" transform="matrix(.9982 0 0 -.9982 256.85232 196.38742)"/></g><path d="M-2.07199 2.39177C-1.69239.9556-.85104.2786-.00186.00076-.85104-.27708-1.6924-.958-2.07198-2.39025" style="fill:none;stroke-width:.3985;stroke-linecap:round;stroke-linejoin:round;stroke:#000;stroke-opacity:1;stroke-miterlimit:10" transform="matrix(0 -.9982 -.9982 0 256.85232 26.81064)"/><use xlink:href="#d" x="245.13738" y="19.58721" style="fill:#000;fill-opacity:1"/><use xlink:href="#e" x="251.32302" y="19.58721" style="fill:#000;fill-opacity:1"/><path d="M-170.07936.0007h340.16111v113.38704h-340.1611Zm0 0h283.06648" style="fill:none;stroke-width:.3985;stroke-linecap:butt;stroke-linejoin:miter;stroke:#ec008c;stroke-opacity:1;stroke-miterlimit:10" transform="matrix(.9982 0 0 -.9982 256.85232 196.38742)"/><path d="M-2.07139 2.39171C-1.6918.95554-.85045.27855-.00127.00071-.85045-.27715-1.6918-.95806-2.07139-2.3903" style="fill:none;stroke-width:.3985;stroke-linecap:round;stroke-linejoin:round;stroke:#ec008c;stroke-opacity:1;stroke-miterlimit:10" transform="matrix(.9982 0 0 -.9982 369.8372 196.38742)"/><path d="M170.08175.0007v84.64015" style="fill:none;stroke-width:.3985;stroke-linecap:butt;stroke-linejoin:miter;stroke:#ec008c;stroke-opacity:1;stroke-miterlimit:10" transform="matrix(.9982 0 0 -.9982 256.85232 196.38742)"/><path d="M-2.07085 2.39012C-1.69518.95786-.84991.28086-.00073-.0009c-.84918-.27783-1.69445-.95483-2.07012-2.391" style="fill:none;stroke-width:.3985;stroke-linecap:round;stroke-linejoin:round;stroke:#ec008c;stroke-opacity:1;stroke-miterlimit:10" transform="matrix(0 -.9982 -.9982 0 426.62802 111.69849)"/><path d="M170.08175 113.38774h-283.0704" style="fill:none;stroke-width:.3985;stroke-linecap:butt;stroke-linejoin:miter;stroke:#ec008c;stroke-opacity:1;stroke-miterlimit:10" transform="matrix(.9982 0 0 -.9982 256.85232 196.38742)"/><path d="M-2.07379 2.3905C-1.69419.95826-.84893.27735.00025-.0005-.84893-.27834-1.6942-.95534-2.0738-2.39151" style="fill:none;stroke-width:.3985;stroke-linecap:round;stroke-linejoin:round;stroke:#ec008c;stroke-opacity:1;stroke-miterlimit:10" transform="matrix(-.9982 0 0 .9982 143.86744 83.20363)"/><path d="M-170.07936 113.38774V28.74368" style="fill:none;stroke-width:.3985;stroke-linecap:butt;stroke-linejoin:miter;stroke:#ec008c;stroke-opacity:1;stroke-miterlimit:10" transform="matrix(.9982 0 0 -.9982 256.85232 196.38742)"/><path d="M-2.0721 2.39251C-1.69251.95634-.85116.27935.00193.00151-.85116-.28026-1.6925-.95726-2.0721-2.38952" style="fill:none;stroke-width:.3985;stroke-linecap:round;stroke-linejoin:round;stroke:#ec008c;stroke-opacity:1;stroke-miterlimit:10" transform="matrix(0 .9982 .9982 0 87.07662 167.8926)"/><g style="fill:#ec008c;fill-opacity:1"><use xlink:href="#f" x="433.65353" y="145.08663"/><use xlink:href="#g" x="445.07012" y="145.08663"/><use xlink:href="#h" x="451.61377" y="145.08663"/></g><use xlink:href="#i" x="465.13865" y="145.08663" style="fill:#ec008c;fill-opacity:1"/><use xlink:href="#j" x="421.24583" y="200.8524" style="fill:#000;fill-opacity:1"/><use xlink:href="#h" x="433.65353" y="216.34255" style="fill:#000;fill-opacity:1"/><use xlink:href="#j" x="421.24583" y="87.66984" style="fill:#000;fill-opacity:1"/><use xlink:href="#h" x="433.65353" y="69.02435" style="fill:#000;fill-opacity:1"/><use xlink:href="#k" x="449.92316" y="69.02435" style="fill:#000;fill-opacity:1"/><use xlink:href="#l" x="466.13313" y="69.02435" style="fill:#000;fill-opacity:1"/><use xlink:href="#m" x="480.34161" y="59.7051" style="fill:#000;fill-opacity:1"/><path d="M.0006-.00004h7.5585" style="fill:none;stroke-width:.548;stroke-linecap:butt;stroke-linejoin:miter;stroke:#000;stroke-opacity:1;stroke-miterlimit:10" transform="matrix(1.99641 0 0 -1.99641 476.15114 63.75382)"/><g style="fill:#000;fill-opacity:1"><use xlink:href="#n" x="476.15114" y="76.02577"/><use xlink:href="#o" x="483.08463" y="76.02577"/></g><use xlink:href="#j" x="81.69915" y="87.66984" style="fill:#000;fill-opacity:1"/><g style="fill:#000;fill-opacity:1"><use xlink:href="#p" x="6.62908" y="69.02435"/><use xlink:href="#h" x="20.07441" y="69.02435"/></g><use xlink:href="#k" x="36.34404" y="69.02435" style="fill:#000;fill-opacity:1"/><use xlink:href="#l" x="52.55401" y="69.02435" style="fill:#000;fill-opacity:1"/><use xlink:href="#m" x="66.76499" y="59.7051" style="fill:#000;fill-opacity:1"/><path d="M.00085-.00004h7.55848" style="fill:none;stroke-width:.548;stroke-linecap:butt;stroke-linejoin:miter;stroke:#000;stroke-opacity:1;stroke-miterlimit:10" transform="matrix(1.99641 0 0 -1.99641 62.57253 63.75382)"/><g style="fill:#000;fill-opacity:1"><use xlink:href="#n" x="62.57253" y="76.02577"/><use xlink:href="#o" x="69.50602" y="76.02577"/></g><use xlink:href="#j" x="81.69915" y="200.8524" style="fill:#000;fill-opacity:1"/><g style="fill:#000;fill-opacity:1"><use xlink:href="#p" x="53.71844" y="216.34255"/><use xlink:href="#h" x="67.16376" y="216.34255"/></g><use xlink:href="#j" x="251.47299" y="87.66984" style="fill:#000;fill-opacity:1"/><use xlink:href="#l" x="263.87969" y="69.02435" style="fill:#000;fill-opacity:1"/><use xlink:href="#m" x="278.07417" y="59.7051" style="fill:#000;fill-opacity:1"/><path d="M-.00045-.00004H7.56" style="fill:none;stroke-width:.548;stroke-linecap:butt;stroke-linejoin:miter;stroke:#000;stroke-opacity:1;stroke-miterlimit:10" transform="matrix(1.99641 0 0 -1.99641 273.8837 63.75382)"/><g style="fill:#000;fill-opacity:1"><use xlink:href="#n" x="273.88371" y="76.02577"/><use xlink:href="#o" x="280.8172" y="76.02577"/></g></svg>