<svg xmlns="http://www.w3.org/2000/svg" xmlns:xlink="http://www.w3.org/1999/xlink" width="638.592pt" height="128.356pt" viewBox="0 0 638.592 128.356"><defs><clipPath id="a"><path d="M1.39063 63h635.40625v2H1.39063Zm0 0"/></clipPath><clipPath id="b"><path d="M633 60h3.79688v8H633Zm0 0"/></clipPath><clipPath id="c"><path d="M318 0h2v127.71484h-2Zm0 0"/></clipPath><clipPath id="d"><path d="M1.39063 61H2v6h-.60937Zm0 0"/></clipPath><clipPath id="e"><path d="M636 61h.79688v6H636Zm0 0"/></clipPath><clipPath id="f"><path d="M316 127h6v.71484h-6Zm0 0"/></clipPath><clipPath id="k"><path d="M374 31h262.79688v66H374Zm0 0"/></clipPath><clipPath id="l"><path d="M1.39063 31H264v66H1.39063Zm0 0"/></clipPath><path id="g" d="M.59375-5.03125c0 3.0625 1.76563 5.3125 5.46875 5.3125C9.35938.28125 10.96875-1.40625 12-3.25c1-1.82812 1.1875-3.73437 1.1875-4.46875 0-3.82812-2.32812-5.46875-5.39062-5.46875-2.98438 0-4.82813 1.64063-5.90625 3.4375C.85938-8.03125.59375-6.26562.59375-5.03125m1.96875.75c0-1.5625.29688-3.3125 1.14063-5.125.85937-1.75 2.1875-3.125 4.17187-3.125 2.03125 0 3.34375 1.20313 3.34375 3.84375 0 1.07813-.09375 2.59375-.875 4.57813-.76562 2-2.03125 3.73437-4.45312 3.73437-2.03125 0-3.32813-1.3125-3.32813-3.90625m0 0"/><path id="h" d="M-7.14062-12.39062h3.79687l-.76562 1.1875.54687.46875c.75-.82813 1.625-1.42188 2.76563-1.92188v-.51562C-1.96875-13.65625-2.8125-14.25-3.5625-15.09375l-.54687.51563.76562 1.1875h-3.79687Zm0 0"/><path id="i" d="M2.14063-.85937c0 .65625.3125 1.07812 1.07812 1.07812 1.34375 0 2.375-1.26562 3-2.67187l-.45312-.26563C5.4375-2.0625 4.625-.75 4.10938-.75c-.21875 0-.29688-.14062-.29688-.375 0-.1875.03125-.40625.09375-.64062l2.04688-7.5-.10938-.09375-3.39062.51562-.10938.45313 1.0625.10937c.34375.01563.48438.10938.48438.375 0 .10938-.03125.26563-.07813.46875L2.23438-1.60937c-.07813.28124-.09375.51562-.09375.75m0 0"/><path id="j" d="M-1.39062 3.3125c0 .98438 1.3125 1.1875 1.98437 1.1875.60938 0 1.20313-.20312 1.67188-.60937C3.10938 3.10938 3.625 1.92188 4.125-.3125l1.9375-8.95312-.09375-.09375-3.54687.5625-.125.46875c1.23437.0625 1.65625.09375 1.65625.39062 0 .14063-.03125.26563-.0625.42188L1.70313 2.95313c-.10938.57812-.28126.85937-.51563.85937-.75 0-1.125-1.45312-1.6875-1.45312-.46875 0-.89062.59375-.89062.95312m0 0"/></defs><g clip-path="url(#a)"><path fill="none" stroke="#000" stroke-miterlimit="10" stroke-width=".79303" d="M1.78508 63.85938h633.82437"/></g><g clip-path="url(#b)"><path fill="none" stroke="#000" stroke-linecap="round" stroke-linejoin="round" stroke-miterlimit="10" stroke-width=".79303" d="M633.46875 60.76172c.46484 1.85937 1.4961 2.73437 2.53906 3.09766-1.04297.35937-2.07422 1.23828-2.53906 3.09375"/></g><g clip-path="url(#c)"><path fill="none" stroke="#000" stroke-miterlimit="10" stroke-width=".79303" d="M319.09375 127.32033V1.18748"/></g><path fill="none" stroke="#000" stroke-linecap="round" stroke-linejoin="round" stroke-miterlimit="10" stroke-width=".79303" d="M315.9961 3.32813c1.85937-.46094 2.73437-1.4961 3.09765-2.53516.35937 1.03906 1.23828 2.07422 3.09375 2.53516"/><g clip-path="url(#d)"><path fill="none" stroke="#000" stroke-miterlimit="10" stroke-width=".39651" d="M1.78508 61.74219v4.23047"/></g><path fill="none" stroke="#000" stroke-miterlimit="10" stroke-width=".39651" d="M22.93743 61.74219v4.23047m21.15234-4.23047v4.23047m21.15626-4.23047v4.23047m21.15235-4.23047v4.23047m21.15625-4.23047v4.23047m21.15235-4.23047v4.23047m21.15235-4.23047v4.23047m21.15626-4.23047v4.23047m21.15235-4.23047v4.23047m21.15626-4.23047v4.23047m21.15234-4.23047v4.23047m21.15626-4.23047v4.23047m21.15235-4.23047v4.23047m21.15235-4.23047v4.23047m42.3086-4.23047v4.23047m21.15625-4.23047v4.23047m21.15235-4.23047v4.23047m21.15235-4.23047v4.23047m21.15625-4.23047v4.23047m21.15236-4.23047v4.23047m21.15625-4.23047v4.23047m21.15235-4.23047v4.23047m21.15626-4.23047v4.23047m21.15235-4.23047v4.23047m21.15234-4.23047v4.23047m21.15626-4.23047v4.23047m21.15235-4.23047v4.23047m21.15625-4.23047v4.23047"/><g clip-path="url(#e)"><path fill="none" stroke="#000" stroke-miterlimit="10" stroke-width=".39651" d="M636.40242 61.74219v4.23047"/></g><g clip-path="url(#f)"><path fill="none" stroke="#000" stroke-miterlimit="10" stroke-width=".39651" d="M321.20703 127.32033h-4.23047"/></g><path fill="none" stroke="#000" stroke-miterlimit="10" stroke-width=".39651" d="M321.20703 106.16407h-4.23047m4.23047-21.15235h-4.23047m4.23047-42.3086h-4.23047m4.23047-21.15235h-4.23047M321.20703.39452h-4.23047"/><use xlink:href="#g" x="298.3093" y="84.04632"/><path fill="none" stroke="#000" stroke-miterlimit="10" stroke-width=".79303" d="M319.09375 63.85938h20.35938"/><path fill="none" stroke="#000" stroke-linecap="round" stroke-linejoin="round" stroke-miterlimit="10" stroke-width=".79303" d="M337.3125 60.76172c.46484 1.85937 1.4961 2.73437 2.53906 3.09766-1.04297.35937-2.07422 1.23828-2.53906 3.09375"/><use xlink:href="#h" x="335.25095" y="85.94877"/><use xlink:href="#i" x="326.72572" y="86.16767"/><path fill="none" stroke="#000" stroke-miterlimit="10" stroke-width=".79303" d="M319.09375 63.85938V43.49609"/><path fill="none" stroke="#000" stroke-linecap="round" stroke-linejoin="round" stroke-miterlimit="10" stroke-width=".79303" d="M315.9961 45.63672c1.85937-.46094 2.73437-1.4961 3.09765-2.53516.35937 1.03907 1.23828 2.07422 3.09375 2.53516"/><use xlink:href="#h" x="313.69311" y="58.46466"/><use xlink:href="#j" x="305.16987" y="58.68357"/><path fill="none" stroke="red" stroke-miterlimit="10" stroke-width=".79303" d="M252.6367 63.85938s.48047.48046.66797.66406c.1836.1875.48047.48437.66797.66797l.66797.66797c.1836.18359.48047.47656.66797.66406.1836.1836.48047.47656.66797.66016.18359.18359.48047.47656.66796.65624.1836.1836.48047.47266.66797.65235.1836.1836.48047.47266.66797.65234.1836.1797.48047.46485.66797.64453.1836.17579.48047.46094.66406.63672.1875.17578.48438.45704.66797.63282.1875.17187.48438.44921.66797.62109.1875.17187.48438.44922.66797.61719.1875.17187.48438.4414.66797.60937.1875.16797.48438.4336.66797.59766.1875.16406.48437.42969.66797.58984.1875.16407.48437.42188.66797.57813.1875.16015.48437.41406.66797.57031.1875.15625.48437.40234.66796.55469.1875.15625.48438.39844.66797.54687.1875.14844.48438.38672.66797.53516.1875.14453.48438.375.66797.51562.1875.14454.48438.3711.66797.50782.1875.14062.48438.35937.66797.49219.1836.13671.48437.34765.66797.47656.1836.13281.48437.33984.66797.46484s.48047.32422.66797.44531c.18359.125.48047.31641.66797.4336.18359.11719.48046.30078.66796.41406.1836.11328.48047.28906.66797.39844.1836.10937.48047.27734.66797.38281.1836.10156.48047.26563.66797.36328.1836.09766.48047.2539.66797.34766.1836.08984.48047.23828.66797.32422.1836.08984.48047.22656.66797.3125.1836.08203.48047.21094.66797.28906.1836.07813.48047.19922.66797.27344.18359.07031.48046.1836.66796.25.1836.0664.48047.17187.66797.23437.1836.0586.48047.15235.66797.21094.1836.05469.48047.14063.66407.1914.1875.05079.48437.12891.66796.17188.1875.04688.48438.11328.66797.15235.1875.03906.48438.09765.66797.1328.1875.03126.48438.08204.66797.10938.1875.02735.48438.0664.66797.08985.1875.01953.48437.05078.66797.0664.1875.01563.48437.03907.66797.04688.1875.01172.48437.02344.66797.02734.1875.0039.48437.00781.66797.00781.1875-.0039.48437-.01171.66796-.01562.1875-.00781.48438-.02344.66797-.03906.1875-.01172.48438-.03907.66797-.0586.1875-.01562.48438-.05078.66797-.07812.1836-.02344.48438-.0664.66797-.09766.1836-.03125.48437-.08594.66797-.1211.1836-.03905.48437-.10155.66797-.14062.1836-.04297.48047-.11328.66797-.16406.18359-.04687.48047-.1289.66796-.17969.1836-.05468.48047-.14453.66797-.20312.1836-.0586.48047-.15625.66797-.22266.1836-.0625.48047-.17187.66797-.24219.1836-.0703.48047-.18359.66797-.26171.1836-.07422.48047-.19922.66797-.28125.1836-.07813.48047-.21485.66797-.29688.1836-.08594.48047-.23047.66797-.32031.1836-.08985.48047-.24219.66797-.33594.18359-.09766.48047-.2539.66797-.35547.18359-.10156.48046-.26562.66796-.3711.1836-.10546.48047-.28124.66797-.39062.1836-.11328.48047-.29297.66407-.40625.1875-.11718.48437-.30469.66796-.42578.1875-.11719.48438-.3125.66797-.4375.1875-.125.48438-.32812.66797-.45703.1875-.125.48438-.33594.66797-.46875.1875-.13281.48438-.34766.66797-.48438.1875-.13672.48438-.35937.66797-.5.1875-.14062.48437-.36718.66797-.51172.1875-.14453.48437-.3789.66797-.52734.1875-.14844.48437-.38672.66797-.53906.1875-.15235.48437-.39453.66797-.55078.1875-.15625.48437-.40625.66796-.5625.1875-.15625.48438-.41407.66797-.57422.1875-.16016.48438-.42188.66797-.58203.1836-.16407.48438-.4297.66797-.59766.1836-.16406.48438-.4336.66797-.60156.1836-.16797.48438-.4414.66797-.61328.1836-.17188.48047-.44532.66797-.6211.1836-.17187.48047-.44922.66797-.625.1836-.17578.48047-.46093.66797-.63672.18359-.17578.48046-.46093.66796-.64062.1836-.17969.48047-.46485.66797-.64844.1836-.17969.48047-.46875.66797-.64844.1836-.1836.48047-.47656.66797-.65625.1836-.1836.48047-.47656.66797-.66015.1836-.1836.48047-.47657.66797-.66407.1836-.18359.48047-.48046.66797-.66406.1836-.1836.48047-.48047.66797-.66406.18359-.1875.48047-.48438.66797-.66797.18359-.1875.48046-.48438.66797-.66797.18359-.1875.48046-.48437.66406-.66797.1875-.1836.48437-.48047.66797-.66797.1875-.1836.48437-.48047.66797-.66406.1875-.1836.48437-.47656.66796-.66016.1875-.18359.48438-.47656.66797-.66015.1875-.1836.48438-.47657.66797-.65625.1875-.1836.48438-.47266.66797-.65235.1875-.17968.48438-.46875.66797-.64453.1875-.17969.48437-.46484.66797-.64453.1875-.17578.48437-.45703.66797-.63281.1875-.17578.48437-.45313.66797-.6289.1875-.17188.48437-.44923.66796-.6211.1875-.16797.48438-.4414.66797-.60938.1875-.17187.48438-.4414.66797-.60547.1836-.16797.48438-.42968.66797-.59375.1836-.16406.48438-.42578.66797-.58593.1836-.16016.48438-.41407.66797-.57422.1836-.15625.48047-.40625.66797-.5625.1836-.15235.48047-.39844.66797-.55079.1836-.15234.48047-.39062.66797-.53906.1836-.14843.48047-.38281.66797-.52734.18359-.14453.48046-.3711.66796-.51172.1836-.14062.48047-.36328.66797-.5.1836-.13672.48047-.35156.66797-.48438.1836-.1328.48047-.34375.66797-.47265.1836-.1289.48047-.33203.66797-.45313.1836-.125.48047-.32031.66797-.4414.1836-.1211.48047-.3086.66797-.42188.1836-.11719.48047-.29687.66797-.41016.1836-.10937.48047-.28125.66797-.39062.18359-.10547.48047-.26953.66406-.3711.1875-.10156.48437-.2578.66797-.35546.1875-.09375.48437-.2461.66797-.33594.1875-.08984.48437-.23438.66797-.32031.1875-.08594.48437-.21875.66796-.30078.1875-.07813.48438-.20313.66797-.28125.1875-.07422.48438-.19141.66797-.26172.1875-.07032.48438-.17578.66797-.2422.1875-.0625.48438-.16405.66797-.22265.1875-.0586.48438-.14843.66797-.20312.1875-.05078.48437-.13281.66797-.17969.1875-.05078.48437-.1211.66797-.16406.1875-.04297.48437-.10547.66797-.14063.1875-.03515.48437-.08984.66796-.1211.1875-.03124.48438-.0742.66797-.10155.1836-.02344.48438-.0586.66797-.07813.1836-.01953.48438-.04297.66797-.0586.1836-.01171.48047-.02734.66797-.03515.1836-.00781.48047-.01562.66797-.01562.1836-.00391.48047 0 .66797.0039.1836.0039.48047.01563.66797.02344.18359.01172.48047.03125.66797.04688.18359.01953.48046.04687.66797.0703.18359.02345.48046.0625.66796.08985.1836.02735.48047.07422.66797.10938.1836.03125.48047.08984.66797.1289.1836.03907.48047.10547.66797.15235.1836.04297.48047.12109.66797.17187.1836.05078.48047.13672.66797.1914.1836.0547.48047.15235.66797.21095.1836.0625.48047.16796.66797.23437.18359.0664.48046.17578.66406.25.1875.07422.48437.19531.66797.26953.1875.07813.48437.21094.66797.29297.1875.08203.48437.21875.66797.3086.1875.08984.48437.23437.66796.32812.1875.09375.48438.2461.66797.34375.1875.09766.48438.26172.66797.36328.1875.10547.48438.27344.66797.38281.1875.10547.48438.28516.66797.39844.1875.11328.48438.29688.66797.41406.1875.1172.48437.3086.66797.4297.1875.12109.48437.3203.66797.44921.1875.125.48437.33203.66797.46094.1875.13281.48437.34375.66796.47656.1836.13672.48438.35547.66797.49219.1836.14062.48438.36328.66797.50781.1836.14063.48438.3711.66797.51953.1836.14453.48047.38281.66797.53125.1836.15235.48047.39453.66797.54688.1836.15234.48047.39844.66797.55469.1836.15624.48047.41015.66797.5703.1836.15626.48047.41407.66797.57813.18359.16016.48047.42578.66796.58985.1836.16406.48047.42968.66797.59765.1836.16797.48047.4375.66797.60938.1836.16797.48047.4414.66797.61328.1836.17578.48047.45312.66797.625.1836.17578.48047.45703.66797.63281.1836.17578.48047.46094.66797.63672.1836.17969.48047.46484.66797.64453.1836.1797.48047.46875.66406.64844.1875.17969.48438.47266.66797.65234.1875.1836.48437.47657.66797.66016.1875.1836.48437.47656.66797.66016.1875.1836.48437.48047.66797.66406.1875.1836.48437.48047.66796.66406l.66797.66797.66797.66797"/><g clip-path="url(#k)"><path fill="none" stroke="#000" stroke-miterlimit="10" stroke-width=".79303" d="m385.5508 63.85938 1.25781 1.2578c.35156.34766.91406.90626 1.26172 1.25391.35156.34766.91016.90235 1.26172 1.2461.34765.34375.91015.89453 1.26172 1.23437.34765.33985.91015.88282 1.25781 1.21485.35156.33594.91016.86719 1.26172 1.1914.34766.32813.91016.84766 1.26172 1.16797.34765.32032.91015.82813 1.25781 1.13672.35156.3125.91016.80078 1.26172 1.10157.34766.30078.91016.77343 1.26172 1.0664.34766.28907.91016.74219 1.25781 1.01953.35156.27735.91016.71094 1.26172.97657.35156.26562.91016.67578 1.26172.92578.34766.25.91016.64062 1.25781.875.35157.23437.91016.59765 1.26172.8164s.91016.5586 1.26172.76172c.34766.20313.91016.51172 1.25781.69922.35157.1836.91407.46875 1.26172.63281.35157.16797.91016.42188 1.26172.57032.34766.14843.91016.3711 1.25781.5.35157.1289.91407.32422 1.26172.4336.35157.10937.91016.26952 1.26172.35937.34766.08984.91016.21875 1.25782.28515.35156.07032.91406.16797 1.26171.21485.35157.05078.91016.11328 1.26172.14062.34766.02735.91016.0586 1.26172.0625.34766.00781.91016.0039 1.25782-.00781.35156-.01563.91015-.05078 1.26171-.08594.34766-.03515.91016-.10547 1.26172-.16015.34766-.0547.91016-.16016 1.25782-.23438.35156-.07422.91015-.21094 1.26172-.3086.34765-.09374.91015-.26171 1.26172-.3789.34765-.11328.91015-.3164 1.2578-.44922.35157-.13672.91016-.36719 1.26173-.51953.34765-.15625.91015-.41797 1.26172-.58984.34765-.17188.91015-.46094 1.2578-.65235.35157-.1914.91017-.50781 1.26173-.71484s.91015-.55469 1.26172-.77735c.34765-.22265.91015-.59375 1.25781-.83203.35156-.24218.91016-.63672 1.26172-.89062s.91015-.67188 1.26172-.9414c.34765-.26563.91015-.70704 1.25781-.98829.35156-.28125.91406-.74219 1.26172-1.03125.35156-.29297.91016-.77344 1.26172-1.07813.34766-.30078.91015-.79687 1.25781-1.10937.35156-.3125.91406-.82422 1.26172-1.14453.35156-.32422.91016-.84766 1.26172-1.17578.34766-.32813.91016-.86329 1.25781-1.19922.35157-.33594.91407-.87891 1.26172-1.22266.35156-.33984.91016-.89062 1.26172-1.23437.34766-.34766.91016-.90235 1.26172-1.25l1.25781-1.25782c.35157-.34765.91016-.91015 1.26172-1.25781.34766-.35156.91016-.91016 1.26172-1.26172.34766-.34766.91016-.90625 1.25781-1.25.35157-.34766.91016-.90234 1.26172-1.2461.34766-.33984.91016-.89062 1.26172-1.22656.34766-.33984.91016-.8789 1.25781-1.21093.35157-.33204.91016-.85938 1.26172-1.1875.35157-.32422.91016-.83985 1.26172-1.15626.34766-.3164.91016-.8203 1.25782-1.1289.35156-.3086.91015-.79297 1.26171-1.08985.35157-.30078.91016-.76953 1.26172-1.05468.34766-.28516.91016-.73438 1.25782-1.00782.35156-.27343.91406-.70312 1.26172-.96484.35156-.25781.91015-.66406 1.26171-.91016.34766-.2461.91016-.6289 1.25782-.85937.35156-.23047.91406-.58985 1.26172-.80078.35156-.21485.91015-.54688 1.26172-.7461.34765-.19531.91015-.5 1.2578-.67969.35157-.17968.91407-.45703 1.26173-.61718.35156-.16407.91015-.40625 1.26172-.55078.34765-.14454.91015-.35938 1.2578-.48047.35157-.125.91407-.3086 1.26173-.41407.35156-.10546.91015-.2539 1.26172-.33984.34765-.08594.91015-.20312 1.26172-.26562.34765-.06641.91015-.15235 1.2578-.19532.35157-.04297.91017-.09375 1.26173-.11719.34765-.02343.91016-.04296 1.26172-.04687.34765 0 .91015.01563 1.25781.03125.35156.01953.91016.0664 1.26172.10938.34766.03906.91016.11718 1.26172.17968.34765.0586.91015.17188 1.25781.2539.35156.08204.91016.22657 1.26172.32813.35156.10157.91016.27735 1.26172.39844.34766.1211.91016.33203 1.25781.46875.35156.14063.91016.38281 1.26172.53906.35156.16016.91016.4297 1.26172.60547.34766.1797.91016.47657 1.25781.67188.35157.19531.91407.51953 1.26172.73437.35156.21094.91016.5625 1.26172.79297.34766.22657.91016.60547 1.25781.84766.35157.24219.91407.64453 1.26172.90234.35157.25782.91016.6836 1.26172.95313.34766.27344.91016.71875 1.25782 1.0039.35156.28516.91406.75 1.26171 1.04297.35157.29688.91016.78125 1.26172 1.08594.34766.3086.91016.8086 1.26172 1.1211.34766.3164.91016.83203 1.25781 1.15625.35157.32422.91016.85156 1.26172 1.17968.34766.33204.91016.8711 1.26172 1.20704.34766.33593.91016.8828 1.25782 1.22656.35156.33984.91015.89453 1.26171 1.23828.34766.34766.91016.90625 1.26172 1.2539l1.25782 1.25782c.35156.34766.91015.91016 1.26172 1.25781.35156.35156.91015.91016 1.26171 1.25781.34766.35157.91016.90626 1.25782 1.25391.35156.34375.91015.89844 1.26172 1.23828s.91015.88672 1.26172 1.22266c.34765.33594.91015.875 1.2578 1.20313.35157.33203.91017.85546 1.26173 1.17968s.91015.83594 1.26172 1.15235c.34765.3125.91015.8125 1.25781 1.11718.35156.3047.91406.78516 1.26172 1.08204.35156.29296.91016.7578 1.26172 1.03906.34765.28515.91015.72656 1.25781.9961.35156.26952.91406.6953 1.26172.94921.35156.25781.91016.66016 1.26172.89844.34765.24219.91015.61719 1.25781.84375.35156.22656.91406.57812 1.26172.78906.35156.20703.91016.53125 1.26172.72266.34766.19531.91016.49219 1.26172.66797.34765.17187.91015.4414 1.25781.59765.35156.15625.91016.39453 1.26172.53125.34766.13672.91016.34375 1.26172.46485.34766.11719.91016.28906 1.25781.39062.35157.09766.91016.2422 1.26172.32032.34766.07812.91016.1875 1.26172.24609.34766.0586.91016.13672 1.25781.17187.35157.03907.91016.08204 1.26172.09766.35157.01953.91016.02734 1.26172.02344.34766-.0039.91016-.02735 1.25781-.05078.35157-.02344.91016-.08203 1.26172-.125.35157-.04688.91016-.13672 1.26172-.20313.34766-.0664.91016-.1875 1.25781-.27344.35157-.08593.91407-.24218 1.26172-.34765.35157-.10547.91016-.29297 1.26172-.41797.34766-.1289.91016-.34766 1.25782-.49219.35156-.14453.91406-.39062 1.26172-.55469.35156-.16406.91015-.4414 1.26171-.625.34766-.18359.91016-.48828 1.25782-.6875.35156-.19921.91406-.53515 1.26172-.75.35156-.21484.91015-.57812 1.26172-.8086.34765-.23437.91015-.61718 1.26171-.86327.34766-.25.91016-.65625 1.25782-.91797.35156-.26172.91015-.69531 1.26172-.96875.34765-.27344.91015-.72656 1.26172-1.01563.34765-.28515.91015-.75781 1.2578-1.05468.35157-.29688.91016-.78907 1.26173-1.09766.34765-.3086.91015-.8125 1.26172-1.1289.34765-.31641.91015-.83595 1.2578-1.16016.35157-.32813.91016-.85938 1.26173-1.19141.34765-.33203.91015-.8711 1.26172-1.21094.34765-.33984.91015-.88672 1.2578-1.23047.35157-.34375.91017-.89844 1.26173-1.2461.35156-.34374.91016-.90234 1.26172-1.25.34765-.35155.91015-.91015 1.25781-1.26171.35156-.34766.91406-.91016 1.26172-1.25781.35156-.35157.91016-.91016 1.26172-1.25782.34766-.34765.91016-.90234 1.25781-1.24609.35156-.34766.91406-.89844 1.26172-1.23828.35156-.33985.91016-.88281 1.26172-1.21875.34766-.33594.91016-.86719 1.25781-1.19532.35157-.32812.91407-.85156 1.26172-1.17187.35156-.32031.91016-.83203 1.26172-1.14453.34766-.3086.91016-.80469 1.25781-1.10547.35157-.30469.91407-.78125 1.26172-1.07031.35157-.29297.91016-.75 1.26172-1.03125.34766-.27735.91016-.71875 1.26172-.98438.34766-.26562.91016-.67969 1.25781-.9336.35157-.2539.91016-.64452 1.26172-.8828.34766-.23829.91016-.60547 1.26172-.82813.34766-.22266.91016-.5664 1.25781-.77344.35157-.20312.91016-.51953 1.26172-.70703.34766-.1875.91016-.47656 1.26172-.64453.34766-.17188.91016-.42969 1.25782-.58203.35156-.15235.91015-.3789 1.26171-.51172s.91016-.33203 1.26172-.44531c.34766-.11329.91016-.27735 1.25782-.3711.35156-.09375.91015-.22656 1.26172-.30078s.91015-.17578 1.26171-.22656c.34766-.05078.91016-.1211 1.25782-.15235.35156-.03125.91406-.0664 1.26172-.07812.35156-.01172.91015-.01172 1.26172 0 .34765.00781.91015.03906 1.2578.07031.35157.03125.91407.09766 1.26173.14844.35156.05078.91015.14844 1.26172.21875.34765.07422.91015.20312 1.25781.29687.35156.08985.91406.25391 1.26172.3672.35156.11327.91016.30859 1.26172.4375.34765.1328.91015.35937 1.25781.5078.35156.15235.91406.41016 1.26172.57813.35156.16797.91016.45313 1.26172.64062.34765.1875.91015.5 1.26172.70704.34765.20312.91015.54297 1.25781.76562.35156.21875.91016.58594 1.26172.82422.34766.23438.91016.6289 1.26172.8789.34765.25 1.25781.9336 1.25781.9336"/></g><g clip-path="url(#l)"><path fill="none" stroke="#000" stroke-miterlimit="10" stroke-width=".79303" d="M1.78508 77.61329s.91015.67968 1.25781.93359c.35156.25.91016.64062 1.26172.8789.34766.23829.91016.60547 1.26172.82422.34765.22266.91015.5625 1.25781.76954.35156.20312.91016.51562 1.26172.70312s.91016.47656 1.26172.64453c.34765.16797.91016.42578 1.25781.57813.35156.14844.91016.375 1.26172.50781s.91016.32813 1.26172.4414c.34766.10938.91016.27344 1.25781.3672.35156.08984.91406.22265 1.26172.29687.35156.07031.91016.16797 1.26172.22266.34766.05078.91016.11718 1.25781.14843.35157.03125.91407.0625 1.26172.07032.35157.01171.91016.01171 1.26172 0 .34766-.01172.91016-.04297 1.25781-.07813.35157-.03125.91407-.09766 1.26172-.14844.35157-.05468.91016-.15234 1.26172-.22656.34766-.07031.91016-.20703 1.26172-.30078.34766-.08984.91016-.25781 1.25781-.36719.35157-.11328.91016-.3125 1.26172-.44531.34766-.13281.91016-.35938 1.26172-.51172.34766-.15234.91016-.41016 1.25782-.57812.35156-.17188.91015-.45704 1.26171-.64454.34766-.1875.91016-.5039 1.26172-.71093.34766-.20313.91016-.54688 1.25782-.76954.35156-.21875.91015-.58984 1.26171-.82812.34766-.23438.91016-.6289 1.26172-.8789.34766-.25391.91016-.66798 1.25782-.9375.35156-.26563.91015-.70313 1.26172-.98048.35156-.28125.91015-.73828 1.26172-1.03125.34765-.28906.91015-.76562 1.2578-1.0664.35157-.3047.91016-.79688 1.26173-1.10938.35156-.3125.91015-.82031 1.26172-1.14062.34765-.32032.91015-.84375 1.2578-1.17188.35157-.32812.91407-.86328 1.26173-1.19922.35156-.33203.91015-.875 1.26172-1.21875.34765-.33984.91015-.88672 1.25781-1.23437.35156-.34375.91406-.89844 1.26172-1.2461.35156-.34765.91016-.90625 1.26172-1.25781l1.25781-1.25781c.35156-.35157.91406-.91016 1.26172-1.26172.35156-.34766.91016-.90625 1.26172-1.2539.34766-.34376.91016-.89845 1.26172-1.2422.34765-.34375.91015-.89062 1.25781-1.23047.35156-.33984.91016-.8789 1.26172-1.21093.34766-.33594.91016-.86329 1.26172-1.19141.34766-.32813.91016-.84375 1.25781-1.16016.35156-.32031.91016-.82422 1.26172-1.1328.34766-.3086.91016-.79688 1.26172-1.09767.34766-.29687.91016-.76953 1.25781-1.05468.35157-.28907.91016-.7422 1.26172-1.01563.35156-.27734.91016-.70703 1.26172-.96875.34766-.26172.91016-.67187 1.25781-.91797.35157-.25.91016-.63281 1.26172-.86719.35157-.23046.91016-.58984 1.26172-.80859.34766-.21484.91016-.55078 1.25781-.75.35157-.19922.91407-.50781 1.26172-.6875.35157-.1836.91016-.46094 1.26172-.625.34766-.16406.91016-.41406 1.25782-.5586.35156-.14843.91406-.36328 1.26172-.49218.35156-.125.91015-.3125 1.26171-.41797.34766-.10938.91016-.26172 1.25782-.35156.35156-.08594.91406-.20703 1.26172-.27344.35156-.0664.91015-.15625 1.26171-.20313.34766-.04687.91016-.10156 1.25782-.1289.35156-.02344.91406-.04688 1.26172-.05078.35156-.00391.91015.0039 1.26172.01953.34765.01953.91015.0625 1.26171.09765.34766.03907.91016.1172 1.25782.17188.35156.0586.91015.16797 1.26172.2461.34765.07812.91015.22265 1.26172.3203.34765.09766.91015.27344 1.2578.39063.35157.11719.91016.32422 1.26173.46094.34765.14062.91015.375 1.26172.53125.34765.15625.91015.42187 1.2578.59765.35157.17579.91017.47266 1.26173.66407.35156.1914.91016.51562 1.26172.72265.34765.21094.91015.5625 1.25781.78907.35156.22656.91016.60156 1.26172.84375.35156.23828.91016.64062 1.26172.89453.34765.25781.91016.67969 1.25781.94922.35156.26953.91406.71484 1.26172.9961.35156.28124.91016.74609 1.26172 1.03905.34766.29297.91016.77735 1.25781 1.08204.35156.30468.91406.80078 1.26172 1.11718.35156.3125.91016.82813 1.26172 1.14844.34766.32422.91016.85156 1.25781 1.17969.35157.33203.91407.86719 1.26172 1.20312.35156.33985.91016.88282 1.26172 1.22266.34766.34375.91016.89453 1.26172 1.24219.34766.34375.91016.90234 1.25781 1.25.35157.34765.91016.90625 1.26172 1.25781.34766.34766.91016.91016 1.26172 1.25781.34766.35157.91016.91016 1.25781 1.25782.35157.35156.91016.90625 1.26172 1.2539.34766.34375.91016.89844 1.26172 1.2422.34766.33984.91016.88671 1.25782 1.22265.35156.33984.91015.875 1.26171 1.20703.34766.33203.91016.85938 1.26172 1.1836.34766.32421.91016.83593 1.25782 1.15234.35156.3164.91015.8164 1.26171 1.125.35157.30469.91016.78906 1.26172 1.08594.34766.29296.91016.76172 1.25782 1.04297.35156.28515.91015.73046 1.26172 1.0039.35156.26953.91015.69531 1.26171.95313.34766.2578.91016.66406 1.25782.90625.35156.24218.91406.6211 1.26172.84765.35156.23047.91015.58204 1.26172.79688.34765.21094.91015.53906 1.2578.73047.35157.19531.91407.4961 1.26173.67187.35156.17969.91015.44922 1.26172.60938.34765.15625.91015.39844 1.25781.53906.35156.14063.91406.34766 1.26172.46875.35156.1211.91016.30078 1.26172.40234.34765.10157.91015.2461 1.26172.32813.34765.08203.91015.19531 1.25781.25781.35156.0586.91016.14063 1.26172.17969.34765.03906.91016.08594 1.26172.10547.34765.01953.91015.03515 1.25781.03515.35156-.0039.91016-.02343 1.26172-.04296.34766-.02344.91016-.07422 1.26172-.1172.34765-.04296.91015-.1289 1.25781-.1953.35156-.0625.91016-.1797 1.26172-.26563.35156-.08203.91016-.23437 1.26172-.33984.34766-.10157.91016-.28516 1.25781-.41016.35157-.1211.91016-.33594 1.26172-.48047.35156-.14062.91016-.38672 1.26172-.55078.34766-.16016.91016-.4336 1.25781-.61328.35157-.17969.91407-.48438 1.26172-.67969.35157-.19922.91016-.53125 1.26172-.74219.34766-.21484.91016-.57422 1.25781-.80468.35157-.23047.91407-.61329 1.26172-.85547.35157-.2461.91016-.65235 1.26172-.91407.34766-.2578.91016-.6875 1.25782-.96093.35156-.27344.91406-.72266 1.26171-1.00782.35157-.28515.91016-.7539 1.26172-1.05078.34766-.30078.91016-.78515 1.26172-1.09375.34766-.3086.91016-.8086 1.25782-1.125.35156-.3164.91015-.83594 1.26171-1.16015.34766-.32422.91016-.85157 1.26172-1.1875.34766-.33204.91016-.8711 1.25782-1.20704.35156-.33984.91015-.88672 1.26172-1.22656.34765-.34375.91015-.89844 1.26171-1.2461.34766-.34374.91016-.90234 1.25782-1.25l1.26172-1.26171c.34765-.34766.91015-.91016 1.26172-1.25782.34765-.35156.91015-.91015 1.2578-1.2578.35157-.34767.91016-.90626 1.26173-1.25.35156-.34376.91015-.89454 1.26172-1.23438.34765-.34375.91015-.88672 1.2578-1.22266.35157-.33594.91017-.8711 1.26173-1.19922.35156-.33203.91015-.85547 1.26172-1.17578.34765-.32422.91015-.83203 1.25781-1.14453.35156-.3164.91406-.8086 1.26172-1.11329.35156-.30468.91016-.78515 1.26172-1.07812.34765-.28906.91016-.75 1.25781-1.03125.35156-.28125.91406-.72266 1.26172-.99219.35156-.26562.91016-.6836 1.26172-.9375.34766-.2539.91016-.65234 1.25781-.89062.35156-.23829.91407-.61328 1.26172-.83594.35156-.22266.91016-.57031 1.26172-.77734.34766-.20704.91016-.52735 1.26172-.71485.34766-.1914.91016-.48437 1.25781-.65625.35156-.17187.91016-.4336 1.26172-.58594.34766-.15625.91016-.38672 1.26172-.52343.34766-.13282.91016-.33594 1.25781-.44922.35157-.11719.91016-.28516 1.26172-.38282.34766-.09375.91016-.23046 1.26172-.30859.34766-.07422.91016-.17969 1.25781-.23437.35157-.0547.91016-.12891 1.26172-.16016.35157-.03516.91016-.07422 1.26172-.08984.34766-.01172.91016-.01563 1.25782-.00782.35156.0039.91015.03516 1.26171.0625s.91016.08985 1.26172.13672c.34766.05078.91016.14453 1.25782.21485.35156.0703.91406.1953 1.26171.28515.35157.08985.91016.25 1.26172.35938.34766.10937.91016.30078 1.25782.42968.35156.12891.91406.35157 1.26172.5.35156.14844.91015.40235 1.26171.57032.34766.16406.91016.44531 1.25782.6328.35156.1836.91406.4961 1.26172.69532.35156.20313.91015.54297 1.26172.76172.34765.21875.91015.58203 1.2578.8164.35157.23438.91407.625 1.26173.875.35156.2461.91015.66016 1.26172.92188.34765.26563.91015.69922 1.26172.97657.34765.27734.91015.73437 1.2578 1.02343.35157.28907.91017.76172 1.26173 1.0625.34765.30079.91015.78907 1.26172 1.10157.34765.3086.91015.8164 1.25781 1.13281.35156.32031.91016.83984 1.26172 1.16797.34765.32812.91016.85937 1.26172 1.1914.34765.33594.91015.87891 1.25781 1.21876.35156.33593.91016.88671 1.26172 1.23046s.91016.89844 1.26172 1.2461c.34765.34765.91015.90625 1.25781 1.2539l1.26172 1.26172"/></g></svg>