<svg xmlns="http://www.w3.org/2000/svg" xmlns:xlink="http://www.w3.org/1999/xlink" width="324.093pt" height="284.599pt" version="1.2" viewBox="0 0 324.093 284.599"><defs><symbol id="c" overflow="visible"><path d="M1.96875-5.26562c0 3.48437.85938 7.51562 4.10938 7.65625v-.46875C4.98438 1.70312 3.26563.125 3.26563-5.26562c0-5.34375 1.64062-6.95313 2.8125-7.20313v-.45312c-3.25.14062-4.10938 4.17187-4.10938 7.65625m0 0" style="stroke:none"/></symbol><symbol id="d" overflow="visible"><path d="m2.1875-8.40625 1.15625.09375c.28125.03125.35938.125.35938.34375 0 .14063-.03125.3125-.07813.5625l-1.14062 5.1875c-.07813.34375-.125.65625-.125.92188 0 1.0625.5625 1.51562 1.42187 1.51562C5.39063.21875 7-1.26562 8.28125-3c1.28125-1.70312 2.17188-3.78125 2.1875-4.9375 0-.73437-.40625-1.4375-.57812-1.4375-.45313 0-.96875.15625-1.35938.39063.17188.65625.23438 1.35937.23438 2.32812C8.60938-4.10937 6.23438-.75 4.70313-.75h-.03125c-.375 0-.65625-.26562-.65625-.79687 0-.14063.01562-.32813.0625-.5l1.625-7.23438-.09375-.09375-3.29688.51563Zm0 0" style="stroke:none"/></symbol><symbol id="e" overflow="visible"><path d="M1.59375-4.73437H6.1875v4.59375h1.09375v-4.59375h4.57813v-1.09375H7.28125v-4.59375H6.1875v4.59375H1.59375Zm0 0" style="stroke:none"/></symbol><symbol id="f" overflow="visible"><path d="M2.03125 0h6.14063v-.53125L6.59375-.67187c-.39062-.04688-.60937-.1875-.60937-.92188v-11l-.09375-.10937-3.85938.65625v.45312l1.75.21875c.3125.04688.4375.1875.4375.71875v9.0625c0 .35938-.04687.57813-.17187.71875-.09375.14063-.25.17188-.45313.20313l-1.5625.14062Zm0 0" style="stroke:none"/></symbol><symbol id="g" overflow="visible"><path d="M1.59375-4.73437h10.26563v-1.09375H1.59375Zm0 0" style="stroke:none"/></symbol><symbol id="h" overflow="visible"><path d="M2.1875-1.25c0 .875.375 1.46875 1.4375 1.46875 1.78125 0 3.75-1.96875 4.85938-4.14062h.04687l-.625 2.14062c-.09375.375-.15625.6875-.15625.96875 0 .65625.3125 1.03125 1.01563 1.03125 1.34375 0 2.46875-1.26562 3.125-2.65625l-.4375-.28125c-.375.625-1.21875 1.96875-1.73438 1.96875-.23437 0-.34375-.17187-.34375-.42187 0-.15626.04688-.35938.10938-.57813l2-7.625-1.67188.21875C9.28125-7.25 8.96875-6.26562 8.48438-5.125c-.8125 1.89063-2.4375 4.375-4 4.375-.39063 0-.59375-.25-.59375-.73437 0-.25.04687-.54688.14062-.90625l1.79688-6.89063-.10938-.09375-3.39062.51563-.125.45312L3.375-8.3125c.28125.03125.375.14063.375.35938 0 .14062-.03125.32812-.09375.54687L2.35938-2.48437C2.25-2.04687 2.1875-1.625 2.1875-1.25m0 0" style="stroke:none"/></symbol><symbol id="i" overflow="visible"><path d="m.95313 2.28125.35937.35938c.9375-.875 2.28125-2.125 2.28125-3.59375 0-1-.53125-1.6875-1.25-1.6875-.57812 0-.9375.45312-.9375.9375 0 .67187.625 1.03125.625 1.82812 0 .76563-.48437 1.5-1.07812 2.15625m0 0" style="stroke:none"/></symbol><symbol id="j" overflow="visible"><path d="M.48438 1.92188v.46875c3.25-.14063 4.09375-4.17188 4.09375-7.65625s-.84375-7.51563-4.09375-7.65625v.45312c1.17187.25 2.78125 1.85938 2.78125 7.20313 0 5.39062-1.70313 6.96875-2.78125 7.1875m0 0" style="stroke:none"/></symbol><symbol id="k" overflow="visible"><path d="M1.6875-5.26562c0 2.14062 1.57813 3.71875 3.73438 3.71875 2.09375 0 3.65625-1.57813 3.65625-3.71875 0-2.09375-1.5625-3.65625-3.65625-3.65625-2.15625 0-3.73438 1.5625-3.73438 3.65625m0 0" style="stroke:none"/></symbol><symbol id="l" overflow="visible"><path d="M.78125-6.23437C.78125-2.5 1.875.21875 4.95313.21875S9.14063-2.5 9.14063-6.23437c0-3.75-1.10938-6.46875-4.1875-6.46875S.78125-9.98437.78125-6.23437m1.875 0c0-3.04688.53125-5.8125 2.29688-5.8125s2.28125 2.76562 2.28125 5.8125c0 3.03125-.51563 5.79687-2.28125 5.79687-1.76563 0-2.29688-2.76562-2.29688-5.79687m0 0" style="stroke:none"/></symbol><clipPath id="a"><path d="M84 .19531h2V284h-2Zm0 0"/></clipPath><clipPath id="b"><path d="M150 .19531h125V233H150Zm0 0"/></clipPath></defs><path d="M-85.03922.00082h226.7735" style="fill:none;stroke-width:.3985;stroke-linecap:butt;stroke-linejoin:miter;stroke:#000;stroke-opacity:1;stroke-miterlimit:10" transform="matrix(.9972 0 0 -.9972 85.00112 199.00082)"/><g clip-path="url(#a)"><path d="M-.00112-85.0412v283.47079" style="fill:none;stroke-width:.3985;stroke-linecap:butt;stroke-linejoin:miter;stroke:#000;stroke-opacity:1;stroke-miterlimit:10" transform="matrix(.9972 0 0 -.9972 85.00112 199.00082)"/></g><g clip-path="url(#b)"><path d="M184.25528-28.34783 70.86854 198.4296" style="fill:none;stroke-width:.3985;stroke-linecap:butt;stroke-linejoin:miter;stroke:teal;stroke-opacity:1;stroke-miterlimit:10" transform="matrix(.9972 0 0 -.9972 85.00112 199.00082)"/></g><path d="M198.42765.00082h-226.7735" style="fill:none;stroke-width:.3985;stroke-linecap:butt;stroke-linejoin:miter;stroke:teal;stroke-opacity:1;stroke-miterlimit:10" transform="matrix(.9972 0 0 -.9972 85.00112 199.00082)"/><path d="M-.00112.00082 85.0409 170.08094M56.69225.00082l56.69338 113.38675" style="fill:none;stroke-width:.3985;stroke-linecap:butt;stroke-linejoin:miter;stroke:#00adef;stroke-opacity:1;stroke-dasharray:2.98883,2.98883;stroke-miterlimit:10" transform="matrix(.9972 0 0 -.9972 85.00112 199.00082)"/><g style="fill:#000;fill-opacity:1"><use xlink:href="#c" x="176.82215" y="19.73451"/><use xlink:href="#d" x="183.35927" y="19.73451"/></g><use xlink:href="#e" x="197.80452" y="19.73451" style="fill:#000;fill-opacity:1"/><use xlink:href="#f" x="213.99831" y="19.73451" style="fill:#000;fill-opacity:1"/><use xlink:href="#g" x="226.65529" y="19.73451" style="fill:#000;fill-opacity:1"/><use xlink:href="#h" x="242.84907" y="19.73451" style="fill:#000;fill-opacity:1"/><use xlink:href="#i" x="255.96306" y="19.73451" style="fill:#000;fill-opacity:1"/><use xlink:href="#d" x="263.11614" y="19.73451" style="fill:#000;fill-opacity:1"/><use xlink:href="#e" x="277.58126" y="19.73451" style="fill:#000;fill-opacity:1"/><g style="fill:#000;fill-opacity:1"><use xlink:href="#f" x="293.77504" y="19.73451"/><use xlink:href="#j" x="303.67014" y="19.73451"/></g><use xlink:href="#k" x="164.42784" y="33.85798" style="fill:#000;fill-opacity:1"/><g style="fill:#000;fill-opacity:1"><use xlink:href="#c" x="205.09004" y="76.26929"/><use xlink:href="#d" x="211.62716" y="76.26929"/></g><use xlink:href="#i" x="223.3304" y="76.26929" style="fill:#000;fill-opacity:1"/><use xlink:href="#d" x="230.48348" y="76.26929" style="fill:#000;fill-opacity:1"/><use xlink:href="#j" x="242.18672" y="76.26929" style="fill:#000;fill-opacity:1"/><use xlink:href="#k" x="192.69573" y="90.39276" style="fill:#000;fill-opacity:1"/><g style="fill:#000;fill-opacity:1"><use xlink:href="#c" x="37.96176" y="218.93603"/><use xlink:href="#l" x="44.49888" y="218.93603"/><use xlink:href="#i" x="54.39398" y="218.93603"/></g><g style="fill:#000;fill-opacity:1"><use xlink:href="#l" x="61.54706" y="218.93603"/><use xlink:href="#j" x="71.44216" y="218.93603"/></g><use xlink:href="#k" x="79.62616" y="203.46233" style="fill:#000;fill-opacity:1"/><g style="fill:#000;fill-opacity:1"><use xlink:href="#c" x="121.5259" y="218.93603"/><use xlink:href="#f" x="128.06302" y="218.93603"/><use xlink:href="#i" x="137.95812" y="218.93603"/></g><g style="fill:#000;fill-opacity:1"><use xlink:href="#l" x="145.1112" y="218.93603"/><use xlink:href="#j" x="155.0063" y="218.93603"/></g><use xlink:href="#k" x="136.16094" y="203.46233" style="fill:#000;fill-opacity:1"/><g style="fill:teal;fill-opacity:1"><use xlink:href="#c" x="261.62482" y="218.93603"/><use xlink:href="#h" x="268.16195" y="218.93603"/></g><use xlink:href="#d" x="281.27593" y="218.93603" style="fill:teal;fill-opacity:1"/><use xlink:href="#i" x="292.97917" y="218.93603" style="fill:teal;fill-opacity:1"/><g style="fill:teal;fill-opacity:1"><use xlink:href="#l" x="300.13225" y="218.93603"/><use xlink:href="#j" x="310.02735" y="218.93603"/></g><use xlink:href="#k" x="249.22951" y="203.46233" style="fill:teal;fill-opacity:1"/></svg>