<svg xmlns="http://www.w3.org/2000/svg" xmlns:xlink="http://www.w3.org/1999/xlink" width="292.04pt" height="284.599pt" version="1.2" viewBox="0 0 292.04 284.599"><defs><symbol id="d" overflow="visible"><path d="M1.96875-5.26562c0 3.48437.84375 7.51562 4.10938 7.65625v-.46875C4.98438 1.70312 3.25.125 3.25-5.26562c0-5.34375 1.65625-6.95313 2.82813-7.1875v-.45313c-3.26563.14063-4.10938 4.17188-4.10938 7.64063m0 0" style="stroke:none"/></symbol><symbol id="e" overflow="visible"><path d="M2.03125 0h6.125v-.53125l-1.5625-.14062c-.39062-.04688-.60937-.1875-.60937-.92188v-11L5.875-12.6875l-3.84375.65625v.45313l1.73438.21875c.32812.04687.4375.17187.4375.71875v9.04687c0 .35938-.03125.57813-.15625.71875-.09375.14063-.25.1875-.45313.20313l-1.5625.14062Zm0 0" style="stroke:none"/></symbol><symbol id="f" overflow="visible"><path d="m.95313 2.28125.35937.35938c.9375-.875 2.28125-2.125 2.28125-3.59375 0-1-.53125-1.6875-1.25-1.6875-.57812 0-.9375.45312-.9375.9375 0 .67187.625 1.03125.625 1.82812 0 .76563-.48437 1.5-1.07812 2.15625m0 0" style="stroke:none"/></symbol><symbol id="g" overflow="visible"><path d="M.78125-6.23437C.78125-2.5 1.85938.21875 4.9375.21875S9.14063-2.5 9.14063-6.23437s-1.125-6.45313-4.20313-6.45313S.78125-9.96875.78125-6.23437m1.875 0c0-3.04688.51563-5.79688 2.28125-5.79688 1.78125 0 2.29688 2.75 2.29688 5.79688 0 3.03125-.51563 5.79687-2.29688 5.79687-1.76562 0-2.28125-2.76562-2.28125-5.79687m0 0" style="stroke:none"/></symbol><symbol id="h" overflow="visible"><path d="M.48438 1.92188v.46875C3.73438 2.25 4.5625-1.78125 4.5625-5.26562c0-3.46875-.82812-7.5-4.07812-7.64063v.45313C1.64063-12.21875 3.25-10.60937 3.25-5.26562 3.25.125 1.5625 1.70313.48438 1.92188m0 0" style="stroke:none"/></symbol><symbol id="i" overflow="visible"><path d="M1.6875-5.26562c0 2.14062 1.5625 3.71875 3.73438 3.71875 2.07812 0 3.65625-1.57813 3.65625-3.71875 0-2.07813-1.57813-3.65625-3.65625-3.65625-2.17188 0-3.73438 1.57812-3.73438 3.65625m0 0" style="stroke:none"/></symbol><symbol id="j" overflow="visible"><path d="M2.1875-1.25c0 .875.375 1.46875 1.42188 1.46875 1.79687 0 3.76562-1.96875 4.875-4.125h.03125l-.60938 2.125c-.09375.375-.15625.6875-.15625.96875 0 .65625.3125 1.03125 1.01563 1.03125 1.34375 0 2.45312-1.26562 3.10937-2.65625l-.4375-.28125C11.0625-2.07812 10.23438-.75 9.71875-.75c-.25 0-.34375-.15625-.34375-.42187 0-.15626.03125-.35938.09375-.57813l2.01563-7.625-1.67188.21875C9.28125-7.25 8.95313-6.25 8.48438-5.125c-.8125 1.89063-2.45313 4.375-4 4.375-.39063 0-.59375-.25-.59375-.73437 0-.25.04687-.54688.14062-.90625L5.8125-9.28125 5.71875-9.375l-3.39062.51563-.125.45312 1.17187.10938c.28125.01562.375.14062.375.35937 0 .125-.03125.3125-.09375.53125L2.35938-2.48437C2.25-2.04687 2.1875-1.625 2.1875-1.25m0 0" style="stroke:none"/></symbol><symbol id="k" overflow="visible"><path d="M1.59375-4.71875h10.26563V-5.8125H1.59375Zm0 0" style="stroke:none"/></symbol><symbol id="l" overflow="visible"><path d="M1.10938-3.25h7.1875v-.875h-7.1875Zm0 0" style="stroke:none"/></symbol><symbol id="m" overflow="visible"><path d="M1.42188 0h4.375v-.40625L4.75-.5c-.28125-.03125-.42187-.125-.42187-.60937V-8.8125l-.09375-.07812-2.79688.48437v.34375l1.125.15625c.25.03125.32813.125.32813.53125v6.26563c0 .46875-.09375.57812-.42188.60937l-1.04687.09375Zm0 0" style="stroke:none"/></symbol><clipPath id="a"><path d="M84 .26563h2v283.66796h-2Zm0 0"/></clipPath><clipPath id="b"><path d="M93 51h125v232.9336H93Zm0 0"/></clipPath><clipPath id="c"><path d="M0 51h232v232.9336H0Zm0 0"/></clipPath></defs><path d="M-85.03913.00134h226.77427" style="fill:none;stroke-width:.3985;stroke-linecap:butt;stroke-linejoin:miter;stroke:#000;stroke-opacity:1;stroke-miterlimit:10" transform="matrix(.99672 0 0 -.99672 84.95972 198.23961)"/><g clip-path="url(#a)"><path d="M.00122-85.03901v283.46783" style="fill:none;stroke-width:.3985;stroke-linecap:butt;stroke-linejoin:miter;stroke:#000;stroke-opacity:1;stroke-miterlimit:10" transform="matrix(.99672 0 0 -.99672 84.95972 198.23961)"/></g><g clip-path="url(#b)"><path d="m14.17266-85.03901 113.38713 226.77426" style="fill:none;stroke-width:.3985;stroke-linecap:butt;stroke-linejoin:miter;stroke:teal;stroke-opacity:1;stroke-miterlimit:10" transform="matrix(.99672 0 0 -.99672 84.95972 198.23961)"/></g><g clip-path="url(#c)"><path d="M141.73514 141.73525-85.03913-85.039" style="fill:none;stroke-width:.3985;stroke-linecap:butt;stroke-linejoin:miter;stroke:teal;stroke-opacity:1;stroke-miterlimit:10" transform="matrix(.99672 0 0 -.99672 84.95972 198.23961)"/></g><path d="M-56.69234-56.69223H28.348" style="fill:none;stroke-width:.3985;stroke-linecap:butt;stroke-linejoin:miter;stroke:#00adef;stroke-opacity:1;stroke-dasharray:2.98883,2.98883;stroke-miterlimit:10" transform="matrix(.99672 0 0 -.99672 84.95972 198.23961)"/><g style="fill:#000;fill-opacity:1"><use xlink:href="#d" x="148.4829" y="218.16511"/><use xlink:href="#e" x="155.01684" y="218.16511"/><use xlink:href="#f" x="164.90712" y="218.16511"/></g><g style="fill:#000;fill-opacity:1"><use xlink:href="#g" x="172.05672" y="218.16511"/><use xlink:href="#h" x="181.947" y="218.16511"/></g><use xlink:href="#i" x="136.09463" y="202.69796" style="fill:#000;fill-opacity:1"/><g style="fill:#000;fill-opacity:1"><use xlink:href="#d" x="120.22978" y="274.67236"/><use xlink:href="#j" x="126.76372" y="274.67236"/></g><use xlink:href="#f" x="139.87131" y="274.67236" style="fill:#000;fill-opacity:1"/><g style="fill:#000;fill-opacity:1"><use xlink:href="#k" x="147.02091" y="274.67236"/><use xlink:href="#e" x="160.44627" y="274.67236"/><use xlink:href="#h" x="170.33655" y="274.67236"/></g><use xlink:href="#i" x="107.8405" y="259.2052" style="fill:#000;fill-opacity:1"/><g style="fill:#000;fill-opacity:1"><use xlink:href="#d" x="37.94327" y="188.58136"/><use xlink:href="#g" x="44.47721" y="188.58136"/><use xlink:href="#f" x="54.36749" y="188.58136"/></g><g style="fill:#000;fill-opacity:1"><use xlink:href="#g" x="61.51709" y="188.58136"/><use xlink:href="#h" x="71.40736" y="188.58136"/></g><use xlink:href="#i" x="79.58738" y="202.69796" style="fill:#000;fill-opacity:1"/><g style="fill:#000;fill-opacity:1"><use xlink:href="#d" x="121.46671" y="132.07511"/><use xlink:href="#e" x="128.00065" y="132.07511"/><use xlink:href="#f" x="137.89093" y="132.07511"/></g><g style="fill:#000;fill-opacity:1"><use xlink:href="#e" x="145.04053" y="132.07511"/><use xlink:href="#h" x="154.9308" y="132.07511"/></g><use xlink:href="#i" x="136.09463" y="146.19071" style="fill:#000;fill-opacity:1"/><g style="fill:teal;fill-opacity:1"><use xlink:href="#d" x="204.99015" y="92.3178"/><use xlink:href="#j" x="211.52409" y="92.3178"/></g><g style="fill:teal;fill-opacity:1"><use xlink:href="#l" x="223.63885" y="84.37591"/><use xlink:href="#m" x="233.0366" y="84.37591"/></g><use xlink:href="#f" x="241.15128" y="92.3178" style="fill:teal;fill-opacity:1"/><use xlink:href="#j" x="248.30088" y="92.3178" style="fill:teal;fill-opacity:1"/><g style="fill:teal;fill-opacity:1"><use xlink:href="#l" x="260.41795" y="84.37591"/><use xlink:href="#m" x="269.8157" y="84.37591"/></g><use xlink:href="#h" x="277.93038" y="92.3178" style="fill:teal;fill-opacity:1"/><use xlink:href="#i" x="192.60188" y="89.68346" style="fill:teal;fill-opacity:1"/></svg>