<svg xmlns="http://www.w3.org/2000/svg" xmlns:xlink="http://www.w3.org/1999/xlink" width="344.756pt" height="284.599pt" version="1.2" viewBox="0 0 344.756 284.599"><defs><symbol id="c" overflow="visible"><path d="M1.6875-5.26562c0 2.14062 1.57813 3.71875 3.75 3.71875 2.07813 0 3.65625-1.57813 3.65625-3.71875 0-2.09375-1.57812-3.67188-3.65625-3.67188-2.17187 0-3.75 1.57813-3.75 3.67188m0 0" style="stroke:none"/></symbol><symbol id="d" overflow="visible"><path d="M1.96875-5.26562c0 3.46875.85938 7.51562 4.125 7.65625v-.46875C5 1.70312 3.26563.125 3.26563-5.26562c0-5.35938 1.64062-6.96875 2.82812-7.20313v-.45312c-3.26562.125-4.125 4.17187-4.125 7.65625m0 0" style="stroke:none"/></symbol><symbol id="e" overflow="visible"><path d="M.59375-.73437c0 .53125.4375.95312 1.20313.95312 1.26562 0 1.98437-1.26562 2.76562-2.53125l.75-1.23437h.03125L5.6875-2.0625C6.04688-.57812 6.39063.21875 7.34375.21875c1.375 0 2.07813-1.40625 2.64063-2.54687l-.48438-.25C9.04688-1.75 8.53125-.75 8.01563-.75c-.35938 0-.5-.42187-.92188-2.09375L6.5-5.29687c.6875-1.1875 1.64063-2.67188 2.17188-2.67188.15625 0 .34375.01563.53125.125.1875.09375.39062.17188.60937.17188.40625 0 .79688-.40625.79688-.90625 0-.57813-.4375-.8125-.96875-.8125-.98438 0-1.82813.89062-2.48438 1.95312l-.8125 1.26563H6.3125L5.54688-9.3125l-.09375-.07812-3.09375.9375L2.40625-8l1.40625-.09375h.0625c.29688 0 .4375.14063.625.9375l.65625 2.70313-.51562.89062c-.79688 1.375-1.5 2.34375-1.95313 2.34375-.1875 0-.375-.07812-.54687-.17187-.17188-.09376-.40625-.28126-.73438-.28126-.46875 0-.8125.48438-.8125.9375m0 0" style="stroke:none"/></symbol><symbol id="f" overflow="visible"><path d="m.95313 2.28125.35937.35938c.9375-.875 2.28125-2.125 2.28125-3.59375 0-1-.53125-1.6875-1.25-1.6875-.57812 0-.9375.45312-.9375.9375 0 .67187.625 1.03125.625 1.82812 0 .76563-.48437 1.5-1.07812 2.15625m0 0" style="stroke:none"/></symbol><symbol id="g" overflow="visible"><path d="M.78125-6.25C.78125-2.5 1.875.21875 4.95313.21875S9.15625-2.5 9.15625-6.25c0-3.73437-1.125-6.45312-4.20312-6.45312S.78125-9.98437.78125-6.25m1.89063 0c0-3.03125.51562-5.79687 2.28125-5.79687 1.76562 0 2.28125 2.76562 2.28125 5.79687 0 3.04688-.51563 5.8125-2.28125 5.8125-1.76563 0-2.28125-2.76562-2.28125-5.8125m0 0" style="stroke:none"/></symbol><symbol id="h" overflow="visible"><path d="M.48438 1.92188v.46875c3.25-.14063 4.09375-4.1875 4.09375-7.65625 0-3.48438-.84375-7.53125-4.09375-7.65625v.45312c1.17187.23438 2.78125 1.84375 2.78125 7.20313 0 5.39062-1.6875 6.96875-2.78125 7.1875m0 0" style="stroke:none"/></symbol><symbol id="i" overflow="visible"><path d="M2.0625-5.26562c0 8.78125.73438 14.82812 4.51563 15.8125V10C4.03125 8.4375 3.5625 2.17188 3.5625-5.26562c0-7.28125.42188-13.6875 3.01563-15.28125v-.5625c-3.64063 1.0625-4.51563 6.875-4.51563 15.84374m0 0" style="stroke:none"/></symbol><symbol id="n" overflow="visible"><path d="M.67188 10v.54688c3.78125-.98438 4.48437-7.03125 4.48437-15.8125 0-8.96875-.84375-14.78125-4.48437-15.84375v.5625c2.60937 1.59374 3.01562 8 3.01562 15.28124C3.6875 2.17188 3.21875 8.4375.67188 10m0 0" style="stroke:none"/></symbol><symbol id="o" overflow="visible"><path d="m2.3125-5.98437.25.35937c.29688-.125.84375-.21875 1.01563-.21875.04687 0 .04687.01563.04687.01563l4.1875 9.8125h.73438L18.9375-17.75c.09375-.1875.14063-.26562.14063-.32812 0-.20313-.10938-.71876-.375-.71876-.14063 0-.29688.26563-.42188.5L8.75 1.6875 4.90625-7.28125c-.07812-.15625-.09375-.28125-.23437-.28125-.0625 0-.07813.03125-.25.15625Zm0 0" style="stroke:none"/></symbol><symbol id="p" overflow="visible"><path d="M1.59375-4.73437H11.875v-1.09375H1.59375Zm0 0" style="stroke:none"/></symbol><symbol id="j" overflow="visible"><path d="M.45313-.5625c0 .39063.32812.71875.89062.71875.875 0 1.35938-.84375 1.89063-1.71875l.5-.85937h.03125l.23437 1c.23438 1 .48438 1.57812 1.17188 1.57812 1.03125 0 1.60937-1.03125 2-1.90625l-.34375-.20312C6.5-1.32812 6.125-.60937 5.76563-.60937c-.25 0-.34375-.28126-.59375-1.29688l-.46875-1.85937c.45312-.76563 1.0625-1.71875 1.42187-1.71875.10938 0 .25.01562.40625.09375.125.0625.28125.125.4375.125.3125 0 .60938-.29688.60938-.6875 0-.4375-.32813-.625-.70313-.625-.67187 0-1.23437.5625-1.70312 1.28125l-.57813.90625H4.5625l-.5-2.125L4-6.57812l-2.29687.65625.01562.35937.96875-.03125c.26563 0 .34375.04688.45313.54688L3.625-3.09375c-.01562.03125-.34375.57813-.35937.60938C2.75-1.57812 2.3125-.9375 2-.9375c-.14062 0-.28125-.04687-.39062-.14062-.14063-.07813-.3125-.20313-.53125-.20313-.35938 0-.625.35938-.625.71875m0 0" style="stroke:none"/></symbol><symbol id="k" overflow="visible"><path d="M1.10938-3.25h3.17187v3.15625h.875V-3.25H8.3125v-.89062H5.15625v-3.15625h-.875v3.15625H1.10938Zm0 0" style="stroke:none"/></symbol><symbol id="l" overflow="visible"><path d="M1.42188 0H5.8125v-.40625L4.76563-.5c-.29688-.03125-.4375-.125-.4375-.60937v-7.71875L4.25-8.89062l-2.8125.46875v.34375l1.125.15625c.25.04687.32813.14062.32813.54687v6.26563c0 .46875-.09375.57812-.42188.60937l-1.04687.09375Zm0 0" style="stroke:none"/></symbol><symbol id="m" overflow="visible"><path d="M.375-.15625.53125 0H6.0625l.48438-1.85937-.39063-.07813c-.3125.70313-.54687.79688-1.07812.79688H1.73438c.21874-.625.90625-1.5 2.17187-2.35938C5.23438-4.39062 6.1875-5 6.1875-6.4375c0-1.8125-1.25-2.45312-2.6875-2.45312-1.78125 0-2.79687 1.03125-2.79687 1.8125 0 .48437.53125.70312.8125.70312.25 0 .375-.14062.4375-.39062.20312-.92188.6875-1.64063 1.45312-1.64063.92188 0 1.21875.79688 1.21875 1.73438 0 1.26562-.57812 2.10937-1.79687 3.15625C1.15625-2.07812.57813-1.125.375-.15625m0 0" style="stroke:none"/></symbol><clipPath id="a"><path d="M.1211 142H284v1H.1211Zm0 0"/></clipPath><clipPath id="b"><path d="M141 0h2v284.19922h-2Zm0 0"/></clipPath></defs><path d="M170.08261-.00149c0 46.96843-38.07701 85.04153-85.04153 85.04153-46.96843 0-85.04153-38.0731-85.04153-85.04153 0-46.96452 38.0731-85.03762 85.04153-85.03762 46.96452 0 85.04153 38.0731 85.04153 85.03762Zm0 0" style="fill:none;stroke-width:.3985;stroke-linecap:butt;stroke-linejoin:miter;stroke:teal;stroke-opacity:1;stroke-miterlimit:10" transform="matrix(.9986 0 0 -.9986 141.85201 142.46726)"/><g clip-path="url(#a)"><path d="M-141.73503-.00149h283.46916" style="fill:none;stroke-width:.3985;stroke-linecap:butt;stroke-linejoin:miter;stroke:#000;stroke-opacity:1;stroke-miterlimit:10" transform="matrix(.9986 0 0 -.9986 141.85201 142.46726)"/></g><g clip-path="url(#b)"><path d="M-.00045-141.73216V141.7331" style="fill:none;stroke-width:.3985;stroke-linecap:butt;stroke-linejoin:miter;stroke:#000;stroke-opacity:1;stroke-miterlimit:10" transform="matrix(.9986 0 0 -.9986 141.85201 142.46726)"/></g><path d="M113.38565 130.39292V-130.3959" style="fill:none;stroke-width:.3985;stroke-linecap:butt;stroke-linejoin:miter;stroke:teal;stroke-opacity:1;stroke-miterlimit:10" transform="matrix(.9986 0 0 -.9986 141.85201 142.46726)"/><path d="m-.00045-.00149 113.3861 80.17922M-.00045-.00149l113.3861-80.1753" style="fill:none;stroke-width:.3985;stroke-linecap:butt;stroke-linejoin:miter;stroke:#00adef;stroke-opacity:1;stroke-dasharray:2.98883,2.98883;stroke-miterlimit:10" transform="matrix(.9986 0 0 -.9986 141.85201 142.46726)"/><path d="M113.38565-.00149v17.0083h-17.0083V-.00148Zm0 0" style="fill:none;stroke-width:.3985;stroke-linecap:butt;stroke-linejoin:miter;stroke:red;stroke-opacity:1;stroke-miterlimit:10" transform="matrix(.9986 0 0 -.9986 141.85201 142.46726)"/><use xlink:href="#c" x="249.69606" y="146.93397" style="fill:#000;fill-opacity:1"/><g style="fill:#000;fill-opacity:1"><use xlink:href="#d" x="262.10857" y="132.7909"/><use xlink:href="#e" x="268.65476" y="132.7909"/></g><use xlink:href="#f" x="280.49362" y="132.7909" style="fill:#000;fill-opacity:1"/><g style="fill:#000;fill-opacity:1"><use xlink:href="#g" x="287.65663" y="132.7909"/><use xlink:href="#h" x="297.56546" y="132.7909"/></g><use xlink:href="#c" x="249.69606" y="33.70751" style="fill:#000;fill-opacity:1"/><g style="fill:#000;fill-opacity:1"><use xlink:href="#d" x="262.10857" y="19.56443"/><use xlink:href="#e" x="268.65476" y="19.56443"/></g><use xlink:href="#f" x="280.49362" y="19.56443" style="fill:#000;fill-opacity:1"/><use xlink:href="#e" x="287.65663" y="19.56443" style="fill:#000;fill-opacity:1"/><use xlink:href="#h" x="299.49549" y="19.56443" style="fill:#000;fill-opacity:1"/><use xlink:href="#c" x="136.47059" y="146.93397" style="fill:#000;fill-opacity:1"/><g style="fill:#000;fill-opacity:1"><use xlink:href="#d" x="94.74738" y="162.43014"/><use xlink:href="#g" x="101.29358" y="162.43014"/><use xlink:href="#f" x="111.2024" y="162.43014"/></g><g style="fill:#000;fill-opacity:1"><use xlink:href="#g" x="118.36541" y="162.43014"/><use xlink:href="#h" x="128.27424" y="162.43014"/></g><use xlink:href="#c" x="221.38994" y="146.93397" style="fill:#000;fill-opacity:1"/><use xlink:href="#i" x="196.30529" y="170.60861" style="fill:#000;fill-opacity:1"/><use xlink:href="#j" x="205.91574" y="162.5999" style="fill:#000;fill-opacity:1"/><g style="fill:#000;fill-opacity:1"><use xlink:href="#k" x="214.20295" y="162.5999"/><use xlink:href="#l" x="223.61833" y="162.5999"/></g><path d="M-.00084-.00008h12.33767" style="fill:none;stroke-width:.548;stroke-linecap:butt;stroke-linejoin:miter;stroke:#000;stroke-opacity:1;stroke-miterlimit:10" transform="matrix(1.99719 0 0 -1.99719 205.91574 165.32406)"/><use xlink:href="#m" x="214.76727" y="177.60076" style="fill:#000;fill-opacity:1"/><use xlink:href="#f" x="232.94167" y="170.59663" style="fill:#000;fill-opacity:1"/><use xlink:href="#g" x="240.10467" y="170.59663" style="fill:#000;fill-opacity:1"/><use xlink:href="#n" x="250.01561" y="170.60861" style="fill:#000;fill-opacity:1"/><use xlink:href="#c" x="249.69606" y="66.87078" style="fill:teal;fill-opacity:1"/><g style="fill:teal;fill-opacity:1"><use xlink:href="#d" x="262.10857" y="49.80283"/><use xlink:href="#e" x="268.65476" y="49.80283"/></g><use xlink:href="#f" x="280.49362" y="49.80283" style="fill:teal;fill-opacity:1"/><use xlink:href="#o" x="287.65857" y="51.39458" style="fill:teal;fill-opacity:1"/><path d="M.00053.0008h5.7092" style="fill:none;stroke-width:.548;stroke-linecap:butt;stroke-linejoin:miter;stroke:teal;stroke-opacity:1;stroke-miterlimit:10" transform="matrix(1.99719 0 0 -1.99719 306.36222 33.1383)"/><g style="fill:teal;fill-opacity:1"><use xlink:href="#e" x="306.36222" y="49.80283"/><use xlink:href="#h" x="317.76334" y="49.80283"/></g><use xlink:href="#c" x="249.69606" y="226.99716" style="fill:teal;fill-opacity:1"/><g style="fill:teal;fill-opacity:1"><use xlink:href="#d" x="262.10857" y="247.86476"/><use xlink:href="#e" x="268.65476" y="247.86476"/></g><use xlink:href="#f" x="280.49362" y="247.86476" style="fill:teal;fill-opacity:1"/><use xlink:href="#p" x="287.65663" y="247.86476" style="fill:teal;fill-opacity:1"/><use xlink:href="#o" x="301.10962" y="249.45652" style="fill:teal;fill-opacity:1"/><path d="M.00062.00051h5.7092" style="fill:none;stroke-width:.548;stroke-linecap:butt;stroke-linejoin:miter;stroke:teal;stroke-opacity:1;stroke-miterlimit:10" transform="matrix(1.99719 0 0 -1.99719 319.81127 231.20024)"/><g style="fill:teal;fill-opacity:1"><use xlink:href="#e" x="319.81127" y="247.86476"/><use xlink:href="#h" x="331.21239" y="247.86476"/></g></svg>