<svg xmlns="http://www.w3.org/2000/svg" xmlns:xlink="http://www.w3.org/1999/xlink" width="283.863pt" height="170.477pt" version="1.2" viewBox="0 0 283.863 170.477"><defs><symbol id="c" overflow="visible"><path d="M1.6875-5.26562c0 2.14062 1.5625 3.71875 3.73438 3.71875 2.07812 0 3.65625-1.57813 3.65625-3.71875 0-2.07813-1.57813-3.65625-3.65625-3.65625-2.17188 0-3.73438 1.57812-3.73438 3.65625m0 0" style="stroke:none"/></symbol><symbol id="d" overflow="visible"><path d="M1.96875-5.26562c0 3.48437.84375 7.51562 4.10938 7.65625v-.46875C4.98438 1.70312 3.25.125 3.25-5.26562c0-5.34375 1.65625-6.95313 2.82813-7.1875v-.45313c-3.26563.14063-4.10938 4.17188-4.10938 7.64063m0 0" style="stroke:none"/></symbol><symbol id="e" overflow="visible"><path d="M2.1875-1.25c0 .875.375 1.46875 1.42188 1.46875 1.79687 0 3.76562-1.96875 4.875-4.125h.03125l-.60938 2.125c-.09375.375-.15625.6875-.15625.96875 0 .65625.3125 1.03125 1.01563 1.03125 1.34375 0 2.45312-1.26562 3.10937-2.65625l-.4375-.28125C11.0625-2.07812 10.23438-.75 9.71875-.75c-.25 0-.34375-.15625-.34375-.42187 0-.15626.03125-.35938.09375-.57813l2.01563-7.625-1.67188.21875C9.28125-7.25 8.95313-6.25 8.48438-5.125c-.8125 1.89063-2.45313 4.375-4 4.375-.39063 0-.59375-.25-.59375-.73437 0-.25.04687-.54688.14062-.90625L5.8125-9.28125 5.71875-9.375l-3.39062.51563-.125.45312 1.17187.10938c.28125.01562.375.14062.375.35937 0 .125-.03125.3125-.09375.53125L2.35938-2.48437C2.25-2.04687 2.1875-1.625 2.1875-1.25m0 0" style="stroke:none"/></symbol><symbol id="f" overflow="visible"><path d="m.95313 2.28125.35937.35938c.9375-.875 2.28125-2.125 2.28125-3.59375 0-1-.53125-1.6875-1.25-1.6875-.57812 0-.9375.45312-.9375.9375 0 .67187.625 1.03125.625 1.82812 0 .76563-.48437 1.5-1.07812 2.15625m0 0" style="stroke:none"/></symbol><symbol id="g" overflow="visible"><path d="M.78125-6.23437C.78125-2.5 1.85938.21875 4.9375.21875S9.14063-2.5 9.14063-6.23437s-1.125-6.45313-4.20313-6.45313S.78125-9.96875.78125-6.23437m1.875 0c0-3.04688.51563-5.79688 2.28125-5.79688 1.78125 0 2.29688 2.75 2.29688 5.79688 0 3.03125-.51563 5.79687-2.29688 5.79687-1.76562 0-2.28125-2.76562-2.28125-5.79687m0 0" style="stroke:none"/></symbol><symbol id="h" overflow="visible"><path d="M.48438 1.92188v.46875C3.73438 2.25 4.5625-1.78125 4.5625-5.26562c0-3.46875-.82812-7.5-4.07812-7.64063v.45313C1.64063-12.21875 3.25-10.60937 3.25-5.26562 3.25.125 1.5625 1.70313.48438 1.92188m0 0" style="stroke:none"/></symbol><symbol id="i" overflow="visible"><path d="M1.59375-4.71875h10.26563V-5.8125H1.59375Zm0 0" style="stroke:none"/></symbol><clipPath id="a"><path d="M.36719 84h282.99219v2H.36717Zm0 0"/></clipPath><clipPath id="b"><path d="M141 0h2v169.95703h-2Zm0 0"/></clipPath></defs><g clip-path="url(#a)"><path d="M-141.7337.00074h283.46855" style="fill:none;stroke-width:.3985;stroke-linecap:butt;stroke-linejoin:miter;stroke:#000;stroke-opacity:1;stroke-miterlimit:10" transform="matrix(.99694 0 0 -.99694 141.86271 84.9773)"/></g><g clip-path="url(#b)"><path d="M.00057-85.0406V85.04208" style="fill:none;stroke-width:.3985;stroke-linecap:butt;stroke-linejoin:miter;stroke:#000;stroke-opacity:1;stroke-miterlimit:10" transform="matrix(.99694 0 0 -.99694 141.86271 84.9773)"/></g><use xlink:href="#c" x="193.0098" y="89.43762" style="fill:#000;fill-opacity:1"/><g style="fill:#000;fill-opacity:1"><use xlink:href="#d" x="205.40079" y="75.31794"/><use xlink:href="#e" x="211.93615" y="75.31794"/></g><use xlink:href="#f" x="225.04662" y="75.31794" style="fill:#000;fill-opacity:1"/><g style="fill:#000;fill-opacity:1"><use xlink:href="#g" x="232.19778" y="75.31794"/><use xlink:href="#h" x="242.09022" y="75.31794"/></g><use xlink:href="#c" x="79.97059" y="89.43762" style="fill:teal;fill-opacity:1"/><g style="fill:teal;fill-opacity:1"><use xlink:href="#d" x="21.67044" y="75.31794"/><use xlink:href="#i" x="28.20581" y="75.31794"/><use xlink:href="#e" x="41.6341" y="75.31794"/></g><use xlink:href="#f" x="54.74457" y="75.31794" style="fill:teal;fill-opacity:1"/><g style="fill:teal;fill-opacity:1"><use xlink:href="#g" x="61.89573" y="75.31794"/><use xlink:href="#h" x="71.78817" y="75.31794"/></g><path d="M56.6935.00074c0 31.3106-25.38232 56.69293-56.69293 56.69293S-56.69235 31.31135-56.69235.00074-31.31003-56.69218.00057-56.69218 56.6935-31.30987 56.6935.00074Zm0 0" style="fill:none;stroke-width:.3985;stroke-linecap:butt;stroke-linejoin:miter;stroke:teal;stroke-opacity:1;stroke-miterlimit:10" transform="matrix(.99694 0 0 -.99694 141.86271 84.9773)"/></svg>