<svg xmlns="http://www.w3.org/2000/svg" xmlns:xlink="http://www.w3.org/1999/xlink" width="241.629pt" height="200.101pt" version="1.2" viewBox="0 0 241.629 200.101"><defs><symbol id="a" overflow="visible"><path d="M1.6875-5.26562c0 2.15625 1.5625 3.71875 3.73438 3.71875 2.07812 0 3.64062-1.5625 3.64062-3.71875 0-2.07813-1.5625-3.64063-3.64062-3.64063-2.17188 0-3.73438 1.5625-3.73438 3.64063m0 0" style="stroke:none"/></symbol><symbol id="b" overflow="visible"><path d="M.89063-2.625c0 1.73438.51562 3.75 2.14062 3.8125V.875c-.5625-.10937-1.3125-.82812-1.3125-3.5 0-2.6875.75-3.39062 1.3125-3.5v-.32812C1.40625-6.375.89063-4.35937.89063-2.625m0 0" style="stroke:none"/></symbol><symbol id="c" overflow="visible"><path d="M.35938-3.10937C.35938-1.3125.9375.10938 2.5625.10938S4.75-1.3125 4.75-3.10937c0-1.79688-.5625-3.23438-2.1875-3.23438S.35938-4.90625.35938-3.10937m1.1875 0c0-1.3125.17187-2.85938 1.01562-2.85938.82813 0 1.01563 1.54688 1.01563 2.85938 0 1.29687-.1875 2.84375-1.01563 2.84375-.84375 0-1.01562-1.54688-1.01562-2.84375m0 0" style="stroke:none"/></symbol><symbol id="d" overflow="visible"><path d="m.46875 1.17188.25.20312c.46875-.4375 1.25-1.10937 1.25-1.84375 0-.5-.26562-.90625-.70312-.90625-.375 0-.5625.28125-.5625.51563 0 .34375.26562.51562.26562.92187 0 .39063-.1875.78125-.5 1.10938m0 0" style="stroke:none"/></symbol><symbol id="e" overflow="visible"><path d="M.23438.875v.3125C1.85938 1.125 2.375-.89062 2.375-2.625S1.85938-6.375.23438-6.45312v.32812c.59375.10938 1.29687.82813 1.29687 3.5 0 2.6875-.75 3.39063-1.29687 3.5m0 0" style="stroke:none"/></symbol><symbol id="f" overflow="visible"><path d="M1.01563 0H4.1875v-.3125l-.71875-.04687c-.20312-.03125-.29687-.09375-.29687-.4375v-5.48438l-.07813-.0625L1.03125-6v.26563l.75.10937c.1875.03125.26563.10938.26563.40625v4.42188c0 .32812-.07813.40625-.32813.4375l-.70312.04687Zm0 0" style="stroke:none"/></symbol></defs><path d="M113.38546.0018H-.00058v113.38604h113.38604" style="fill:none;stroke-width:.3985;stroke-linecap:butt;stroke-linejoin:miter;stroke:#000;stroke-opacity:1;stroke-miterlimit:10" transform="matrix(.99553 0 0 -.99553 42.46152 177.77132)"/><path d="m113.38546.0018 43.6562 43.65227v113.38604l-43.6562-43.65227ZM-.00058 113.38784l43.65227 43.65227h113.38996" style="fill:none;stroke-width:.3985;stroke-linecap:butt;stroke-linejoin:miter;stroke:#000;stroke-opacity:1;stroke-miterlimit:10" transform="matrix(.99553 0 0 -.99553 42.46152 177.77132)"/><path d="M157.04165 43.65407H43.6517v113.38604M-.00058.0018l43.65227 43.65227" style="fill:none;stroke-width:.3985;stroke-linecap:butt;stroke-linejoin:miter;stroke:#000;stroke-opacity:1;stroke-dasharray:2.98883,2.98883;stroke-miterlimit:10" transform="matrix(.99553 0 0 -.99553 42.46152 177.77132)"/><use xlink:href="#a" x="37.09563" y="182.22431" style="fill:teal;fill-opacity:1"/><g style="fill:teal;fill-opacity:1"><use xlink:href="#b" x="28.21851" y="191.22587"/><use xlink:href="#c" x="31.48156" y="191.22587"/><use xlink:href="#d" x="36.42076" y="191.22587"/></g><g style="fill:teal;fill-opacity:1"><use xlink:href="#c" x="39.99127" y="191.22587"/><use xlink:href="#d" x="44.93048" y="191.22587"/></g><g style="fill:teal;fill-opacity:1"><use xlink:href="#c" x="48.50098" y="191.22587"/><use xlink:href="#e" x="53.44019" y="191.22587"/></g><use xlink:href="#a" x="80.55338" y="25.88769" style="fill:teal;fill-opacity:1"/><g style="fill:teal;fill-opacity:1"><use xlink:href="#b" x="71.67627" y="13.05833"/><use xlink:href="#f" x="74.93931" y="13.05833"/><use xlink:href="#d" x="79.87852" y="13.05833"/></g><g style="fill:teal;fill-opacity:1"><use xlink:href="#f" x="83.44903" y="13.05833"/><use xlink:href="#d" x="88.38823" y="13.05833"/></g><g style="fill:teal;fill-opacity:1"><use xlink:href="#c" x="91.95874" y="13.05833"/><use xlink:href="#e" x="96.89794" y="13.05833"/></g><use xlink:href="#a" x="149.97449" y="69.34545" style="fill:teal;fill-opacity:1"/><g style="fill:teal;fill-opacity:1"><use xlink:href="#b" x="141.09737" y="56.51609"/><use xlink:href="#c" x="144.36042" y="56.51609"/><use xlink:href="#d" x="149.29963" y="56.51609"/></g><g style="fill:teal;fill-opacity:1"><use xlink:href="#f" x="152.87014" y="56.51609"/><use xlink:href="#d" x="157.80934" y="56.51609"/></g><g style="fill:teal;fill-opacity:1"><use xlink:href="#f" x="161.37985" y="56.51609"/><use xlink:href="#e" x="166.31905" y="56.51609"/></g><use xlink:href="#a" x="193.43225" y="138.76656" style="fill:teal;fill-opacity:1"/><g style="fill:teal;fill-opacity:1"><use xlink:href="#b" x="205.80566" y="136.85216"/><use xlink:href="#f" x="209.06871" y="136.85216"/><use xlink:href="#d" x="214.00791" y="136.85216"/></g><g style="fill:teal;fill-opacity:1"><use xlink:href="#c" x="217.57842" y="136.85216"/><use xlink:href="#d" x="222.51762" y="136.85216"/></g><g style="fill:teal;fill-opacity:1"><use xlink:href="#f" x="226.08813" y="136.85216"/><use xlink:href="#e" x="231.02734" y="136.85216"/></g><use xlink:href="#a" x="149.97449" y="182.22431" style="fill:#000;fill-opacity:1"/><g style="fill:#000;fill-opacity:1"><use xlink:href="#b" x="141.09737" y="191.22587"/><use xlink:href="#c" x="144.36042" y="191.22587"/><use xlink:href="#d" x="149.29963" y="191.22587"/></g><g style="fill:#000;fill-opacity:1"><use xlink:href="#c" x="152.87014" y="191.22587"/><use xlink:href="#d" x="157.80934" y="191.22587"/></g><g style="fill:#000;fill-opacity:1"><use xlink:href="#f" x="161.37985" y="191.22587"/><use xlink:href="#e" x="166.31905" y="191.22587"/></g><use xlink:href="#a" x="80.55338" y="138.76656" style="fill:#000;fill-opacity:1"/><g style="fill:#000;fill-opacity:1"><use xlink:href="#b" x="50.42474" y="136.85216"/><use xlink:href="#f" x="53.68779" y="136.85216"/><use xlink:href="#d" x="58.627" y="136.85216"/></g><g style="fill:#000;fill-opacity:1"><use xlink:href="#c" x="62.1975" y="136.85216"/><use xlink:href="#d" x="67.13671" y="136.85216"/></g><g style="fill:#000;fill-opacity:1"><use xlink:href="#c" x="70.70722" y="136.85216"/><use xlink:href="#e" x="75.64642" y="136.85216"/></g><use xlink:href="#a" x="37.09563" y="69.34545" style="fill:#000;fill-opacity:1"/><g style="fill:#000;fill-opacity:1"><use xlink:href="#b" x="6.96699" y="67.43105"/><use xlink:href="#c" x="10.23004" y="67.43105"/><use xlink:href="#d" x="15.16924" y="67.43105"/></g><g style="fill:#000;fill-opacity:1"><use xlink:href="#f" x="18.73975" y="67.43105"/><use xlink:href="#d" x="23.67895" y="67.43105"/></g><g style="fill:#000;fill-opacity:1"><use xlink:href="#c" x="27.24946" y="67.43105"/><use xlink:href="#e" x="32.18867" y="67.43105"/></g><use xlink:href="#a" x="193.43225" y="25.88769" style="fill:#000;fill-opacity:1"/><g style="fill:#000;fill-opacity:1"><use xlink:href="#b" x="184.55513" y="13.05833"/><use xlink:href="#f" x="187.81818" y="13.05833"/><use xlink:href="#d" x="192.75738" y="13.05833"/></g><g style="fill:#000;fill-opacity:1"><use xlink:href="#f" x="196.32789" y="13.05833"/><use xlink:href="#d" x="201.2671" y="13.05833"/></g><g style="fill:#000;fill-opacity:1"><use xlink:href="#f" x="204.83761" y="13.05833"/><use xlink:href="#e" x="209.77681" y="13.05833"/></g></svg>