<svg xmlns="http://www.w3.org/2000/svg" xmlns:xlink="http://www.w3.org/1999/xlink" width="304.721pt" height="140.197pt" version="1.2" viewBox="0 0 304.721 140.197"><defs><symbol id="a" overflow="visible"><path d="M.39063 0H5.8125l.10938-.53125-1.40625-.10937c-.32813-.01563-.46875-.17188-.46875-.45313 0-.10937.01562-.23437.04687-.39062L5.125-6.07812h2.48438c1.35937 0 1.625.25 1.625 1.04687 0 .15625 0 .32813-.01563.53125h.54688l.875-3.90625h-.5625c-.46875 1.3125-.6875 1.60938-2.32813 1.60938H5.29688l1.10937-4.875c.10938-.46875.21875-.57813.54688-.57813h2.28125c1.82812 0 2.17187.48438 2.17187 1.46875 0 .28125-.01562.59375-.04687.96875h.5625l.70312-3.0625H3.15625l-.125.53125 1.10938.09375c.3125.03125.45312.1875.45312.48438 0 .09375-.01562.23437-.0625.375L2.3125-1.48437c-.14062.54687-.3125.8125-.76562.84375L.5-.53125Zm0 0" style="stroke:none"/></symbol><symbol id="b" overflow="visible"><path d="M.39063 0h9.71875l.95312-3.26562H10.5C9.54688-.96875 8.71875-.65625 6.42188-.65625c-.90625 0-1.84375-.0625-2.07813-.23437-.15625-.125-.25-.28126-.25-.53125 0-.20313.0625-.48438.14063-.85938l.95312-4.07812H7.625c1.39063 0 1.64063.28125 1.64063 1.09375 0 .15625 0 .3125-.01563.51562h.5625l.85938-3.89062h-.5625C9.625-7.34375 9.4375-7.04687 7.78125-7.04687h-2.4375l1.0625-4.64063c.09375-.45312.21875-.5625.53125-.5625h2.23438c1.82812 0 2.20312.48438 2.20312 1.48438 0 .28125-.01562.625-.0625.98437h.5625l.6875-3.09375H3.15625l-.14062.53125 1.125.07813c.3125.01562.45312.15625.45312.45312 0 .125-.01562.26563-.0625.4375L2.3125-1.54687C2.15625-.90625 2-.6875 1.54688-.65625L.5-.53125Zm0 0" style="stroke:none"/></symbol><symbol id="c" overflow="visible"><path d="M1.70313.28125h1.25L6.875-13.17187h-1.25Zm0 0" style="stroke:none"/></symbol><symbol id="d" overflow="visible"><path d="M2.17188-1.25c0 .875.39062 1.46875 1.4375 1.46875 1.78125 0 3.73437-1.96875 4.84375-4.125H8.5l-.60937 2.125c-.10938.375-.15625.6875-.15625.96875 0 .65625.3125 1.03125 1 1.03125 1.34375 0 2.45312-1.26562 3.10937-2.65625l-.4375-.28125C11.03125-2.07812 10.20313-.75 9.6875-.75c-.23437 0-.34375-.15625-.34375-.42187 0-.15626.04688-.35938.10938-.57813l2-7.59375-1.67188.20313C9.25-7.23437 8.9375-6.23437 8.45313-5.10937 7.64063-3.23437 6.01563-.75 4.48438-.75c-.40625 0-.59375-.23437-.59375-.73437 0-.23438.03125-.53125.125-.89063L5.8125-9.25l-.10937-.09375-3.39063.5-.10937.46875 1.17187.09375c.26563.01563.375.14063.375.35938 0 .14062-.04687.3125-.10937.53125L2.35938-2.48437c-.125.4375-.1875.85937-.1875 1.23437m0 0" style="stroke:none"/></symbol><symbol id="e" overflow="visible"><path d="M1.67188 1.85938h.875V-9.23437h-.875Zm0 0" style="stroke:none"/></symbol><symbol id="f" overflow="visible"><path d="M.28125 0h3.89063l.10937-.40625-.92187-.0625C3.10938-.48437 3-.59375 3-.8125c0-.07812.01563-.15625.03125-.26562L3.75-4.25h1.67188c.90625 0 1.07812.21875 1.07812.8125v.32813h.40625l.625-2.79688H7.125c-.375.92188-.53125 1.14063-1.60937 1.14063H3.875l.76563-3.375c.07812-.32813.14062-.39063.40625-.39063H6.5c1.51563 0 1.48438.42188 1.48438 1.71875h.42187l.5-2.20312H2.20313l-.09375.40625.75.0625c.21875.01562.3125.125.3125.32812 0 .09375-.01563.1875-.03125.29688L1.60938-1.09375c-.09376.40625-.21876.59375-.5625.625l-.6875.0625Zm0 0" style="stroke:none"/></symbol></defs><use xlink:href="#a" x="48.08476" y="19.76778" style="fill:#000;fill-opacity:1"/><use xlink:href="#a" x="48.08476" y="132.50804" style="fill:#000;fill-opacity:1"/><use xlink:href="#b" x="160.85485" y="132.50804" style="fill:#000;fill-opacity:1"/><use xlink:href="#b" x="160.85485" y="19.76778" style="fill:#000;fill-opacity:1"/><use xlink:href="#b" x="262.59909" y="132.51798" style="fill:#000;fill-opacity:1"/><g style="fill:#000;fill-opacity:1"><use xlink:href="#c" x="275.95225" y="132.51798"/><use xlink:href="#a" x="284.53076" y="132.51798"/></g><use xlink:href="#b" x="262.59909" y="19.77772" style="fill:#000;fill-opacity:1"/><g style="fill:#000;fill-opacity:1"><use xlink:href="#c" x="275.95225" y="19.77772"/><use xlink:href="#a" x="284.53076" y="19.77772"/></g><path d="M-.00062.0006h6.3565" style="fill:none;stroke-width:.548;stroke-linecap:butt;stroke-linejoin:miter;stroke:#000;stroke-opacity:1;stroke-miterlimit:10" transform="matrix(1.98861 0 0 -1.98861 239.71218 63.82543)"/><use xlink:href="#d" x="239.71218" y="76.99003" style="fill:#000;fill-opacity:1"/><use xlink:href="#d" x="126.97291" y="74.26563" style="fill:#000;fill-opacity:1"/><use xlink:href="#d" x="7.33217" y="71.26681" style="fill:#000;fill-opacity:1"/><g style="fill:#000;fill-opacity:1"><use xlink:href="#e" x="19.57604" y="75.62385"/><use xlink:href="#f" x="23.77813" y="75.62385"/></g><path d="M15.35726 113.38654h84.29648" style="fill:none;stroke-width:.3985;stroke-linecap:butt;stroke-linejoin:miter;stroke:#000;stroke-opacity:1;stroke-miterlimit:10" transform="matrix(.9943 0 0 -.9943 54.37473 126.06892)"/><path d="M.0012.0007h.35751c.79751 0 1.43395-.7975 1.43395-1.43394 0-.79751-.63644-1.43788-1.43395-1.43788" style="fill:none;stroke-width:.3985;stroke-linecap:round;stroke-linejoin:miter;stroke:#000;stroke-opacity:1;stroke-miterlimit:10" transform="matrix(-.9943 0 0 .9943 69.64573 13.32742)"/><path d="M-2.07208 2.39183C-1.69493.95788-.85028.27823-.0017-.0007c-.84858-.27894-1.69323-.95466-2.07038-2.3886" style="fill:none;stroke-width:.3985;stroke-linecap:round;stroke-linejoin:round;stroke:#000;stroke-opacity:1;stroke-miterlimit:10" transform="matrix(.9943 0 0 -.9943 153.65794 13.32742)"/><path d="M15.35726-.0014h84.29648" style="fill:none;stroke-width:.3985;stroke-linecap:butt;stroke-linejoin:miter;stroke:#000;stroke-opacity:1;stroke-miterlimit:10" transform="matrix(.9943 0 0 -.9943 54.37473 126.06892)"/><path d="M.0012.0014h.35751c.79751 0 1.43395-.79751 1.43395-1.43788 0-.79358-.63644-1.43394-1.43395-1.43394" style="fill:none;stroke-width:.3985;stroke-linecap:round;stroke-linejoin:miter;stroke:#000;stroke-opacity:1;stroke-miterlimit:10" transform="matrix(-.9943 0 0 .9943 69.64573 126.06892)"/><path d="M-2.07208 2.39113C-1.69493.95718-.85028.27753-.0017-.0014-.85028-.28033-1.69493-.95605-2.07208-2.39" style="fill:none;stroke-width:.3985;stroke-linecap:round;stroke-linejoin:round;stroke:#000;stroke-opacity:1;stroke-miterlimit:10" transform="matrix(.9943 0 0 -.9943 153.65794 126.06892)"/><path d="M126.72196-.0014h75.26064" style="fill:none;stroke-width:.3985;stroke-linecap:butt;stroke-linejoin:miter;stroke:#000;stroke-opacity:1;stroke-miterlimit:10" transform="matrix(.9943 0 0 -.9943 54.37473 126.06892)"/><path d="M-2.07213 2.39113C-1.69498.95718-.85033.27753-.00174-.0014-.85032-.28033-1.69498-.95605-2.07213-2.39" style="fill:none;stroke-width:.3985;stroke-linecap:round;stroke-linejoin:round;stroke:#000;stroke-opacity:1;stroke-miterlimit:10" transform="matrix(.9943 0 0 -.9943 252.94705 126.06892)"/><path d="M-2.07177 2.39113C-1.69463.95718-.84997.27753-.0014-.0014-.84997-.28033-1.69462-.95605-2.07177-2.39" style="fill:none;stroke-width:.3985;stroke-linecap:round;stroke-linejoin:round;stroke:#000;stroke-opacity:1;stroke-miterlimit:10" transform="matrix(.9943 0 0 -.9943 255.40372 126.06892)"/><path d="M126.72196 113.38654h75.26064" style="fill:none;stroke-width:.3985;stroke-linecap:butt;stroke-linejoin:miter;stroke:#000;stroke-opacity:1;stroke-miterlimit:10" transform="matrix(.9943 0 0 -.9943 54.37473 126.06892)"/><path d="M-2.07213 2.39183C-1.69498.95788-.85033.27823-.00174-.0007c-.84858-.27894-1.69324-.95466-2.07039-2.3886" style="fill:none;stroke-width:.3985;stroke-linecap:round;stroke-linejoin:round;stroke:#000;stroke-opacity:1;stroke-miterlimit:10" transform="matrix(.9943 0 0 -.9943 252.94705 13.32742)"/><path d="M-2.07177 2.39183C-1.69463.95788-.84997.27823-.0014-.0007c-.84858-.27894-1.69323-.95466-2.07038-2.3886" style="fill:none;stroke-width:.3985;stroke-linecap:round;stroke-linejoin:round;stroke:#000;stroke-opacity:1;stroke-miterlimit:10" transform="matrix(.9943 0 0 -.9943 255.40372 13.32742)"/><path d="M.00027 99.87207V13.9138" style="fill:none;stroke-width:.3985;stroke-linecap:butt;stroke-linejoin:miter;stroke:#000;stroke-opacity:1;stroke-miterlimit:10" transform="matrix(.9943 0 0 -.9943 54.37473 126.06892)"/><path d="M-2.07305 2.3928C-1.69197.95494-.85125.2792.00126.00028c-.8525-.27893-1.69323-.95858-2.0743-2.39253" style="fill:none;stroke-width:.3985;stroke-linecap:round;stroke-linejoin:round;stroke:#000;stroke-opacity:1;stroke-miterlimit:10" transform="matrix(0 .9943 .9943 0 54.37473 112.43234)"/><path d="M113.3882 99.87207V13.9138" style="fill:none;stroke-width:.3985;stroke-linecap:butt;stroke-linejoin:miter;stroke:#000;stroke-opacity:1;stroke-miterlimit:10" transform="matrix(.9943 0 0 -.9943 54.37473 126.06892)"/><path d="M-2.07305 2.38957C-1.69197.95562-.85125.2799.00126.00097c-.8525-.27893-1.69323-.95858-2.0743-2.39253" style="fill:none;stroke-width:.3985;stroke-linecap:round;stroke-linejoin:round;stroke:#000;stroke-opacity:1;stroke-miterlimit:10" transform="matrix(0 .9943 .9943 0 167.11622 112.43234)"/><path d="M226.77615 99.58135V14.2045" style="fill:none;stroke-width:.3985;stroke-linecap:butt;stroke-linejoin:miter;stroke:#000;stroke-opacity:1;stroke-miterlimit:10" transform="matrix(.9943 0 0 -.9943 54.37473 126.06892)"/><path d="M-2.07094 2.39027C-1.69379.95632-.84914.2806-.00055.00167c-.84859-.27895-1.69325-.9586-2.07039-2.39255" style="fill:none;stroke-width:.3985;stroke-linecap:round;stroke-linejoin:round;stroke:#000;stroke-opacity:1;stroke-miterlimit:10" transform="matrix(0 .9943 .9943 0 279.85772 112.14508)"/></svg>