<svg xmlns="http://www.w3.org/2000/svg" xmlns:xlink="http://www.w3.org/1999/xlink" width="283.863pt" height="150.295pt" version="1.2" viewBox="0 0 283.863 150.295"><defs><clipPath id="a"><path d="M.59375 126H227v1H.59375Zm0 0"/></clipPath><clipPath id="c"><path d="M.59375 8H63v125H.59375Zm0 0"/></clipPath><clipPath id="e"><path d="M220 7h63.13281v126H220Zm0 0"/></clipPath><clipPath id="f"><path d="M57 13h226.13281v1H57Zm0 0"/></clipPath><clipPath id="g"><path d="M.59375 8h282.53906v125H.59375Zm0 0"/></clipPath><symbol id="b" overflow="visible"><path d="M.59375-.73437c0 .53125.4375.95312 1.1875.95312 1.26563 0 1.98438-1.26562 2.76563-2.51562l.75-1.23438h.03125l.34375 1.46875C6.03125-.57812 6.35938.21875 7.3125.21875c1.375 0 2.09375-1.40625 2.64063-2.53125l-.46875-.26562C9.01563-1.75 8.5-.75 7.98438-.75c-.34375 0-.48438-.42187-.90625-2.07812l-.59375-2.45313c.67187-1.1875 1.625-2.67187 2.15625-2.67187.15625 0 .34375.01562.54687.14062.17188.07813.375.15625.59375.15625.40625 0 .78125-.39062.78125-.89062 0-.57813-.4375-.8125-.95312-.8125-.98438 0-1.8125.89062-2.46875 1.9375l-.8125 1.28125h-.04688l-.75-3.14063-.09375-.07812-3.07812.9375.04687.45312L3.8125-8.0625h.04688c.29687 0 .4375.125.625.92188l.65625 2.70312-.51563.89063C3.82813-2.1875 3.14063-1.20312 2.67188-1.20312c-.17188 0-.375-.07813-.53125-.1875-.17188-.09376-.42188-.28126-.73438-.28126-.46875 0-.8125.48438-.8125.9375m0 0" style="stroke:none"/></symbol><symbol id="d" overflow="visible"><path d="M0 3.48438C0 3.98438.5625 4.5 1.375 4.5c1.57813 0 2.25-1.17187 3.90625-4 .375-.64062 1.5-2.60937 2.65625-4.5C9-5.75 10.17188-7.54687 10.17188-8.3125c0-.65625-.20313-1.04687-.34375-1.04687-.34375 0-.98438.15625-1.45313.46875v.32812c0 .65625-.0625 1.57813-.25 2.23438C7.82813-5.28125 6.73438-3.25 5.51563-1.125h-.0625c-.14063-2.85937-.5-6.78125-.75-8.15625l-.14063-.07812-3.14062.89062.0625.48438 1.25-.04688h.04687c.375 0 .45313.3125.60938 1.26563C3.59375-5.3125 4-1.71875 4-.23437c0 .54687-.01562 1.3125-.4375 2.29687-.32812.76563-.8125 1.32813-1.1875 1.32813-.26562 0-.48437-.20313-.76562-.57813-.21876-.29687-.375-.45312-.65625-.45312C.46875 2.375 0 2.95313 0 3.48438m0 0" style="stroke:none"/></symbol><symbol id="h" overflow="visible"><path d="M1.59375-4.71875h4.57813v4.57813H7.25v-4.57813h4.59375V-5.8125H7.25v-4.57812H6.17188v4.57812H1.59375Zm0 0" style="stroke:none"/></symbol><symbol id="i" overflow="visible"><path d="M1.59375-4.71875h10.25V-5.8125h-10.25Zm0 0" style="stroke:none"/></symbol></defs><g clip-path="url(#a)"><path d="M.00042-.00034h226.37724" style="fill:none;stroke-width:.3985;stroke-linecap:butt;stroke-linejoin:miter;stroke:red;stroke-opacity:1;stroke-miterlimit:10" transform="matrix(.99533 0 0 -.99533 .79255 126.3981)"/></g><path d="M-2.07352 2.38972C-1.69283.95725-.84905.2783-.00134-.00034c-.84771-.27865-1.6915-.9576-2.07218-2.39007" style="fill:none;stroke-width:.3985;stroke-linecap:round;stroke-linejoin:round;stroke:red;stroke-opacity:1;stroke-miterlimit:10" transform="matrix(.99533 0 0 -.99533 226.30993 126.3981)"/><use xlink:href="#b" x="220.82344" y="142.76532" style="fill:red;fill-opacity:1"/><g clip-path="url(#c)"><path d="m.00042-.00034 56.51386 113.03163" style="fill:none;stroke-width:.3985;stroke-linecap:butt;stroke-linejoin:miter;stroke:red;stroke-opacity:1;stroke-miterlimit:10" transform="matrix(.99533 0 0 -.99533 .79255 126.3981)"/></g><path d="M-2.07392 2.39015C-1.6948.9561-.85052.2768-.00098-.00053c-.84779-.27908-1.69383-.9566-2.06947-2.39065" style="fill:none;stroke-width:.3985;stroke-linecap:round;stroke-linejoin:round;stroke:red;stroke-opacity:1;stroke-miterlimit:10" transform="scale(.99525 -.99525)rotate(63.435 39.85333 39.5499)"/><use xlink:href="#d" x="38.88985" y="15.97108" style="fill:red;fill-opacity:1"/><g clip-path="url(#e)"><path d="m226.77404-.00034 56.69439 113.38877" style="fill:none;stroke-width:.3985;stroke-linecap:butt;stroke-linejoin:miter;stroke:#000;stroke-opacity:1;stroke-dasharray:2.98883,2.98883;stroke-miterlimit:10" transform="matrix(.99533 0 0 -.99533 .79255 126.3981)"/></g><g clip-path="url(#f)"><path d="M56.6948 113.38843h226.77363" style="fill:none;stroke-width:.3985;stroke-linecap:butt;stroke-linejoin:miter;stroke:#000;stroke-opacity:1;stroke-dasharray:2.98883,2.98883;stroke-miterlimit:10" transform="matrix(.99533 0 0 -.99533 .79255 126.3981)"/></g><g clip-path="url(#g)"><path d="m.00042-.00034 283.0991 113.23964" style="fill:none;stroke-width:.3985;stroke-linecap:butt;stroke-linejoin:miter;stroke:#00adef;stroke-opacity:1;stroke-miterlimit:10" transform="matrix(.99533 0 0 -.99533 .79255 126.3981)"/></g><path d="M-2.07389 2.38998C-1.69199.95643-.85167.27791.00104.00024-.85093-.28036-1.6927-.95814-2.07167-2.3917" style="fill:none;stroke-width:.3985;stroke-linecap:round;stroke-linejoin:round;stroke:#00adef;stroke-opacity:1;stroke-miterlimit:10" transform="scale(.99529 -.99529)rotate(21.801 177.5591 730.7557)"/><use xlink:href="#b" x="171.6282" y="33.41526" style="fill:#00adef;fill-opacity:1"/><use xlink:href="#h" x="186.16524" y="33.41526" style="fill:#00adef;fill-opacity:1"/><use xlink:href="#d" x="202.32853" y="33.41526" style="fill:#00adef;fill-opacity:1"/><path d="M56.6948 113.38843 226.44439.21943" style="fill:none;stroke-width:.3985;stroke-linecap:butt;stroke-linejoin:miter;stroke:teal;stroke-opacity:1;stroke-miterlimit:10" transform="matrix(.99533 0 0 -.99533 .79255 126.3981)"/><path d="M-2.07375 2.38991C-1.69278.95523-.85135.28034.00096-.0005c-.85123-.27975-1.69375-.95463-2.07148-2.3904" style="fill:none;stroke-width:.3985;stroke-linecap:round;stroke-linejoin:round;stroke:teal;stroke-opacity:1;stroke-miterlimit:10" transform="scale(.99528 -.99528)rotate(-33.69 -95.833 -438.99827)"/><use xlink:href="#b" x="137.77201" y="114.71988" style="fill:teal;fill-opacity:1"/><use xlink:href="#i" x="152.30905" y="114.71988" style="fill:teal;fill-opacity:1"/><use xlink:href="#d" x="168.47234" y="114.71988" style="fill:teal;fill-opacity:1"/></svg>