<svg xmlns="http://www.w3.org/2000/svg" xmlns:xlink="http://www.w3.org/1999/xlink" width="309.118pt" height="311.272pt" version="1.2" viewBox="0 0 309.118 311.272"><defs><symbol id="a" overflow="visible"><path d="M.59375-.73437c0 .53125.4375.95312 1.1875.95312 1.28125 0 2-1.26562 2.76563-2.53125l.76562-1.21875h.03125L5.6875-2.0625C6.04688-.57812 6.375.21875 7.32813.21875c1.375 0 2.09375-1.40625 2.65625-2.54687l-.48438-.25C9.04688-1.75 8.53125-.75 8.01563-.75c-.35938 0-.5-.42187-.92188-2.09375L6.5-5.28125c.67188-1.20312 1.625-2.6875 2.17188-2.6875.15625 0 .32812.01563.53125.14063.17187.07812.375.15625.59375.15625.42187 0 .79687-.39063.79687-.89063 0-.57812-.4375-.8125-.95312-.8125-1 0-1.82813.89063-2.48438 1.9375l-.8125 1.28125h-.04687l-.75-3.14062-.09375-.07813-3.09375.92188.04687.46875 1.40625-.10938h.0625c.29688 0 .4375.14063.60938.9375l.65625 2.70313-.51563.89062c-.79687 1.375-1.48437 2.34375-1.9375 2.34375-.1875 0-.375-.07812-.54687-.17187-.17188-.09376-.40625-.28126-.73438-.28126-.46875 0-.8125.48438-.8125.9375m0 0" style="stroke:none"/></symbol><symbol id="c" overflow="visible"><path d="M0 3.5c0 .5.5625 1.01563 1.375 1.01563 1.59375 0 2.26563-1.17188 3.90625-4.01563.39063-.64062 1.51563-2.60937 2.67188-4.51562 1.0625-1.75 2.25-3.5625 2.25-4.3125 0-.65625-.20313-1.04688-.34375-1.04688-.35938 0-1 .15625-1.46875.46875v.3125c0 .65625-.0625 1.59375-.23438 2.25-.3125 1.0625-1.40625 3.07813-2.625 5.20313h-.0625C5.32813-4 4.96875-7.9375 4.70313-9.29687l-.125-.07813-3.14063.89063.04688.46875L2.75-8.04687h.03125c.375 0 .45313.3125.625 1.26562.1875 1.45313.60938 5.04688.60938 6.54688 0 .54687-.01563 1.3125-.4375 2.29687-.34375.78125-.8125 1.34375-1.1875 1.34375-.28125 0-.5-.20312-.78125-.57812-.21876-.29688-.375-.46875-.65625-.46875C.48438 2.39063 0 2.96875 0 3.5m0 0" style="stroke:none"/></symbol><clipPath id="b"><path d="M141 27h2v283.46484h-2Zm0 0"/></clipPath></defs><path d="M-141.73565.00155h283.07101" style="fill:none;stroke-width:.3985;stroke-linecap:butt;stroke-linejoin:miter;stroke:#000;stroke-opacity:1;stroke-miterlimit:10" transform="matrix(.99716 0 0 -.99716 141.88317 168.93904)"/><path d="M-2.07192 2.39116C-1.69194.95739-.8497.27968.00038.00155-.8497-.2805-1.69194-.95822-2.07192-2.39198" style="fill:none;stroke-width:.3985;stroke-linecap:round;stroke-linejoin:round;stroke:#000;stroke-opacity:1;stroke-miterlimit:10" transform="matrix(.99716 0 0 -.99716 283.01525 168.93904)"/><use xlink:href="#a" x="290.23189" y="173.51798" style="fill:#000;fill-opacity:1"/><g clip-path="url(#b)"><path d="M-.00036-141.73374v283.071" style="fill:none;stroke-width:.3985;stroke-linecap:butt;stroke-linejoin:miter;stroke:#000;stroke-opacity:1;stroke-miterlimit:10" transform="matrix(.99716 0 0 -.99716 141.88317 168.93904)"/></g><path d="M-2.07394 2.38997C-1.69395.9562-.8517.27849-.00164.00036-.8517-.27778-1.69395-.9555-2.07394-2.38925" style="fill:none;stroke-width:.3985;stroke-linecap:round;stroke-linejoin:round;stroke:#000;stroke-opacity:1;stroke-miterlimit:10" transform="matrix(0 -.99716 -.99716 0 141.88317 27.80696)"/><use xlink:href="#c" x="136.21035" y="16.08019" style="fill:#000;fill-opacity:1"/><path d="m-141.89234-113.58334 283.78397 227.16586m-283.78397 0 283.78397-227.16586" style="fill:none;stroke-width:.79701;stroke-linecap:butt;stroke-linejoin:miter;stroke:teal;stroke-opacity:1;stroke-miterlimit:10" transform="matrix(.99716 0 0 -.99716 141.88317 168.93904)"/></svg>