<svg xmlns="http://www.w3.org/2000/svg" xmlns:xlink="http://www.w3.org/1999/xlink" width="308.761pt" height="311.272pt" version="1.2" viewBox="0 0 308.761 311.272"><defs><clipPath id="a"><path d="M.24219 168H284v2H.24219Zm0 0"/></clipPath><clipPath id="c"><path d="M141 27h2v283.54688h-2Zm0 0"/></clipPath><symbol id="b" overflow="visible"><path d="M.59375-.73437c0 .53125.4375.95312 1.1875.95312 1.28125 0 2-1.26562 2.76563-2.53125l.76562-1.21875h.03125L5.6875-2.0625C6.04688-.57812 6.375.21875 7.32813.21875c1.375 0 2.09375-1.40625 2.65625-2.54687l-.48438-.25C9.04688-1.75 8.53125-.75 8.01563-.75c-.35938 0-.5-.42187-.92188-2.09375L6.5-5.28125c.67188-1.20312 1.625-2.6875 2.17188-2.6875.15625 0 .32812.01563.53125.14063.17187.07812.375.15625.59375.15625.42187 0 .79687-.39063.79687-.89063 0-.57812-.4375-.8125-.95312-.8125-1 0-1.82813.89063-2.48438 1.9375l-.8125 1.28125h-.04687l-.75-3.14062-.09375-.07813-3.09375.92188.04687.46875 1.40625-.10938h.0625c.29688 0 .4375.14063.60938.9375l.65625 2.70313-.51563.89062c-.79687 1.375-1.48437 2.34375-1.9375 2.34375-.1875 0-.375-.07812-.54687-.17187-.17188-.09376-.40625-.28126-.73438-.28126-.46875 0-.8125.48438-.8125.9375m0 0" style="stroke:none"/></symbol><symbol id="d" overflow="visible"><path d="M0 3.5c0 .5.5625 1.01563 1.375 1.01563 1.59375 0 2.26563-1.17188 3.90625-4.01563.39063-.64062 1.51563-2.60937 2.67188-4.51562 1.0625-1.75 2.25-3.5625 2.25-4.3125 0-.65625-.20313-1.04688-.34375-1.04688-.35938 0-1 .15625-1.46875.46875v.3125c0 .65625-.0625 1.59375-.23438 2.25-.3125 1.0625-1.40625 3.07813-2.625 5.20313h-.0625C5.32813-4 4.96875-7.9375 4.70313-9.29687l-.125-.07813-3.14063.89063.04688.46875L2.75-8.04687h.03125c.375 0 .45313.3125.625 1.26562.1875 1.45313.60938 5.04688.60938 6.54688 0 .54687-.01563 1.3125-.4375 2.29687-.34375.78125-.8125 1.34375-1.1875 1.34375-.28125 0-.5-.20312-.78125-.57812-.21876-.29688-.375-.46875-.65625-.46875C.48438 2.39063 0 2.96875 0 3.5m0 0" style="stroke:none"/></symbol></defs><g clip-path="url(#a)"><path d="M-141.73404.00056h283.07065" style="fill:none;stroke-width:.3985;stroke-linecap:butt;stroke-linejoin:miter;stroke:#000;stroke-opacity:1;stroke-miterlimit:10" transform="matrix(.99767 0 0 -.99767 141.84083 168.94587)"/></g><path d="M-2.07363 2.39286C-1.69383.95591-.8481.27856.00153.00056c-.84964-.278-1.69536-.95535-2.07516-2.3923" style="fill:none;stroke-width:.3985;stroke-linecap:round;stroke-linejoin:round;stroke:#000;stroke-opacity:1;stroke-miterlimit:10" transform="matrix(.99767 0 0 -.99767 283.04535 168.94587)"/><use xlink:href="#b" x="290.26569" y="173.52716" style="fill:#000;fill-opacity:1"/><g clip-path="url(#c)"><path d="M-.00099-141.7325v283.06674" style="fill:none;stroke-width:.3985;stroke-linecap:butt;stroke-linejoin:miter;stroke:#000;stroke-opacity:1;stroke-miterlimit:10" transform="matrix(.99767 0 0 -.99767 141.84083 168.94587)"/></g><path d="M-2.07208 2.38937C-1.69228.95634-.85048.27897-.00084.001c-.84964-.278-1.69145-.95927-2.07124-2.3923" style="fill:none;stroke-width:.3985;stroke-linecap:round;stroke-linejoin:round;stroke:#000;stroke-opacity:1;stroke-miterlimit:10" transform="matrix(0 -.99767 -.99767 0 141.84083 27.74135)"/><use xlink:href="#d" x="136.1661" y="16.00856" style="fill:#000;fill-opacity:1"/><path d="M113.38859.00056c0 31.31134-50.7669 56.69479-113.38958 56.69479S-113.38665 31.3119-113.38665.00056-62.62367-56.69423-.00099-56.69423 113.3886-31.31078 113.3886.00056Zm0 0" style="fill:none;stroke-width:.79701;stroke-linecap:butt;stroke-linejoin:miter;stroke:teal;stroke-opacity:1;stroke-miterlimit:10" transform="matrix(.99767 0 0 -.99767 141.84083 168.94587)"/></svg>