<svg xmlns="http://www.w3.org/2000/svg" xmlns:xlink="http://www.w3.org/1999/xlink" width="308.761pt" height="311.471pt" version="1.2" viewBox="0 0 308.761 311.471"><defs><clipPath id="a"><path d="M.14063 168H284v2H.14063Zm0 0"/></clipPath><clipPath id="c"><path d="M141 27h2v283.9414h-2Zm0 0"/></clipPath><clipPath id="e"><path d="M84 27h2v283.9414h-2Zm0 0"/></clipPath><clipPath id="f"><path d="M198 27h1v283.9414h-1Zm0 0"/></clipPath><symbol id="b" overflow="visible"><path d="M.59375-.73437c0 .53125.4375.95312 1.20313.95312 1.26562 0 1.98437-1.26562 2.76562-2.53125l.75-1.23437h.03125L5.6875-2.0625C6.04688-.57812 6.39063.21875 7.34375.21875c1.375 0 2.07813-1.40625 2.64063-2.54687l-.48438-.25C9.04688-1.75 8.53125-.75 8.01563-.75c-.35938 0-.5-.42187-.92188-2.09375L6.5-5.29687c.6875-1.1875 1.64063-2.67188 2.17188-2.67188.15625 0 .34375.01563.53125.125.1875.09375.39062.17188.60937.17188.40625 0 .79688-.40625.79688-.90625 0-.57813-.4375-.8125-.96875-.8125-.98438 0-1.82813.89062-2.48438 1.95312l-.8125 1.26563H6.3125L5.54688-9.3125l-.09375-.07812-3.09375.9375L2.40625-8l1.40625-.09375h.0625c.29688 0 .4375.14063.625.9375l.65625 2.70313-.51562.89062c-.79688 1.375-1.5 2.34375-1.95313 2.34375-.1875 0-.375-.07812-.54687-.17187-.17188-.09376-.40625-.28126-.73438-.28126-.46875 0-.8125.48438-.8125.9375m0 0" style="stroke:none"/></symbol><symbol id="d" overflow="visible"><path d="M0 3.5c0 .5.5625 1.01563 1.375 1.01563 1.59375 0 2.26563-1.17188 3.92188-4.01563.375-.64062 1.5-2.60937 2.65625-4.51562 1.07812-1.75 2.25-3.5625 2.25-4.3125 0-.65625-.20313-1.0625-.34375-1.0625-.35938 0-.98438.15625-1.46875.48437v.3125c0 .65625-.0625 1.59375-.23438 2.25-.29687 1.04688-1.39062 3.07813-2.625 5.20313h-.0625c-.14062-2.85938-.5-6.79688-.75-8.17188l-.14062-.07812L1.4375-8.5l.04688.48438L2.75-8.0625h.03125c.375 0 .45313.32813.625 1.28125.1875 1.45313.60938 5.04688.60938 6.54688 0 .54687-.01563 1.3125-.4375 2.29687-.34375.78125-.8125 1.34375-1.1875 1.34375-.28125 0-.5-.20312-.78125-.57812-.21876-.29688-.375-.46875-.65625-.46875C.48438 2.39063 0 2.96875 0 3.5m0 0" style="stroke:none"/></symbol></defs><g clip-path="url(#a)"><path d="M-141.73328-.0018h283.0698" style="fill:none;stroke-width:.3985;stroke-linecap:butt;stroke-linejoin:miter;stroke:#000;stroke-opacity:1;stroke-miterlimit:10" transform="matrix(.9983 0 0 -.9983 141.83281 169.05288)"/></g><path d="M-2.07253 2.39288C-1.69298.95685-.8517.27992.0013-.00181c-.853-.27781-1.69428-.95474-2.07383-2.39077" style="fill:none;stroke-width:.3985;stroke-linecap:round;stroke-linejoin:round;stroke:#000;stroke-opacity:1;stroke-miterlimit:10" transform="matrix(.9983 0 0 -.9983 283.1276 169.05288)"/><use xlink:href="#b" x="290.35257" y="173.63809" style="fill:#000;fill-opacity:1"/><g clip-path="url(#c)"><path d="M-.00078-141.7343v283.06979" style="fill:none;stroke-width:.3985;stroke-linecap:butt;stroke-linejoin:miter;stroke:#000;stroke-opacity:1;stroke-miterlimit:10" transform="matrix(.9983 0 0 -.9983 141.83281 169.05288)"/></g><path d="M-2.07355 2.39155C-1.694.95553-.84882.2786.00027.00078-.84883-.27703-1.694-.95788-2.07355-2.38999" style="fill:none;stroke-width:.3985;stroke-linecap:round;stroke-linejoin:round;stroke:#000;stroke-opacity:1;stroke-miterlimit:10" transform="matrix(0 -.9983 -.9983 0 141.83281 27.75809)"/><use xlink:href="#d" x="136.15446" y="16.01879" style="fill:#000;fill-opacity:1"/><g clip-path="url(#e)"><path d="M-56.69456-141.7343v283.4689" style="fill:none;stroke-width:.79701;stroke-linecap:butt;stroke-linejoin:miter;stroke:teal;stroke-opacity:1;stroke-miterlimit:10" transform="matrix(.9983 0 0 -.9983 141.83281 169.05288)"/></g><g clip-path="url(#f)"><path d="M56.693-141.7343v283.4689" style="fill:none;stroke-width:.79701;stroke-linecap:butt;stroke-linejoin:miter;stroke:teal;stroke-opacity:1;stroke-miterlimit:10" transform="matrix(.9983 0 0 -.9983 141.83281 169.05288)"/></g></svg>