<svg xmlns="http://www.w3.org/2000/svg" xmlns:xlink="http://www.w3.org/1999/xlink" width="331.738pt" height="345.74pt" version="1.2" viewBox="0 0 331.738 345.74"><defs><symbol id="a" overflow="visible"><path d="M1.6875-5.28125c0 2.15625 1.57813 3.73438 3.75 3.73438 2.09375 0 3.65625-1.57813 3.65625-3.73438 0-2.07812-1.5625-3.65625-3.65625-3.65625-2.17187 0-3.75 1.57813-3.75 3.65625m0 0" style="stroke:none"/></symbol></defs><use xlink:href="#a" x="314.06896" y="177.20957" style="fill:#000;fill-opacity:1"/><use xlink:href="#a" x="196.6407" y="15.58122" style="fill:#000;fill-opacity:1"/><use xlink:href="#a" x="6.63576" y="77.31946" style="fill:#000;fill-opacity:1"/><use xlink:href="#a" x="6.63576" y="277.10068" style="fill:#000;fill-opacity:1"/><use xlink:href="#a" x="196.6407" y="338.83792" style="fill:#000;fill-opacity:1"/><path d="M170.08133.00182 52.5589 161.75838l-190.15788-61.78704V-99.9716L52.5589-161.75864 170.08133.00182" style="fill-rule:nonzero;fill:#66cef5;fill-opacity:.2;stroke-width:.3985;stroke-linecap:butt;stroke-linejoin:miter;stroke:#000;stroke-opacity:1;stroke-miterlimit:10" transform="matrix(.99921 0 0 -.99921 149.50992 172.7401)"/><use xlink:href="#a" x="255.35433" y="96.3954" style="fill:#000;fill-opacity:1"/><use xlink:href="#a" x="101.63873" y="46.44984" style="fill:#000;fill-opacity:1"/><use xlink:href="#a" x="6.63576" y="177.20957" style="fill:#000;fill-opacity:1"/><use xlink:href="#a" x="101.63873" y="307.9693" style="fill:#000;fill-opacity:1"/><use xlink:href="#a" x="255.35433" y="258.02375" style="fill:#000;fill-opacity:1"/><path d="M111.32012 80.87815-42.52004 130.8629-137.59898.00182l95.07894-130.86499L111.32012-80.8784V80.87815" style="fill-rule:nonzero;fill:#66cef5;fill-opacity:.2;stroke-width:.3985;stroke-linecap:butt;stroke-linejoin:miter;stroke:#000;stroke-opacity:1;stroke-miterlimit:10" transform="matrix(.99921 0 0 -.99921 149.50992 172.7401)"/><use xlink:href="#a" x="178.49703" y="71.42312" style="fill:#000;fill-opacity:1"/><use xlink:href="#a" x="54.13724" y="111.83021" style="fill:#000;fill-opacity:1"/><use xlink:href="#a" x="54.13724" y="242.58894" style="fill:#000;fill-opacity:1"/><use xlink:href="#a" x="178.49703" y="282.99602" style="fill:#000;fill-opacity:1"/><use xlink:href="#a" x="255.35433" y="177.20957" style="fill:#000;fill-opacity:1"/><path d="m34.40004 105.87053-124.4615-40.43817V-65.43263l124.4615-40.43816L111.32012.00182l-76.92008 105.8687" style="fill-rule:nonzero;fill:#66cef5;fill-opacity:.2;stroke-width:.3985;stroke-linecap:butt;stroke-linejoin:miter;stroke:#000;stroke-opacity:1;stroke-miterlimit:10" transform="matrix(.99921 0 0 -.99921 149.50992 172.7401)"/><use xlink:href="#a" x="116.31713" y="91.62617" style="fill:#000;fill-opacity:1"/><use xlink:href="#a" x="54.13724" y="177.20957" style="fill:#000;fill-opacity:1"/><use xlink:href="#a" x="116.31713" y="262.79298" style="fill:#000;fill-opacity:1"/><use xlink:href="#a" x="216.92568" y="230.1028" style="fill:#000;fill-opacity:1"/><use xlink:href="#a" x="216.92568" y="124.31635" style="fill:#000;fill-opacity:1"/><path d="M-27.82876 85.65145-90.06146.00181l62.2327-85.65353L72.86008-52.93448v105.8687L-27.82876 85.65144" style="fill-rule:nonzero;fill:#66cef5;fill-opacity:.2;stroke-width:.3985;stroke-linecap:butt;stroke-linejoin:miter;stroke:#000;stroke-opacity:1;stroke-miterlimit:10" transform="matrix(.99921 0 0 -.99921 149.50992 172.7401)"/><use xlink:href="#a" x="85.22669" y="134.41837" style="fill:#000;fill-opacity:1"/><use xlink:href="#a" x="85.22669" y="220.00078" style="fill:#000;fill-opacity:1"/><use xlink:href="#a" x="166.62141" y="246.44789" style="fill:#000;fill-opacity:1"/><use xlink:href="#a" x="216.92568" y="177.20957" style="fill:#000;fill-opacity:1"/><use xlink:href="#a" x="166.62141" y="107.97126" style="fill:#000;fill-opacity:1"/><path d="M-58.94315 42.82468v-85.64962l81.45881-26.47011L72.86008.00182 22.51566 69.2948l-81.45881-26.47011" style="fill-rule:nonzero;fill:#66cef5;fill-opacity:.2;stroke-width:.3985;stroke-linecap:butt;stroke-linejoin:miter;stroke:#000;stroke-opacity:1;stroke-miterlimit:10" transform="matrix(.99921 0 0 -.99921 149.50992 172.7401)"/><use xlink:href="#a" x="85.22669" y="177.20957" style="fill:#000;fill-opacity:1"/><use xlink:href="#a" x="125.92455" y="233.22433" style="fill:#000;fill-opacity:1"/><use xlink:href="#a" x="191.77354" y="211.82923" style="fill:#000;fill-opacity:1"/><use xlink:href="#a" x="191.77354" y="142.59091" style="fill:#000;fill-opacity:1"/><use xlink:href="#a" x="125.92455" y="121.19481" style="fill:#000;fill-opacity:1"/><path d="m-58.94315.00182 40.72745-56.05986 65.90357 21.41143v69.29296L-18.2157 56.06169-58.94315.00182" style="fill-rule:nonzero;fill:#66cef5;fill-opacity:.2;stroke-width:.3985;stroke-linecap:butt;stroke-linejoin:miter;stroke:#000;stroke-opacity:1;stroke-miterlimit:10" transform="matrix(.99921 0 0 -.99921 149.50992 172.7401)"/><use xlink:href="#a" x="105.57562" y="205.21745" style="fill:#000;fill-opacity:1"/><use xlink:href="#a" x="158.84855" y="222.52678" style="fill:#000;fill-opacity:1"/><use xlink:href="#a" x="191.77354" y="177.20957" style="fill:#000;fill-opacity:1"/><use xlink:href="#a" x="158.84855" y="131.89236" style="fill:#000;fill-opacity:1"/><use xlink:href="#a" x="105.57562" y="149.20169" style="fill:#000;fill-opacity:1"/><path d="m-38.57943-28.02811 53.31551-17.32617L47.68787.00182l-32.95179 45.3522-53.3155-17.32226v-56.05987" style="fill-rule:nonzero;fill:#66cef5;fill-opacity:.2;stroke-width:.3985;stroke-linecap:butt;stroke-linejoin:miter;stroke:#000;stroke-opacity:1;stroke-miterlimit:10" transform="matrix(.99921 0 0 -.99921 149.50992 172.7401)"/><use xlink:href="#a" x="132.21258" y="213.87162" style="fill:#000;fill-opacity:1"/><use xlink:href="#a" x="175.31154" y="199.86768" style="fill:#000;fill-opacity:1"/><use xlink:href="#a" x="175.31154" y="154.55147" style="fill:#000;fill-opacity:1"/><use xlink:href="#a" x="132.21258" y="140.54753" style="fill:#000;fill-opacity:1"/><use xlink:href="#a" x="105.57562" y="177.20957" style="fill:#000;fill-opacity:1"/><path d="m-11.92167-36.6912 43.1317 14.01497v45.3522l-43.1317 14.01496L-38.57943.00183l26.65776-36.69303" style="fill-rule:nonzero;fill:#66cef5;fill-opacity:.2;stroke-width:.3985;stroke-linecap:butt;stroke-linejoin:miter;stroke:#000;stroke-opacity:1;stroke-miterlimit:10" transform="matrix(.99921 0 0 -.99921 149.50992 172.7401)"/><use xlink:href="#a" x="153.76156" y="206.87015" style="fill:#000;fill-opacity:1"/><use xlink:href="#a" x="175.31154" y="177.20957" style="fill:#000;fill-opacity:1"/><use xlink:href="#a" x="153.76156" y="147.549" style="fill:#000;fill-opacity:1"/><use xlink:href="#a" x="118.8941" y="158.87805" style="fill:#000;fill-opacity:1"/><use xlink:href="#a" x="118.8941" y="195.5411" style="fill:#000;fill-opacity:1"/><path d="M9.64613-29.68567 31.21003.00183 9.64612 29.6854-25.2525 18.34442v-36.6891l34.89862-11.341" style="fill-rule:nonzero;fill:#66cef5;fill-opacity:.2;stroke-width:.3985;stroke-linecap:butt;stroke-linejoin:miter;stroke:#000;stroke-opacity:1;stroke-miterlimit:10" transform="matrix(.99921 0 0 -.99921 149.50992 172.7401)"/><use xlink:href="#a" x="164.53605" y="192.03986" style="fill:#000;fill-opacity:1"/><use xlink:href="#a" x="164.53605" y="162.37929" style="fill:#000;fill-opacity:1"/><use xlink:href="#a" x="136.32733" y="153.21352" style="fill:#000;fill-opacity:1"/><use xlink:href="#a" x="118.8941" y="177.20957" style="fill:#000;fill-opacity:1"/><use xlink:href="#a" x="136.32733" y="201.20562" style="fill:#000;fill-opacity:1"/><path d="M20.42808-14.84192v29.68358l-28.22931 9.1752L-25.2525.00183l17.45127-24.01504 28.2293 9.1713" style="fill-rule:nonzero;fill:#66cef5;fill-opacity:.2;stroke-width:.3985;stroke-linecap:butt;stroke-linejoin:miter;stroke:#000;stroke-opacity:1;stroke-miterlimit:10" transform="matrix(.99921 0 0 -.99921 149.50992 172.7401)"/><use xlink:href="#a" x="164.53605" y="177.20957" style="fill:#000;fill-opacity:1"/><use xlink:href="#a" x="150.43219" y="157.7969" style="fill:#000;fill-opacity:1"/><use xlink:href="#a" x="127.61122" y="165.21205" style="fill:#000;fill-opacity:1"/><use xlink:href="#a" x="127.61122" y="189.2071" style="fill:#000;fill-opacity:1"/><use xlink:href="#a" x="150.43219" y="196.62224" style="fill:#000;fill-opacity:1"/><path d="M20.42808.00182 6.31147 19.42731l-22.83834-7.41992v-24.01504l22.83834-7.41992L20.42807.00183" style="fill-rule:nonzero;fill:#66cef5;fill-opacity:.2;stroke-width:.3985;stroke-linecap:butt;stroke-linejoin:miter;stroke:#000;stroke-opacity:1;stroke-miterlimit:10" transform="matrix(.99921 0 0 -.99921 149.50992 172.7401)"/></svg>